<svg width="240" height="265" viewBox="0 0 240 265" fill="none" xmlns="http://www.w3.org/2000/svg">
<circle cx="7.5" cy="7.5" r="7.5" fill="#EDEDED"/>
<circle cx="32.5" cy="7.5" r="7.5" fill="#EDEDED"/>
<circle cx="57.5" cy="7.5" r="7.5" fill="#EDEDED"/>
<circle cx="82.5" cy="7.5" r="7.5" fill="#EDEDED"/>
<circle cx="107.5" cy="7.5" r="7.5" fill="#EDEDED"/>
<circle cx="132.5" cy="7.5" r="7.5" fill="#EDEDED"/>
<circle cx="157.5" cy="7.5" r="7.5" fill="#EDEDED"/>
<circle cx="182.5" cy="7.5" r="7.5" fill="#EDEDED"/>
<circle cx="207.5" cy="7.5" r="7.5" fill="#EDEDED"/>
<circle cx="232.5" cy="7.5" r="7.5" fill="#EDEDED"/>
<circle cx="7.5" cy="32.5" r="7.5" fill="#EDEDED"/>
<circle cx="32.5" cy="32.5" r="7.5" fill="#EDEDED"/>
<circle cx="57.5" cy="32.5" r="7.5" fill="#EDEDED"/>
<circle cx="82.5" cy="32.5" r="7.5" fill="#EDEDED"/>
<circle cx="107.5" cy="32.5" r="7.5" fill="#EDEDED"/>
<circle cx="132.5" cy="32.5" r="7.5" fill="#EDEDED"/>
<circle cx="157.5" cy="32.5" r="7.5" fill="#EDEDED"/>
<circle cx="182.5" cy="32.5" r="7.5" fill="#EDEDED"/>
<circle cx="207.5" cy="32.5" r="7.5" fill="#EDEDED"/>
<circle cx="232.5" cy="32.5" r="7.5" fill="#EDEDED"/>
<circle cx="7.5" cy="57.5" r="7.5" fill="#EDEDED"/>
<circle cx="32.5" cy="57.5" r="7.5" fill="#EDEDED"/>
<circle cx="57.5" cy="57.5" r="7.5" fill="#EDEDED"/>
<circle cx="82.5" cy="57.5" r="7.5" fill="#EDEDED"/>
<circle cx="107.5" cy="57.5" r="7.5" fill="#EDEDED"/>
<circle cx="132.5" cy="57.5" r="7.5" fill="#EDEDED"/>
<circle cx="157.5" cy="57.5" r="7.5" fill="#EDEDED"/>
<circle cx="182.5" cy="57.5" r="7.5" fill="#EDEDED"/>
<circle cx="207.5" cy="57.5" r="7.5" fill="#EDEDED"/>
<circle cx="232.5" cy="57.5" r="7.5" fill="#EDEDED"/>
<circle cx="7.5" cy="82.5" r="7.5" fill="#EDEDED"/>
<circle cx="32.5" cy="82.5" r="7.5" fill="#EDEDED"/>
<circle cx="57.5" cy="82.5" r="7.5" fill="#EDEDED"/>
<circle cx="82.5" cy="82.5" r="7.5" fill="#EDEDED"/>
<circle cx="107.5" cy="82.5" r="7.5" fill="#EDEDED"/>
<circle cx="132.5" cy="82.5" r="7.5" fill="#EDEDED"/>
<circle cx="157.5" cy="82.5" r="7.5" fill="#EDEDED"/>
<circle cx="182.5" cy="82.5" r="7.5" fill="#EDEDED"/>
<circle cx="207.5" cy="82.5" r="7.5" fill="#EDEDED"/>
<circle cx="232.5" cy="82.5" r="7.5" fill="#EDEDED"/>
<circle cx="7.5" cy="107.5" r="7.5" fill="#EDEDED"/>
<circle cx="32.5" cy="107.5" r="7.5" fill="#EDEDED"/>
<circle cx="57.5" cy="107.5" r="7.5" fill="#EDEDED"/>
<circle cx="82.5" cy="107.5" r="7.5" fill="#EDEDED"/>
<circle cx="107.5" cy="107.5" r="7.5" fill="#EDEDED"/>
<circle cx="132.5" cy="107.5" r="7.5" fill="#EDEDED"/>
<circle cx="157.5" cy="107.5" r="7.5" fill="#EDEDED"/>
<circle cx="182.5" cy="107.5" r="7.5" fill="#EDEDED"/>
<circle cx="207.5" cy="107.5" r="7.5" fill="#EDEDED"/>
<circle cx="232.5" cy="107.5" r="7.5" fill="#EDEDED"/>
<circle cx="7.5" cy="132.5" r="7.5" fill="#EDEDED"/>
<circle cx="32.5" cy="132.5" r="7.5" fill="#EDEDED"/>
<circle cx="57.5" cy="132.5" r="7.5" fill="#EDEDED"/>
<circle cx="82.5" cy="132.5" r="7.5" fill="#EDEDED"/>
<circle cx="107.5" cy="132.5" r="7.5" fill="#EDEDED"/>
<circle cx="132.5" cy="132.5" r="7.5" fill="#EDEDED"/>
<circle cx="157.5" cy="132.5" r="7.5" fill="#EDEDED"/>
<circle cx="182.5" cy="132.5" r="7.5" fill="#EDEDED"/>
<circle cx="207.5" cy="132.5" r="7.5" fill="#EDEDED"/>
<circle cx="232.5" cy="132.5" r="7.5" fill="#EDEDED"/>
<circle cx="7.5" cy="157.5" r="7.5" fill="#EDEDED"/>
<circle cx="32.5" cy="157.5" r="7.5" fill="#EDEDED"/>
<circle cx="57.5" cy="157.5" r="7.5" fill="#EDEDED"/>
<circle cx="82.5" cy="157.5" r="7.5" fill="#EDEDED"/>
<circle cx="107.5" cy="157.5" r="7.5" fill="#EDEDED"/>
<circle cx="132.5" cy="157.5" r="7.5" fill="#EDEDED"/>
<circle cx="157.5" cy="157.5" r="7.5" fill="#EDEDED"/>
<circle cx="182.5" cy="157.5" r="7.5" fill="#EDEDED"/>
<circle cx="207.5" cy="157.5" r="7.5" fill="#EDEDED"/>
<circle cx="232.5" cy="157.5" r="7.5" fill="#EDEDED"/>
<circle cx="7.5" cy="182.5" r="7.5" fill="#EDEDED"/>
<circle cx="32.5" cy="182.5" r="7.5" fill="#EDEDED"/>
<circle cx="57.5" cy="182.5" r="7.5" fill="#EDEDED"/>
<circle cx="82.5" cy="182.5" r="7.5" fill="#EDEDED"/>
<circle cx="107.5" cy="182.5" r="7.5" fill="#EDEDED"/>
<circle cx="132.5" cy="182.5" r="7.5" fill="#EDEDED"/>
<circle cx="157.5" cy="182.5" r="7.5" fill="#EDEDED"/>
<circle cx="182.5" cy="182.5" r="7.5" fill="#EDEDED"/>
<circle cx="207.5" cy="182.5" r="7.5" fill="#EDEDED"/>
<circle cx="232.5" cy="182.5" r="7.5" fill="#EDEDED"/>
<circle cx="7.5" cy="207.5" r="7.5" fill="#EDEDED"/>
<circle cx="32.5" cy="207.5" r="7.5" fill="#EDEDED"/>
<circle cx="57.5" cy="207.5" r="7.5" fill="#EDEDED"/>
<circle cx="82.5" cy="207.5" r="7.5" fill="#EDEDED"/>
<circle cx="107.5" cy="207.5" r="7.5" fill="#EDEDED"/>
<circle cx="132.5" cy="207.5" r="7.5" fill="#EDEDED"/>
<circle cx="157.5" cy="207.5" r="7.5" fill="#EDEDED"/>
<circle cx="182.5" cy="207.5" r="7.5" fill="#EDEDED"/>
<circle cx="207.5" cy="207.5" r="7.5" fill="#EDEDED"/>
<circle cx="232.5" cy="207.5" r="7.5" fill="#EDEDED"/>
<circle cx="7.5" cy="232.5" r="7.5" fill="#EDEDED"/>
<circle cx="32.5" cy="232.5" r="7.5" fill="#EDEDED"/>
<circle cx="57.5" cy="232.5" r="7.5" fill="#EDEDED"/>
<circle cx="82.5" cy="232.5" r="7.5" fill="#EDEDED"/>
<circle cx="107.5" cy="232.5" r="7.5" fill="#EDEDED"/>
<circle cx="132.5" cy="232.5" r="7.5" fill="#EDEDED"/>
<circle cx="157.5" cy="232.5" r="7.5" fill="#EDEDED"/>
<circle cx="182.5" cy="232.5" r="7.5" fill="#EDEDED"/>
<circle cx="207.5" cy="232.5" r="7.5" fill="#EDEDED"/>
<circle cx="232.5" cy="232.5" r="7.5" fill="#EDEDED"/>
<circle cx="7.5" cy="257.5" r="7.5" fill="#EDEDED"/>
<circle cx="32.5" cy="257.5" r="7.5" fill="#EDEDED"/>
<circle cx="57.5" cy="257.5" r="7.5" fill="#EDEDED"/>
<circle cx="82.5" cy="257.5" r="7.5" fill="#EDEDED"/>
<circle cx="107.5" cy="257.5" r="7.5" fill="#EDEDED"/>
<circle cx="132.5" cy="257.5" r="7.5" fill="#EDEDED"/>
<circle cx="157.5" cy="257.5" r="7.5" fill="#EDEDED"/>
<circle cx="182.5" cy="257.5" r="7.5" fill="#EDEDED"/>
<circle cx="207.5" cy="257.5" r="7.5" fill="#EDEDED"/>
<circle cx="232.5" cy="257.5" r="7.5" fill="#EDEDED"/>
</svg>
