<svg width="42" height="50" viewBox="0 0 42 50" fill="none" xmlns="http://www.w3.org/2000/svg">
<path d="M30.723 46.5782H6.93982C5.18769 46.5782 3.50731 45.8822 2.26836 44.6432C1.02941 43.4043 0.333374 41.7239 0.333374 39.9717V6.93948C0.333374 5.18734 1.02941 3.50697 2.26836 2.26802C3.50731 1.02907 5.18769 0.333032 6.93982 0.333032H23.4824C24.5307 0.330457 25.5691 0.53583 26.5376 0.937265C27.506 1.3387 28.3852 1.92822 29.1243 2.67172L34.9908 8.53824C35.7375 9.28045 36.3288 10.1639 36.7304 11.1371C37.1319 12.1104 37.3356 13.1538 37.3295 14.2066V39.9717C37.3295 41.7239 36.6335 43.4043 35.3945 44.6432C34.1556 45.8822 32.4752 46.5782 30.723 46.5782Z" fill="#E1EAF6"/>
<path d="M30.723 49.2208H6.93982C5.18769 49.2208 3.50731 48.5247 2.26836 47.2858C1.02941 46.0468 0.333374 44.3665 0.333374 42.6143V9.58206C0.333374 7.82992 1.02941 6.14954 2.26836 4.91059C3.50731 3.67164 5.18769 2.97561 6.93982 2.97561H23.4824C24.5307 2.97303 25.5691 3.17841 26.5376 3.57984C27.506 3.98128 28.3852 4.5708 29.1243 5.31429L34.9908 11.1808C35.7375 11.923 36.3288 12.8065 36.7304 13.7797C37.1319 14.7529 37.3356 15.7964 37.3295 16.8492V42.6143C37.3295 44.3665 36.6335 46.0468 35.3945 47.2858C34.1556 48.5247 32.4752 49.2208 30.723 49.2208Z" fill="url(#paint0_linear)"/>
<path d="M6.82083 37.8446C6.64651 37.6733 6.51046 37.4669 6.42164 37.2392C6.33283 37.0114 6.29325 36.7675 6.30553 36.5233C6.41314 35.8086 6.66407 35.123 7.04324 34.5077C7.42242 33.8924 7.92204 33.36 8.51208 32.9426C10.123 31.5862 11.9616 30.526 13.9426 29.8112C14.5546 27.8616 14.9099 25.8407 14.9996 23.7993C13.2672 22.2716 11.8722 20.3996 10.9036 18.3027C10.5255 17.2911 10.3157 16.2243 10.2826 15.1449C10.2595 14.4844 10.4195 13.8305 10.7451 13.2554C10.8961 12.9931 11.1109 12.7733 11.3696 12.6162C11.6284 12.4591 11.9225 12.37 12.2249 12.3569C13.8369 12.4626 14.9732 13.9425 15.8849 16.4265C16.4774 18.3967 16.7582 20.4475 16.7173 22.5044C16.7173 22.7026 16.7173 22.9008 16.7173 23.1122C18.5975 24.7962 20.658 26.2674 22.8613 27.4989C24.3015 27.195 25.7021 26.9175 26.9309 26.6401C27.857 26.4153 28.8055 26.2956 29.7584 26.2833C30.6121 26.2465 31.4614 26.4236 32.2292 26.7986C32.5549 26.9501 32.8329 27.1877 33.0332 27.4858C33.2335 27.7839 33.3484 28.1311 33.3655 28.4899C33.2202 30.2208 31.4497 31.1325 29.0449 31.1325C28.3301 31.1288 27.6175 31.0536 26.9176 30.9078C25.4409 30.5585 24.0122 30.0305 22.6631 29.3355C20.2642 29.7977 17.8949 30.4021 15.5678 31.1457L15.3167 31.2382C14.8638 32.7183 14.102 34.0854 13.0816 35.2493C12.0612 36.4132 10.8055 37.3473 9.39735 37.99C8.97752 38.1606 8.52921 38.2502 8.07606 38.2542C7.61439 38.2633 7.16623 38.0982 6.82083 37.7918V37.8446ZM8.14212 36.5233C8.378 36.5164 8.61073 36.4672 8.82919 36.378C10.7383 35.5503 12.2534 34.0163 13.0573 32.097C11.8404 32.6562 10.7065 33.381 9.68803 34.2507C8.90323 34.7982 8.33333 35.6017 8.07606 36.5233H8.14212ZM27.3008 29.1373C27.888 29.2566 28.4854 29.3186 29.0846 29.3223C29.825 29.361 30.5627 29.2062 31.2251 28.8731C31.6611 28.6352 31.6875 28.4502 31.6743 28.437C31.6233 28.3644 31.5552 28.3054 31.4761 28.2653C30.9617 28.0366 30.3993 27.9368 29.8377 27.9746C29.0142 27.9856 28.1944 28.0875 27.3933 28.2785L25.5831 28.6749C26.1463 28.8801 26.7251 29.0391 27.314 29.1505L27.3008 29.1373ZM15.9774 29.1373C17.3779 28.7145 18.8974 28.3313 20.4301 27.9878C19.1109 27.1663 17.8484 26.257 16.6512 25.2659C16.5253 26.5716 16.3001 27.8659 15.9774 29.1373ZM12.2249 14.0878C12.2249 14.0878 12.2249 14.0878 12.1456 14.1671C11.9913 14.4687 11.9227 14.8069 11.9474 15.1449C11.9736 16.0492 12.1522 16.9426 12.476 17.7874C13.043 19.1726 13.8937 20.4238 14.9732 21.4606C14.9327 19.9634 14.6882 18.4787 14.2465 17.0475C13.9838 16.1925 13.5625 15.3946 13.0045 14.6956C12.8188 14.4296 12.5488 14.2341 12.2381 14.1407L12.2249 14.0878Z" fill="#EFF4F9"/>
<path d="M6.82087 36.5233C6.65486 36.3596 6.52365 36.164 6.4351 35.9483C6.34655 35.7326 6.30249 35.5013 6.30557 35.2681C6.41318 34.5534 6.66411 33.8678 7.04329 33.2525C7.42247 32.6372 7.92208 32.1048 8.51213 31.6874C10.1231 30.331 11.9617 29.2708 13.9426 28.556C14.5546 26.6064 14.91 24.5854 14.9997 22.5441C13.2598 20.9972 11.8644 19.102 10.9037 16.9814C10.5255 15.9698 10.3157 14.9031 10.2827 13.8236C10.2595 13.1631 10.4196 12.5092 10.7451 11.9341C10.8962 11.6719 11.111 11.452 11.3697 11.2949C11.6284 11.1379 11.9226 11.0487 12.225 11.0356C13.8369 11.1413 14.9732 12.6212 15.8849 15.1052C16.4774 17.0754 16.7583 19.1262 16.7173 21.1832C16.7173 21.3813 16.7173 21.5795 16.7173 21.7909C18.5976 23.4749 20.6581 24.9461 22.8613 26.1776C24.3015 25.8737 25.7021 25.5963 26.9309 25.3188C27.857 25.094 28.8055 24.9744 29.7585 24.962C30.6122 24.9252 31.4615 25.1024 32.2293 25.4773C32.5549 25.6288 32.833 25.8664 33.0333 26.1645C33.2335 26.4626 33.3485 26.8099 33.3656 27.1686C33.2203 28.8995 31.4497 29.8112 29.045 29.8112C28.3302 29.8075 27.6175 29.7323 26.9177 29.5866C25.4409 29.2372 24.0122 28.7092 22.6631 28.0142C20.2642 28.4764 17.8949 29.0809 15.5678 29.8244L15.3168 29.9169C14.8639 31.397 14.1021 32.7642 13.0817 33.928C12.0613 35.0919 10.8055 36.026 9.39739 36.6687C8.97756 36.8393 8.52925 36.9289 8.0761 36.9329C7.61443 36.9421 7.16627 36.7769 6.82087 36.4705V36.5233ZM8.14216 35.202C8.37805 35.1952 8.61077 35.1459 8.82924 35.0567C10.7384 34.229 12.2534 32.695 13.0574 30.7757C11.8404 31.335 10.7066 32.0597 9.68807 32.9294C8.90327 33.4769 8.33338 34.2804 8.0761 35.202H8.14216ZM27.3009 27.816C27.8881 27.9353 28.4855 27.9973 29.0846 28.001C29.825 28.0397 30.5627 27.8849 31.2251 27.5518C31.6611 27.3139 31.6876 27.129 31.6744 27.1157C31.6234 27.0431 31.5553 26.9841 31.4762 26.944C30.9618 26.7153 30.3994 26.6155 29.8378 26.6533C29.0143 26.6643 28.1945 26.7663 27.3934 26.9572L25.5832 27.3536C26.1463 27.5588 26.7252 27.7178 27.3141 27.8292L27.3009 27.816ZM15.9774 27.816C17.378 27.3932 18.8975 27.01 20.4302 26.6665C19.1109 25.845 17.8484 24.9357 16.6513 23.9446C16.5254 25.2504 16.3001 26.5446 15.9774 27.816ZM12.225 12.7665C12.225 12.7665 12.225 12.7665 12.1457 12.8458C11.9913 13.1474 11.9228 13.4856 11.9475 13.8236C11.9736 14.7279 12.1523 15.6213 12.476 16.4661C13.0431 17.8513 13.8937 19.1025 14.9732 20.1393C14.9327 18.6421 14.6882 17.1574 14.2465 15.7262C13.9839 14.8712 13.5625 14.0733 13.0045 13.3743C12.8189 13.1083 12.5488 12.9128 12.2382 12.8194L12.225 12.7665Z" fill="#042365"/>
<path d="M34.6869 14.2066H27.8558C27.0393 14.2066 26.2563 13.8822 25.6789 13.3048C25.1016 12.7275 24.7772 11.9444 24.7772 11.1279V5.61816C24.7772 5.44295 24.8468 5.27491 24.9707 5.15102C25.0946 5.02712 25.2627 4.95752 25.4379 4.95752C25.6131 4.95752 25.7811 5.02712 25.905 5.15102C26.0289 5.27491 26.0985 5.44295 26.0985 5.61816V11.1279C26.0985 11.594 26.2837 12.041 26.6132 12.3706C26.9428 12.7001 27.3898 12.8853 27.8558 12.8853H34.6869C34.8621 12.8853 35.0301 12.9549 35.154 13.0788C35.2779 13.2027 35.3475 13.3707 35.3475 13.5459C35.3475 13.7211 35.2779 13.8892 35.154 14.0131C35.0301 14.1369 34.8621 14.2066 34.6869 14.2066Z" fill="#A7C1DB"/>
<path d="M38.7697 34.4751H20.1263C18.7325 34.4751 17.6027 35.605 17.6027 36.9988V43.5391C17.6027 44.9329 18.7325 46.0628 20.1263 46.0628H38.7697C40.1635 46.0628 41.2934 44.9329 41.2934 43.5391V36.9988C41.2934 35.605 40.1635 34.4751 38.7697 34.4751Z" fill="#FD0000"/>
<path d="M23.9445 40.9122H22.7949V42.6298C22.81 42.8299 22.7486 43.0282 22.6232 43.1848C22.5686 43.2459 22.5013 43.2942 22.4259 43.3261C22.3505 43.3581 22.269 43.373 22.1871 43.3698C22.1031 43.375 22.019 43.3611 21.9412 43.3291C21.8634 43.297 21.7938 43.2477 21.7379 43.1848C21.6148 43.027 21.5537 42.8296 21.5661 42.6298V38.0053C21.5566 37.903 21.5681 37.7998 21.5999 37.7021C21.6317 37.6044 21.6831 37.5143 21.7511 37.4372C21.9192 37.3033 22.1313 37.2373 22.3457 37.2522H23.9312C24.2919 37.2398 24.6524 37.2799 25.0015 37.3711C25.2429 37.429 25.4657 37.5472 25.6489 37.7147C25.8288 37.874 25.969 38.073 26.0585 38.296C26.1515 38.5452 26.1963 38.8097 26.1906 39.0756C26.21 39.337 26.1688 39.5994 26.0703 39.8423C25.9718 40.0852 25.8185 40.3021 25.6225 40.4761C25.1327 40.8162 24.5378 40.9707 23.9445 40.9122ZM23.6406 38.1242H22.7949V39.9741H23.6273C23.872 39.979 24.1162 39.9524 24.354 39.8948C24.5327 39.8447 24.6903 39.738 24.8033 39.5909C24.9058 39.4294 24.9566 39.2403 24.9486 39.0492C24.9543 38.9308 24.9362 38.8125 24.8954 38.7013C24.8545 38.5901 24.7917 38.4882 24.7108 38.4017C24.3938 38.1978 24.0128 38.1178 23.6406 38.1771V38.1242Z" fill="white"/>
<path d="M28.0009 37.2507H29.5996C29.96 37.2442 30.3197 37.2842 30.6699 37.3696C30.9725 37.4508 31.2527 37.5999 31.4891 37.8056C31.8176 38.1231 32.072 38.5091 32.2341 38.9362C32.3963 39.3633 32.4622 39.8209 32.4272 40.2764C32.4317 40.6091 32.4007 40.9413 32.3347 41.2674C32.276 41.5526 32.1782 41.8282 32.044 42.0866C31.9073 42.3281 31.7334 42.5466 31.5287 42.734C31.3727 42.877 31.1941 42.993 31.0002 43.0776C30.8047 43.1729 30.5949 43.2354 30.3792 43.2626C30.1286 43.2845 29.8766 43.2845 29.626 43.2626H28.0801C27.9022 43.2707 27.7251 43.2344 27.5648 43.1569C27.511 43.1262 27.4642 43.0844 27.4278 43.0343C27.3913 42.9842 27.366 42.9269 27.3534 42.8662C27.3293 42.7085 27.3293 42.5481 27.3534 42.3905V38.0038C27.3428 37.9024 27.3526 37.8 27.3821 37.7024C27.4116 37.6049 27.4602 37.5142 27.5252 37.4356C27.6595 37.3241 27.8264 37.2592 28.0009 37.2507ZM28.4765 38.2284V42.3509H29.4014H29.8903C30.0123 42.3411 30.1324 42.3144 30.247 42.2716C30.3638 42.2311 30.4715 42.1683 30.5642 42.0866C30.792 41.8502 30.9656 41.567 31.0729 41.2566C31.1801 40.9463 31.2184 40.6163 31.1852 40.2896C31.2086 39.8326 31.113 39.3773 30.9077 38.9684C30.7673 38.7022 30.5312 38.4992 30.247 38.4002C29.933 38.3142 29.6081 38.2741 29.2825 38.2813L28.4765 38.2284Z" fill="white"/>
<path d="M37.1311 38.2685H34.6867V39.8276H36.7083C36.8588 39.8168 37.0083 39.8588 37.1311 39.9465C37.1792 39.9895 37.2172 40.0426 37.2424 40.102C37.2675 40.1614 37.2791 40.2256 37.2764 40.2901C37.2772 40.3523 37.2646 40.414 37.2395 40.471C37.2145 40.528 37.1775 40.5789 37.1311 40.6204C37.0083 40.7081 36.8588 40.7501 36.7083 40.7393H34.6867V42.7477C34.6962 42.8469 34.686 42.9471 34.6565 43.0424C34.627 43.1376 34.5789 43.2261 34.5149 43.3026C34.4604 43.3637 34.393 43.412 34.3177 43.444C34.2423 43.4759 34.1607 43.4908 34.0789 43.4876C33.9949 43.4929 33.9108 43.4789 33.833 43.4469C33.7552 43.4148 33.6856 43.3655 33.6297 43.3026C33.5657 43.2261 33.5176 43.1376 33.4881 43.0424C33.4587 42.9471 33.4484 42.8469 33.4579 42.7477V38.0042C33.4522 37.8591 33.4793 37.7146 33.5372 37.5814C33.5604 37.5251 33.5946 37.4739 33.6377 37.4309C33.6807 37.3878 33.7319 37.3536 33.7882 37.3304C33.9214 37.2725 34.0659 37.2454 34.2111 37.2511H37.1047C37.2611 37.2421 37.4156 37.2889 37.5407 37.3832C37.5904 37.4249 37.6295 37.4778 37.6547 37.5375C37.68 37.5972 37.6907 37.6621 37.686 37.7268C37.6919 37.7916 37.6816 37.8568 37.6563 37.9167C37.6309 37.9766 37.5912 38.0294 37.5407 38.0703C37.4358 38.1881 37.2885 38.2594 37.1311 38.2685Z" fill="white"/>
<defs>
<linearGradient id="paint0_linear" x1="18.8314" y1="-0.287977" x2="18.8314" y2="46.38" gradientUnits="userSpaceOnUse">
<stop stop-color="#F1F5F9"/>
<stop offset="1" stop-color="#D8E5F4"/>
</linearGradient>
</defs>
</svg>
