<svg width="362" height="356" viewBox="0 0 362 356" fill="none" xmlns="http://www.w3.org/2000/svg">
<path d="M4.5142 335H3.5142L3.5142 336H4.5142V335ZM30.196 310.841H29.196V311.795L30.1489 311.84L30.196 310.841ZM30.196 310.386L29.9762 309.411L29.196 309.587V310.386H30.196ZM4.5142 288.455V287.455H3.5142V288.455H4.5142ZM14.3551 326.955H13.3551V327.955H14.3551V326.955ZM14.3551 314.591V313.591H13.3551V314.591H14.3551ZM14.3551 307.932H13.3551V308.932H14.3551V307.932ZM14.3551 296.409L14.3551 295.409H13.3551L13.3551 296.409H14.3551ZM4.5142 336H24.4006V334H4.5142V336ZM24.4006 336C29.7941 336 34.0523 334.592 36.9793 332.109C39.922 329.613 41.4233 326.108 41.4233 322.136H39.4233C39.4233 325.574 38.1405 328.501 35.6854 330.584C33.2147 332.68 29.4616 334 24.4006 334V336ZM41.4233 322.136C41.4233 314.691 36.0462 310.116 30.2432 309.842L30.1489 311.84C34.9368 312.066 39.4233 315.809 39.4233 322.136H41.4233ZM31.196 310.841V310.386H29.196V310.841H31.196ZM30.4159 311.362C33.0007 310.779 35.3017 309.559 36.9623 307.697C38.632 305.824 39.6051 303.356 39.6051 300.386H37.6051C37.6051 302.894 36.7941 304.88 35.4695 306.366C34.1358 307.861 32.2323 308.902 29.9762 309.411L30.4159 311.362ZM39.6051 300.386C39.6051 296.631 38.1997 293.351 35.3634 291.03C32.5504 288.728 28.4354 287.455 23.1506 287.455V289.455C28.1384 289.455 31.7507 290.658 34.0968 292.578C36.4196 294.479 37.6051 297.164 37.6051 300.386H39.6051ZM23.1506 287.455H4.5142V289.455H23.1506V287.455ZM3.5142 288.455L3.5142 335H5.5142L5.5142 288.455H3.5142ZM15.3551 326.955L15.3551 314.591H13.3551L13.3551 326.955H15.3551ZM14.3551 315.591H22.6051V313.591H14.3551V315.591ZM22.6051 315.591C24.7798 315.591 26.4431 316.217 27.5477 317.186C28.642 318.147 29.2642 319.508 29.2642 321.159H31.2642C31.2642 318.969 30.4205 317.047 28.867 315.683C27.324 314.329 25.1577 313.591 22.6051 313.591V315.591ZM29.2642 321.159C29.2642 322.663 28.7643 323.796 27.7648 324.584C26.7261 325.402 25.0108 325.955 22.3778 325.955V327.955C25.2449 327.955 27.4728 327.36 29.0023 326.155C30.5709 324.919 31.2642 323.155 31.2642 321.159H29.2642ZM22.3778 325.955H14.3551V327.955H22.3778V325.955ZM15.3551 307.932L15.3551 296.409H13.3551L13.3551 307.932H15.3551ZM14.3551 297.409H21.8324V295.409H14.3551L14.3551 297.409ZM21.8324 297.409C23.8515 297.409 25.309 297.93 26.2443 298.719C27.1608 299.492 27.6733 300.604 27.6733 302.023H29.6733C29.6733 300.078 28.9472 298.383 27.5341 297.19C26.1399 296.014 24.1769 295.409 21.8324 295.409V297.409ZM27.6733 302.023C27.6733 303.566 27.0567 304.756 26.0402 305.582C25.0033 306.423 23.4863 306.932 21.6506 306.932V308.932C23.8375 308.932 25.8319 308.327 27.3007 307.134C28.7899 305.925 29.6733 304.162 29.6733 302.023H27.6733ZM21.6506 306.932H14.3551V308.932H21.6506V306.932ZM58.8494 335V336H59.5756L59.8003 335.31L58.8494 335ZM62.304 324.386V323.386H61.5778L61.3531 324.077L62.304 324.386ZM79.0994 324.386L80.0503 324.077L79.8256 323.386H79.0994V324.386ZM82.554 335L81.6031 335.31L81.8278 336H82.554V335ZM93.0994 335V336H94.5019L94.0448 334.674L93.0994 335ZM77.054 288.455L77.9994 288.129L77.767 287.455H77.054V288.455ZM64.3722 288.455V287.455H63.6595L63.4269 288.128L64.3722 288.455ZM48.304 335L47.3587 334.674L46.9009 336H48.304V335ZM64.804 316.705L63.853 316.395L63.4273 317.705H64.804V316.705ZM70.5312 299.091V298.091H69.8049L69.5803 298.782L70.5312 299.091ZM70.8949 299.091L71.8459 298.782L71.6213 298.091H70.8949V299.091ZM76.6222 316.705V317.705H77.9989L77.5732 316.395L76.6222 316.705ZM59.8003 335.31L63.2549 324.696L61.3531 324.077L57.8985 334.69L59.8003 335.31ZM62.304 325.386H79.0994V323.386H62.304V325.386ZM78.1485 324.696L81.6031 335.31L83.5049 334.69L80.0503 324.077L78.1485 324.696ZM82.554 336H93.0994V334H82.554V336ZM94.0448 334.674L77.9994 288.129L76.1086 288.78L92.154 335.326L94.0448 334.674ZM77.054 287.455H64.3722V289.455H77.054V287.455ZM63.4269 288.128L47.3587 334.674L49.2492 335.326L65.3174 288.781L63.4269 288.128ZM48.304 336H58.8494L58.8494 334H48.304L48.304 336ZM65.755 317.014L71.4822 299.4L69.5803 298.782L63.853 316.395L65.755 317.014ZM70.5312 300.091H70.8949V298.091H70.5312V300.091ZM69.9439 299.4L75.6712 317.014L77.5732 316.395L71.8459 298.782L69.9439 299.4ZM76.6222 315.705H64.804V317.705H76.6222V315.705ZM126.889 301.841L125.894 301.94L125.984 302.841H126.889V301.841ZM136.321 301.841V302.841H137.338L137.321 301.824L136.321 301.841ZM101.366 301.909L102.367 301.912L102.366 301.904L101.366 301.909ZM114.048 314.591L114.292 313.621L114.282 313.618L114.048 314.591ZM119.116 315.864L118.873 316.834L118.881 316.836L119.116 315.864ZM127.026 321.682L128.026 321.688L128.026 321.675L127.026 321.682ZM109.662 320.386L110.66 320.318L110.596 319.386H109.662V320.386ZM100.139 320.386V319.386H99.1141L99.1395 320.411L100.139 320.386ZM136.957 321.705L137.957 321.707L137.957 321.702L136.957 321.705ZM123.003 308.023L122.77 308.995L122.784 308.998L123.003 308.023ZM118.821 307.023L119.054 306.05L119.045 306.048L118.821 307.023ZM111.457 301.25L112.457 301.27L112.457 301.26V301.25H111.457ZM126.889 302.841H136.321V300.841H126.889V302.841ZM137.321 301.824C137.248 297.385 135.377 293.602 132.13 290.945C128.898 288.3 124.363 286.818 119.003 286.818V288.818C124.006 288.818 128.062 290.2 130.864 292.493C133.651 294.773 135.258 298.001 135.321 301.857L137.321 301.824ZM119.003 286.818C113.725 286.818 109.073 288.275 105.723 290.907C102.355 293.553 100.342 297.361 100.366 301.914L102.366 301.904C102.345 298.002 104.048 294.766 106.959 292.48C109.887 290.179 114.076 288.818 119.003 288.818V286.818ZM100.366 301.906C100.354 305.604 101.665 308.57 104.062 310.842C106.428 313.085 109.791 314.598 113.815 315.563L114.282 313.618C110.442 312.697 107.453 311.301 105.438 309.391C103.454 307.51 102.356 305.078 102.366 301.912L100.366 301.906ZM113.805 315.561L118.873 316.834L119.36 314.894L114.292 313.621L113.805 315.561ZM118.881 316.836C121.401 317.446 123.22 318.083 124.402 318.885C125.516 319.64 126.017 320.501 126.026 321.689L128.026 321.675C128.011 319.726 127.092 318.292 125.524 317.229C124.024 316.212 121.9 315.509 119.352 314.892L118.881 316.836ZM126.026 321.675C126.017 323.026 125.388 324.167 124.193 325.005C122.972 325.861 121.134 326.409 118.776 326.409V328.409C121.417 328.409 123.692 327.798 125.341 326.643C127.015 325.469 128.012 323.747 128.026 321.688L126.026 321.675ZM118.776 326.409C116.36 326.409 114.39 325.849 113.012 324.839C111.663 323.849 110.8 322.37 110.66 320.318L108.664 320.454C108.842 323.061 109.979 325.094 111.829 326.451C113.65 327.787 116.078 328.409 118.776 328.409V326.409ZM109.662 319.386H100.139V321.386H109.662V319.386ZM99.1395 320.411C99.2709 325.701 101.244 329.815 104.753 332.583C108.231 335.328 113.103 336.659 118.889 336.659V334.659C113.38 334.659 109.002 333.388 105.992 331.013C103.012 328.662 101.258 325.14 101.139 320.362L99.1395 320.411ZM118.889 336.659C124.717 336.659 129.47 335.267 132.793 332.665C136.143 330.041 137.945 326.256 137.957 321.707L135.957 321.702C135.947 325.676 134.397 328.868 131.559 331.091C128.694 333.335 124.425 334.659 118.889 334.659V336.659ZM137.957 321.702C137.945 317.541 136.356 314.307 133.674 311.896C131.024 309.514 127.358 307.976 123.222 307.047L122.784 308.998C126.739 309.887 130.038 311.316 132.337 313.383C134.604 315.421 135.947 318.119 135.957 321.707L137.957 321.702ZM123.235 307.05L119.054 306.05L118.588 307.995L122.77 308.995L123.235 307.05ZM119.045 306.048C117.051 305.589 115.342 305.013 114.157 304.212C113.017 303.441 112.432 302.518 112.457 301.27L110.458 301.23C110.415 303.322 111.488 304.821 113.036 305.868C114.538 306.884 116.546 307.525 118.597 307.997L119.045 306.048ZM112.457 301.25C112.457 300.079 112.962 299.074 113.979 298.33C115.024 297.566 116.665 297.045 118.935 297.045V295.045C116.387 295.045 114.288 295.627 112.799 296.715C111.283 297.824 110.457 299.421 110.457 301.25H112.457ZM118.935 297.045C121.147 297.045 122.816 297.549 123.949 298.378C125.059 299.19 125.738 300.372 125.894 301.94L127.884 301.742C127.676 299.65 126.731 297.935 125.13 296.764C123.554 295.61 121.427 295.045 118.935 295.045V297.045ZM147.577 335H146.577V336H147.577V335ZM179.031 335V336H180.031V335H179.031ZM179.031 326.886H180.031V325.886H179.031V326.886ZM157.418 326.886H156.418V327.886H157.418V326.886ZM157.418 315.773V314.773H156.418V315.773H157.418ZM177.327 315.773V316.773H178.327V315.773H177.327ZM177.327 307.659H178.327V306.659H177.327V307.659ZM157.418 307.659H156.418V308.659H157.418V307.659ZM157.418 296.568V295.568H156.418V296.568H157.418ZM178.94 296.568V297.568H179.94V296.568H178.94ZM178.94 288.455H179.94V287.455H178.94V288.455ZM147.577 288.455V287.455H146.577V288.455H147.577ZM147.577 336H179.031V334H147.577V336ZM180.031 335V326.886H178.031V335H180.031ZM179.031 325.886H157.418V327.886H179.031V325.886ZM158.418 326.886V315.773H156.418V326.886H158.418ZM157.418 316.773H177.327V314.773H157.418V316.773ZM178.327 315.773V307.659H176.327V315.773H178.327ZM177.327 306.659H157.418V308.659H177.327V306.659ZM158.418 307.659V296.568H156.418V307.659H158.418ZM157.418 297.568H178.94V295.568H157.418V297.568ZM179.94 296.568V288.455H177.94V296.568H179.94ZM178.94 287.455H147.577V289.455H178.94V287.455ZM146.577 288.455V335H148.577V288.455H146.577ZM190.764 335H189.764V336H190.764V335ZM216.446 310.841H215.446V311.795L216.399 311.84L216.446 310.841ZM216.446 310.386L216.226 309.411L215.446 309.587V310.386H216.446ZM190.764 288.455V287.455H189.764V288.455H190.764ZM200.605 326.955H199.605V327.955H200.605V326.955ZM200.605 314.591V313.591H199.605V314.591H200.605ZM200.605 307.932H199.605V308.932H200.605V307.932ZM200.605 296.409V295.409H199.605V296.409H200.605ZM190.764 336H210.651V334H190.764V336ZM210.651 336C216.044 336 220.302 334.592 223.229 332.109C226.172 329.613 227.673 326.108 227.673 322.136H225.673C225.673 325.574 224.391 328.501 221.935 330.584C219.465 332.68 215.712 334 210.651 334V336ZM227.673 322.136C227.673 314.691 222.296 310.116 216.493 309.842L216.399 311.84C221.187 312.066 225.673 315.809 225.673 322.136H227.673ZM217.446 310.841V310.386H215.446V310.841H217.446ZM216.666 311.362C219.251 310.779 221.552 309.559 223.212 307.697C224.882 305.824 225.855 303.356 225.855 300.386H223.855C223.855 302.894 223.044 304.88 221.72 306.366C220.386 307.861 218.482 308.902 216.226 309.411L216.666 311.362ZM225.855 300.386C225.855 296.631 224.45 293.351 221.613 291.03C218.8 288.728 214.685 287.455 209.401 287.455V289.455C214.388 289.455 218.001 290.658 220.347 292.578C222.67 294.479 223.855 297.164 223.855 300.386H225.855ZM209.401 287.455H190.764V289.455H209.401V287.455ZM189.764 288.455V335H191.764V288.455H189.764ZM201.605 326.955V314.591H199.605V326.955H201.605ZM200.605 315.591H208.855V313.591H200.605V315.591ZM208.855 315.591C211.03 315.591 212.693 316.217 213.798 317.186C214.892 318.147 215.514 319.508 215.514 321.159H217.514C217.514 318.969 216.671 317.047 215.117 315.683C213.574 314.329 211.408 313.591 208.855 313.591V315.591ZM215.514 321.159C215.514 322.663 215.014 323.796 214.015 324.584C212.976 325.402 211.261 325.955 208.628 325.955V327.955C211.495 327.955 213.723 327.36 215.252 326.155C216.821 324.919 217.514 323.155 217.514 321.159H215.514ZM208.628 325.955H200.605V327.955H208.628V325.955ZM201.605 307.932V296.409H199.605V307.932H201.605ZM200.605 297.409H208.082V295.409H200.605V297.409ZM208.082 297.409C210.102 297.409 211.559 297.93 212.494 298.719C213.411 299.492 213.923 300.604 213.923 302.023H215.923C215.923 300.078 215.197 298.383 213.784 297.19C212.39 296.014 210.427 295.409 208.082 295.409V297.409ZM213.923 302.023C213.923 303.566 213.307 304.756 212.29 305.582C211.253 306.423 209.736 306.932 207.901 306.932V308.932C210.088 308.932 212.082 308.327 213.551 307.134C215.04 305.925 215.923 304.162 215.923 302.023H213.923ZM207.901 306.932H200.605V308.932H207.901V306.932ZM245.099 335V336H245.826L246.05 335.31L245.099 335ZM248.554 324.386V323.386H247.828L247.603 324.077L248.554 324.386ZM265.349 324.386L266.3 324.077L266.076 323.386H265.349V324.386ZM268.804 335L267.853 335.31L268.078 336H268.804V335ZM279.349 335V336H280.752L280.295 334.674L279.349 335ZM263.304 288.455L264.249 288.129L264.017 287.455H263.304V288.455ZM250.622 288.455V287.455H249.909L249.677 288.128L250.622 288.455ZM234.554 335L233.609 334.674L233.151 336H234.554V335ZM251.054 316.705L250.103 316.395L249.677 317.705H251.054V316.705ZM256.781 299.091V298.091H256.055L255.83 298.782L256.781 299.091ZM257.145 299.091L258.096 298.782L257.871 298.091H257.145V299.091ZM262.872 316.705V317.705H264.249L263.823 316.395L262.872 316.705ZM246.05 335.31L249.505 324.696L247.603 324.077L244.149 334.69L246.05 335.31ZM248.554 325.386H265.349V323.386H248.554V325.386ZM264.399 324.696L267.853 335.31L269.755 334.69L266.3 324.077L264.399 324.696ZM268.804 336H279.349V334H268.804V336ZM280.295 334.674L264.249 288.129L262.359 288.78L278.404 335.326L280.295 334.674ZM263.304 287.455H250.622V289.455H263.304V287.455ZM249.677 288.128L233.609 334.674L235.499 335.326L251.567 288.781L249.677 288.128ZM234.554 336H245.099V334H234.554V336ZM252.005 317.014L257.732 299.4L255.83 298.782L250.103 316.395L252.005 317.014ZM256.781 300.091H257.145V298.091H256.781V300.091ZM256.194 299.4L261.921 317.014L263.823 316.395L258.096 298.782L256.194 299.4ZM262.872 315.705H251.054V317.705H262.872V315.705ZM288.952 335H287.952V336H288.952V335ZM318.747 335V336H319.747V335H318.747ZM318.747 326.886H319.747V325.886H318.747V326.886ZM298.793 326.886H297.793V327.886H298.793V326.886ZM298.793 288.455H299.793V287.455H298.793V288.455ZM288.952 288.455V287.455H287.952V288.455H288.952ZM288.952 336H318.747V334H288.952V336ZM319.747 335V326.886H317.747V335H319.747ZM318.747 325.886H298.793V327.886H318.747V325.886ZM299.793 326.886V288.455H297.793V326.886H299.793ZM298.793 287.455H288.952V289.455H298.793V287.455ZM287.952 288.455V335H289.952V288.455H287.952ZM329.264 335H328.264V336H329.264V335ZM359.06 335V336H360.06V335H359.06ZM359.06 326.886H360.06V325.886H359.06V326.886ZM339.105 326.886H338.105V327.886H339.105V326.886ZM339.105 288.455H340.105V287.455H339.105V288.455ZM329.264 288.455V287.455H328.264V288.455H329.264ZM329.264 336H359.06V334H329.264V336ZM360.06 335V326.886H358.06V335H360.06ZM359.06 325.886H339.105V327.886H359.06V325.886ZM340.105 326.886V288.455H338.105V326.886H340.105ZM339.105 287.455H329.264V289.455H339.105V287.455ZM328.264 288.455V335H330.264V288.455H328.264Z" fill="#042365" fill-opacity="0.12"/>
<path fill-rule="evenodd" clip-rule="evenodd" d="M151.235 2.58825C149.029 5.73932 149.056 6.34267 151.537 9.15573C155.459 13.602 188.15 40.6364 205.303 53.6214L219.908 64.6778L209.992 65.5954C204.537 66.0993 198.476 67.036 196.521 67.6757C193.147 68.7797 192.967 68.4306 192.967 60.7606C192.967 54.0715 192.255 52.0198 188.826 48.8435C183.484 43.8934 176.411 42.6377 168.485 45.2343C163.5 46.8659 161.501 48.6934 159.008 53.8899C157.271 57.5117 154.251 61.2282 152.295 62.1475C147.65 64.3335 147.765 68.249 152.539 70.4239C158.351 73.0727 158.722 80.1899 153.317 85.3674C150.926 87.6577 148.307 91.4027 147.494 93.6882C144.351 102.541 141.007 114.005 139.143 122.329C136.973 132.019 135.393 135.327 130.134 141.205C128.151 143.42 126.112 147.008 125.602 149.18C125.092 151.352 123.639 154.784 122.375 156.806C118.588 162.865 112.176 181.117 111.459 187.878C110.42 197.7 109.746 201.892 108.796 204.462C107.784 207.199 104.137 219.602 101.482 229.339C100.378 233.387 98.7224 236.052 97.3135 236.052C91.2878 236.052 75.2765 244.542 63.2709 254.102C50.5908 264.2 49.7205 264.622 42.9255 263.928C33.4739 262.965 30.8172 264.697 28.1147 273.591C26.8653 277.703 23.9149 285.224 21.5567 290.306C16.8372 300.476 16.8151 308.744 21.4872 315.876C26.9111 324.154 32.1693 320.115 38.98 302.445C41.4471 296.045 45.6012 289.31 49.9116 284.719C55.9626 278.273 57.67 277.324 63.0719 277.398C73.0021 277.535 87.1542 272.701 91.9954 267.518C94.3662 264.98 97.2645 262.862 98.4365 262.811C99.6085 262.761 104.467 260.805 109.232 258.468C116.59 254.859 119.393 252.082 127.794 240.095C142.461 219.17 150.785 209.186 153.463 209.311C154.775 209.373 160.114 212.216 165.326 215.629C170.538 219.042 178.001 223.302 181.911 225.095C194.096 230.686 199.88 239.68 197.71 249.659C196.976 253.034 196.868 260.06 197.47 265.272C198.097 270.699 197.736 280.824 196.624 288.965C194.346 305.628 194.801 307.942 200.977 311.136C203.521 312.451 205.603 314.238 205.603 315.105C205.603 317.683 213.872 320.046 219.318 319.025C226.656 317.648 227.555 312.998 221.872 305.803C213.196 294.817 210.782 289.389 212.27 284.22C222.734 247.906 225.624 229.565 221.352 226.575C220.733 226.141 215.451 217.73 209.618 207.883C203.783 198.037 197.6 188.797 195.875 187.35C194.15 185.903 190.344 181.482 187.418 177.527L182.097 170.334L190.296 153.517C196.353 141.092 199.114 136.925 200.864 137.566C209.678 140.796 214.641 140.035 223.137 134.145C227.828 130.894 236.284 123.461 241.931 117.627C247.578 111.792 255.218 105.122 258.911 102.807C262.603 100.491 265.623 97.708 265.623 96.6213C265.623 93.9662 254.858 78.1034 253.055 78.1034C252.901 78.1034 252.738 78.1667 252.576 78.2299C251.914 78.4879 251.254 78.7456 251.124 74.7075C250.336 69.4099 243.537 65.398 234.28 64.7694C226.25 64.2229 225.515 63.7554 211.422 50.2255C185.357 25.2049 160.663 2.78567 157.127 0.931355C154.189 -0.608642 153.3 -0.359066 151.235 2.58825ZM239.526 85.3011C250.897 90.6966 242.497 104.691 221.906 114.657C207.911 121.432 202.975 121.699 204.612 115.597C204.612 115.597 205.569 110.225 205.58 107.981C205.597 104.786 208.428 101.616 218.62 93.3707C225.78 87.5803 232.246 82.8419 232.992 82.8419C233.736 82.8419 236.677 83.9475 239.526 85.3011Z" fill="black"/>
<mask id="mask0" style="mask-type:alpha" maskUnits="userSpaceOnUse" x="18" y="0" width="248" height="320">
<path fill-rule="evenodd" clip-rule="evenodd" d="M151.235 2.58825C149.029 5.73932 149.056 6.34267 151.537 9.15573C155.459 13.602 188.15 40.6364 205.303 53.6214L219.908 64.6778L209.992 65.5954C204.537 66.0993 198.476 67.036 196.521 67.6757C193.147 68.7797 192.967 68.4306 192.967 60.7606C192.967 54.0715 192.255 52.0198 188.826 48.8435C183.484 43.8934 176.411 42.6377 168.485 45.2343C163.5 46.8659 161.501 48.6934 159.008 53.8899C157.271 57.5117 154.251 61.2282 152.295 62.1475C147.65 64.3335 147.765 68.249 152.539 70.4239C158.351 73.0727 158.722 80.1899 153.317 85.3674C150.926 87.6577 148.307 91.4027 147.494 93.6882C144.351 102.541 141.007 114.005 139.143 122.329C136.973 132.019 135.393 135.327 130.134 141.205C128.151 143.42 126.112 147.008 125.602 149.18C125.092 151.352 123.639 154.784 122.375 156.806C118.588 162.865 112.176 181.117 111.459 187.878C110.42 197.7 109.746 201.892 108.796 204.462C107.784 207.199 104.137 219.602 101.482 229.339C100.378 233.387 98.7224 236.052 97.3135 236.052C91.2878 236.052 75.2765 244.542 63.2709 254.102C50.5908 264.2 49.7205 264.622 42.9255 263.928C33.4739 262.965 30.8172 264.697 28.1147 273.591C26.8653 277.703 23.9149 285.224 21.5567 290.306C16.8372 300.476 16.8151 308.744 21.4872 315.876C26.9111 324.154 32.1693 320.115 38.98 302.445C41.4471 296.045 45.6012 289.31 49.9116 284.719C55.9626 278.273 57.67 277.324 63.0719 277.398C73.0021 277.535 87.1542 272.701 91.9954 267.518C94.3662 264.98 97.2645 262.862 98.4365 262.811C99.6085 262.761 104.467 260.805 109.232 258.468C116.59 254.859 119.393 252.082 127.794 240.095C142.461 219.17 150.785 209.186 153.463 209.311C154.775 209.373 160.114 212.216 165.326 215.629C170.538 219.042 178.001 223.302 181.911 225.095C194.096 230.686 199.88 239.68 197.71 249.659C196.976 253.034 196.868 260.06 197.47 265.272C198.097 270.699 197.736 280.824 196.624 288.965C194.346 305.628 194.801 307.942 200.977 311.136C203.521 312.451 205.603 314.238 205.603 315.105C205.603 317.683 213.872 320.046 219.318 319.025C226.656 317.648 227.555 312.998 221.872 305.803C213.196 294.817 210.782 289.389 212.27 284.22C222.734 247.906 225.624 229.565 221.352 226.575C220.733 226.141 215.451 217.73 209.618 207.883C203.783 198.037 197.6 188.797 195.875 187.35C194.15 185.903 190.344 181.482 187.418 177.527L182.097 170.334L190.296 153.517C196.353 141.092 199.114 136.925 200.864 137.566C209.678 140.796 214.641 140.035 223.137 134.145C227.828 130.894 236.284 123.461 241.931 117.627C247.578 111.792 255.218 105.122 258.911 102.807C262.603 100.491 265.623 97.708 265.623 96.6213C265.623 93.9662 254.858 78.1034 253.055 78.1034C252.901 78.1034 252.738 78.1667 252.576 78.2299C251.914 78.4879 251.254 78.7456 251.124 74.7075C250.336 69.4099 243.537 65.398 234.28 64.7694C226.25 64.2229 225.515 63.7554 211.422 50.2255C185.357 25.2049 160.663 2.78567 157.127 0.931355C154.189 -0.608642 153.3 -0.359066 151.235 2.58825ZM239.526 85.3011C250.897 90.6966 242.497 104.691 221.906 114.657C207.911 121.432 202.975 121.699 204.612 115.597C204.612 115.597 205.569 110.225 205.58 107.981C205.597 104.786 208.428 101.616 218.62 93.3707C225.78 87.5803 232.246 82.8419 232.992 82.8419C233.736 82.8419 236.677 83.9475 239.526 85.3011Z" fill="black"/>
</mask>
<g mask="url(#mask0)">
<path fill-rule="evenodd" clip-rule="evenodd" d="M121.566 49.8005L172.735 98.9731L178.793 -0.31665L121.566 49.8005Z" fill="#423F70"/>
<path fill-rule="evenodd" clip-rule="evenodd" d="M92.5177 121.098L150.974 216.101L173.423 99.002L92.5177 121.098Z" fill="#446F93"/>
<path fill-rule="evenodd" clip-rule="evenodd" d="M113.606 170.028L164.391 140.996L105.47 124.051L113.606 170.028Z" fill="#5C9EAB"/>
<path fill-rule="evenodd" clip-rule="evenodd" d="M82.177 237.392L152.132 216.018L126.963 153.293L79.7433 185.716L82.177 237.392Z" fill="#423F70"/>
<path fill-rule="evenodd" clip-rule="evenodd" d="M165.26 169.602L226.917 216.038C223.608 185.274 214.293 154.63 201.91 124.051L165.26 169.602Z" fill="#3E7BBA"/>
<path fill-rule="evenodd" clip-rule="evenodd" d="M150.693 216.089H227.366L157.017 180.198L150.693 216.089Z" fill="#3E7BBA"/>
<path fill-rule="evenodd" clip-rule="evenodd" d="M185.193 286.815L249.298 216.033H150.693L185.193 286.815Z" fill="#5AB3D4"/>
<path fill-rule="evenodd" clip-rule="evenodd" d="M227.059 346.004L288.553 279.27L188.257 280.147L227.059 346.004Z" fill="#5AB3D4"/>
<path fill-rule="evenodd" clip-rule="evenodd" d="M252.709 286.873L235.5 225.806L190.558 280.098L252.709 286.873Z" fill="#42719E"/>
<path fill-rule="evenodd" clip-rule="evenodd" d="M226.021 341.444L208.173 314.646L180.591 297.091L205.366 350.996L226.021 341.444Z" fill="#446F93"/>
<path fill-rule="evenodd" clip-rule="evenodd" d="M153.196 180.484L226.65 219.295L191.977 130.938L153.196 180.484Z" fill="#423F70"/>
<path fill-rule="evenodd" clip-rule="evenodd" d="M120.196 113.906L172.358 99.3554L139.851 48.9688L120.196 113.906Z" fill="#65A7BD"/>
<path fill-rule="evenodd" clip-rule="evenodd" d="M172.16 98.9731L221.818 56.2003L178.218 -0.31665L172.16 98.9731Z" fill="#456E93"/>
<path fill-rule="evenodd" clip-rule="evenodd" d="M135.099 46.0629L184.757 3.29005L141.157 -53.2269L135.099 46.0629Z" fill="#456E93"/>
<path fill-rule="evenodd" clip-rule="evenodd" d="M175.226 8.48617L224.738 6.15423L178.415 -41.517L175.226 8.48617Z" fill="#446F93"/>
<path fill-rule="evenodd" clip-rule="evenodd" d="M225.034 53.0442L263.709 52.1485L217.383 4.47406L225.034 53.0442Z" fill="#4CA0C8"/>
<path fill-rule="evenodd" clip-rule="evenodd" d="M218.496 5.62396L179.824 6.51635L226.147 54.1908L218.496 5.62396Z" fill="#423F70"/>
<path fill-rule="evenodd" clip-rule="evenodd" d="M171.578 97.8828L155.765 180.272L192.936 133.272L171.578 97.8828Z" fill="#45849B"/>
<path fill-rule="evenodd" clip-rule="evenodd" d="M71.8758 294.409L-11.8069 315.334L50.8525 354.508L71.8758 294.409Z" fill="#2C4EA3"/>
<path fill-rule="evenodd" clip-rule="evenodd" d="M86.7792 243.779L3.09656 264.705L65.756 303.879L86.7792 243.779Z" fill="#2C4EA3"/>
<path fill-rule="evenodd" clip-rule="evenodd" d="M150.525 216.033L71.7441 231.653L208.846 314.554L150.525 216.033Z" fill="#3E79B8"/>
<path fill-rule="evenodd" clip-rule="evenodd" d="M114.496 280.037L35.7152 295.657L97.4432 335.844L114.496 280.037Z" fill="#5AB3D4"/>
<path fill-rule="evenodd" clip-rule="evenodd" d="M121.757 282.719L63.6702 314.666L47.2196 361.22L121.757 282.719Z" fill="#4EA7CC"/>
<path fill-rule="evenodd" clip-rule="evenodd" d="M88.2596 254.424L21.8923 289.083L3.09656 339.587L88.2596 254.424Z" fill="#4EA7CC"/>
<path fill-rule="evenodd" clip-rule="evenodd" d="M131.215 222.548L47.2196 293.741L119.8 286.738L131.215 222.548Z" fill="#4167A3"/>
<path fill-rule="evenodd" clip-rule="evenodd" d="M80.296 234.62C62.7772 247.12 56.1787 268.648 50.2837 293.075L101.283 248.257L80.296 234.62Z" fill="#42719E"/>
<path fill-rule="evenodd" clip-rule="evenodd" d="M25.6571 257.618C8.13824 270.118 1.53976 291.646 -4.35522 316.073L46.6445 271.255L25.6571 257.618Z" fill="#42719E"/>
<path fill-rule="evenodd" clip-rule="evenodd" d="M170.229 98.6213L232.492 202.262L276.683 68.1304L170.229 98.6213Z" fill="#4CA0C8"/>
<path fill-rule="evenodd" clip-rule="evenodd" d="M172.16 98.8575L261.774 74.0594L282.217 40.0086L242.154 15.5884L172.16 98.8575Z" fill="#446F93"/>
</g>
<g style="mix-blend-mode:overlay">
<path fill-rule="evenodd" clip-rule="evenodd" d="M151.235 2.58825C149.029 5.73932 149.056 6.34267 151.537 9.15573C155.459 13.602 188.15 40.6364 205.303 53.6214L219.908 64.6778L209.992 65.5954C204.537 66.0993 198.476 67.036 196.521 67.6757C193.147 68.7797 192.967 68.4306 192.967 60.7606C192.967 54.0715 192.255 52.0198 188.826 48.8435C183.484 43.8934 176.411 42.6377 168.485 45.2343C163.5 46.8659 161.501 48.6934 159.008 53.8899C157.271 57.5117 154.251 61.2282 152.295 62.1475C147.65 64.3335 147.765 68.249 152.539 70.4239C158.351 73.0727 158.722 80.1899 153.317 85.3674C150.926 87.6577 148.307 91.4027 147.494 93.6882C144.351 102.541 141.007 114.005 139.143 122.329C136.973 132.019 135.393 135.327 130.134 141.205C128.151 143.42 126.112 147.008 125.602 149.18C125.092 151.352 123.639 154.784 122.375 156.806C118.588 162.865 112.176 181.117 111.459 187.878C110.42 197.7 109.746 201.892 108.796 204.462C107.784 207.199 104.137 219.602 101.482 229.339C100.378 233.387 98.7224 236.052 97.3135 236.052C91.2878 236.052 75.2765 244.542 63.2709 254.102C50.5908 264.2 49.7205 264.622 42.9255 263.928C33.4739 262.965 30.8172 264.697 28.1147 273.591C26.8653 277.703 23.9149 285.224 21.5567 290.306C16.8372 300.476 16.8151 308.744 21.4872 315.876C26.9111 324.154 32.1693 320.115 38.98 302.445C41.4471 296.045 45.6012 289.31 49.9116 284.719C55.9626 278.273 57.67 277.324 63.0719 277.398C73.0021 277.535 87.1542 272.701 91.9954 267.518C94.3662 264.98 97.2645 262.862 98.4365 262.811C99.6085 262.761 104.467 260.805 109.232 258.468C116.59 254.859 119.393 252.082 127.794 240.095C142.461 219.17 150.785 209.186 153.463 209.311C154.775 209.373 160.114 212.216 165.326 215.629C170.538 219.042 178.001 223.302 181.911 225.095C194.096 230.686 199.88 239.68 197.71 249.659C196.976 253.034 196.868 260.06 197.47 265.272C198.097 270.699 197.736 280.824 196.624 288.965C194.346 305.628 194.801 307.942 200.977 311.136C203.521 312.451 205.603 314.238 205.603 315.105C205.603 317.683 213.872 320.046 219.318 319.025C226.656 317.648 227.555 312.998 221.872 305.803C213.196 294.817 210.782 289.389 212.27 284.22C222.734 247.906 225.624 229.565 221.352 226.575C220.733 226.141 215.451 217.73 209.618 207.883C203.783 198.037 197.6 188.797 195.875 187.35C194.15 185.903 190.344 181.482 187.418 177.527L182.097 170.334L190.296 153.517C196.353 141.092 199.114 136.925 200.864 137.566C209.678 140.796 214.641 140.035 223.137 134.145C227.828 130.894 236.284 123.461 241.931 117.627C247.578 111.792 255.218 105.122 258.911 102.807C262.603 100.491 265.623 97.708 265.623 96.6213C265.623 93.9662 254.858 78.1034 253.055 78.1034C252.901 78.1034 252.738 78.1667 252.576 78.2299C251.914 78.4879 251.254 78.7456 251.124 74.7075C250.336 69.4099 243.537 65.398 234.28 64.7694C226.25 64.2229 225.515 63.7554 211.422 50.2255C185.357 25.2049 160.663 2.78567 157.127 0.931355C154.189 -0.608642 153.3 -0.359066 151.235 2.58825ZM239.526 85.3011C250.897 90.6966 242.497 104.691 221.906 114.657C207.911 121.432 202.975 121.699 204.612 115.597C204.612 115.597 205.569 110.225 205.58 107.981C205.597 104.786 208.428 101.616 218.62 93.3707C225.78 87.5803 232.246 82.8419 232.992 82.8419C233.736 82.8419 236.677 83.9475 239.526 85.3011Z" fill="#042365"/>
</g>
</svg>
