<svg width="521" height="367" viewBox="0 0 521 367" fill="none" xmlns="http://www.w3.org/2000/svg">
<path d="M69.0767 67H68.0767V68H69.0767V67ZM94.7585 42.8409H93.7585V43.7948L94.7114 43.8398L94.7585 42.8409ZM94.7585 42.3864L94.5387 41.4108L93.7585 41.5866V42.3864H94.7585ZM69.0767 20.4545V19.4545H68.0767V20.4545H69.0767ZM78.9176 58.9545H77.9176V59.9545H78.9176V58.9545ZM78.9176 46.5909V45.5909H77.9176V46.5909H78.9176ZM78.9176 39.9318H77.9176V40.9318H78.9176V39.9318ZM78.9176 28.4091V27.4091H77.9176V28.4091H78.9176ZM69.0767 68H88.9631V66H69.0767V68ZM88.9631 68C94.3566 68 98.6148 66.5925 101.542 64.1091C104.484 61.6125 105.986 58.1075 105.986 54.1364H103.986C103.986 57.5743 102.703 60.5011 100.248 62.5841C97.7772 64.6803 94.0241 66 88.9631 66V68ZM105.986 54.1364C105.986 46.6906 100.609 42.116 94.8057 41.842L94.7114 43.8398C99.4993 44.0658 103.986 47.8094 103.986 54.1364H105.986ZM95.7585 42.8409V42.3864H93.7585V42.8409H95.7585ZM94.9784 43.3619C97.5632 42.7794 99.8642 41.559 101.525 39.6968C103.195 37.8242 104.168 35.3562 104.168 32.3864H102.168C102.168 34.8938 101.357 36.8803 100.032 38.3657C98.6983 39.8614 96.7948 40.9024 94.5387 41.4108L94.9784 43.3619ZM104.168 32.3864C104.168 28.6312 102.762 25.3509 99.9259 23.0301C97.1129 20.7282 92.9979 19.4545 87.7131 19.4545V21.4545C92.7009 21.4545 96.3132 22.6581 98.6593 24.5779C100.982 26.4786 102.168 29.1643 102.168 32.3864H104.168ZM87.7131 19.4545L69.0767 19.4545V21.4545L87.7131 21.4545V19.4545ZM68.0767 20.4545L68.0767 67H70.0767L70.0767 20.4545H68.0767ZM79.9176 58.9545L79.9176 46.5909H77.9176L77.9176 58.9545H79.9176ZM78.9176 47.5909L87.1676 47.5909V45.5909L78.9176 45.5909V47.5909ZM87.1676 47.5909C89.3423 47.5909 91.0056 48.2167 92.1102 49.1862C93.2045 50.1467 93.8267 51.5083 93.8267 53.1591H95.8267C95.8267 50.9689 94.983 49.0465 93.4295 47.6831C91.8865 46.3288 89.7202 45.5909 87.1676 45.5909V47.5909ZM93.8267 53.1591C93.8267 54.6631 93.3268 55.7965 92.3273 56.5837C91.2886 57.4018 89.5733 57.9545 86.9403 57.9545V59.9545C89.8074 59.9545 92.0353 59.3595 93.5648 58.1549C95.1334 56.9194 95.8267 55.1551 95.8267 53.1591H93.8267ZM86.9403 57.9545H78.9176V59.9545H86.9403V57.9545ZM79.9176 39.9318V28.4091H77.9176V39.9318H79.9176ZM78.9176 29.4091H86.3949V27.4091H78.9176V29.4091ZM86.3949 29.4091C88.414 29.4091 89.8715 29.9295 90.8068 30.7188C91.7233 31.4922 92.2358 32.6039 92.2358 34.0227H94.2358C94.2358 32.0779 93.5097 30.3828 92.0966 29.1903C90.7024 28.0137 88.7394 27.4091 86.3949 27.4091V29.4091ZM92.2358 34.0227C92.2358 35.5655 91.6192 36.7564 90.6027 37.5816C89.5658 38.4233 88.0488 38.9318 86.2131 38.9318V40.9318C88.4 40.9318 90.3944 40.3267 91.8632 39.1343C93.3524 37.9254 94.2358 36.1617 94.2358 34.0227H92.2358ZM86.2131 38.9318H78.9176V40.9318H86.2131V38.9318ZM123.412 67V68H124.138L124.363 67.3095L123.412 67ZM126.866 56.3864V55.3864H126.14L125.916 56.0769L126.866 56.3864ZM143.662 56.3864L144.613 56.0769L144.388 55.3864H143.662V56.3864ZM147.116 67L146.166 67.3095L146.39 68H147.116V67ZM157.662 67V68H159.064L158.607 66.6741L157.662 67ZM141.616 20.4545L142.562 20.1286L142.329 19.4545L141.616 19.4545V20.4545ZM128.935 20.4545V19.4545H128.222L127.989 20.1282L128.935 20.4545ZM112.866 67L111.921 66.6737L111.463 68H112.866V67ZM129.366 48.7045L128.415 48.3953L127.99 49.7045H129.366V48.7045ZM135.094 31.0909V30.0909H134.367L134.143 30.7817L135.094 31.0909ZM135.457 31.0909L136.408 30.7817L136.184 30.0909H135.457V31.0909ZM141.185 48.7045V49.7045H142.561L142.136 48.3953L141.185 48.7045ZM124.363 67.3095L127.817 56.6959L125.916 56.0769L122.461 66.6905L124.363 67.3095ZM126.866 57.3864L143.662 57.3864V55.3864L126.866 55.3864V57.3864ZM142.711 56.6959L146.166 67.3095L148.067 66.6905L144.613 56.0769L142.711 56.6959ZM147.116 68H157.662V66H147.116V68ZM158.607 66.6741L142.562 20.1286L140.671 20.7804L156.717 67.3259L158.607 66.6741ZM141.616 19.4545H128.935V21.4545H141.616V19.4545ZM127.989 20.1282L111.921 66.6737L113.812 67.3263L129.88 20.7809L127.989 20.1282ZM112.866 68H123.412L123.412 66H112.866L112.866 68ZM130.317 49.0138L136.045 31.4001L134.143 30.7817L128.415 48.3953L130.317 49.0138ZM135.094 32.0909H135.457V30.0909H135.094V32.0909ZM134.506 31.4001L140.234 49.0138L142.136 48.3953L136.408 30.7817L134.506 31.4001ZM141.185 47.7045L129.366 47.7045V49.7045L141.185 49.7045V47.7045ZM191.452 33.8409L190.457 33.9398L190.546 34.8409H191.452V33.8409ZM200.884 33.8409V34.8409H201.9L201.883 33.8245L200.884 33.8409ZM165.929 33.9091L166.929 33.9124L166.929 33.9037L165.929 33.9091ZM178.611 46.5909L178.854 45.621L178.844 45.6185L178.611 46.5909ZM183.679 47.8636L183.435 48.8336L183.444 48.8355L183.679 47.8636ZM191.588 53.6818L192.588 53.6885L192.588 53.6746L191.588 53.6818ZM174.224 52.3864L175.222 52.3182L175.158 51.3864H174.224V52.3864ZM164.702 52.3864V51.3864H163.677L163.702 52.4112L164.702 52.3864ZM201.52 53.7045L202.52 53.7072L202.52 53.7016L201.52 53.7045ZM187.565 40.0227L187.333 40.9954L187.346 40.9984L187.565 40.0227ZM183.384 39.0227L183.616 38.0501L183.608 38.0482L183.384 39.0227ZM176.02 33.25L177.02 33.2704L177.02 33.2602V33.25H176.02ZM191.452 34.8409H200.884V32.8409H191.452V34.8409ZM201.883 33.8245C201.81 29.3855 199.94 25.6017 196.693 22.9448C193.46 20.2997 188.925 18.8182 183.565 18.8182V20.8182C188.569 20.8182 192.625 22.2003 195.426 24.4927C198.214 26.7733 199.82 30.0009 199.884 33.8573L201.883 33.8245ZM183.565 18.8182C178.288 18.8182 173.636 20.2752 170.286 22.9068C166.917 25.5526 164.905 29.3612 164.929 33.9145L166.929 33.9037C166.908 30.0024 168.611 26.7656 171.521 24.4796C174.449 22.1794 178.638 20.8182 183.565 20.8182V18.8182ZM164.929 33.9058C164.917 37.6042 166.228 40.5697 168.624 42.8422C170.99 45.0852 174.354 46.5981 178.378 47.5633L178.844 45.6185C175.004 44.6973 172.015 43.3011 170.001 41.3908C168.017 39.5098 166.918 37.0776 166.929 33.9124L164.929 33.9058ZM178.367 47.5608L183.435 48.8335L183.923 46.8937L178.854 45.621L178.367 47.5608ZM183.444 48.8355C185.963 49.4457 187.783 50.0834 188.964 50.8845C190.078 51.6397 190.579 52.5011 190.588 53.6891L192.588 53.6746C192.574 51.7262 191.655 50.2921 190.087 49.2291C188.587 48.212 186.463 47.5089 183.914 46.8917L183.444 48.8355ZM190.588 53.6752C190.579 55.0258 189.951 56.1671 188.756 57.005C187.535 57.8607 185.697 58.4091 183.338 58.4091V60.4091C185.979 60.4091 188.255 59.7984 189.904 58.6427C191.578 57.4693 192.574 55.747 192.588 53.6885L190.588 53.6752ZM183.338 58.4091C180.922 58.4091 178.952 57.8493 177.574 56.8386C176.226 55.8491 175.362 54.3704 175.222 52.3182L173.227 52.4545C173.405 55.0614 174.541 57.0941 176.391 58.4512C178.213 59.7871 180.64 60.4091 183.338 60.4091V58.4091ZM174.224 51.3864H164.702V53.3864H174.224V51.3864ZM163.702 52.4112C163.833 57.7005 165.806 61.8149 169.315 64.5834C172.794 67.3278 177.666 68.6591 183.452 68.6591V66.6591C177.942 66.6591 173.564 65.3881 170.554 63.0132C167.574 60.6624 165.82 57.1404 165.701 52.3615L163.702 52.4112ZM183.452 68.6591C189.28 68.6591 194.033 67.2674 197.355 64.6651C200.705 62.0411 202.508 58.2556 202.52 53.7072L200.52 53.7019C200.509 57.6763 198.96 60.868 196.122 63.0906C193.257 65.3349 188.987 66.6591 183.452 66.6591V68.6591ZM202.52 53.7016C202.508 49.5405 200.919 46.3066 198.237 43.8955C195.587 41.5135 191.921 39.9765 187.785 39.0471L187.346 40.9984C191.301 41.8871 194.601 43.316 196.9 45.3829C199.166 47.4206 200.509 50.1186 200.52 53.7075L202.52 53.7016ZM187.798 39.0501L183.616 38.0501L183.151 39.9953L187.333 40.9953L187.798 39.0501ZM183.608 38.0482C181.613 37.5888 179.905 37.0134 178.719 36.2115C177.58 35.4405 176.994 34.5185 177.02 33.2704L175.02 33.2296C174.977 35.3225 176.051 36.8208 177.599 37.868C179.101 38.8843 181.108 39.5248 183.159 39.9972L183.608 38.0482ZM177.02 33.25C177.02 32.0793 177.524 31.074 178.542 30.3301C179.587 29.5663 181.227 29.0455 183.497 29.0455V27.0455C180.949 27.0455 178.851 27.6269 177.362 28.7154C175.845 29.8237 175.02 31.4207 175.02 33.25L177.02 33.25ZM183.497 29.0455C185.709 29.0455 187.378 29.5487 188.512 30.3781C189.621 31.1898 190.301 32.3724 190.457 33.9398L192.447 33.742C192.239 31.6503 191.294 29.9352 189.693 28.764C188.116 27.6104 185.99 27.0455 183.497 27.0455V29.0455ZM212.139 67H211.139V68H212.139V67ZM221.98 67V68H222.98V67H221.98ZM221.98 53.7727L221.207 53.139L220.98 53.4154V53.7727H221.98ZM226.821 47.8636L227.653 47.3092L226.904 46.1845L226.047 47.2299L226.821 47.8636ZM239.571 67L238.739 67.5545L239.036 68H239.571V67ZM251.344 67V68H253.233L252.171 66.4377L251.344 67ZM233.866 41.2955L233.097 40.6573L232.617 41.2361L233.04 41.8577L233.866 41.2955ZM251.139 20.4545L251.909 21.0927L253.267 19.4545L251.139 19.4545V20.4545ZM239.344 20.4545V19.4545H238.869L238.569 19.8222L239.344 20.4545ZM222.594 40.9773V41.9773H223.068L223.368 41.6096L222.594 40.9773ZM221.98 40.9773H220.98V41.9773H221.98V40.9773ZM221.98 20.4545H222.98V19.4545H221.98V20.4545ZM212.139 20.4545V19.4545H211.139V20.4545H212.139ZM212.139 68H221.98V66H212.139V68ZM222.98 67V53.7727H220.98V67H222.98ZM222.754 54.4065L227.595 48.4974L226.047 47.2299L221.207 53.139L222.754 54.4065ZM225.989 48.4181L238.739 67.5545L240.403 66.4455L227.653 47.3092L225.989 48.4181ZM239.571 68H251.344V66H239.571V68ZM252.171 66.4377L234.693 40.7332L233.04 41.8577L250.517 67.5623L252.171 66.4377ZM234.636 41.9336L251.909 21.0927L250.369 19.8164L233.097 40.6573L234.636 41.9336ZM251.139 19.4545H239.344V21.4545H251.139V19.4545ZM238.569 19.8222L221.819 40.345L223.368 41.6096L240.118 21.0868L238.569 19.8222ZM222.594 39.9773H221.98V41.9773H222.594V39.9773ZM222.98 40.9773V20.4545H220.98V40.9773H222.98ZM221.98 19.4545H212.139V21.4545H221.98V19.4545ZM211.139 20.4545V67H213.139V20.4545H211.139ZM260.264 67H259.264V68H260.264V67ZM291.719 67V68H292.719V67H291.719ZM291.719 58.8864H292.719V57.8864H291.719V58.8864ZM270.105 58.8864H269.105V59.8864H270.105V58.8864ZM270.105 47.7727V46.7727H269.105V47.7727H270.105ZM290.014 47.7727V48.7727H291.014V47.7727H290.014ZM290.014 39.6591H291.014V38.6591H290.014V39.6591ZM270.105 39.6591H269.105V40.6591H270.105V39.6591ZM270.105 28.5682V27.5682H269.105V28.5682H270.105ZM291.628 28.5682V29.5682H292.628V28.5682H291.628ZM291.628 20.4545H292.628V19.4545H291.628V20.4545ZM260.264 20.4545V19.4545H259.264V20.4545H260.264ZM260.264 68L291.719 68V66L260.264 66V68ZM292.719 67V58.8864H290.719V67H292.719ZM291.719 57.8864H270.105V59.8864H291.719V57.8864ZM271.105 58.8864V47.7727H269.105V58.8864H271.105ZM270.105 48.7727H290.014V46.7727H270.105V48.7727ZM291.014 47.7727V39.6591H289.014V47.7727H291.014ZM290.014 38.6591H270.105V40.6591H290.014V38.6591ZM271.105 39.6591V28.5682H269.105V39.6591H271.105ZM270.105 29.5682L291.628 29.5682V27.5682L270.105 27.5682V29.5682ZM292.628 28.5682V20.4545H290.628V28.5682H292.628ZM291.628 19.4545L260.264 19.4545V21.4545L291.628 21.4545V19.4545ZM259.264 20.4545V67H261.264V20.4545H259.264ZM301.679 28.5682H300.679V29.5682H301.679V28.5682ZM315.929 28.5682H316.929V27.5682H315.929V28.5682ZM315.929 67H314.929V68H315.929V67ZM325.656 67V68H326.656V67H325.656ZM325.656 28.5682V27.5682H324.656V28.5682H325.656ZM339.906 28.5682V29.5682H340.906V28.5682H339.906ZM339.906 20.4545H340.906V19.4545H339.906V20.4545ZM301.679 20.4545V19.4545H300.679V20.4545H301.679ZM301.679 29.5682H315.929V27.5682H301.679V29.5682ZM314.929 28.5682V67H316.929V28.5682H314.929ZM315.929 68H325.656V66H315.929V68ZM326.656 67V28.5682H324.656V67H326.656ZM325.656 29.5682H339.906V27.5682H325.656V29.5682ZM340.906 28.5682V20.4545H338.906V28.5682H340.906ZM339.906 19.4545L301.679 19.4545V21.4545L339.906 21.4545V19.4545ZM300.679 20.4545V28.5682H302.679V20.4545H300.679ZM350.202 67H349.202V68H350.202V67ZM375.884 42.8409H374.884V43.7948L375.836 43.8398L375.884 42.8409ZM375.884 42.3864L375.664 41.4108L374.884 41.5866V42.3864H375.884ZM350.202 20.4545V19.4545H349.202V20.4545H350.202ZM360.043 58.9545H359.043V59.9545H360.043V58.9545ZM360.043 46.5909V45.5909H359.043V46.5909H360.043ZM360.043 39.9318H359.043V40.9318H360.043V39.9318ZM360.043 28.4091V27.4091H359.043V28.4091H360.043ZM350.202 68H370.088V66H350.202V68ZM370.088 68C375.482 68 379.74 66.5925 382.667 64.1091C385.609 61.6125 387.111 58.1075 387.111 54.1364H385.111C385.111 57.5743 383.828 60.5011 381.373 62.5841C378.902 64.6803 375.149 66 370.088 66V68ZM387.111 54.1364C387.111 46.6906 381.734 42.116 375.931 41.842L375.836 43.8398C380.624 44.0658 385.111 47.8094 385.111 54.1364H387.111ZM376.884 42.8409V42.3864H374.884V42.8409H376.884ZM376.103 43.3619C378.688 42.7794 380.989 41.559 382.65 39.6968C384.32 37.8242 385.293 35.3562 385.293 32.3864H383.293C383.293 34.8938 382.482 36.8803 381.157 38.3657C379.823 39.8614 377.92 40.9024 375.664 41.4108L376.103 43.3619ZM385.293 32.3864C385.293 28.6312 383.887 25.3509 381.051 23.0301C378.238 20.7282 374.123 19.4545 368.838 19.4545V21.4545C373.826 21.4545 377.438 22.6581 379.784 24.5779C382.107 26.4786 383.293 29.1643 383.293 32.3864H385.293ZM368.838 19.4545L350.202 19.4545V21.4545L368.838 21.4545V19.4545ZM349.202 20.4545V67H351.202V20.4545H349.202ZM361.043 58.9545V46.5909H359.043V58.9545H361.043ZM360.043 47.5909H368.293V45.5909H360.043V47.5909ZM368.293 47.5909C370.467 47.5909 372.131 48.2167 373.235 49.1862C374.329 50.1467 374.952 51.5083 374.952 53.1591H376.952C376.952 50.9689 376.108 49.0465 374.555 47.6831C373.011 46.3288 370.845 45.5909 368.293 45.5909V47.5909ZM374.952 53.1591C374.952 54.6631 374.452 55.7965 373.452 56.5837C372.414 57.4018 370.698 57.9545 368.065 57.9545V59.9545C370.932 59.9545 373.16 59.3595 374.69 58.1549C376.258 56.9194 376.952 55.1551 376.952 53.1591H374.952ZM368.065 57.9545H360.043V59.9545H368.065V57.9545ZM361.043 39.9318V28.4091H359.043V39.9318H361.043ZM360.043 29.4091L367.52 29.4091V27.4091L360.043 27.4091V29.4091ZM367.52 29.4091C369.539 29.4091 370.997 29.9295 371.932 30.7188C372.848 31.4922 373.361 32.6039 373.361 34.0227H375.361C375.361 32.0779 374.635 30.3828 373.222 29.1903C371.827 28.0137 369.864 27.4091 367.52 27.4091V29.4091ZM373.361 34.0227C373.361 35.5655 372.744 36.7564 371.728 37.5816C370.691 38.4233 369.174 38.9318 367.338 38.9318V40.9318C369.525 40.9318 371.519 40.3267 372.988 39.1343C374.477 37.9254 375.361 36.1617 375.361 34.0227H373.361ZM367.338 38.9318H360.043V40.9318H367.338V38.9318ZM404.537 67V68H405.263L405.488 67.3095L404.537 67ZM407.991 56.3864V55.3864H407.265L407.041 56.0769L407.991 56.3864ZM424.787 56.3864L425.738 56.0769L425.513 55.3864H424.787V56.3864ZM428.241 67L427.291 67.3095L427.515 68H428.241V67ZM438.787 67V68H440.189L439.732 66.6741L438.787 67ZM422.741 20.4545L423.687 20.1286L423.454 19.4545H422.741V20.4545ZM410.06 20.4545V19.4545H409.347L409.114 20.1282L410.06 20.4545ZM393.991 67L393.046 66.6737L392.588 68H393.991V67ZM410.491 48.7045L409.54 48.3953L409.115 49.7045H410.491V48.7045ZM416.219 31.0909V30.0909H415.492L415.268 30.7817L416.219 31.0909ZM416.582 31.0909L417.533 30.7817L417.309 30.0909H416.582V31.0909ZM422.31 48.7045V49.7045H423.686L423.261 48.3953L422.31 48.7045ZM405.488 67.3095L408.942 56.6959L407.041 56.0769L403.586 66.6905L405.488 67.3095ZM407.991 57.3864H424.787V55.3864H407.991V57.3864ZM423.836 56.6959L427.291 67.3095L429.192 66.6905L425.738 56.0769L423.836 56.6959ZM428.241 68H438.787V66H428.241V68ZM439.732 66.6741L423.687 20.1286L421.796 20.7804L437.842 67.3259L439.732 66.6741ZM422.741 19.4545H410.06V21.4545H422.741V19.4545ZM409.114 20.1282L393.046 66.6737L394.937 67.3263L411.005 20.7809L409.114 20.1282ZM393.991 68H404.537V66H393.991V68ZM411.442 49.0138L417.17 31.4001L415.268 30.7817L409.54 48.3953L411.442 49.0138ZM416.219 32.0909H416.582V30.0909H416.219V32.0909ZM415.631 31.4001L421.359 49.0138L423.261 48.3953L417.533 30.7817L415.631 31.4001ZM422.31 47.7045H410.491V49.7045H422.31V47.7045ZM448.389 67H447.389V68H448.389V67ZM478.185 67V68H479.185V67H478.185ZM478.185 58.8864H479.185V57.8864H478.185V58.8864ZM458.23 58.8864H457.23V59.8864H458.23V58.8864ZM458.23 20.4545H459.23V19.4545H458.23V20.4545ZM448.389 20.4545V19.4545H447.389V20.4545H448.389ZM448.389 68L478.185 68V66L448.389 66V68ZM479.185 67V58.8864H477.185V67H479.185ZM478.185 57.8864H458.23V59.8864H478.185V57.8864ZM459.23 58.8864V20.4545H457.23V58.8864H459.23ZM458.23 19.4545L448.389 19.4545V21.4545L458.23 21.4545V19.4545ZM447.389 20.4545V67H449.389V20.4545H447.389ZM488.702 67H487.702V68H488.702V67ZM518.497 67V68H519.497V67H518.497ZM518.497 58.8864H519.497V57.8864H518.497V58.8864ZM498.543 58.8864H497.543V59.8864H498.543V58.8864ZM498.543 20.4545H499.543V19.4545H498.543V20.4545ZM488.702 20.4545V19.4545H487.702V20.4545H488.702ZM488.702 68H518.497V66H488.702V68ZM519.497 67V58.8864H517.497V67H519.497ZM518.497 57.8864H498.543V59.8864H518.497V57.8864ZM499.543 58.8864V20.4545H497.543V58.8864H499.543ZM498.543 19.4545L488.702 19.4545V21.4545L498.543 21.4545V19.4545ZM487.702 20.4545V67H489.702V20.4545H487.702Z" fill="#042365" fill-opacity="0.12"/>
<mask id="mask0" style="mask-type:alpha" maskUnits="userSpaceOnUse" x="0" y="46" width="271" height="321">
<path fill-rule="evenodd" clip-rule="evenodd" d="M107.448 308.173C110.235 305.514 117.094 295.167 110.779 260.503C110.779 260.503 112.031 241.1 107.038 247.721C107.038 247.721 108.944 244.206 108.338 241.648C108.338 241.648 106.83 235.752 112.422 230.548C112.422 230.548 112.334 225.607 111.431 221.177C111.431 221.177 114.136 214.098 107.974 213.599C107.974 213.599 115.35 203.16 105.587 202.643C105.587 202.643 108.139 197.84 107.448 194.646L106.704 190.411L107.24 187.383C107.24 187.383 102.216 184.614 102.709 180.086C102.709 180.086 99.8816 190.824 91.9484 191.758C91.9484 191.758 88.9318 193.012 86.9218 196.793C86.9218 196.793 85.3798 199.275 76.2749 199.972C67.17 200.67 61.7242 201.918 60.2924 205.241C60.2924 205.241 59.2582 198.865 56.0152 199.042L55.8102 203.931L50.9365 205.467C50.9365 205.467 45.0869 199.786 27.7888 201.208C27.7888 201.208 5.52211 202.56 4.08723 197.014C4.08723 197.014 -4.70566 191.283 4.96526 189.062L11.7022 189.368C11.7022 189.368 12.2865 188.258 7.55357 187.254C7.55357 187.254 4.65934 185.424 8.10122 185.363L18.4574 186.957C18.4574 186.957 22.3123 185.694 30.6646 190.552L33.8679 191.953L46.9807 191.996L50.0218 189.943L57.0401 188.894L77.1407 182.181L75.9597 185.293C75.9597 185.293 89.9934 159.104 100.772 159.45L97.7858 158.547C97.7858 158.547 98.67 139.389 118.226 141.222L115.035 144.015C115.035 144.015 125.749 136.005 129.017 139.979L133.591 140.438L133.82 137.214C133.82 137.214 125.648 127.381 134.622 115.969C134.622 115.969 136.702 102.131 152.287 104.533C152.287 104.533 167.156 106.959 164.849 123.719C164.849 123.719 163.943 132.784 150.041 137.364C150.041 137.364 142.27 140.747 140.227 142.347C140.227 142.347 155.466 135.653 159.137 135.286C159.137 135.286 155.848 139.527 155.407 142.828C155.407 142.828 159.207 131.551 175.704 132.23C175.704 132.23 170.09 134.705 168 137.865C168 137.865 173.868 135.268 179.25 131.15C179.25 131.15 188.651 124.462 196.126 123.679C196.126 123.679 197.726 123.324 197.912 124.422C197.912 124.422 198.904 125.851 193.403 128.467L190.368 130.113C190.368 130.113 194.853 130.091 198.105 127.365C198.105 127.365 202.67 122.091 205.494 121.045C208.321 119.998 212.806 115.547 218.787 113.962C218.787 113.962 226.215 112.291 227.301 108.687C227.301 108.687 227.442 113.24 229.997 117.202C229.997 117.202 235.195 128.191 233.895 126.934C233.895 126.934 230.915 120.368 225.304 124.649C225.304 124.649 223.645 125.306 225.086 129.525C225.086 129.525 223.303 129.088 216.994 132.536C216.994 132.536 212.093 134.295 209.202 136.125C209.202 136.125 183.203 152.496 179.788 154.227C179.788 154.227 178.017 155.292 184.332 158.856C184.332 158.856 176.891 155.084 171.61 157.562L174.107 158.076C174.107 158.076 172.855 165.566 169.576 167.634L171.191 168.796L164.482 177.898L176.762 176.873C176.762 176.873 162.178 185.137 164.344 189.102C164.344 189.102 165.855 190.503 162.157 192.593C162.157 192.593 158.797 199.21 165.574 201.126L163.735 202.404C163.735 202.404 165.941 205.164 165.831 209.854C165.831 209.854 170.062 212.513 171.087 216.095C171.087 216.095 170.824 221.309 172.883 222.419C172.883 222.419 172.614 225.219 169.726 228.009C169.726 228.009 166.602 234.816 175.82 231.16L168.511 237.922C168.511 237.922 167 242.908 173.296 237.68C173.296 237.68 173.03 241.758 167.015 243.78C167.015 243.78 164.24 244.478 161.499 250.429C161.499 250.429 159.599 257.933 155.297 258.353C155.297 258.353 158.247 260.46 159.483 262.789C159.483 262.789 173.409 264.609 186.675 283.125C186.675 283.125 187.789 285.325 193.816 280.494C193.816 280.494 193.094 283.36 188.391 286.071C183.686 288.785 191.035 290.446 192.769 288.277L194.994 288.525L195.45 294.644C195.45 294.644 202.624 296.862 203.783 303.651C203.783 303.651 208.422 310.017 213.491 304.942C213.491 304.942 210.214 310.941 218.674 313.762L227.158 321.019L229.443 321.252L229.143 324.66C229.143 324.66 231.184 331.66 231.49 336.408C231.49 336.408 219.824 349.362 211.613 351.837C211.613 351.837 203.869 353.712 207.127 342.2C207.127 342.2 205.57 338.951 206.788 336.989C206.788 336.989 202.26 333.184 203.435 326.312C203.435 326.312 195.394 318.734 195.633 313.808C195.633 313.808 183.31 300.279 178.445 300.735L172.868 299.236C172.868 299.236 175.153 292.768 158.442 287.24C158.442 287.24 146.945 279.539 144.556 277.71C144.556 277.71 154.214 287.197 158.442 290.792C158.442 290.792 144.862 297.33 131.932 298.055L143.399 298.6C143.399 298.6 143.821 307.686 145.268 310.281L145.819 307.848C145.819 307.848 154.955 306.058 161.737 312.232C161.737 312.232 166.33 317.663 173.599 317.596L175.753 318.841C175.753 318.841 179.216 314.294 193.785 315.723C193.785 315.723 196.995 321.438 200.47 324.914C200.47 324.914 201.841 326.75 202.131 331.482C202.131 331.482 203.933 336.803 204.496 338.859C205.062 340.915 205.05 345.889 204.952 348.212C204.952 348.212 204.279 354.532 213.77 352.617C213.77 352.617 218.554 350.837 217.536 355.94C217.536 355.94 215.324 370.077 209.615 366.345C209.615 366.345 204.646 363.952 203.45 358.708L190.998 340.168C190.998 340.168 182.67 339.663 181.48 336.895L177.469 334.358C177.469 334.358 174.881 336.999 173.128 334.79L171.32 332.709C171.32 332.709 158.026 334.319 141.374 328.775C141.374 328.775 132.651 326.502 127.521 326.465C127.521 326.465 120.891 325.694 120.524 315.169L119.685 300.891L117.672 300.353L107.448 308.173C106.805 308.784 106.38 308.989 106.38 308.989L107.448 308.173ZM248.565 95.336C247.631 95.4431 246.68 95.5012 245.713 95.5012C232.148 95.5012 221.137 84.4872 221.137 70.9216C221.137 57.356 232.148 46.342 245.713 46.342C259.279 46.342 270.293 57.356 270.293 70.9216C270.293 71.3132 270.284 71.7018 270.265 72.0903L270.293 72.1821C268.898 98.9829 237.321 120.919 237.321 120.919L237.147 124.97C230.159 119.126 229.122 109.064 229.122 109.064C243.107 105.307 243.541 101.412 243.541 101.412C245.67 97.1136 247.075 96.5537 247.075 96.5537C247.671 96.1376 248.164 95.7307 248.565 95.336Z" fill="#858E37"/>
</mask>
<g mask="url(#mask0)">
<path fill-rule="evenodd" clip-rule="evenodd" d="M199.444 95.9656L139.959 153.128L132.92 37.7015L199.444 95.9656Z" fill="#F6A980"/>
<path fill-rule="evenodd" clip-rule="evenodd" d="M232.87 178.785L165.856 289.274L140.12 153.089L232.87 178.785Z" fill="#E59E78"/>
<path fill-rule="evenodd" clip-rule="evenodd" d="M246.771 150.385L193.408 145.979L221.317 105.206L246.771 150.385Z" fill="#BB6A41"/>
<path fill-rule="evenodd" clip-rule="evenodd" d="M271.638 95.0192L210.688 95.8575L249.46 62.5432L271.638 95.0192Z" fill="#E59E78"/>
<path fill-rule="evenodd" clip-rule="evenodd" d="M258.166 94.8913L248.847 62.5652L274.313 35.7216C279.594 62.0726 276.834 96.8646 258.166 94.8913Z" fill="#F6A980"/>
<path fill-rule="evenodd" clip-rule="evenodd" d="M217.711 27.9809L248.883 62.5955L224.236 97.207C211.289 73.6554 208.095 50.5351 217.711 27.9809Z" fill="#E67C49"/>
<path fill-rule="evenodd" clip-rule="evenodd" d="M273.571 41.2973L249.132 62.5697L230.13 42.2672C250.824 25.119 249.61 36.1024 273.571 41.2973Z" fill="#C58766"/>
<path fill-rule="evenodd" clip-rule="evenodd" d="M266.594 94.2253L213.568 144.553L246.796 95.3237L266.594 94.2253Z" fill="#C58766"/>
<path fill-rule="evenodd" clip-rule="evenodd" d="M241.883 103.586L230.036 120.621L220.766 104.81L241.883 103.586Z" fill="#E59E78"/>
<path fill-rule="evenodd" clip-rule="evenodd" d="M213.92 115.647L193.07 146.094L186.208 123.809L213.92 115.647Z" fill="#D9865B"/>
<path fill-rule="evenodd" clip-rule="evenodd" d="M207.803 235.705L148.762 201.951L217.26 182.251L207.803 235.705Z" fill="#AA5F3A"/>
<path fill-rule="evenodd" clip-rule="evenodd" d="M244.659 305.211L165.322 289.333L193.866 242.734L247.419 266.818L244.659 305.211Z" fill="#D9865B"/>
<path fill-rule="evenodd" clip-rule="evenodd" d="M148.436 235.204L76.7559 289.191C80.6016 253.426 91.432 217.802 105.827 182.251L148.436 235.204Z" fill="#AA5F3A"/>
<path fill-rule="evenodd" clip-rule="evenodd" d="M165.893 289.319H76.7559L158.538 247.594L165.893 289.319Z" fill="#AA5F3A"/>
<path fill-rule="evenodd" clip-rule="evenodd" d="M125.362 371.461L50.8372 289.177H165.472L125.362 371.461Z" fill="#D9865B"/>
<path fill-rule="evenodd" clip-rule="evenodd" d="M-18.2925 227.501L1.71324 156.509L53.9594 219.626L-18.2925 227.501Z" fill="#E59E78"/>
<path fill-rule="evenodd" clip-rule="evenodd" d="M47.4412 222.393L-24.049 144.809L92.5497 145.831L47.4412 222.393Z" fill="#B56C46"/>
<path fill-rule="evenodd" clip-rule="evenodd" d="M158.538 247.445L76.7559 289.169L115.929 194.492L158.538 247.445Z" fill="#E59E78"/>
<path fill-rule="evenodd" clip-rule="evenodd" d="M201.254 170.068L140.12 153.152L178.219 94.5851L201.254 170.068Z" fill="#C58766"/>
<path fill-rule="evenodd" clip-rule="evenodd" d="M139.526 153.128L81.7976 103.406L132.487 37.7015L139.526 153.128Z" fill="#E77D49"/>
<path fill-rule="evenodd" clip-rule="evenodd" d="M136.476 47.948L78.9156 45.2404L132.771 -10.1815L136.476 47.948Z" fill="#494FA9"/>
<path fill-rule="evenodd" clip-rule="evenodd" d="M79.2383 99.7471L34.2766 98.7069L88.1321 43.282L79.2383 99.7471Z" fill="#AB64E6"/>
<path fill-rule="evenodd" clip-rule="evenodd" d="M86.3693 45.2621L131.328 46.3024L77.4755 101.724L86.3693 45.2621Z" fill="#B17AF8"/>
<path fill-rule="evenodd" clip-rule="evenodd" d="M139.757 153.089L158.138 247.549L114.923 194.232L139.757 153.089Z" fill="#F1B886"/>
<path fill-rule="evenodd" clip-rule="evenodd" d="M165.445 289.177L257.029 307.335L97.6415 403.711L165.445 289.177Z" fill="#B66C46"/>
<path fill-rule="evenodd" clip-rule="evenodd" d="M207.806 363.702L299.391 381.857L227.634 428.578L207.806 363.702Z" fill="#4119A7"/>
<path fill-rule="evenodd" clip-rule="evenodd" d="M198.447 366.582L265.975 403.718L285.1 457.843L198.447 366.582Z" fill="#6643BB"/>
<path fill-rule="evenodd" clip-rule="evenodd" d="M187.64 296.918L285.288 379.682L200.912 371.538L187.64 296.918Z" fill="#C58766"/>
<path fill-rule="evenodd" clip-rule="evenodd" d="M248.177 310.419C268.544 324.957 276.217 349.98 283.07 378.378L223.647 327.007L248.177 310.419Z" fill="#AA5F3A"/>
<path fill-rule="evenodd" clip-rule="evenodd" d="M140.093 153.01L73.5657 263.499L26.3553 120.507L140.093 153.01Z" fill="#D9865B"/>
<path fill-rule="evenodd" clip-rule="evenodd" d="M139.901 153.044L35.7239 124.218L11.9551 84.6285L58.529 56.243L139.901 153.044Z" fill="#E59E78"/>
</g>
<g style="mix-blend-mode:multiply">
<path fill-rule="evenodd" clip-rule="evenodd" d="M107.448 308.173C110.235 305.514 117.094 295.167 110.779 260.503C110.779 260.503 112.031 241.1 107.038 247.721C107.038 247.721 108.944 244.206 108.338 241.648C108.338 241.648 106.83 235.752 112.422 230.548C112.422 230.548 112.334 225.607 111.431 221.177C111.431 221.177 114.136 214.098 107.974 213.599C107.974 213.599 115.35 203.16 105.587 202.643C105.587 202.643 108.139 197.84 107.448 194.646L106.704 190.411L107.24 187.383C107.24 187.383 102.216 184.614 102.709 180.086C102.709 180.086 99.8816 190.824 91.9484 191.758C91.9484 191.758 88.9318 193.012 86.9218 196.793C86.9218 196.793 85.3798 199.275 76.2749 199.972C67.17 200.67 61.7242 201.918 60.2924 205.241C60.2924 205.241 59.2582 198.865 56.0152 199.042L55.8102 203.931L50.9365 205.467C50.9365 205.467 45.0869 199.786 27.7888 201.208C27.7888 201.208 5.52211 202.56 4.08723 197.014C4.08723 197.014 -4.70566 191.283 4.96526 189.062L11.7022 189.368C11.7022 189.368 12.2865 188.258 7.55357 187.254C7.55357 187.254 4.65934 185.424 8.10122 185.363L18.4574 186.957C18.4574 186.957 22.3123 185.694 30.6646 190.552L33.8679 191.953L46.9807 191.996L50.0218 189.943L57.0401 188.894L77.1407 182.181L75.9597 185.293C75.9597 185.293 89.9934 159.104 100.772 159.45L97.7858 158.547C97.7858 158.547 98.67 139.389 118.226 141.222L115.035 144.015C115.035 144.015 125.749 136.005 129.017 139.979L133.591 140.438L133.82 137.214C133.82 137.214 125.648 127.381 134.622 115.969C134.622 115.969 136.702 102.131 152.287 104.533C152.287 104.533 167.156 106.959 164.849 123.719C164.849 123.719 163.943 132.784 150.041 137.364C150.041 137.364 142.27 140.747 140.227 142.347C140.227 142.347 155.466 135.653 159.137 135.286C159.137 135.286 155.848 139.527 155.407 142.828C155.407 142.828 159.207 131.551 175.704 132.23C175.704 132.23 170.09 134.705 168 137.865C168 137.865 173.868 135.268 179.25 131.15C179.25 131.15 188.651 124.462 196.126 123.679C196.126 123.679 197.726 123.324 197.912 124.422C197.912 124.422 198.904 125.851 193.403 128.467L190.368 130.113C190.368 130.113 194.853 130.091 198.105 127.365C198.105 127.365 202.67 122.091 205.494 121.045C208.321 119.998 212.806 115.547 218.787 113.962C218.787 113.962 226.215 112.291 227.301 108.687C227.301 108.687 227.442 113.24 229.997 117.202C229.997 117.202 235.195 128.191 233.895 126.934C233.895 126.934 230.915 120.368 225.304 124.649C225.304 124.649 223.645 125.306 225.086 129.525C225.086 129.525 223.303 129.088 216.994 132.536C216.994 132.536 212.093 134.295 209.202 136.125C209.202 136.125 183.203 152.496 179.788 154.227C179.788 154.227 178.017 155.292 184.332 158.856C184.332 158.856 176.891 155.084 171.61 157.562L174.107 158.076C174.107 158.076 172.855 165.566 169.576 167.634L171.191 168.796L164.482 177.898L176.762 176.873C176.762 176.873 162.178 185.137 164.344 189.102C164.344 189.102 165.855 190.503 162.157 192.593C162.157 192.593 158.797 199.21 165.574 201.126L163.735 202.404C163.735 202.404 165.941 205.164 165.831 209.854C165.831 209.854 170.062 212.513 171.087 216.095C171.087 216.095 170.824 221.309 172.883 222.419C172.883 222.419 172.614 225.219 169.726 228.009C169.726 228.009 166.602 234.816 175.82 231.16L168.511 237.922C168.511 237.922 167 242.908 173.296 237.68C173.296 237.68 173.03 241.758 167.015 243.78C167.015 243.78 164.24 244.478 161.499 250.429C161.499 250.429 159.599 257.933 155.297 258.353C155.297 258.353 158.247 260.46 159.483 262.789C159.483 262.789 173.409 264.609 186.675 283.125C186.675 283.125 187.789 285.325 193.816 280.494C193.816 280.494 193.094 283.36 188.391 286.071C183.686 288.785 191.035 290.446 192.769 288.277L194.994 288.525L195.45 294.644C195.45 294.644 202.624 296.862 203.783 303.651C203.783 303.651 208.422 310.017 213.491 304.942C213.491 304.942 210.214 310.941 218.674 313.762L227.158 321.019L229.443 321.252L229.143 324.66C229.143 324.66 231.184 331.66 231.49 336.408C231.49 336.408 219.824 349.362 211.613 351.837C211.613 351.837 203.869 353.712 207.127 342.2C207.127 342.2 205.57 338.951 206.788 336.989C206.788 336.989 202.26 333.184 203.435 326.312C203.435 326.312 195.394 318.734 195.633 313.808C195.633 313.808 183.31 300.279 178.445 300.735L172.868 299.236C172.868 299.236 175.153 292.768 158.442 287.24C158.442 287.24 146.945 279.539 144.556 277.71C144.556 277.71 154.214 287.197 158.442 290.792C158.442 290.792 144.862 297.33 131.932 298.055L143.399 298.6C143.399 298.6 143.821 307.686 145.268 310.281L145.819 307.848C145.819 307.848 154.955 306.058 161.737 312.232C161.737 312.232 166.33 317.663 173.599 317.596L175.753 318.841C175.753 318.841 179.216 314.294 193.785 315.723C193.785 315.723 196.995 321.438 200.47 324.914C200.47 324.914 201.841 326.75 202.131 331.482C202.131 331.482 203.933 336.803 204.496 338.859C205.062 340.915 205.05 345.889 204.952 348.212C204.952 348.212 204.279 354.532 213.77 352.617C213.77 352.617 218.554 350.837 217.536 355.94C217.536 355.94 215.324 370.077 209.615 366.345C209.615 366.345 204.646 363.952 203.45 358.708L190.998 340.168C190.998 340.168 182.67 339.663 181.48 336.895L177.469 334.358C177.469 334.358 174.881 336.999 173.128 334.79L171.32 332.709C171.32 332.709 158.026 334.319 141.374 328.775C141.374 328.775 132.651 326.502 127.521 326.465C127.521 326.465 120.891 325.694 120.524 315.169L119.685 300.891L117.672 300.353L107.448 308.173C106.805 308.784 106.38 308.989 106.38 308.989L107.448 308.173ZM248.565 95.336C247.631 95.4431 246.68 95.5012 245.713 95.5012C232.148 95.5012 221.137 84.4872 221.137 70.9216C221.137 57.356 232.148 46.342 245.713 46.342C259.279 46.342 270.293 57.356 270.293 70.9216C270.293 71.3132 270.284 71.7018 270.265 72.0903L270.293 72.1821C268.898 98.9829 237.321 120.919 237.321 120.919L237.147 124.97C230.159 119.126 229.122 109.064 229.122 109.064C243.107 105.307 243.541 101.412 243.541 101.412C245.67 97.1136 247.075 96.5537 247.075 96.5537C247.671 96.1376 248.164 95.7307 248.565 95.336Z" fill="#FD0000" fill-opacity="0.6"/>
</g>
</svg>
