<svg width="259" height="401" viewBox="0 0 259 401" fill="none" xmlns="http://www.w3.org/2000/svg">
<path d="M206.187 344.514L207.187 344.514L207.187 343.386L206.068 343.521L206.187 344.514ZM224.17 344.514L224.294 343.522L223.176 343.382L223.17 344.51L224.17 344.514ZM224.114 356.957L223.114 356.953L223.11 357.787L223.93 357.94L224.114 356.957ZM206.187 356.957L206.333 357.947L207.187 357.821L207.187 356.957L206.187 356.957ZM206.068 343.521C199.113 344.36 193.579 347.423 189.791 352.068C186.01 356.703 184.023 362.847 184.023 369.77L186.023 369.77C186.023 363.227 187.899 357.552 191.341 353.332C194.776 349.119 199.825 346.288 206.307 345.507L206.068 343.521ZM184.023 369.77C184.023 377.696 186.826 384.744 192.138 389.808C197.449 394.871 205.184 397.872 214.909 397.872L214.909 395.872C205.6 395.872 198.392 393.007 193.518 388.361C188.646 383.716 186.023 377.213 186.023 369.77L184.023 369.77ZM214.909 397.872C224.602 397.872 232.337 394.923 237.656 389.885C242.979 384.845 245.795 377.795 245.795 369.77L243.795 369.77C243.795 377.313 241.158 383.815 236.281 388.433C231.402 393.054 224.194 395.872 214.909 395.872L214.909 397.872ZM245.795 369.77C245.795 354.342 235.497 344.918 224.294 343.522L224.047 345.507C234.265 346.78 243.795 355.368 243.795 369.77L245.795 369.77ZM223.17 344.51L223.114 356.953L225.114 356.962L225.17 344.519L223.17 344.51ZM223.93 357.94C226.815 358.48 229.041 359.87 230.553 361.847C232.07 363.832 232.915 366.471 232.915 369.571L234.915 369.571C234.915 366.109 233.969 363.023 232.142 360.633C230.309 358.235 227.634 356.599 224.298 355.974L223.93 357.94ZM232.915 369.571C232.915 373.721 231.385 377.13 228.447 379.524C225.484 381.937 220.983 383.401 214.909 383.401L214.909 385.401C221.279 385.401 226.281 383.867 229.71 381.074C233.163 378.262 234.915 374.256 234.915 369.571L232.915 369.571ZM214.909 383.401C209.009 383.401 204.503 381.959 201.494 379.541C198.51 377.142 196.903 373.71 196.903 369.486L194.903 369.486C194.903 374.267 196.748 378.292 200.241 381.1C203.71 383.887 208.707 385.401 214.909 385.401L214.909 383.401ZM196.903 369.486C196.903 366.313 197.819 363.649 199.423 361.68C201.024 359.717 203.362 358.382 206.333 357.947L206.042 355.968C202.621 356.47 199.817 358.033 197.873 360.416C195.934 362.795 194.903 365.926 194.903 369.486L196.903 369.486ZM207.187 356.957L207.187 344.514L205.187 344.514L205.187 356.957L207.187 356.957ZM244 327.693L244 328.693L245 328.693L245 327.693L244 327.693ZM244 315.392L245 315.392L245 314.392L244 314.392L244 315.392ZM223.375 315.392L222.375 315.392L222.375 316.392L223.375 316.392L223.375 315.392ZM223.375 306.415L222.904 305.533L222.375 305.815L222.375 306.415L223.375 306.415ZM244 295.392L244.471 296.274L245 295.991L245 295.392L244 295.392ZM244 281.812L245 281.812L245 280.126L243.52 280.935L244 281.812ZM221.386 294.17L220.467 294.565L220.901 295.575L221.866 295.048L221.386 294.17ZM185.818 327.693L184.818 327.693L184.818 328.693L185.818 328.693L185.818 327.693ZM213.489 315.392L213.489 316.392L214.489 316.392L214.489 315.392L213.489 315.392ZM195.875 315.392L194.875 315.392L194.875 316.392L195.875 316.392L195.875 315.392ZM245 327.693L245 315.392L243 315.392L243 327.693L245 327.693ZM244 314.392L223.375 314.392L223.375 316.392L244 316.392L244 314.392ZM224.375 315.392L224.375 306.415L222.375 306.415L222.375 315.392L224.375 315.392ZM223.846 307.297L244.471 296.274L243.529 294.51L222.904 305.533L223.846 307.297ZM245 295.392L245 281.812L243 281.812L243 295.392L245 295.392ZM243.52 280.935L220.907 293.293L221.866 295.048L244.48 282.69L243.52 280.935ZM222.305 293.776C219.292 286.754 213.139 282.886 204.824 282.886L204.824 284.886C212.418 284.886 217.799 288.348 220.467 294.565L222.305 293.776ZM204.824 282.886C198.815 282.886 193.779 284.879 190.252 288.678C186.733 292.47 184.818 297.95 184.818 304.739L186.818 304.739C186.818 298.317 188.625 293.371 191.718 290.039C194.803 286.715 199.271 284.886 204.824 284.886L204.824 282.886ZM184.818 304.739L184.818 327.693L186.818 327.693L186.818 304.739L184.818 304.739ZM185.818 328.693L244 328.693L244 326.693L185.818 326.693L185.818 328.693ZM213.489 314.392L195.875 314.392L195.875 316.392L213.489 316.392L213.489 314.392ZM196.875 315.392L196.875 307.097L194.875 307.097L194.875 315.392L196.875 315.392ZM196.875 307.097C196.875 303.673 197.638 301.313 198.932 299.818C200.204 298.349 202.128 297.557 204.824 297.557L204.824 295.557C201.724 295.557 199.174 296.483 197.42 298.509C195.689 300.508 194.875 303.418 194.875 307.097L196.875 307.097ZM204.824 297.557C207.502 297.557 209.346 298.346 210.55 299.795C211.783 301.28 212.489 303.629 212.489 307.04L214.489 307.04C214.489 303.406 213.745 300.512 212.088 298.517C210.401 296.486 207.913 295.557 204.824 295.557L204.824 297.557ZM212.489 307.04L212.489 315.392L214.489 315.392L214.489 307.04L212.489 307.04ZM185.818 254.892L185.818 253.892L184.818 253.892L184.818 254.892L185.818 254.892ZM185.818 267.193L184.818 267.193L184.818 268.193L185.818 268.193L185.818 267.193ZM244 267.193L244 268.193L245 268.193L245 267.193L244 267.193ZM244 254.892L245 254.892L245 253.892L244 253.892L244 254.892ZM184.818 254.892L184.818 267.193L186.818 267.193L186.818 254.892L184.818 254.892ZM185.818 268.193L244 268.193L244 266.193L185.818 266.193L185.818 268.193ZM245 267.193L245 254.892L243 254.892L243 267.193L245 267.193ZM244 253.892L185.818 253.892L185.818 255.892L244 255.892L244 253.892ZM206.187 185.436L207.187 185.436L207.187 184.308L206.068 184.443L206.187 185.436ZM224.17 185.436L224.294 184.444L223.176 184.304L223.17 185.432L224.17 185.436ZM224.114 197.879L223.114 197.875L223.11 198.709L223.93 198.862L224.114 197.879ZM206.187 197.879L206.333 198.869L207.187 198.743L207.187 197.879L206.187 197.879ZM206.068 184.443C199.113 185.281 193.579 188.345 189.791 192.989C186.01 197.625 184.023 203.769 184.023 210.692L186.023 210.692C186.023 204.149 187.899 198.474 191.341 194.253C194.776 190.041 199.825 187.21 206.307 186.429L206.068 184.443ZM184.023 210.692C184.023 218.618 186.826 225.666 192.138 230.73C197.449 235.793 205.184 238.794 214.909 238.794L214.909 236.794C205.6 236.794 198.392 233.929 193.518 229.283C188.646 224.638 186.023 218.135 186.023 210.692L184.023 210.692ZM214.909 238.794C224.602 238.794 232.337 235.845 237.656 230.807C242.979 225.766 245.795 218.716 245.795 210.692L243.795 210.692C243.795 218.235 241.158 224.736 236.281 229.355C231.402 233.976 224.194 236.794 214.909 236.794L214.909 238.794ZM245.795 210.692C245.795 195.264 235.497 185.84 224.294 184.444L224.047 186.428C234.265 187.702 243.795 196.29 243.795 210.692L245.795 210.692ZM223.17 185.432L223.114 197.875L225.114 197.884L225.17 185.441L223.17 185.432ZM223.93 198.862C226.815 199.402 229.041 200.792 230.553 202.769C232.07 204.754 232.915 207.393 232.915 210.493L234.915 210.493C234.915 207.031 233.969 203.945 232.142 201.555C230.309 199.157 227.634 197.521 224.298 196.896L223.93 198.862ZM232.915 210.493C232.915 214.643 231.385 218.052 228.447 220.446C225.484 222.859 220.983 224.322 214.909 224.322L214.909 226.322C221.279 226.322 226.28 224.789 229.71 221.996C233.163 219.183 234.915 215.178 234.915 210.493L232.915 210.493ZM214.909 224.322C209.009 224.322 204.503 222.881 201.494 220.463C198.51 218.064 196.903 214.632 196.903 210.408L194.903 210.408C194.903 215.189 196.748 219.214 200.241 222.022C203.71 224.809 208.707 226.322 214.909 226.322L214.909 224.322ZM196.903 210.408C196.903 207.235 197.819 204.57 199.423 202.602C201.024 200.639 203.362 199.304 206.333 198.869L206.042 196.89C202.621 197.392 199.817 198.955 197.873 201.338C195.934 203.717 194.903 206.848 194.903 210.408L196.903 210.408ZM207.187 197.879L207.187 185.436L205.187 185.436L205.187 197.879L207.187 197.879ZM244 168.615L244 169.615L245 169.615L245 168.615L244 168.615ZM244 156.314L245 156.314L245 155.314L244 155.314L244 156.314ZM227.466 156.314L226.832 157.087L227.109 157.314L227.466 157.314L227.466 156.314ZM220.08 150.263L219.525 149.431L218.4 150.18L219.446 151.036L220.08 150.263ZM244 134.325L244.554 135.157L245 134.861L245 134.325L244 134.325ZM244 119.609L245 119.609L245 117.72L243.438 118.782L244 119.609ZM211.869 141.456L211.231 142.226L211.81 142.706L212.432 142.283L211.869 141.456ZM185.818 119.865L186.456 119.095L184.818 117.737L184.818 119.865L185.818 119.865ZM185.818 134.609L184.818 134.609L184.818 135.084L185.186 135.384L185.818 134.609ZM211.472 155.547L212.472 155.547L212.472 155.072L212.104 154.772L211.472 155.547ZM211.472 156.314L211.472 157.314L212.472 157.314L212.472 156.314L211.472 156.314ZM185.818 156.314L185.818 155.314L184.818 155.314L184.818 156.314L185.818 156.314ZM185.818 168.615L184.818 168.615L184.818 169.615L185.818 169.615L185.818 168.615ZM245 168.615L245 156.314L243 156.314L243 168.615L245 168.615ZM244 155.314L227.466 155.314L227.466 157.314L244 157.314L244 155.314ZM228.1 155.54L220.713 149.489L219.446 151.036L226.832 157.087L228.1 155.54ZM220.634 151.095L244.554 135.157L243.446 133.493L219.525 149.431L220.634 151.095ZM245 134.325L245 119.609L243 119.609L243 134.325L245 134.325ZM243.438 118.782L211.307 140.629L212.432 142.283L244.562 120.436L243.438 118.782ZM212.507 140.686L186.456 119.095L185.18 120.635L211.231 142.226L212.507 140.686ZM184.818 119.865L184.818 134.609L186.818 134.609L186.818 119.865L184.818 119.865ZM185.186 135.384L210.839 156.322L212.104 154.772L186.45 133.835L185.186 135.384ZM210.472 155.547L210.472 156.314L212.472 156.314L212.472 155.547L210.472 155.547ZM211.472 155.314L185.818 155.314L185.818 157.314L211.472 157.314L211.472 155.314ZM184.818 156.314L184.818 168.615L186.818 168.615L186.818 156.314L184.818 156.314ZM185.818 169.615L244 169.615L244 167.615L185.818 167.615L185.818 169.615ZM244 105.459L244 106.459L245 106.459L245 105.459L244 105.459ZM244 66.1406L245 66.1406L245 65.1406L244 65.1406L244 66.1406ZM233.858 66.1406L233.858 65.1406L232.858 65.1406L232.858 66.1406L233.858 66.1406ZM233.858 93.1577L233.858 94.1577L234.858 94.1577L234.858 93.1577L233.858 93.1577ZM219.966 93.1577L218.966 93.1577L218.966 94.1577L219.966 94.1577L219.966 93.1577ZM219.966 68.2713L220.966 68.2713L220.966 67.2713L219.966 67.2713L219.966 68.2713ZM209.824 68.2713L209.824 67.2713L208.824 67.2713L208.824 68.2713L209.824 68.2713ZM209.824 93.1577L209.824 94.1577L210.824 94.1577L210.824 93.1577L209.824 93.1577ZM195.96 93.1577L194.96 93.1577L194.96 94.1577L195.96 94.1577L195.96 93.1577ZM195.96 66.2543L196.96 66.2543L196.96 65.2543L195.96 65.2543L195.96 66.2543ZM185.818 66.2543L185.818 65.2543L184.818 65.2543L184.818 66.2543L185.818 66.2543ZM185.818 105.459L184.818 105.459L184.818 106.459L185.818 106.459L185.818 105.459ZM245 105.459L245 66.1406L243 66.1406L243 105.459L245 105.459ZM244 65.1406L233.858 65.1406L233.858 67.1406L244 67.1406L244 65.1406ZM232.858 66.1406L232.858 93.1577L234.858 93.1577L234.858 66.1406L232.858 66.1406ZM233.858 92.1577L219.966 92.1577L219.966 94.1577L233.858 94.1577L233.858 92.1577ZM220.966 93.1577L220.966 68.2713L218.966 68.2713L218.966 93.1577L220.966 93.1577ZM219.966 67.2713L209.824 67.2713L209.824 69.2713L219.966 69.2713L219.966 67.2713ZM208.824 68.2713L208.824 93.1577L210.824 93.1577L210.824 68.2713L208.824 68.2713ZM209.824 92.1577L195.96 92.1577L195.96 94.1577L209.824 94.1577L209.824 92.1577ZM196.96 93.1577L196.96 66.2543L194.96 66.2543L194.96 93.1577L196.96 93.1577ZM195.96 65.2543L185.818 65.2543L185.818 67.2543L195.96 67.2543L195.96 65.2543ZM184.818 66.2543L184.818 105.459L186.818 105.459L186.818 66.2543L184.818 66.2543ZM185.818 106.459L244 106.459L244 104.459L185.818 104.459L185.818 106.459ZM195.96 50.6903L195.96 51.6903L196.96 51.6903L196.96 50.6903L195.96 50.6903ZM195.96 32.8778L195.96 31.8778L194.96 31.8778L194.96 32.8778L195.96 32.8778ZM244 32.8778L244 33.8778L245 33.8778L245 32.8778L244 32.8778ZM244 20.7187L245 20.7187L245 19.7187L244 19.7187L244 20.7187ZM195.96 20.7187L194.96 20.7187L194.96 21.7187L195.96 21.7187L195.96 20.7187ZM195.96 2.90625L196.96 2.90625L196.96 1.90625L195.96 1.90625L195.96 2.90625ZM185.818 2.90625L185.818 1.90625L184.818 1.90625L184.818 2.90625L185.818 2.90625ZM185.818 50.6903L184.818 50.6903L184.818 51.6903L185.818 51.6903L185.818 50.6903ZM196.96 50.6903L196.96 32.8778L194.96 32.8778L194.96 50.6903L196.96 50.6903ZM195.96 33.8778L244 33.8778L244 31.8778L195.96 31.8778L195.96 33.8778ZM245 32.8778L245 20.7187L243 20.7187L243 32.8778L245 32.8778ZM244 19.7187L195.96 19.7187L195.96 21.7187L244 21.7187L244 19.7187ZM196.96 20.7187L196.96 2.90625L194.96 2.90625L194.96 20.7187L196.96 20.7187ZM195.96 1.90625L185.818 1.90625L185.818 3.90625L195.96 3.90625L195.96 1.90625ZM184.818 2.90625L184.818 50.6903L186.818 50.6903L186.818 2.90625L184.818 2.90625ZM185.818 51.6903L195.96 51.6903L195.96 49.6903L185.818 49.6903L185.818 51.6903Z" fill="#042365" fill-opacity="0.12"/>
<mask id="mask0" style="mask-type:alpha" maskUnits="userSpaceOnUse" x="0" y="34" width="220" height="350">
<path fill-rule="evenodd" clip-rule="evenodd" d="M8.48286 365.878C8.48286 365.878 16.6332 362.169 21.2591 370.629C25.885 379.088 21.9873 379.409 28.2897 379.348C28.2897 379.348 27.4147 383.907 16.7831 383.827C16.7831 383.827 -6.1199 383.769 1.58379 374.82C1.58379 374.82 9.08863 367.995 8.48286 365.878ZM160.675 366.734C160.675 366.734 170.45 367.576 178.585 363.06L184.93 374C184.93 374 187.993 381.175 181.501 382.463L167.599 382.362C167.599 382.362 157.004 376.873 160.675 366.734ZM61.5643 266.375C61.5643 266.375 65.6915 280.283 85.3545 285.644C85.3545 285.644 90.1578 286.662 85.8807 295.122C85.8807 295.122 79.8016 307.387 74.7841 311.998C74.7841 311.998 72.4375 315.586 66.4104 324.853C66.4104 324.853 60.5179 332.881 52.2635 341.953C52.2635 341.953 40.7325 354.821 37.8505 361.674C37.8505 361.674 33.9986 376.02 29.4676 378.02C29.4676 378.02 25.1874 381.352 23.8658 372.761C23.8658 372.761 20.8124 360.016 7.59561 365.003C7.59561 365.003 3.3644 366.263 7.13364 359.691C7.13364 359.691 15.8806 348.001 20.1485 331.294C20.1485 331.294 36.0209 294.017 45.5878 283.11C45.5878 283.11 55.6473 263.612 61.5643 266.375ZM153.626 333.836C153.626 333.836 156.985 327.705 164.044 335.467C171.099 343.225 192.083 339.468 194.782 331.015L195.846 326.802C195.846 326.802 197.205 325.126 197.97 327.533C197.97 327.533 201.298 333.695 195.268 345.003C195.268 345.003 194.598 347.683 192.209 349.353C192.209 349.353 192.233 352.104 185.297 358.027L178.655 362.246C178.655 362.246 171.001 365.33 163.783 364.611C163.783 364.611 160.923 366.297 155.186 365.777C149.447 365.256 151.179 360.19 150.447 355.399C150.447 355.399 136.918 343.7 153.1 340.386L153.626 333.836ZM184.768 165.658C180.078 167.173 173.861 162.409 173.861 162.409C172.246 164.453 169.707 164.716 169.707 164.716C166.861 184.018 173.586 226.884 173.586 226.884L182.63 267.532C185.876 280.724 191.227 312.193 191.227 312.193C193.913 311.514 193.781 312.117 193.781 312.117C191.735 313.338 192.028 317.284 192.028 317.284C192.362 321.304 190.829 322.999 190.829 322.999C187.084 326.515 182.122 336.926 182.122 336.926C177.254 340.447 168.828 337.351 165.943 335.038C163.061 332.725 158.31 329.424 156.383 330.679C154.452 331.933 153.449 332.661 153.29 331.082C153.134 329.501 151.54 323.379 151.54 323.379C147.005 317.514 147.415 306.925 147.415 306.925C140.596 285.347 131.124 280.17 131.124 280.17C115.72 272.626 92.7278 299.442 92.7278 299.442C76.2221 319.821 73.2789 315.767 73.2789 315.767C81.778 309.109 87.848 295.538 87.848 295.538C93.8934 283.646 84.4306 283.456 84.4306 283.456C71.9235 280.338 66.4104 271.772 66.4104 271.772L89.2675 242.719C90.6627 225.706 97.2864 223.056 97.2864 223.056C84.8803 215.515 91.8405 204.596 91.8405 204.596C100.101 181.479 96.0779 173.634 96.0779 173.634C93.358 163.676 92.8226 145.848 92.8226 145.848C91.6447 122.003 111.739 124.31 111.739 124.31C113.101 122.85 115.768 122.89 115.768 122.89C113.743 119.041 113.899 109.753 113.899 109.753C111.687 106.556 114.282 104.855 114.282 104.855V96.3953C113.541 95.9456 112.116 93.394 112.116 93.394C111.559 91.4819 116.665 90.9342 116.665 90.9342C116.998 73.5352 135.594 74.4102 135.594 74.4102C156.682 76.2213 157.322 99.3538 157.322 99.3538H157.915L157.512 100.201C155.079 116.294 148.147 115.199 148.147 115.199L147.284 121.134V124.787C139.375 126.054 134.749 129.48 134.749 129.48C124.494 130.508 117.577 134.149 117.577 134.149C112.614 136.633 116.509 140.494 116.509 140.494L128.9 150.128C154.724 151.621 172.714 130.331 172.714 130.331C172.965 132.836 175.596 134.525 175.596 134.525C187.145 136.03 193.276 136.468 193.276 136.468C185.79 144.777 185.658 157.701 185.658 157.701L196.617 158.349C187.473 158.949 184.774 165.646 184.768 165.658ZM187.647 329.274L182.746 337.66C182.746 337.66 191.716 337.807 194.782 327.533C194.782 327.533 191.358 329.574 187.647 329.274ZM184.771 165.658C184.802 165.643 190.101 163.26 185.374 165.426C185.175 165.514 184.973 165.594 184.771 165.658H184.768H184.771ZM194.185 137.441L197.869 137.046L197.7 127.856C197.7 127.856 205.285 134.565 209.342 127.054L209.568 126.436C209.568 126.436 215.592 129.349 215.696 147.36C215.696 147.36 215.705 153.549 206.885 155.008L186.527 156.064C188.583 147.965 190.284 140.265 194.185 137.441ZM116.662 137.582C116.662 137.582 120.59 132.249 134.713 131.172C134.713 131.172 143.123 126.029 154.642 124.236C154.642 124.236 176.847 111.001 177.181 109.946C177.511 108.89 175.835 119.571 180.721 123.233C180.721 123.233 168.018 132.916 161.822 137.395C161.822 137.395 149.318 148.788 131.515 149.621C123.426 145.368 119.272 141.415 116.662 137.582ZM197.266 125.977C200.298 124.148 203.22 122.052 205.655 118.754L209.43 125.592C209.43 125.592 205.64 134.241 197.266 125.977ZM207.096 119.965C207.488 120.455 213.209 122.945 216.143 118.754L219.863 123.823C219.863 123.823 217.07 128.263 212.371 127.859L207.096 119.965C207.09 119.956 207.084 119.95 207.081 119.941L207.096 119.965ZM178.282 109.872C178.282 109.872 176.137 123.061 190.043 127.859C190.043 127.859 191.894 127.859 192.108 126.032C192.108 126.032 211.642 123.499 209.222 100.963L207.815 100.015C207.815 100.015 208.093 95.4163 205.322 96.4474C205.322 96.4474 202.482 92.4548 200.209 95.2113C200.209 95.2113 193.298 96.2821 190.477 99.7118C190.477 99.7118 189.697 108 182.327 103.34C182.327 103.34 181.176 105.984 181.271 107.299C181.363 108.612 179.986 109.337 178.282 109.872ZM209.43 97.405L219.291 106.92C219.291 106.92 219.878 117.469 212.97 120.008C212.97 120.008 206.836 120.779 207.081 116.943C207.081 116.943 212.401 111.827 209.43 100.746C209.43 100.746 208.314 98.7083 209.43 97.405ZM145.112 34.2427C145.112 34.2427 149.493 39.6365 151.845 43.5312C151.845 43.5312 177.554 76.1602 190.841 85.5649C190.841 85.5649 191.655 99.2345 187.617 103.267C187.617 103.267 184.655 106.308 178.163 98.7328C178.163 98.7328 156.995 78.5985 153.207 74.095C153.207 74.095 131.2 53.5356 138.797 39.9149C138.797 39.9149 142.52 32.5906 145.112 34.2427ZM192.894 88.4806C192.894 88.4806 189.725 89.2362 191.263 94.4526C191.263 94.4526 192.111 99.4854 198.646 94.2262C198.646 94.2262 201.051 90.8945 197.942 88.3153C196.036 87.6423 194.335 87.6423 192.894 88.4806Z" fill="#E39C5E"/>
</mask>
<g mask="url(#mask0)">
<path fill-rule="evenodd" clip-rule="evenodd" d="M84.2411 110.061L132.308 156.252L137.999 62.9818L84.2411 110.061Z" fill="#423F70"/>
<path fill-rule="evenodd" clip-rule="evenodd" d="M56.8809 176.992L111.03 266.27L131.825 156.228L56.8809 176.992Z" fill="#446F93"/>
<path fill-rule="evenodd" clip-rule="evenodd" d="M76.7638 222.999L124.47 195.728L69.1213 179.809L76.7638 222.999Z" fill="#5C9EAB"/>
<path fill-rule="evenodd" clip-rule="evenodd" d="M46.8713 279.079L110.979 266.248L87.9137 228.592L44.6409 248.057L46.8713 279.079Z" fill="#423F70"/>
<path fill-rule="evenodd" clip-rule="evenodd" d="M125.287 222.599L183.205 266.22C180.097 237.321 171.347 208.534 159.715 179.809L125.287 222.599Z" fill="#3E7BBA"/>
<path fill-rule="evenodd" clip-rule="evenodd" d="M111.602 266.268H183.627L117.543 232.553L111.602 266.268Z" fill="#3E7BBA"/>
<path fill-rule="evenodd" clip-rule="evenodd" d="M144.011 332.706L204.23 266.215H111.602L144.011 332.706Z" fill="#5AB3D4"/>
<path fill-rule="evenodd" clip-rule="evenodd" d="M183.339 388.307L241.104 325.619L146.889 326.442L183.339 388.307Z" fill="#5AB3D4"/>
<path fill-rule="evenodd" clip-rule="evenodd" d="M207.434 332.76L191.268 275.396L149.051 326.397L207.434 332.76Z" fill="#42719E"/>
<path fill-rule="evenodd" clip-rule="evenodd" d="M182.364 384.023L165.598 358.85L139.688 342.359L162.961 392.996L182.364 384.023Z" fill="#446F93"/>
<path fill-rule="evenodd" clip-rule="evenodd" d="M117.367 232.57L183.451 266.285L152.257 189.53L117.367 232.57Z" fill="#423F70"/>
<path fill-rule="evenodd" clip-rule="evenodd" d="M82.8048 169.877L132.203 156.211L101.418 108.884L82.8048 169.877Z" fill="#65A7BD"/>
<path fill-rule="evenodd" clip-rule="evenodd" d="M131.768 156.252L178.415 116.072L137.459 62.9818L131.768 156.252Z" fill="#456E93"/>
<path fill-rule="evenodd" clip-rule="evenodd" d="M134.648 71.2509L181.158 69.0604L137.644 24.2792L134.648 71.2509Z" fill="#446F93"/>
<path fill-rule="evenodd" clip-rule="evenodd" d="M181.436 113.108L217.767 112.266L174.25 67.4821L181.436 113.108Z" fill="#4CA0C8"/>
<path fill-rule="evenodd" clip-rule="evenodd" d="M175.296 68.5623L138.968 69.4005L182.482 114.185L175.296 68.5623Z" fill="#423F70"/>
<path fill-rule="evenodd" clip-rule="evenodd" d="M132.221 156.228L117.367 233.623L152.285 189.472L132.221 156.228Z" fill="#45849B"/>
<path fill-rule="evenodd" clip-rule="evenodd" d="M37.5635 339.839L-41.0459 359.496L17.8148 396.295L37.5635 339.839Z" fill="#2C4EA3"/>
<path fill-rule="evenodd" clip-rule="evenodd" d="M111.445 266.215L37.4398 280.888L166.23 358.763L111.445 266.215Z" fill="#3E79B8"/>
<path fill-rule="evenodd" clip-rule="evenodd" d="M77.6001 326.339L3.59509 341.012L61.5808 378.762L77.6001 326.339Z" fill="#5AB3D4"/>
<path fill-rule="evenodd" clip-rule="evenodd" d="M84.4206 328.859L29.8554 358.869L14.4022 402.6L84.4206 328.859Z" fill="#4EA7CC"/>
<path fill-rule="evenodd" clip-rule="evenodd" d="M93.3053 272.336L14.4022 339.212L82.582 332.634L93.3053 272.336Z" fill="#4167A3"/>
<path fill-rule="evenodd" clip-rule="evenodd" d="M45.4735 283.676C29.0167 295.418 22.8182 315.641 17.2806 338.587L65.1885 296.486L45.4735 283.676Z" fill="#42719E"/>
<path fill-rule="evenodd" clip-rule="evenodd" d="M131.768 156.211L185.522 245.489L223.674 129.946L131.768 156.211Z" fill="#4CA0C8"/>
<path fill-rule="evenodd" clip-rule="evenodd" d="M131.768 156.143L215.949 132.849L235.153 100.862L197.519 77.9225L131.768 156.143Z" fill="#446F93"/>
</g>
<g style="mix-blend-mode:overlay">
<path fill-rule="evenodd" clip-rule="evenodd" d="M8.48286 365.878C8.48286 365.878 16.6332 362.169 21.2591 370.629C25.885 379.088 21.9873 379.409 28.2897 379.348C28.2897 379.348 27.4147 383.907 16.7831 383.827C16.7831 383.827 -6.1199 383.769 1.58379 374.82C1.58379 374.82 9.08863 367.995 8.48286 365.878ZM160.675 366.734C160.675 366.734 170.45 367.576 178.585 363.06L184.93 374C184.93 374 187.993 381.175 181.501 382.463L167.599 382.362C167.599 382.362 157.004 376.873 160.675 366.734ZM61.5643 266.375C61.5643 266.375 65.6915 280.283 85.3545 285.644C85.3545 285.644 90.1578 286.662 85.8807 295.122C85.8807 295.122 79.8016 307.387 74.7841 311.998C74.7841 311.998 72.4375 315.586 66.4104 324.853C66.4104 324.853 60.5179 332.881 52.2635 341.953C52.2635 341.953 40.7325 354.821 37.8505 361.674C37.8505 361.674 33.9986 376.02 29.4676 378.02C29.4676 378.02 25.1874 381.352 23.8658 372.761C23.8658 372.761 20.8124 360.016 7.59561 365.003C7.59561 365.003 3.3644 366.263 7.13364 359.691C7.13364 359.691 15.8806 348.001 20.1485 331.294C20.1485 331.294 36.0209 294.017 45.5878 283.11C45.5878 283.11 55.6473 263.612 61.5643 266.375ZM153.626 333.836C153.626 333.836 156.985 327.705 164.044 335.467C171.099 343.225 192.083 339.468 194.782 331.015L195.846 326.802C195.846 326.802 197.205 325.126 197.97 327.533C197.97 327.533 201.298 333.695 195.268 345.003C195.268 345.003 194.598 347.683 192.209 349.353C192.209 349.353 192.233 352.104 185.297 358.027L178.655 362.246C178.655 362.246 171.001 365.33 163.783 364.611C163.783 364.611 160.923 366.297 155.186 365.777C149.447 365.256 151.179 360.19 150.447 355.399C150.447 355.399 136.918 343.7 153.1 340.386L153.626 333.836ZM184.768 165.658C180.078 167.173 173.861 162.409 173.861 162.409C172.246 164.453 169.707 164.716 169.707 164.716C166.861 184.018 173.586 226.884 173.586 226.884L182.63 267.532C185.876 280.724 191.227 312.193 191.227 312.193C193.913 311.514 193.781 312.117 193.781 312.117C191.735 313.338 192.028 317.284 192.028 317.284C192.362 321.304 190.829 322.999 190.829 322.999C187.084 326.515 182.122 336.926 182.122 336.926C177.254 340.447 168.828 337.351 165.943 335.038C163.061 332.725 158.31 329.424 156.383 330.679C154.452 331.933 153.449 332.661 153.29 331.082C153.134 329.501 151.54 323.379 151.54 323.379C147.005 317.514 147.415 306.925 147.415 306.925C140.596 285.347 131.124 280.17 131.124 280.17C115.72 272.626 92.7278 299.442 92.7278 299.442C76.2221 319.821 73.2789 315.767 73.2789 315.767C81.778 309.109 87.848 295.538 87.848 295.538C93.8934 283.646 84.4306 283.456 84.4306 283.456C71.9235 280.338 66.4104 271.772 66.4104 271.772L89.2675 242.719C90.6627 225.706 97.2864 223.056 97.2864 223.056C84.8803 215.515 91.8405 204.596 91.8405 204.596C100.101 181.479 96.0779 173.634 96.0779 173.634C93.358 163.676 92.8226 145.848 92.8226 145.848C91.6447 122.003 111.739 124.31 111.739 124.31C113.101 122.85 115.768 122.89 115.768 122.89C113.743 119.041 113.899 109.753 113.899 109.753C111.687 106.556 114.282 104.855 114.282 104.855V96.3953C113.541 95.9456 112.116 93.394 112.116 93.394C111.559 91.4819 116.665 90.9342 116.665 90.9342C116.998 73.5352 135.594 74.4102 135.594 74.4102C156.682 76.2213 157.322 99.3538 157.322 99.3538H157.915L157.512 100.201C155.079 116.294 148.147 115.199 148.147 115.199L147.284 121.134V124.787C139.375 126.054 134.749 129.48 134.749 129.48C124.494 130.508 117.577 134.149 117.577 134.149C112.614 136.633 116.509 140.494 116.509 140.494L128.9 150.128C154.724 151.621 172.714 130.331 172.714 130.331C172.965 132.836 175.596 134.525 175.596 134.525C187.145 136.03 193.276 136.468 193.276 136.468C185.79 144.777 185.658 157.701 185.658 157.701L196.617 158.349C187.473 158.949 184.774 165.646 184.768 165.658ZM187.647 329.274L182.746 337.66C182.746 337.66 191.716 337.807 194.782 327.533C194.782 327.533 191.358 329.574 187.647 329.274ZM184.771 165.658C184.802 165.643 190.101 163.26 185.374 165.426C185.175 165.514 184.973 165.594 184.771 165.658H184.768H184.771ZM194.185 137.441L197.869 137.046L197.7 127.856C197.7 127.856 205.285 134.565 209.342 127.054L209.568 126.436C209.568 126.436 215.592 129.349 215.696 147.36C215.696 147.36 215.705 153.549 206.885 155.008L186.527 156.064C188.583 147.965 190.284 140.265 194.185 137.441ZM116.662 137.582C116.662 137.582 120.59 132.249 134.713 131.172C134.713 131.172 143.123 126.029 154.642 124.236C154.642 124.236 176.847 111.001 177.181 109.946C177.511 108.89 175.835 119.571 180.721 123.233C180.721 123.233 168.018 132.916 161.822 137.395C161.822 137.395 149.318 148.788 131.515 149.621C123.426 145.368 119.272 141.415 116.662 137.582ZM197.266 125.977C200.298 124.148 203.22 122.052 205.655 118.754L209.43 125.592C209.43 125.592 205.64 134.241 197.266 125.977ZM207.096 119.965C207.488 120.455 213.209 122.945 216.143 118.754L219.863 123.823C219.863 123.823 217.07 128.263 212.371 127.859L207.096 119.965C207.09 119.956 207.084 119.95 207.081 119.941L207.096 119.965ZM178.282 109.872C178.282 109.872 176.137 123.061 190.043 127.859C190.043 127.859 191.894 127.859 192.108 126.032C192.108 126.032 211.642 123.499 209.222 100.963L207.815 100.015C207.815 100.015 208.093 95.4163 205.322 96.4474C205.322 96.4474 202.482 92.4548 200.209 95.2113C200.209 95.2113 193.298 96.2821 190.477 99.7118C190.477 99.7118 189.697 108 182.327 103.34C182.327 103.34 181.176 105.984 181.271 107.299C181.363 108.612 179.986 109.337 178.282 109.872ZM209.43 97.405L219.291 106.92C219.291 106.92 219.878 117.469 212.97 120.008C212.97 120.008 206.836 120.779 207.081 116.943C207.081 116.943 212.401 111.827 209.43 100.746C209.43 100.746 208.314 98.7083 209.43 97.405ZM145.112 34.2427C145.112 34.2427 149.493 39.6365 151.845 43.5312C151.845 43.5312 177.554 76.1602 190.841 85.5649C190.841 85.5649 191.655 99.2345 187.617 103.267C187.617 103.267 184.655 106.308 178.163 98.7328C178.163 98.7328 156.995 78.5985 153.207 74.095C153.207 74.095 131.2 53.5356 138.797 39.9149C138.797 39.9149 142.52 32.5906 145.112 34.2427ZM192.894 88.4806C192.894 88.4806 189.725 89.2362 191.263 94.4526C191.263 94.4526 192.111 99.4854 198.646 94.2262C198.646 94.2262 201.051 90.8945 197.942 88.3153C196.036 87.6423 194.335 87.6423 192.894 88.4806Z" fill="#042365"/>
</g>
</svg>
