<svg width="118" height="140" viewBox="0 0 118 140" fill="none" xmlns="http://www.w3.org/2000/svg">
<path fill-rule="evenodd" clip-rule="evenodd" d="M111.062 118.063L89.0962 120.895L93.9119 115.469C99.6557 116.1 105.395 116.764 111.062 118.063Z" fill="#FD0000"/>
<path fill-rule="evenodd" clip-rule="evenodd" d="M6.70633 118.063L27.7368 120.326L23.6195 115.469C19.2828 116.065 11.0212 117.294 6.70633 118.063Z" fill="#FD0000"/>
<path fill-rule="evenodd" clip-rule="evenodd" d="M58.742 3.05436C97.2052 2.17321 111.749 12.2955 111.749 12.2955C129.025 127.765 58.742 137.815 58.742 137.815C58.742 137.815 -11.5433 127.765 5.73279 12.2955C5.73279 12.2955 20.2763 2.17321 58.742 3.05436Z" fill="#8BB1BB"/>
<path fill-rule="evenodd" clip-rule="evenodd" d="M58.7467 5.96999C95.5461 5.12696 109.46 14.8113 109.46 14.8113C125.989 125.286 58.7467 134.901 58.7467 134.901C58.7467 134.901 -8.49816 125.286 8.03059 14.8113C8.03059 14.8113 21.945 5.12696 58.7467 5.96999Z" fill="#EDEDED"/>
<path fill-rule="evenodd" clip-rule="evenodd" d="M58.7401 8.70856C93.9751 7.90137 107.298 17.174 107.298 17.174C123.124 122.952 58.7401 132.158 58.7401 132.158C58.7401 132.158 -5.64587 122.952 10.1802 17.174C10.1802 17.174 23.503 7.90137 58.7401 8.70856Z" fill="#042365"/>
<path fill-rule="evenodd" clip-rule="evenodd" d="M93.8115 39.2776H82.3983C81.9547 39.2776 81.5966 38.9177 81.5966 38.472C81.5966 38.0279 81.9547 37.6663 82.3983 37.6663H94.6869C94.9061 37.6663 95.1171 37.757 95.2677 37.9168C95.42 38.0782 95.4987 38.2937 95.487 38.514C95.487 38.514 95.102 45.8861 91.4465 52.2675C88.9627 56.6054 84.9876 60.4824 78.6692 61.3974C78.2307 61.4613 77.824 61.1551 77.7603 60.7144C77.6967 60.2737 78.0014 59.865 78.4399 59.8011C85.6554 58.7566 89.4849 53.4382 91.5369 48.4108C93.1036 44.5742 93.6408 40.889 93.8115 39.2776Z" fill="white"/>
<path fill-rule="evenodd" clip-rule="evenodd" d="M22.8862 39.2776C23.0569 40.889 23.5942 44.5742 25.1608 48.4108C27.2128 53.4382 31.0423 58.7566 38.2579 59.8011C38.6964 59.865 39.001 60.2737 38.9374 60.7144C38.8738 61.1551 38.4671 61.4613 38.0285 61.3974C31.7102 60.4824 27.735 56.6054 25.2512 52.2675C21.5957 45.8861 21.2108 38.514 21.2108 38.514C21.199 38.2937 21.2777 38.0782 21.43 37.9168C21.5807 37.757 21.7916 37.6663 22.0109 37.6663H34.2995C34.743 37.6663 35.1012 38.0279 35.1012 38.472C35.1012 38.9177 34.743 39.2776 34.2995 39.2776H22.8862Z" fill="white"/>
<path fill-rule="evenodd" clip-rule="evenodd" d="M58.1792 86.5685L63.763 86.1966C63.9076 88.0386 61.966 95.7794 65.2517 100.653C68.5374 105.526 72.471 106.697 72.471 106.697C76.7527 107.885 76.499 109.992 76.499 109.992C76.8491 113.741 60.0768 113.403 58.1792 113.353C56.2837 113.403 39.5113 113.741 39.8593 109.992C39.8593 109.992 39.6077 107.885 43.8894 106.697C43.8894 106.697 47.821 105.526 51.1067 100.653C54.3944 95.7794 52.4507 88.0386 52.5975 86.1966L58.1792 86.5685Z" fill="white"/>
<path fill-rule="evenodd" clip-rule="evenodd" d="M41.3383 31.4297L32.7812 33.138H83.2619C83.2619 33.138 76.7765 31.6959 75.7239 31.4618C75.6275 31.4405 75.531 31.4297 75.4324 31.4297C73.0043 31.4297 41.3383 31.4297 41.3383 31.4297Z" fill="#8BB1BB"/>
<path fill-rule="evenodd" clip-rule="evenodd" d="M65.5934 84.6042C65.5934 83.5135 64.7136 82.628 63.627 82.628H53.0679C51.9813 82.628 51.1016 83.5135 51.1016 84.6042C51.1016 85.695 51.9813 86.5803 53.0679 86.5803H63.627C64.7136 86.5803 65.5934 85.695 65.5934 84.6042Z" fill="#FD0000"/>
<path d="M65.5953 82.6329L58.1748 82.6329V86.5733L65.5953 86.5733V82.6329Z" fill="#C3001D"/>
<path fill-rule="evenodd" clip-rule="evenodd" d="M55.7582 82.6273C55.7582 82.6273 31.5086 72.7944 32.7919 33.1388H83.2222C84.5055 72.7944 60.2559 82.6273 60.2559 82.6273H55.7582Z" fill="#8BB1BB"/>
<path fill-rule="evenodd" clip-rule="evenodd" d="M52.5307 82.6273C52.5307 82.6273 28.2811 72.7944 29.5643 33.1388H81.41C82.6933 72.7944 57.0283 82.6273 57.0283 82.6273H52.5307Z" fill="white"/>
<path d="M77.8275 37.9532C80.8149 37.9532 83.2366 35.5196 83.2366 32.5176C83.2366 29.5156 80.8149 27.0819 77.8275 27.0819C74.8402 27.0819 72.4185 29.5156 72.4185 32.5176C72.4185 35.5196 74.8402 37.9532 77.8275 37.9532Z" fill="white" stroke="white" stroke-width="0.000814056" stroke-miterlimit="1.5" stroke-linecap="round" stroke-linejoin="round"/>
<path d="M38.2094 38.009C41.1967 38.009 43.6184 35.5755 43.6184 32.5734C43.6184 29.5714 41.1967 27.1377 38.2094 27.1377C35.2221 27.1377 32.8003 29.5714 32.8003 32.5734C32.8003 35.5755 35.2221 38.009 38.2094 38.009Z" fill="white" stroke="white" stroke-width="0.000814056" stroke-miterlimit="1.5" stroke-linecap="round" stroke-linejoin="round"/>
<path d="M50.6552 36.8608C53.6425 36.8608 56.0642 34.4272 56.0642 31.4252C56.0642 28.4231 53.6425 25.9894 50.6552 25.9894C47.6679 25.9894 45.2461 28.4231 45.2461 31.4252C45.2461 34.4272 47.6679 36.8608 50.6552 36.8608Z" fill="white" stroke="white" stroke-width="0.000814056" stroke-miterlimit="1.5" stroke-linecap="round" stroke-linejoin="round"/>
<path d="M64.1444 36.8608C67.1318 36.8608 69.5535 34.4272 69.5535 31.4252C69.5535 28.4231 67.1318 25.9894 64.1444 25.9894C61.1571 25.9894 58.7354 28.4231 58.7354 31.4252C58.7354 34.4272 61.1571 36.8608 64.1444 36.8608Z" fill="white" stroke="white" stroke-width="0.000814056" stroke-miterlimit="1.5" stroke-linecap="round" stroke-linejoin="round"/>
<path d="M50.6498 35.2884C52.8974 35.2884 54.7195 33.4515 54.7195 31.1854C54.7195 28.9194 52.8974 27.0824 50.6498 27.0824C48.4022 27.0824 46.5801 28.9194 46.5801 31.1854C46.5801 33.4515 48.4022 35.2884 50.6498 35.2884Z" fill="#8BB1BB"/>
<path fill-rule="evenodd" clip-rule="evenodd" d="M47.6133 28.5511C47.6133 28.5511 49.67 28.8983 50.6461 30.485C51.2982 31.5459 51.4613 33.1578 50.2195 35.5869L50.1883 35.6475L50.3097 35.71L50.3406 35.6494C51.6146 33.1571 51.4312 31.5016 50.7617 30.4134C49.7552 28.7766 47.6358 28.4162 47.6358 28.4162L47.5687 28.4049L47.5459 28.5398L47.6133 28.5511Z" fill="white"/>
<path fill-rule="evenodd" clip-rule="evenodd" d="M49.0824 27.1485C49.0824 27.1485 50.2547 27.2987 51.2217 28.478C52.2004 29.6715 52.9623 31.9099 52.1239 36.085L52.1105 36.1519L52.2443 36.1793L52.2577 36.112C53.1084 31.8733 52.3204 29.6028 51.3268 28.391C50.3214 27.1646 49.0991 27.013 49.0991 27.013L49.0317 27.0042L49.0146 27.1401L49.0824 27.1485Z" fill="white"/>
<path fill-rule="evenodd" clip-rule="evenodd" d="M53.473 27.7566C53.473 27.7566 53.0717 29.0466 53.2577 30.3841C53.3831 31.2849 53.7735 32.2058 54.722 32.7774L54.7804 32.8125L54.8504 32.6951L54.792 32.6601C53.8833 32.1123 53.5125 31.2283 53.3925 30.3655C53.2109 29.0579 53.6027 27.7972 53.6027 27.7972L53.623 27.7321L53.4933 27.6912L53.473 27.7566Z" fill="white"/>
<path fill-rule="evenodd" clip-rule="evenodd" d="M46.8623 32.7641C46.8623 32.7641 49.5852 29.78 54.7065 30.315L54.7743 30.3223L54.7884 30.186L54.7207 30.179C49.5232 29.636 46.7619 32.6717 46.7619 32.6717L46.7158 32.7221L46.8162 32.8146L46.8623 32.7641Z" fill="white"/>
<path fill-rule="evenodd" clip-rule="evenodd" d="M50.6567 26.9945C48.3637 26.9945 46.502 28.8711 46.502 31.1829C46.502 33.4947 48.3637 35.3713 50.6567 35.3713C52.9498 35.3713 54.8115 33.4947 54.8115 31.1829C54.8115 28.8711 52.9498 26.9945 50.6567 26.9945ZM50.6567 27.1652C52.8562 27.1652 54.6414 28.9658 54.6414 31.1829C54.6414 33.4 52.8562 35.2006 50.6567 35.2006C48.4577 35.2006 46.672 33.4 46.672 31.1829C46.672 28.9658 48.4577 27.1652 50.6567 27.1652Z" fill="#E6E6E7"/>
<path fill-rule="evenodd" clip-rule="evenodd" d="M35.1191 38.4819L45.6341 39.1728C45.6341 39.1728 40.7743 52.3604 46.9505 59.4501C46.9505 59.4501 35.8513 60.2616 35.1191 38.4819Z" fill="#E2E2E2"/>
<path fill-rule="evenodd" clip-rule="evenodd" d="M75.5874 51.0157L64.8135 51.7236C64.8135 51.7236 69.793 65.2358 63.4648 72.5C63.4648 72.5 74.8372 73.3316 75.5874 51.0157Z" fill="#E2E2E2"/>
<path d="M64.1443 35.2338C66.3844 35.2338 68.2003 33.4089 68.2003 31.1578C68.2003 28.9067 66.3844 27.0819 64.1443 27.0819C61.9043 27.0819 60.0884 28.9067 60.0884 31.1578C60.0884 33.4089 61.9043 35.2338 64.1443 35.2338Z" fill="#8BB1BB"/>
<path fill-rule="evenodd" clip-rule="evenodd" d="M63.2518 29.2879L64.503 30.6492L63.6007 32.2658L61.7931 31.9036L61.5767 30.0629L63.2518 29.2879Z" fill="white"/>
<path fill-rule="evenodd" clip-rule="evenodd" d="M66.153 30.6358L66.9021 28.9425L68.7365 29.1357L69.1206 30.9474L67.5239 31.8753L66.153 30.6358Z" fill="white"/>
<path fill-rule="evenodd" clip-rule="evenodd" d="M63.8336 35.2652L64.5828 33.5719L66.4172 33.7651L66.8013 35.5768L65.2045 36.5047L63.8336 35.2652Z" fill="white"/>
<path fill-rule="evenodd" clip-rule="evenodd" d="M58.7716 34.35L59.5207 32.6567L61.3551 32.8499L61.7392 34.6616L60.1425 35.5894L58.7716 34.35Z" fill="white"/>
<path fill-rule="evenodd" clip-rule="evenodd" d="M62.9265 26.1481L64.3434 24.9622L65.9037 25.9507L65.4511 27.7462L63.6106 27.8689L62.9265 26.1481Z" fill="white"/>
<path fill-rule="evenodd" clip-rule="evenodd" d="M63.3295 29.4819L63.8229 27.7271L63.6716 27.684L63.1782 29.4388L63.3295 29.4819Z" fill="white"/>
<path fill-rule="evenodd" clip-rule="evenodd" d="M67.0439 29.0264L65.4303 27.5577L65.3245 27.6754L66.9382 29.1442L67.0439 29.0264Z" fill="white"/>
<path fill-rule="evenodd" clip-rule="evenodd" d="M66.5569 30.527L64.3272 30.619L64.3336 30.7767L66.5628 30.6853L66.5569 30.527Z" fill="white"/>
<path fill-rule="evenodd" clip-rule="evenodd" d="M67.5192 31.5794L66.1862 33.7561L66.4205 33.8828L67.7535 31.7061L67.5192 31.5794Z" fill="white"/>
<path fill-rule="evenodd" clip-rule="evenodd" d="M63.3509 31.852L64.6264 33.854L64.7585 33.7688L63.483 31.7668L63.3509 31.852Z" fill="white"/>
<path fill-rule="evenodd" clip-rule="evenodd" d="M62.1724 31.1616L61.0583 33.2427L61.1967 33.3175L62.3108 31.2364L62.1724 31.1616Z" fill="white"/>
<path fill-rule="evenodd" clip-rule="evenodd" d="M59.9161 28.9619L61.8639 30.286L61.952 30.1552L60.0042 28.8311L59.9161 28.9619Z" fill="white"/>
<path fill-rule="evenodd" clip-rule="evenodd" d="M64.1497 26.9969C61.8646 26.9969 60.0093 28.8613 60.0093 31.1577C60.0093 33.4541 61.8646 35.3185 64.1497 35.3185C66.4348 35.3185 68.2901 33.4541 68.2901 31.1577C68.2901 28.8613 66.4348 26.9969 64.1497 26.9969ZM64.1497 27.1664C66.3418 27.1664 68.1207 28.9548 68.1207 31.1577C68.1207 33.3605 66.3418 35.1483 64.1497 35.1483C61.9576 35.1483 60.178 33.3605 60.178 31.1577C60.178 28.9548 61.9576 27.1664 64.1497 27.1664Z" fill="#E6E6E7"/>
<path fill-rule="evenodd" clip-rule="evenodd" d="M57.1895 92.37V111.654H47.1369C47.1369 111.654 55.3709 110.411 57.1895 92.37Z" fill="#E2E2E2"/>
<path fill-rule="evenodd" clip-rule="evenodd" d="M17.1434 76.0297L17.655 77.609H19.3071L17.9705 78.5852L18.4821 80.1648L17.1434 79.1886L15.8069 80.1648L16.3185 78.5852L14.9819 77.609H16.634L17.1434 76.0297Z" fill="white"/>
<path fill-rule="evenodd" clip-rule="evenodd" d="M100.212 76.0297L99.7 77.609H98.0479L99.3844 78.5852L98.8728 80.1648L100.212 79.1886L101.548 80.1648L101.037 78.5852L102.373 77.609H100.721L100.212 76.0297Z" fill="white"/>
<path fill-rule="evenodd" clip-rule="evenodd" d="M111.054 93.3653C76.733 87.7126 41.825 88.0413 6.42117 93.3653L6.42276 118.066C41.7736 112.288 76.6625 112.257 111.056 118.066L111.054 93.3653Z" fill="#8BB1BB"/>
<path fill-rule="evenodd" clip-rule="evenodd" d="M109.902 94.3276C76.3389 89.2035 42.2021 89.5014 7.58032 94.3276L7.58176 116.719C42.1517 111.481 76.2698 111.453 109.903 116.719L109.902 94.3276Z" fill="#EDEDED"/>
<path fill-rule="evenodd" clip-rule="evenodd" d="M108.588 95.304C75.8808 90.7791 42.6143 91.0422 8.87521 95.304L8.87649 115.076C42.5651 110.451 75.8134 110.426 108.589 115.076L108.588 95.304Z" fill="#042365"/>
<path d="M40.4533 64.1165L41.5716 59.5981H42.7745L45.5168 48.5179H44.314L45.4395 43.9708H60.1597L58.8348 49.3238H54.3385L54.538 48.5179H51.0154L50.2105 51.77H51.0124L51.2047 50.993H55.7296L54.2196 57.0943H49.6947L49.887 56.3172H49.0851L48.2731 59.5981H50.5928L49.4745 64.1165H40.4533ZM49.1087 63.6273L49.992 60.0586H47.6722L48.7193 55.828H50.4949L50.2955 56.6338H53.8467L55.1217 51.4823H51.5705L51.3711 52.2881H49.5955L50.6497 48.0287H55.1173L54.9179 48.8345H58.469L59.5517 44.46H45.8052L44.922 48.0287H46.0961L43.1187 60.0586H41.9445L41.0613 63.6273H49.1087ZM41.848 62.9941L42.4179 60.6917H43.5921L46.8829 47.3955H45.7087L46.2786 45.0932H58.7936L58.0243 48.2014H55.7046L55.9041 47.3955H50.205L48.8445 52.8925H51.8515L52.051 52.0866H54.3421L53.3733 56.0007H51.0822L51.2817 55.1948H48.2746L46.9141 60.6917H49.2052L48.6354 62.9941H41.848Z" fill="#042365"/>
<path d="M56.8663 60.8932L57.8208 57.0367H63.3194L62.8493 58.9362L63.3728 59.5981H66.2367L67.0521 58.965L67.5435 56.9792L67.0631 56.3748H61.1922L58.7824 53.1515L60.2569 47.1941L64.2622 43.9708H73.0829L75.4926 47.1941L74.5097 51.1657H68.9824L69.481 49.1511L69.0077 48.5179H66.0293L65.2711 49.1511L64.7654 51.1945L65.2388 51.8276H71.1383L73.548 55.0509L72.1021 60.8932L68.0968 64.1165H59.2761L56.8663 60.8932ZM59.5404 63.6273H68.0747L71.6437 60.7781L73.0398 55.1373L70.9027 52.3169H65.0031L64.2787 51.3096L64.8414 49.036L66.0644 48.0287H69.2433L69.9964 49.036L69.5904 50.6764H74.1439L74.9773 47.3092L72.8472 44.46H64.2557L60.7153 47.3092L59.2978 53.0364L61.4278 55.8855H67.2987L68.0589 56.864L67.5175 59.0513L66.2372 60.0586H63.1156L62.3626 59.0513L62.7401 57.526H58.1866L57.3817 60.7781L59.5404 63.6273ZM58.1186 60.3464L58.6671 58.1303H61.9605L61.6328 59.4542L62.558 60.6917H66.5101L68.055 59.4254L68.7673 56.5475L67.8277 55.2524H62.0427L60.0418 52.5759L61.2385 47.7409L64.5285 45.0932H72.261L74.2548 47.7985L73.6921 50.072H70.37L70.7119 48.6906L69.7723 47.3955H65.8488L64.3111 48.6331L63.5561 51.6837L64.4812 52.9212H70.3235L72.3173 55.6265L71.1491 60.3464L67.8877 62.9941H60.0694L58.1186 60.3464Z" fill="#042365"/>
<path d="M19.7745 100.11L15.899 100.686L16.3362 103.628L19.6777 103.131L20.0429 105.589L16.7014 106.085L17.5063 111.502L15.0605 111.865L13.0879 98.592L19.4093 97.6525L19.7745 100.11Z" fill="white"/>
<path d="M27.5924 110.206L26.6532 107.301L24.0925 107.592L23.8378 110.631L21.329 110.916L22.497 97.2777L25.9402 96.8875L30.0839 109.924L27.5924 110.206ZM25.8917 104.887L24.649 100.996L24.2999 105.068L25.8917 104.887Z" fill="white"/>
<path d="M37.2849 109.359L34.0757 102.545L34.5935 109.56L32.1451 109.742L31.1572 96.3586L33.7966 96.1618L37.0058 102.976L36.488 95.9612L38.9363 95.7787L39.923 109.145L39.9243 109.163L37.2849 109.359Z" fill="white"/>
<path d="M49.3447 107.342L47.8366 108.806L43.5744 108.983L41.9336 107.65L41.8442 105.483L44.3146 105.38L44.3593 106.464L46.847 106.36L46.7238 103.371L43.3488 103.511L41.708 102.178L41.4961 97.0385L43.0216 95.574L47.2838 95.3966L48.9072 96.73L48.993 98.8104L46.54 98.9126L46.4989 97.916L44.0112 98.0196L44.1337 100.992L47.5087 100.851L49.1328 102.202L49.3447 107.342Z" fill="white"/>
<path d="M58.8233 102.627L57.2534 104.078L53.8757 104.112L53.9215 108.661L51.4491 108.686L51.314 95.2662L57.1641 95.2067L58.7627 96.6078L58.8233 102.627ZM56.3578 101.602L56.3185 97.7001L53.8113 97.7256L53.8506 101.627L56.3578 101.602Z" fill="white"/>
<path d="M68.7511 107.392L67.1365 108.756L62.5582 108.655L61.0047 107.221L61.2365 96.6025L62.8512 95.2379L67.4294 95.3389L68.983 96.7733L68.7511 107.392ZM66.3029 106.253L66.4874 97.8034L63.6847 97.7416L63.5003 106.191L66.3029 106.253Z" fill="white"/>
<path d="M78.7333 109.311L76.0908 109.164L74.2894 103.578L73.5592 103.537L73.257 109.005L70.7883 108.868L71.5288 95.4676L77.4571 95.7985L78.9446 97.2835L78.6723 102.21L76.8981 103.706L78.7333 109.311ZM73.6963 101.056L76.2519 101.199L76.417 98.2114L73.8614 98.0688L73.6963 101.056Z" fill="white"/>
<path d="M89.0779 99.2331L86.6326 99.0129L85.6615 109.905L83.1989 109.684L84.17 98.7912L81.7247 98.5711L81.9453 96.0963L89.2985 96.7583L89.0779 99.2331Z" fill="white"/>
<path d="M94.1613 97.3201L91.7051 97.0359L90.1771 110.368L92.6334 110.653L94.1613 97.3201Z" fill="white"/>
<path d="M101.705 111.881L94.6705 110.883L94.8262 109.774L100.124 100.595L96.538 100.086L96.881 97.6431L103.536 98.5866L103.349 99.9207L98.2055 108.875L102.05 109.42L101.705 111.881Z" fill="white"/>
<path fill-rule="evenodd" clip-rule="evenodd" d="M58.7323 120.436L59.2439 122.015H60.8959L59.5594 122.991L60.071 124.571L58.7323 123.594L57.3957 124.571L57.9073 122.991L56.5708 122.015H58.2228L58.7323 120.436Z" fill="white"/>
<path fill-rule="evenodd" clip-rule="evenodd" d="M74.9002 34.527C74.9002 34.527 74.527 34.2927 74.4699 34.5308C74.4699 34.5308 74.4138 34.7069 74.5354 34.9363C74.5354 34.9363 74.7966 35.6142 75.0624 34.9869L74.9002 34.527Z" fill="#8BB1BB"/>
<path fill-rule="evenodd" clip-rule="evenodd" d="M74.4124 34.5132C74.4259 34.4576 74.453 34.4206 74.486 34.3957C74.5332 34.3604 74.5962 34.3504 74.6631 34.3594C74.7956 34.3772 74.9447 34.4699 74.9447 34.4699C74.9577 34.4781 74.9674 34.4905 74.9728 34.5049L75.1351 34.9648C75.1406 34.9812 75.1401 34.9989 75.1334 35.0149C75.0381 35.2395 74.9318 35.3137 74.8459 35.3219C74.7765 35.3284 74.7104 35.296 74.6541 35.2415C74.5589 35.1497 74.493 34.9941 74.4816 34.9663C74.3549 34.7248 74.4055 34.5358 74.4124 34.5132ZM74.8523 34.5745C74.8138 34.5523 74.7258 34.5065 74.6452 34.4958C74.6162 34.4919 74.588 34.4908 74.5676 34.5061C74.5562 34.5145 74.5491 34.5285 74.5446 34.548C74.5442 34.5495 74.5438 34.5513 74.5431 34.5527C74.5431 34.5527 74.4979 34.7053 74.6038 34.9048C74.6051 34.9074 74.6063 34.9099 74.6072 34.9124C74.6072 34.9124 74.6491 35.0219 74.7163 35.1063C74.7358 35.1309 74.7574 35.1534 74.7812 35.1689C74.7974 35.1795 74.8147 35.1869 74.8329 35.1851C74.8555 35.1831 74.8777 35.1683 74.902 35.142C74.9333 35.108 74.965 35.0569 74.997 34.985L74.8523 34.5745Z" fill="#E6E6E7"/>
<path fill-rule="evenodd" clip-rule="evenodd" d="M74.9627 34.5018L81.5878 32.3288C81.5878 32.3288 82.4379 32.003 82.6073 32.7491C82.6073 32.7491 82.7234 33.3979 81.8662 33.5271L75.0643 34.988L74.9006 34.5264L74.9627 34.5018Z" fill="#8BB1BB"/>
<path fill-rule="evenodd" clip-rule="evenodd" d="M81.5705 32.2726C81.5909 32.2649 81.8048 32.1878 82.0388 32.1997C82.2943 32.2127 82.5732 32.3272 82.6659 32.7351C82.6661 32.7358 82.6661 32.7368 82.6665 32.7378C82.6665 32.7378 82.7133 32.9944 82.5465 33.2303C82.4391 33.3825 82.242 33.5284 81.8783 33.5835L75.0783 35.0442C75.0499 35.0503 75.0212 35.0342 75.0113 35.0065L74.8477 34.545C74.8371 34.5152 74.8519 34.4826 74.8812 34.4709L74.9464 34.4452L81.5705 32.2726ZM82.5521 32.7594C82.515 32.5978 82.4442 32.4911 82.3554 32.4232C82.2207 32.3204 82.0481 32.307 81.9046 32.319C81.7393 32.3333 81.6101 32.3824 81.6101 32.3824C81.6094 32.3829 81.6084 32.3832 81.6077 32.3834L74.9842 34.5559L74.9761 34.5591L75.1037 34.9191L81.8557 33.4689L81.8594 33.4682C82.1802 33.42 82.3569 33.2966 82.4516 33.1624C82.5828 32.9772 82.5547 32.7763 82.5521 32.7594Z" fill="#E6E6E7"/>
<path fill-rule="evenodd" clip-rule="evenodd" d="M78.9737 35.5571L74.2632 30.3957C74.2632 30.3957 73.6817 29.6924 73.1697 30.2589C73.1697 30.2589 72.7516 30.7669 73.4353 31.3023L78.6477 35.9305L79.0158 35.6091L78.9737 35.5571Z" fill="#8BB1BB"/>
<path fill-rule="evenodd" clip-rule="evenodd" d="M73.4039 31.3481C73.1139 31.1208 73.0135 30.8964 72.9943 30.7109C72.9641 30.423 73.1303 30.2225 73.1303 30.2225L73.1321 30.2205C73.4121 29.9108 73.7111 29.9487 73.94 30.0633C74.1497 30.1685 74.2984 30.3411 74.3124 30.3579L79.0222 35.5184C79.0229 35.5192 79.0236 35.5201 79.0244 35.5209L79.0664 35.573C79.0862 35.5976 79.0832 35.6333 79.0595 35.654L78.6914 35.9754C78.6693 35.9947 78.6364 35.9946 78.6146 35.9752L73.4039 31.3481ZM78.9352 35.5962L74.2259 30.4361C74.2254 30.4356 74.2246 30.4348 74.2242 30.434C74.2242 30.434 74.1357 30.3275 73.9986 30.2335C73.8795 30.1522 73.7226 30.0788 73.555 30.1019C73.4445 30.1173 73.3307 30.1753 73.2194 30.2978C73.2089 30.3112 73.0862 30.4724 73.11 30.6985C73.1271 30.8621 73.2207 31.0568 73.4767 31.257C73.4777 31.2579 73.4787 31.2589 73.4795 31.2594L78.6536 35.8536L78.9407 35.603L78.9352 35.5962Z" fill="#E6E6E7"/>
<path fill-rule="evenodd" clip-rule="evenodd" d="M78.9463 35.5922C78.9463 35.5922 79.3859 35.5721 79.3193 35.8077C79.3193 35.8077 79.2821 35.9888 79.0642 36.1286C79.0642 36.1286 78.5054 36.5904 78.5802 35.9128L78.9463 35.5922Z" fill="#8BB1BB"/>
<path fill-rule="evenodd" clip-rule="evenodd" d="M79.0993 36.1849C79.0758 36.2035 78.9423 36.3065 78.8145 36.3395C78.7389 36.3593 78.6655 36.3548 78.6082 36.315C78.5374 36.2655 78.481 36.1483 78.5077 35.9057C78.5096 35.8884 78.5179 35.8727 78.5307 35.8612L78.8967 35.5406C78.9084 35.5306 78.923 35.5246 78.9383 35.5239C78.9383 35.5239 79.1134 35.5167 79.2376 35.5666C79.3003 35.5917 79.3503 35.6316 79.3741 35.6855C79.3907 35.7236 79.3962 35.7692 79.3809 35.8242C79.3758 35.8473 79.3276 36.037 79.0993 36.1849ZM78.9677 35.6607L78.6411 35.9469C78.6339 36.0253 78.6365 36.0854 78.6472 36.1305C78.6555 36.1654 78.6676 36.1893 78.6864 36.2021C78.7013 36.2128 78.72 36.2148 78.7393 36.2136C78.7676 36.2118 78.7974 36.2028 78.8264 36.1911C78.9261 36.1507 79.0161 36.0759 79.0161 36.0759L79.0228 36.071C79.2126 35.9495 79.2477 35.7942 79.2477 35.7942L79.2487 35.7894C79.2543 35.7702 79.255 35.7545 79.2492 35.7415C79.2388 35.7181 79.2138 35.7052 79.1866 35.6942C79.1111 35.6638 79.0121 35.6603 78.9677 35.6607Z" fill="#E6E6E7"/>
<path d="M77.5446 32.7848C78.5808 33.058 79.6411 32.4353 79.9129 31.3941C80.1847 30.3528 79.5651 29.2873 78.5289 29.0141C77.4928 28.741 76.4325 29.3636 76.1607 30.4049C75.8888 31.4461 76.5084 32.5117 77.5446 32.7848Z" fill="#8BB1BB"/>
<path fill-rule="evenodd" clip-rule="evenodd" d="M77.3546 29.0819C77.3546 29.0819 77.9057 30.5081 79.9049 30.6377C79.9426 30.64 79.975 30.6114 79.9773 30.5736C79.9799 30.5358 79.9512 30.5028 79.9135 30.5005C78.0125 30.3774 77.4821 29.032 77.4821 29.032C77.4683 28.9966 77.4286 28.9791 77.3933 28.993C77.3584 29.007 77.341 29.0469 77.3546 29.0819Z" fill="white"/>
<path fill-rule="evenodd" clip-rule="evenodd" d="M78.6981 32.7228C78.6981 32.7228 78.1173 31.3002 76.1521 31.2113C76.1146 31.2097 76.0826 31.2391 76.0809 31.2771C76.079 31.3147 76.1082 31.3469 76.146 31.3486C78.014 31.4331 78.5719 32.7753 78.5719 32.7753C78.5861 32.8105 78.626 32.8271 78.6611 32.8125C78.6958 32.7981 78.7123 32.758 78.6981 32.7228Z" fill="white"/>
<path fill-rule="evenodd" clip-rule="evenodd" d="M78.5479 28.9731C77.4909 28.6944 76.4077 29.3306 76.1303 30.393C75.8531 31.4552 76.4861 32.5438 77.543 32.8224C78.6002 33.1011 79.6836 32.465 79.9608 31.4029C80.2382 30.3404 79.6051 29.2518 78.5479 28.9731ZM78.5273 29.0517C79.5411 29.319 80.1485 30.3634 79.8825 31.3822C79.6165 32.401 78.5774 33.011 77.5635 32.7437C76.5497 32.4765 75.9424 31.4324 76.2083 30.4136C76.4743 29.3948 77.5135 28.7845 78.5273 29.0517Z" fill="#E6E6E7"/>
<path fill-rule="evenodd" clip-rule="evenodd" d="M77.5497 29.808L78.0015 29.4217C78.0303 29.3972 78.0338 29.3536 78.0093 29.3249C77.985 29.2959 77.9416 29.2924 77.9128 29.3169L77.461 29.7033C77.4325 29.7279 77.4287 29.7714 77.4535 29.8001C77.4778 29.8291 77.5209 29.8325 77.5497 29.808Z" fill="white"/>
<path fill-rule="evenodd" clip-rule="evenodd" d="M78.5181 31.9885L78.0664 32.3748C78.0375 32.3993 78.0341 32.4428 78.0585 32.4715C78.0829 32.5005 78.1262 32.504 78.1551 32.4795L78.6068 32.0932C78.6354 32.0686 78.6391 32.0251 78.6144 31.9963C78.59 31.9674 78.547 31.964 78.5181 31.9885Z" fill="white"/>
<path fill-rule="evenodd" clip-rule="evenodd" d="M77.9437 30.2058L78.3512 29.7726C78.3772 29.7451 78.3759 29.7014 78.3485 29.6756C78.3212 29.6494 78.2777 29.6507 78.2517 29.6781L77.8443 30.1114C77.8186 30.139 77.8195 30.1826 77.8472 30.2085C77.8746 30.2347 77.9177 30.2333 77.9437 30.2058Z" fill="white"/>
<path fill-rule="evenodd" clip-rule="evenodd" d="M78.1432 31.6295L77.7357 32.0628C77.7097 32.0903 77.711 32.134 77.7384 32.1598C77.7657 32.186 77.8092 32.1847 77.8352 32.1572L78.2426 31.7239C78.2684 31.6964 78.2674 31.6528 78.2397 31.6269C78.2123 31.6007 78.1692 31.6021 78.1432 31.6295Z" fill="white"/>
<path fill-rule="evenodd" clip-rule="evenodd" d="M78.9825 30.7552L79.1126 30.1736C79.121 30.1366 79.0977 30.0997 79.0611 30.0915C79.0243 30.0831 78.9875 30.1064 78.9791 30.1434L78.849 30.725C78.8408 30.7619 78.8639 30.7989 78.9008 30.807C78.9376 30.8154 78.974 30.7921 78.9825 30.7552Z" fill="white"/>
<path fill-rule="evenodd" clip-rule="evenodd" d="M77.0854 31.1529L76.9552 31.7345C76.9468 31.7714 76.9701 31.8084 77.0068 31.8165C77.0436 31.825 77.0803 31.8016 77.0888 31.7646L77.2189 31.183C77.227 31.1461 77.204 31.1091 77.167 31.1011C77.1302 31.0926 77.0938 31.1159 77.0854 31.1529Z" fill="white"/>
<path fill-rule="evenodd" clip-rule="evenodd" d="M78.4284 30.5204L78.7099 29.9957C78.7279 29.9624 78.7154 29.9205 78.6823 29.9027C78.6491 29.8846 78.6075 29.8971 78.5894 29.9304L78.308 30.4552C78.2902 30.4885 78.3025 30.5304 78.3359 30.5481C78.3691 30.5663 78.4104 30.5537 78.4284 30.5204Z" fill="white"/>
<path fill-rule="evenodd" clip-rule="evenodd" d="M77.6199 31.3368L77.3384 31.8615C77.3204 31.8948 77.3329 31.9367 77.366 31.9545C77.3992 31.9726 77.4408 31.9601 77.4589 31.9267L77.7404 31.402C77.7581 31.3687 77.7459 31.3268 77.7124 31.309C77.6793 31.2909 77.6379 31.3034 77.6199 31.3368Z" fill="white"/>
<path fill-rule="evenodd" clip-rule="evenodd" d="M79.4287 30.8718L79.4863 30.2785C79.4901 30.2408 79.4625 30.2071 79.4251 30.2035C79.3875 30.1997 79.3539 30.2275 79.3501 30.2652L79.2925 30.8585C79.289 30.8961 79.3164 30.93 79.3541 30.9334C79.3916 30.9372 79.4249 30.9096 79.4287 30.8718Z" fill="white"/>
<path fill-rule="evenodd" clip-rule="evenodd" d="M76.6006 31.0654L76.5429 31.6587C76.5391 31.6965 76.5668 31.7302 76.6042 31.7338C76.6418 31.7376 76.6753 31.7098 76.6791 31.6721L76.7367 31.0788C76.7403 31.0412 76.7129 31.0073 76.6752 31.0039C76.6376 31.0001 76.6044 31.0277 76.6006 31.0654Z" fill="white"/>
<path fill-rule="evenodd" clip-rule="evenodd" d="M37.7938 30.4639C37.9624 30.303 38.1579 30.3253 38.3954 30.5121L43.0153 34.295C43.0153 34.295 43.4634 34.5701 43.084 34.9721L42.3154 35.9293C42.3154 35.9293 42.0101 36.3153 41.6417 35.9983L36.9386 32.1394C36.9386 32.1394 36.6294 31.9092 36.8825 31.5877C37.1273 31.267 37.7938 30.4639 37.7938 30.4639Z" fill="#8BB1BB"/>
<path fill-rule="evenodd" clip-rule="evenodd" d="M41.5955 36.0528L36.8922 32.1938C36.8922 32.1938 36.719 32.0596 36.7144 31.8489C36.705 31.757 36.7372 31.6608 36.826 31.5419C37.0717 31.2295 37.7373 30.418 37.7373 30.418L37.7448 30.4089C37.9366 30.2287 38.1646 30.2391 38.4304 30.4568L43.0586 34.239C43.0952 34.269 43.3036 34.4166 43.3024 34.6532C43.3042 34.7543 43.267 34.8848 43.1375 35.0163L42.369 35.9735C42.369 35.9735 42.1972 36.1853 41.9543 36.1934C41.8453 36.1961 41.7238 36.1579 41.5955 36.0528ZM37.8473 30.5081C37.7942 30.5643 37.1742 31.3288 36.936 31.632C36.8688 31.7149 36.8507 31.7842 36.8483 31.8436C36.8544 31.9866 36.9736 32.0841 36.9736 32.0841C36.9736 32.0841 36.9735 32.0841 36.9819 32.0833L41.685 35.9423C41.7859 36.0248 41.8724 36.0497 41.9482 36.0504C42.1328 36.0484 42.259 35.8834 42.259 35.8834L43.0275 34.9263L43.0358 34.9254C43.1346 34.8224 43.1677 34.7345 43.1675 34.6501C43.1655 34.4645 42.9781 34.357 42.9781 34.357C42.9781 34.357 42.9781 34.357 42.9689 34.3495C42.9689 34.3495 38.3483 30.5581 38.3491 30.5665C38.1483 30.4097 37.9851 30.3758 37.8473 30.5081Z" fill="#E6E6E7"/>
<path fill-rule="evenodd" clip-rule="evenodd" d="M37.59 30.687L35.7559 29.1775L35.2853 29.7578L37.1286 31.2749L37.59 30.687Z" fill="#8BB1BB"/>
<path fill-rule="evenodd" clip-rule="evenodd" d="M36.7042 29.9861L36.829 31.2147C36.833 31.254 36.8694 31.2801 36.9112 31.2758C36.9446 31.2724 36.9751 31.2395 36.9711 31.2001L36.8463 29.9715C36.8433 29.942 36.8059 29.9061 36.7725 29.9095C36.7307 29.9138 36.7012 29.9566 36.7042 29.9861Z" fill="white"/>
<path fill-rule="evenodd" clip-rule="evenodd" d="M36.3566 29.6535L36.4813 30.8821C36.4853 30.9214 36.5218 30.9475 36.5636 30.9432C36.597 30.9398 36.6274 30.9068 36.6234 30.8675L36.4987 29.6389C36.4957 29.6094 36.4583 29.5735 36.4248 29.5769C36.3831 29.5812 36.3536 29.624 36.3566 29.6535Z" fill="white"/>
<path fill-rule="evenodd" clip-rule="evenodd" d="M35.9513 29.3016L36.076 30.5302C36.08 30.5695 36.1165 30.5956 36.1583 30.5913C36.1917 30.5879 36.2221 30.5549 36.2181 30.5156L36.0934 29.287C36.0904 29.2575 36.053 29.2216 36.0196 29.225C35.9778 29.2293 35.9483 29.2721 35.9513 29.3016Z" fill="white"/>
<path fill-rule="evenodd" clip-rule="evenodd" d="M37.6926 30.6974C37.7234 30.6689 37.7191 30.6272 37.6825 30.5971L35.8409 29.0968C35.8126 29.0659 35.7709 29.0702 35.7494 29.1062L35.278 29.6781C35.2564 29.7141 35.2606 29.7559 35.2881 29.7784L37.1306 31.2871C37.149 31.3022 37.1664 31.3088 37.1831 31.3071C37.1997 31.3054 37.2154 31.2953 37.2304 31.2769L37.6926 30.6974ZM35.4245 29.7138L37.1661 31.1399L37.5461 30.6618L35.8137 29.2431L35.4245 29.7138Z" fill="#E6E6E7"/>
<path fill-rule="evenodd" clip-rule="evenodd" d="M34.6876 29.6597C34.6582 29.6361 34.6537 29.5912 34.6777 29.561L35.4428 28.5987C35.4668 28.5685 35.5114 28.563 35.5408 28.5866L35.9085 28.8819C35.9379 28.9055 35.9424 28.9503 35.9183 28.9806L35.1533 29.9428C35.1293 29.973 35.0848 29.9785 35.0553 29.9549L34.6876 29.6597Z" fill="#8BB1BB"/>
<path fill-rule="evenodd" clip-rule="evenodd" d="M34.6529 29.7167L35.0206 30.0119C35.0795 30.0591 35.1685 30.0481 35.2165 29.9877L35.9816 29.0254C36.0297 28.9649 36.0207 28.8752 35.9619 28.828L35.5942 28.5328C35.5354 28.4855 35.4463 28.4965 35.3982 28.557L34.6332 29.5193C34.5851 29.5797 34.5941 29.6694 34.6529 29.7167ZM34.741 29.6059L35.1087 29.9011L35.8738 28.9388L35.5061 28.6436L34.741 29.6059Z" fill="#E6E6E7"/>
<path d="M39.6121 36.7463C38.6935 36.5883 38.0764 35.7119 38.2337 34.7888C38.3909 33.8657 39.263 33.2456 40.1816 33.4036C41.1001 33.5616 41.7172 34.438 41.56 35.3611C41.4027 36.2842 40.5306 36.9043 39.6121 36.7463Z" fill="#8BB1BB"/>
<path fill-rule="evenodd" clip-rule="evenodd" d="M41.3198 36.1562C41.3198 36.1562 41.2905 36.1146 41.2393 36.0418C41.2171 36.0102 41.1735 36.0027 41.142 36.0251C41.1107 36.0473 41.1032 36.0911 41.1254 36.1228C41.1767 36.1956 41.206 36.2372 41.206 36.2372L41.3198 36.1562ZM41.0781 35.8129C41.0527 35.7769 41.0258 35.7386 40.9975 35.6985C40.9753 35.667 40.9317 35.6595 40.9004 35.6818C40.8689 35.7042 40.8614 35.748 40.8837 35.7795C40.912 35.8196 40.9389 35.8579 40.9642 35.8939C40.9865 35.9255 41.0301 35.933 41.0614 35.9106C41.0929 35.8883 41.1004 35.8446 41.0781 35.8129ZM40.8364 35.4697C40.8102 35.4325 40.7832 35.3942 40.7558 35.3553C40.7336 35.3236 40.6901 35.3162 40.6586 35.3386C40.6273 35.3609 40.6198 35.4047 40.642 35.4363C40.6695 35.4752 40.6963 35.5133 40.7226 35.5506C40.7447 35.5822 40.7883 35.5897 40.8198 35.5673C40.8512 35.545 40.8586 35.5012 40.8364 35.4697ZM40.5947 35.1264C40.568 35.0886 40.5412 35.0504 40.5141 35.012C40.4919 34.9805 40.4483 34.973 40.417 34.9953C40.3855 35.0177 40.378 35.0615 40.4003 35.093C40.4274 35.1314 40.4543 35.1696 40.4808 35.2074C40.5031 35.239 40.5467 35.2465 40.578 35.2241C40.6095 35.2019 40.617 35.1581 40.5947 35.1264ZM40.353 34.7832C40.3261 34.7449 40.2992 34.7068 40.2724 34.6688C40.2502 34.6372 40.2067 34.6297 40.1752 34.6521C40.1437 34.6743 40.1363 34.7181 40.1586 34.7498C40.1853 34.7878 40.2123 34.826 40.2392 34.8642C40.2613 34.8957 40.3049 34.9032 40.3364 34.8809C40.3677 34.8585 40.3752 34.8147 40.353 34.7832ZM40.1113 34.4399C40.0841 34.4013 40.0572 34.3632 40.0307 34.3255C40.0085 34.294 39.9649 34.2865 39.9336 34.3088C39.9021 34.3312 39.8946 34.375 39.9169 34.4065C39.9434 34.4442 39.9702 34.4823 39.9974 34.5209C40.0197 34.5524 40.0633 34.5599 40.0946 34.5376C40.1261 34.5154 40.1336 34.4716 40.1113 34.4399ZM39.8696 34.0967C39.8419 34.0574 39.8151 34.0193 39.789 33.9823C39.7668 33.9507 39.7232 33.9432 39.6918 33.9656C39.6603 33.9878 39.6529 34.0316 39.6752 34.0633C39.7012 34.1003 39.7281 34.1384 39.7558 34.1776C39.7779 34.2092 39.8215 34.2167 39.853 34.1943C39.8843 34.172 39.8918 34.1282 39.8696 34.0967ZM39.6279 33.7534C39.5988 33.7121 39.5718 33.6738 39.5473 33.639C39.5251 33.6075 39.4815 33.6 39.45 33.6223C39.4187 33.6447 39.4112 33.6885 39.4334 33.72C39.4579 33.7548 39.4849 33.7931 39.514 33.8344C39.5363 33.8659 39.5799 33.8734 39.6112 33.8511C39.6427 33.8287 39.6502 33.7851 39.6279 33.7534Z" fill="white"/>
<path fill-rule="evenodd" clip-rule="evenodd" d="M40.8282 36.6496C40.8282 36.6496 40.7988 36.6083 40.7471 36.5355C40.7247 36.5041 40.6812 36.4968 40.6498 36.5193C40.6185 36.5419 40.6112 36.5857 40.6337 36.6171C40.6854 36.6898 40.7147 36.7311 40.7147 36.7311L40.8282 36.6496ZM40.5849 36.3075C40.5593 36.2717 40.5322 36.2335 40.5036 36.1936C40.4813 36.162 40.4377 36.1548 40.4065 36.1772C40.3751 36.1998 40.3679 36.2436 40.3902 36.2751C40.4187 36.315 40.4458 36.3532 40.4714 36.389C40.4937 36.4205 40.5374 36.4278 40.5687 36.4053C40.6 36.3828 40.6072 36.339 40.5849 36.3075ZM40.3414 35.9655C40.3151 35.9284 40.2879 35.8903 40.2603 35.8515C40.2378 35.8201 40.1944 35.8127 40.163 35.8353C40.1318 35.8577 40.1244 35.9016 40.1469 35.933C40.1745 35.9718 40.2016 36.0099 40.2279 36.0471C40.2504 36.0785 40.294 36.0858 40.3253 36.0633C40.3566 36.0407 40.3638 35.9969 40.3414 35.9655ZM40.098 35.6235C40.0713 35.5858 40.0442 35.5478 40.0168 35.5095C39.9945 35.478 39.9509 35.4708 39.9196 35.4932C39.8883 35.5157 39.8811 35.5595 39.9034 35.591C39.9307 35.6293 39.9578 35.6674 39.9846 35.705C40.0069 35.7365 40.0505 35.7437 40.0819 35.7212C40.1132 35.6988 40.1203 35.655 40.098 35.6235ZM39.8546 35.2815C39.8276 35.2434 39.8005 35.2054 39.7735 35.1674C39.7511 35.1359 39.7074 35.1287 39.6762 35.1512C39.6448 35.1736 39.6376 35.2174 39.6601 35.249C39.687 35.2869 39.7141 35.325 39.7411 35.363C39.7636 35.3944 39.8071 35.4016 39.8384 35.3792C39.8698 35.3567 39.877 35.3129 39.8546 35.2815ZM39.6112 34.9394C39.5839 34.901 39.5569 34.8631 39.53 34.8255C39.5077 34.7939 39.4641 34.7867 39.4327 34.8091C39.4015 34.8317 39.3943 34.8755 39.4166 34.907C39.4433 34.9446 39.4704 34.9827 39.4978 35.0209C39.5201 35.0524 39.5637 35.0597 39.595 35.0371C39.6263 35.0147 39.6335 34.9709 39.6112 34.9394ZM39.3678 34.5973C39.3402 34.5586 39.3131 34.5205 39.2867 34.4834C39.2642 34.4518 39.2206 34.4446 39.1894 34.4672C39.158 34.4896 39.1508 34.5334 39.1732 34.5649C39.1997 34.6021 39.2268 34.6402 39.2543 34.679C39.2768 34.7104 39.3203 34.7176 39.3516 34.6952C39.383 34.6726 39.3902 34.6288 39.3678 34.5973ZM39.1244 34.2554C39.096 34.2155 39.0689 34.1774 39.0432 34.1413C39.0209 34.1099 38.9772 34.1027 38.9459 34.1251C38.9146 34.1476 38.9074 34.1914 38.9298 34.2229C38.9555 34.2589 38.9826 34.297 39.011 34.3369C39.0333 34.3683 39.0769 34.3756 39.1083 34.3531C39.1395 34.3307 39.1467 34.2867 39.1244 34.2554ZM38.8809 33.9133C38.845 33.863 38.8175 33.8242 38.7999 33.7993C38.7774 33.7678 38.7338 33.7606 38.7025 33.7831C38.6712 33.8055 38.664 33.8493 38.6864 33.8809C38.7041 33.9057 38.7316 33.9445 38.7675 33.9948C38.7899 34.0263 38.8334 34.0335 38.8648 34.0111C38.8961 33.9886 38.9034 33.9448 38.8809 33.9133Z" fill="white"/>
<path fill-rule="evenodd" clip-rule="evenodd" d="M41.126 36.301C41.126 36.301 41.0967 36.2594 41.0454 36.1865C41.0233 36.1549 40.9797 36.1474 40.9482 36.1698C40.9168 36.1921 40.9094 36.2359 40.9315 36.2675C40.9828 36.3404 41.0121 36.382 41.0121 36.382L41.126 36.301ZM40.8842 35.9577C40.8589 35.9217 40.8319 35.8834 40.8037 35.8432C40.7815 35.8117 40.7379 35.8042 40.7065 35.8265C40.6751 35.8489 40.6676 35.8927 40.6899 35.9242C40.7182 35.9644 40.745 36.0027 40.7704 36.0386C40.7926 36.0703 40.8362 36.0778 40.8676 36.0554C40.8991 36.0331 40.9065 35.9893 40.8842 35.9577ZM40.6426 35.6145C40.6163 35.5772 40.5894 35.5389 40.562 35.5C40.5397 35.4684 40.4963 35.4609 40.4648 35.4833C40.4334 35.5056 40.426 35.5494 40.4481 35.581C40.4756 35.6199 40.5025 35.6581 40.5287 35.6953C40.5509 35.727 40.5945 35.7345 40.626 35.7121C40.6573 35.6898 40.6648 35.646 40.6426 35.6145ZM40.4008 35.2712C40.3742 35.2333 40.3473 35.1952 40.3203 35.1567C40.2981 35.1252 40.2545 35.1177 40.2231 35.14C40.1917 35.1624 40.1842 35.2062 40.2065 35.2377C40.2336 35.2762 40.2604 35.3143 40.287 35.3522C40.3092 35.3838 40.3528 35.3913 40.3842 35.3689C40.4157 35.3466 40.4231 35.3028 40.4008 35.2712ZM40.1592 34.928C40.1322 34.8897 40.1054 34.8516 40.0786 34.8136C40.0563 34.7819 40.0129 34.7744 39.9814 34.7968C39.9499 34.8191 39.9424 34.8629 39.9647 34.8945C39.9915 34.9325 40.0185 34.9707 40.0453 35.009C40.0675 35.0405 40.1111 35.048 40.1425 35.0257C40.1739 35.0033 40.1814 34.9595 40.1592 34.928ZM39.9174 34.5847C39.8903 34.5461 39.8634 34.5079 39.8368 34.4702C39.8147 34.4387 39.7711 34.4312 39.7397 34.4535C39.7082 34.4759 39.7008 34.5197 39.7231 34.5512C39.7495 34.5889 39.7764 34.6271 39.8035 34.6657C39.8259 34.6972 39.8694 34.7047 39.9008 34.6824C39.9322 34.6601 39.9397 34.6163 39.9174 34.5847ZM39.6758 34.2415C39.6481 34.2022 39.6212 34.1641 39.5952 34.1271C39.5729 34.0954 39.5293 34.0879 39.498 34.1103C39.4665 34.1326 39.459 34.1764 39.4813 34.208C39.5074 34.245 39.5342 34.2832 39.5619 34.3224C39.5841 34.354 39.6277 34.3615 39.6591 34.3391C39.6905 34.3168 39.698 34.273 39.6758 34.2415ZM39.434 33.8982C39.4049 33.8569 39.378 33.8186 39.3534 33.7837C39.3313 33.7522 39.2877 33.7447 39.2562 33.767C39.2248 33.7894 39.2174 33.8332 39.2396 33.8647C39.2641 33.8995 39.291 33.9378 39.3201 33.9792C39.3424 34.0107 39.386 34.0182 39.4174 33.9959C39.4489 33.9735 39.4563 33.9298 39.434 33.8982Z" fill="white"/>
<path fill-rule="evenodd" clip-rule="evenodd" d="M40.5859 36.7162C40.5859 36.7162 40.5566 36.6745 40.5054 36.6017C40.4832 36.5701 40.4396 36.5626 40.4081 36.585C40.3768 36.6073 40.3693 36.6511 40.3915 36.6827C40.4428 36.7555 40.4721 36.7971 40.4721 36.7971L40.5859 36.7162ZM40.3442 36.3728C40.3189 36.3369 40.2919 36.2986 40.2636 36.2584C40.2414 36.2269 40.1978 36.2194 40.1665 36.2417C40.135 36.2641 40.1275 36.3079 40.1499 36.3394C40.1781 36.3796 40.205 36.4178 40.2303 36.4538C40.2526 36.4855 40.2962 36.493 40.3275 36.4705C40.359 36.4483 40.3665 36.4045 40.3442 36.3728ZM40.1025 36.0297C40.0763 35.9924 40.0493 35.9541 40.022 35.9152C39.9997 35.8836 39.9562 35.8761 39.9247 35.8985C39.8934 35.9208 39.8859 35.9646 39.9081 35.9962C39.9356 36.0351 39.9624 36.0732 39.9887 36.1105C40.0108 36.1421 40.0544 36.1496 40.0859 36.1272C40.1173 36.105 40.1247 36.0612 40.1025 36.0297ZM39.8608 35.6863C39.8341 35.6485 39.8073 35.6103 39.7802 35.5719C39.758 35.5404 39.7144 35.5329 39.6831 35.5552C39.6516 35.5776 39.6441 35.6214 39.6664 35.6529C39.6935 35.6913 39.7204 35.7295 39.7469 35.7673C39.7692 35.799 39.8128 35.8065 39.8441 35.7841C39.8756 35.7618 39.8831 35.718 39.8608 35.6863ZM39.6191 35.3432C39.5922 35.3049 39.5653 35.2667 39.5386 35.2287C39.5163 35.1971 39.4728 35.1896 39.4413 35.212C39.4099 35.2343 39.4024 35.2781 39.4247 35.3097C39.4514 35.3477 39.4784 35.3859 39.5053 35.4241C39.5274 35.4556 39.571 35.4631 39.6025 35.4409C39.6339 35.4185 39.6413 35.3747 39.6191 35.3432ZM39.3774 34.9998C39.3502 34.9613 39.3234 34.9231 39.2968 34.8854C39.2746 34.8539 39.231 34.8464 39.1997 34.8687C39.1682 34.8911 39.1607 34.9349 39.183 34.9664C39.2095 35.0041 39.2363 35.0422 39.2635 35.0808C39.2858 35.1123 39.3294 35.1198 39.3607 35.0976C39.3922 35.0753 39.3997 35.0315 39.3774 34.9998ZM39.1357 34.6567C39.1081 34.6174 39.0812 34.5792 39.0551 34.5422C39.0329 34.5106 38.9893 34.5031 38.9579 34.5255C38.9265 34.5478 38.919 34.5916 38.9413 34.6232C38.9673 34.6602 38.9942 34.6983 39.0219 34.7375C39.044 34.7691 39.0876 34.7766 39.1191 34.7543C39.1505 34.732 39.1579 34.6882 39.1357 34.6567ZM38.894 34.3133C38.8649 34.272 38.8379 34.2337 38.8134 34.1989C38.7912 34.1674 38.7476 34.1599 38.7162 34.1822C38.6848 34.2046 38.6773 34.2484 38.6995 34.2799C38.724 34.3147 38.751 34.353 38.7801 34.3943C38.8024 34.4258 38.846 34.4333 38.8773 34.4111C38.9088 34.3887 38.9163 34.345 38.894 34.3133Z" fill="white"/>
<path fill-rule="evenodd" clip-rule="evenodd" d="M41.0268 36.5584L38.9097 33.5887L38.7964 33.6704L40.9134 36.6401L41.0268 36.5584Z" fill="white"/>
<path fill-rule="evenodd" clip-rule="evenodd" d="M40.1899 33.3336C39.2341 33.1691 38.3252 33.8155 38.1615 34.776C37.9978 35.7367 38.641 36.65 39.5968 36.8145C40.5528 36.979 41.4617 36.3326 41.6254 35.372C41.789 34.4114 41.1458 33.498 40.1899 33.3336ZM40.1664 33.4717C41.0464 33.6231 41.6384 34.4641 41.4878 35.3483C41.3371 36.2326 40.5004 36.8278 39.6204 36.6763C38.7404 36.5249 38.1483 35.684 38.299 34.7996C38.4496 33.9154 39.2864 33.3203 40.1664 33.4717Z" fill="#E6E6E7"/>
</svg>
