<svg width="261" height="370" viewBox="0 0 261 370" fill="none" xmlns="http://www.w3.org/2000/svg">
<path d="M95 365.486L95 366.486L96 366.486L96 365.486L95 365.486ZM95 355.645L96 355.645L96 354.645L95 354.645L95 355.645ZM75.7727 355.645L74.7727 355.645L74.7727 356.645L75.7727 356.645L75.7727 355.645ZM75.7727 336.713L76.7727 336.713L76.7727 335.713L75.7727 335.713L75.7727 336.713ZM67.6591 336.713L67.6591 335.713L66.6591 335.713L66.6591 336.713L67.6591 336.713ZM67.6591 355.645L67.6591 356.645L68.6591 356.645L68.6591 355.645L67.6591 355.645ZM56.5682 355.645L55.5682 355.645L55.5682 356.645L56.5682 356.645L56.5682 355.645ZM56.5682 334.668L57.5682 334.668L57.5682 333.668L56.5682 333.668L56.5682 334.668ZM48.4545 334.668L48.4545 333.668L47.4545 333.668L47.4545 334.668L48.4545 334.668ZM48.4545 365.486L47.4545 365.486L47.4545 366.486L48.4545 366.486L48.4545 365.486ZM96 365.486L96 355.645L94 355.645L94 365.486L96 365.486ZM95 354.645L75.7727 354.645L75.7727 356.645L95 356.645L95 354.645ZM76.7727 355.645L76.7727 336.713L74.7727 336.713L74.7727 355.645L76.7727 355.645ZM75.7727 335.713L67.6591 335.713L67.6591 337.713L75.7727 337.713L75.7727 335.713ZM66.6591 336.713L66.6591 355.645L68.6591 355.645L68.6591 336.713L66.6591 336.713ZM67.6591 354.645L56.5682 354.645L56.5682 356.645L67.6591 356.645L67.6591 354.645ZM57.5682 355.645L57.5682 334.668L55.5682 334.668L55.5682 355.645L57.5682 355.645ZM56.5682 333.668L48.4545 333.668L48.4545 335.668L56.5682 335.668L56.5682 333.668ZM47.4545 334.668L47.4545 365.486L49.4545 365.486L49.4545 334.668L47.4545 334.668ZM48.4545 366.486L95 366.486L95 364.486L48.4545 364.486L48.4545 366.486ZM71.7273 280.276C63.9036 280.276 57.6624 282.708 53.3704 286.824C49.0777 290.94 46.8182 296.66 46.8182 303.071L48.8182 303.071C48.8182 297.141 50.8995 291.964 54.7546 288.267C58.6103 284.57 64.3237 282.276 71.7273 282.276L71.7273 280.276ZM46.8182 303.071C46.8182 309.515 49.0771 315.236 53.3712 319.345C57.6641 323.452 63.9056 325.866 71.7273 325.866L71.7273 323.866C64.3217 323.866 58.6086 321.588 54.7538 317.9C50.9002 314.213 48.8182 309.036 48.8182 303.071L46.8182 303.071ZM71.7273 325.866C79.5159 325.866 85.7565 323.451 90.057 319.345C94.3589 315.238 96.6364 309.517 96.6364 303.071L94.6364 303.071C94.6364 309.034 92.5388 314.211 88.6759 317.899C84.8117 321.588 79.0978 323.866 71.7273 323.866L71.7273 325.866ZM96.6364 303.071C96.6364 296.66 94.3768 290.94 90.0841 286.824C85.7922 282.708 79.5509 280.276 71.7273 280.276L71.7273 282.276C79.1309 282.276 84.8442 284.57 88.6999 288.267C92.555 291.964 94.6364 297.141 94.6364 303.071L96.6364 303.071ZM71.7273 292.253C76.5145 292.253 80.0671 293.39 82.4022 295.265C84.7105 297.119 85.9318 299.774 85.9318 303.071L87.9318 303.071C87.9318 299.231 86.4827 295.977 83.6546 293.706C80.8534 291.456 76.8037 290.253 71.7273 290.253L71.7273 292.253ZM85.9318 303.071C85.9318 306.38 84.71 309.034 82.4028 310.885C80.068 312.757 76.5156 313.889 71.7273 313.889L71.7273 315.889C76.8026 315.889 80.8524 314.692 83.654 312.445C86.4832 310.176 87.9318 306.921 87.9318 303.071L85.9318 303.071ZM71.7273 313.889C66.9389 313.889 63.3865 312.757 61.0518 310.885C58.7446 309.034 57.5227 306.38 57.5227 303.071L55.5227 303.071C55.5227 306.921 56.9714 310.176 59.8005 312.445C62.6021 314.692 66.652 315.889 71.7273 315.889L71.7273 313.889ZM57.5227 303.071C57.5227 299.774 58.7441 297.119 61.0523 295.265C63.3875 293.39 66.94 292.253 71.7273 292.253L71.7273 290.253C66.6509 290.253 62.6012 291.456 59.8 293.706C56.9718 295.977 55.5227 299.231 55.5227 303.071L57.5227 303.071ZM71.7273 226.213C63.9036 226.213 57.6624 228.646 53.3704 232.761C49.0777 236.877 46.8182 242.598 46.8182 249.009L48.8182 249.009C48.8182 243.078 50.8995 237.901 54.7546 234.205C58.6103 230.508 64.3237 228.213 71.7273 228.213L71.7273 226.213ZM46.8182 249.009C46.8182 255.452 49.0771 261.174 53.3712 265.282C57.6641 269.39 63.9056 271.804 71.7273 271.804L71.7273 269.804C64.3217 269.804 58.6086 267.525 54.7538 263.837C50.9002 260.15 48.8182 254.974 48.8182 249.009L46.8182 249.009ZM71.7273 271.804C79.5158 271.804 85.7565 269.389 90.057 265.283C94.3589 261.176 96.6364 255.454 96.6364 249.009L94.6364 249.009C94.6364 254.972 92.5388 260.148 88.6759 263.836C84.8117 267.526 79.0978 269.804 71.7273 269.804L71.7273 271.804ZM96.6364 249.009C96.6364 242.598 94.3768 236.877 90.0841 232.761C85.7922 228.646 79.5509 226.213 71.7273 226.213L71.7273 228.213C79.1309 228.213 84.8442 230.508 88.6999 234.205C92.555 237.901 94.6364 243.078 94.6364 249.009L96.6364 249.009ZM71.7273 238.19C76.5145 238.19 80.0671 239.328 82.4022 241.203C84.7105 243.057 85.9318 245.712 85.9318 249.009L87.9318 249.009C87.9318 245.169 86.4827 241.915 83.6546 239.644C80.8534 237.394 76.8037 236.19 71.7273 236.19L71.7273 238.19ZM85.9318 249.009C85.9318 252.317 84.71 254.972 82.4028 256.822C80.068 258.695 76.5156 259.827 71.7273 259.827L71.7273 261.827C76.8026 261.827 80.8524 260.629 83.654 258.382C86.4832 256.113 87.9318 252.859 87.9318 249.009L85.9318 249.009ZM71.7273 259.827C66.9389 259.827 63.3865 258.695 61.0518 256.822C58.7446 254.972 57.5227 252.317 57.5227 249.009L55.5227 249.009C55.5227 252.859 56.9713 256.113 59.8005 258.382C62.6021 260.629 66.652 261.827 71.7273 261.827L71.7273 259.827ZM57.5227 249.009C57.5227 245.712 58.7441 243.057 61.0523 241.203C63.3874 239.328 66.94 238.19 71.7273 238.19L71.7273 236.19C66.6509 236.19 62.6012 237.394 59.8 239.644C56.9718 241.915 55.5227 245.169 55.5227 249.009L57.5227 249.009ZM56.5682 219.759L56.5682 220.759L57.5682 220.759L57.5682 219.759L56.5682 219.759ZM56.5682 205.509L56.5682 204.509L55.5682 204.509L55.5682 205.509L56.5682 205.509ZM95 205.509L95 206.509L96 206.509L96 205.509L95 205.509ZM95 195.781L96 195.781L96 194.781L95 194.781L95 195.781ZM56.5682 195.781L55.5682 195.781L55.5682 196.781L56.5682 196.781L56.5682 195.781ZM56.5682 181.531L57.5682 181.531L57.5682 180.531L56.5682 180.531L56.5682 181.531ZM48.4545 181.531L48.4545 180.531L47.4545 180.531L47.4545 181.531L48.4545 181.531ZM48.4545 219.759L47.4545 219.759L47.4545 220.759L48.4545 220.759L48.4545 219.759ZM57.5682 219.759L57.5682 205.509L55.5682 205.509L55.5682 219.759L57.5682 219.759ZM56.5682 206.509L95 206.509L95 204.509L56.5682 204.509L56.5682 206.509ZM96 205.509L96 195.781L94 195.781L94 205.509L96 205.509ZM95 194.781L56.5682 194.781L56.5682 196.781L95 196.781L95 194.781ZM57.5682 195.781L57.5682 181.531L55.5682 181.531L55.5682 195.781L57.5682 195.781ZM56.5682 180.531L48.4545 180.531L48.4545 182.531L56.5682 182.531L56.5682 180.531ZM47.4545 181.531L47.4545 219.759L49.4545 219.759L49.4545 181.531L47.4545 181.531ZM48.4545 220.759L56.5682 220.759L56.5682 218.759L48.4545 218.759L48.4545 220.759ZM95 171.236L95 172.236L96 172.236L96 171.236L95 171.236ZM70.8409 145.554L70.8409 146.554L71.7948 146.554L71.8398 145.601L70.8409 145.554ZM70.3864 145.554L69.4108 145.774L69.5866 146.554L70.3864 146.554L70.3864 145.554ZM48.4545 171.236L47.4545 171.236L47.4545 172.236L48.4545 172.236L48.4545 171.236ZM86.9545 161.395L86.9545 162.395L87.9545 162.395L87.9545 161.395L86.9545 161.395ZM74.5909 161.395L73.5909 161.395L73.5909 162.395L74.5909 162.395L74.5909 161.395ZM67.9318 161.395L67.9318 162.395L68.9318 162.395L68.9318 161.395L67.9318 161.395ZM56.4091 161.395L55.4091 161.395L55.4091 162.395L56.4091 162.395L56.4091 161.395ZM96 171.236L96 151.349L94 151.349L94 171.236L96 171.236ZM96 151.349C96 145.956 94.5925 141.698 92.1091 138.771C89.6125 135.828 86.1075 134.327 82.1364 134.327L82.1364 136.327C85.5743 136.327 88.5011 137.609 90.584 140.065C92.6802 142.535 94 146.288 94 151.349L96 151.349ZM82.1364 134.327C74.6905 134.327 70.116 139.704 69.842 145.507L71.8398 145.601C72.0658 140.813 75.8094 136.327 82.1364 136.327L82.1364 134.327ZM70.8409 144.554L70.3864 144.554L70.3864 146.554L70.8409 146.554L70.8409 144.554ZM71.3619 145.334C70.7794 142.749 69.559 140.448 67.6968 138.788C65.8242 137.118 63.3562 136.145 60.3864 136.145L60.3864 138.145C62.8938 138.145 64.8803 138.956 66.3657 140.28C67.8614 141.614 68.9024 143.518 69.4108 145.774L71.3619 145.334ZM60.3864 136.145C56.6312 136.145 53.3509 137.55 51.03 140.387C48.7282 143.2 47.4545 147.315 47.4545 152.599L49.4545 152.599C49.4545 147.612 50.6581 143.999 52.5779 141.653C54.4786 139.33 57.1643 138.145 60.3864 138.145L60.3864 136.145ZM47.4545 152.599L47.4545 171.236L49.4545 171.236L49.4545 152.599L47.4545 152.599ZM48.4545 172.236L95 172.236L95 170.236L48.4545 170.236L48.4545 172.236ZM86.9545 160.395L74.5909 160.395L74.5909 162.395L86.9545 162.395L86.9545 160.395ZM75.5909 161.395L75.5909 153.145L73.5909 153.145L73.5909 161.395L75.5909 161.395ZM75.5909 153.145C75.5909 150.97 76.2167 149.307 77.1862 148.202C78.1466 147.108 79.5083 146.486 81.1591 146.486L81.1591 144.486C78.9689 144.486 77.0465 145.329 75.6831 146.883C74.3288 148.426 73.5909 150.592 73.5909 153.145L75.5909 153.145ZM81.1591 146.486C82.6631 146.486 83.7965 146.986 84.5837 147.985C85.4018 149.024 85.9545 150.739 85.9545 153.372L87.9545 153.372C87.9545 150.505 87.3595 148.277 86.1549 146.748C84.9194 145.179 83.1551 144.486 81.1591 144.486L81.1591 146.486ZM85.9545 153.372L85.9545 161.395L87.9545 161.395L87.9545 153.372L85.9545 153.372ZM67.9318 160.395L56.4091 160.395L56.4091 162.395L67.9318 162.395L67.9318 160.395ZM57.4091 161.395L57.4091 153.918L55.4091 153.918L55.4091 161.395L57.4091 161.395ZM57.4091 153.918C57.4091 151.898 57.9295 150.441 58.7188 149.506C59.4922 148.589 60.6039 148.077 62.0227 148.077L62.0227 146.077C60.0779 146.077 58.3828 146.803 57.1903 148.216C56.0137 149.61 55.4091 151.573 55.4091 153.918L57.4091 153.918ZM62.0227 148.077C63.5655 148.077 64.7564 148.693 65.5816 149.71C66.4233 150.747 66.9318 152.264 66.9318 154.099L68.9318 154.099C68.9318 151.912 68.3267 149.918 67.1343 148.449C65.9254 146.96 64.1617 146.077 62.0227 146.077L62.0227 148.077ZM66.9318 154.099L66.9318 161.395L68.9318 161.395L68.9318 154.099L66.9318 154.099ZM95 116.901L96 116.901L96 116.174L95.3095 115.95L95 116.901ZM84.3864 113.446L83.3864 113.446L83.3864 114.172L84.0769 114.397L84.3864 113.446ZM84.3864 96.6506L84.0769 95.6997L83.3864 95.9244L83.3864 96.6506L84.3864 96.6506ZM95 93.196L95.3095 94.1469L96 93.9222L96 93.196L95 93.196ZM95 82.6506L96 82.6506L96 81.2481L94.6741 81.7052L95 82.6506ZM48.4545 98.696L48.1286 97.7506L47.4545 97.983L47.4545 98.696L48.4545 98.696ZM48.4545 111.378L47.4545 111.378L47.4545 112.091L48.1282 112.323L48.4545 111.378ZM95 127.446L94.6737 128.391L96 128.849L96 127.446L95 127.446ZM76.7045 110.946L76.3953 111.897L77.7045 112.323L77.7045 110.946L76.7045 110.946ZM59.0909 105.219L58.0909 105.219L58.0909 105.945L58.7817 106.17L59.0909 105.219ZM59.0909 104.855L58.7817 103.904L58.0909 104.129L58.0909 104.855L59.0909 104.855ZM76.7045 99.1278L77.7045 99.1278L77.7045 97.7511L76.3953 98.1768L76.7045 99.1278ZM95.3095 115.95L84.6959 112.495L84.0769 114.397L94.6905 117.851L95.3095 115.95ZM85.3864 113.446L85.3864 96.6506L83.3864 96.6506L83.3864 113.446L85.3864 113.446ZM84.6958 97.6015L95.3095 94.1469L94.6905 92.2451L84.0769 95.6997L84.6958 97.6015ZM96 93.196L96 82.6506L94 82.6506L94 93.196L96 93.196ZM94.6741 81.7052L48.1286 97.7506L48.7804 99.6414L95.3259 83.596L94.6741 81.7052ZM47.4545 98.696L47.4545 111.378L49.4545 111.378L49.4545 98.696L47.4545 98.696ZM48.1282 112.323L94.6737 128.391L95.3263 126.501L48.7809 110.433L48.1282 112.323ZM96 127.446L96 116.901L94 116.901L94 127.446L96 127.446ZM77.0138 109.995L59.4001 104.268L58.7817 106.17L76.3953 111.897L77.0138 109.995ZM60.0909 105.219L60.0909 104.855L58.0909 104.855L58.0909 105.219L60.0909 105.219ZM59.4001 105.806L77.0138 100.079L76.3953 98.1768L58.7817 103.904L59.4001 105.806ZM75.7045 99.1278L75.7045 110.946L77.7045 110.946L77.7045 99.1278L75.7045 99.1278ZM95 73.0483L95 74.0483L96 74.0483L96 73.0483L95 73.0483ZM95 43.2528L96 43.2528L96 42.2528L95 42.2528L95 43.2528ZM86.8863 43.2528L86.8863 42.2528L85.8863 42.2528L85.8863 43.2528L86.8863 43.2528ZM86.8864 63.2074L86.8864 64.2074L87.8864 64.2074L87.8864 63.2074L86.8864 63.2074ZM48.4545 63.2074L48.4545 62.2074L47.4545 62.2074L47.4545 63.2074L48.4545 63.2074ZM48.4545 73.0483L47.4545 73.0483L47.4545 74.0483L48.4545 74.0483L48.4545 73.0483ZM96 73.0483L96 43.2528L94 43.2528L94 73.0483L96 73.0483ZM95 42.2528L86.8863 42.2528L86.8863 44.2528L95 44.2528L95 42.2528ZM85.8863 43.2528L85.8864 63.2074L87.8864 63.2074L87.8863 43.2528L85.8863 43.2528ZM86.8864 62.2074L48.4545 62.2074L48.4545 64.2074L86.8864 64.2074L86.8864 62.2074ZM47.4545 63.2074L47.4545 73.0483L49.4545 73.0483L49.4545 63.2074L47.4545 63.2074ZM48.4545 74.0483L95 74.0483L95 72.0483L48.4545 72.0483L48.4545 74.0483ZM95 32.7358L95 33.7358L96 33.7358L96 32.7358L95 32.7358ZM95 2.94034L96 2.94034L96 1.94034L95 1.94034L95 2.94034ZM86.8863 2.94034L86.8863 1.94034L85.8863 1.94034L85.8863 2.94034L86.8863 2.94034ZM86.8863 22.8949L86.8863 23.8949L87.8863 23.8949L87.8863 22.8949L86.8863 22.8949ZM48.4545 22.8949L48.4545 21.8949L47.4545 21.8949L47.4545 22.8949L48.4545 22.8949ZM48.4545 32.7358L47.4545 32.7358L47.4545 33.7358L48.4545 33.7358L48.4545 32.7358ZM96 32.7358L96 2.94034L94 2.94034L94 32.7358L96 32.7358ZM95 1.94034L86.8863 1.94034L86.8863 3.94034L95 3.94034L95 1.94034ZM85.8863 2.94034L85.8863 22.8949L87.8863 22.8949L87.8863 2.94034L85.8863 2.94034ZM86.8863 21.8949L48.4545 21.8949L48.4545 23.8949L86.8863 23.8949L86.8863 21.8949ZM47.4545 22.8949L47.4545 32.7358L49.4545 32.7358L49.4545 22.8949L47.4545 22.8949ZM48.4545 33.7358L95 33.7358L95 31.7358L48.4545 31.7358L48.4545 33.7358Z" fill="#042365" fill-opacity="0.12"/>
<mask id="mask0" style="mask-type:alpha" maskUnits="userSpaceOnUse" x="0" y="73" width="261" height="297">
<path fill-rule="evenodd" clip-rule="evenodd" d="M203.032 355.492C202.983 355.55 202.931 355.614 202.897 355.648C202.723 355.819 202.356 355.917 202.175 356.097C202.123 356.149 201.851 356.131 201.784 356.189C201.514 356.431 201.267 356.351 200.961 356.489C200.529 356.685 199.813 357.196 199.26 357.196C199.667 357.196 200.037 357.092 200.34 356.939C200.661 356.776 201.215 357.055 201.56 356.939C202.181 356.731 203.234 356.654 203.87 356.914C204.387 357.128 205.07 356.868 205.559 357.092C205.993 357.287 206.706 357.092 207.135 357.287C207.278 357.352 207.505 357.235 207.655 357.287C208.3 357.502 209.09 357.26 209.659 357.52C210.032 357.694 210.583 357.489 210.968 357.618C211.066 357.648 211.427 357.587 211.497 357.658C211.641 357.798 212.174 357.749 212.317 357.893C212.434 358.006 212.773 357.988 212.874 358.089C213.021 358.236 213.324 358.168 213.56 358.285C214.119 358.566 214.835 358.689 215.157 359.007C215.392 359.248 215.64 359.692 215.863 359.793C215.992 359.854 216.386 360.075 216.438 360.188C216.668 360.699 216.955 361.307 217.203 361.855C217.317 362.106 217.203 362.669 217.203 362.947C217.203 364.082 216.781 364.716 215.839 365.181C215.64 365.279 215.358 365.533 215.129 365.533C214.566 365.533 214.581 365.881 214.26 366.203C214.153 366.307 213.884 366.252 213.777 366.359C213.471 366.665 212.969 366.863 212.657 367.007C212.161 367.231 211.488 367.176 210.919 367.457C210.803 367.515 210.295 367.475 210.295 367.592C209.665 367.592 208.521 367.787 208.169 368.136C207.967 368.338 206.437 368.136 206.156 368.136C205.07 368.136 203.277 367.986 202.246 368.329C201.661 368.522 200.93 368.246 200.34 368.442C199.146 368.84 197.712 368.21 196.479 368.21C194.781 368.21 193.263 368.167 191.642 368.167C191.244 368.167 189.965 368.017 189.739 368.243C189.607 368.378 189.087 368.115 188.958 368.243C188.778 368.424 188.221 368.436 188.019 368.632C187.94 368.711 187.615 368.552 187.536 368.632C187.285 368.883 186.392 368.754 185.945 368.901C184.92 369.241 183.62 368.739 182.745 369.134C182.427 369.277 182.072 369.072 181.854 369.29C181.579 369.562 180.787 369.28 180.542 369.522C180.086 369.978 178.397 369.323 178.397 369.947C177.204 369.947 176.311 369.871 174.962 369.871C173.713 369.871 173.019 370.345 172.15 369.476C171.685 369.011 171.679 368.225 171.29 367.836C170.948 367.491 171.428 365.924 171.211 365.447C170.391 363.642 170.424 360.472 171.633 359.258C171.875 359.016 171.474 358.061 171.633 357.743C171.92 357.165 172.11 356.856 172.49 356.477C172.777 356.186 172.594 355.715 172.759 355.354C172.921 354.99 173.291 354.332 173.588 354.035C173.713 353.91 173.585 353.362 173.82 353.255C174.236 353.065 174.622 353.497 174.769 353.644C175.573 354.451 175.234 354.95 175.234 356.051C175.234 356.929 174.885 357.183 175.463 357.762C175.5 357.798 175.876 358.205 176.084 357.994C176.617 357.459 177.186 357.41 177.562 357.033C177.99 356.602 178.819 356.605 179.208 356.217C179.444 355.978 179.869 355.516 180.218 355.357C181.191 354.913 182.414 354.139 183.081 353.469C184.528 352.016 186.098 351.263 187.371 349.984C187.475 349.88 187.823 350.015 187.931 349.908C188.735 349.097 189.127 350.453 189.359 350.685C189.411 350.734 189.668 351.441 189.941 351.165C190.158 350.945 190.531 350.964 190.718 350.774C190.913 350.578 190.751 350.024 190.95 349.822C191.253 349.519 191.571 348.635 191.571 348.167L191.504 347.987C192.107 348.589 192.523 349.443 193.095 350.015C193.208 350.131 193.37 349.474 193.382 349.461C193.483 349.357 194.132 349.033 194.303 349.204C194.6 349.504 194.992 349.679 195.261 349.951C195.861 350.554 196.066 351.413 196.769 351.765C197.436 352.102 197.488 353.044 198.192 353.393C198.357 353.478 198.519 353.766 198.666 353.833C199.538 354.228 200.441 354.831 201.245 355.198C201.661 355.384 202.139 355.492 202.622 355.492C202.692 355.492 202.891 355.51 203.032 355.492C203.105 355.406 203.173 355.339 203.173 355.412C203.173 355.458 203.111 355.482 203.032 355.492ZM40.8293 259.945C42.1203 259.541 43.647 259.385 45.4215 259.719L45.5745 262.879L47.9364 262.971C47.9364 262.971 49.6221 259.7 52.8529 260.639C52.8529 260.639 62.8206 251.755 72.0999 261.095L73.2196 261.576L73.7673 260.624L74.37 261.138L80.03 254.527L80.703 253.41C80.703 253.41 81.0916 253.168 77.2336 252.302C77.2336 252.302 82.6213 251.574 85.7236 247.267C85.7236 247.267 91.0623 240.689 96.242 236.109C96.242 236.109 101.486 232.217 101.688 229.219L103.481 231.486C103.481 231.486 104.086 228.347 102.321 226.245C102.321 226.245 103.741 224.994 109.985 224.305C109.985 224.305 110.487 224.061 111.677 221.488L113.323 219.401L113.61 216.862C113.61 216.862 118.582 215.323 118.94 212.132C118.94 212.132 118.166 210.296 117.664 209.623C117.159 208.947 121.623 206.646 121.623 206.646C121.623 206.646 128.577 203.838 123.113 204.015C117.652 204.19 122.936 201.078 122.936 201.078C122.936 201.078 128.17 198.744 124.34 196.529C120.509 194.311 123.636 190.26 123.636 190.26C123.636 190.26 127.222 186.475 122.939 184.722C118.652 182.969 121.228 177.003 121.228 177.003C121.228 177.003 114.88 171.744 112.65 164.258L112.316 163.221C112.316 163.221 105.136 168.605 103.404 174.161C103.404 174.161 100.378 174.694 98.0685 177.276C98.0685 177.276 92.3626 183.499 89.4286 184.676L91.4172 184.624C91.4172 184.624 85.2432 194.305 81.2354 202.305C81.2354 202.305 77.3009 208.549 74.7738 212.979C74.7738 212.979 73.9294 214.378 74.0334 216.862C74.1375 219.343 73.2074 216.146 73.2074 216.146C73.2074 216.146 72.6291 218.315 69.8206 224.914C69.8206 224.914 68.4316 228.243 68.3429 231.896C68.2541 235.549 67.1925 232.285 67.1925 232.285C67.1925 232.285 66.3481 231.076 66.7397 237.443C66.7397 237.443 68.1991 240.921 65.1213 247.316C65.1213 247.316 63.5579 249.595 64.1208 252.924C64.1208 252.924 60.425 253.04 60.9359 249.953C60.9359 249.953 61.6457 248.87 61.2296 247.08L60.9818 245.195C60.9818 245.195 57.5981 248.888 55.3555 250.363C55.3555 250.363 51.1151 253.688 50.0841 257.253C50.0841 257.253 48.588 262.01 46.7432 262.181C46.7432 262.181 45.5653 259.969 49.7873 251.357L50.5644 249.42C50.5644 249.42 49.4049 250.335 47.9455 252.354C47.9455 252.354 47.0155 250.653 49.1662 247.484C49.1662 247.484 48.6064 247.184 47.8415 248.025C47.8415 248.025 47.5937 245.226 48.5299 243.99L47.6029 244.134C47.6029 244.134 47.7711 240.166 48.7287 238.269L55.7012 230.452C55.7012 230.452 58.8219 225.994 60.1833 222.188C60.1833 222.188 61.8874 218.092 62.1261 215.577C62.1261 215.577 61.8079 215.286 65.1519 208.507C65.1519 208.507 70.5824 189.911 75.6427 183.003L88.0365 165.69L98.0348 151.478C98.0348 151.478 100.048 150.092 97.9094 149.395L101.51 143.974L99.5247 143.304C99.5247 143.304 101.743 143.897 105.27 137.026C105.27 137.026 106.828 132.565 114.384 130.332C121.941 128.101 116.921 126.926 124.193 123.775L129.764 120.96C129.764 120.96 132.108 121.276 132.851 117.176C132.851 117.176 137.187 115.986 137.067 111.234C137.067 111.234 137.801 115.915 133.601 118.752C133.601 118.752 136.495 119.945 142.834 124.984C142.834 124.984 147.041 128.116 151.382 128.34C151.382 128.34 138.453 133.4 133.047 136.744C133.047 136.744 142.999 133.37 151.603 129.594C151.603 129.594 153.876 128.667 156.837 128.438C156.837 128.438 159.26 128.168 161.286 123.059C161.286 123.059 162.736 120.141 164.425 118.482C164.425 118.482 165.003 120.345 162.354 123.766C162.354 123.766 166.065 123.533 166.946 115.854C166.946 115.854 167.05 112.097 171.492 113.199C171.492 113.199 176.023 113.908 177.091 119.841C177.091 119.841 178.085 119.311 176.666 114.918C176.666 114.918 181.643 112.458 186.982 120.936C186.982 120.936 189.16 126.74 190.372 128.104C190.372 128.104 190.996 129.405 190.981 130.98C190.981 130.98 191.164 132.134 194.444 132.574C194.444 132.574 195.913 132.605 193.04 134.7C193.04 134.7 194.205 135.098 195.766 133.535C195.766 133.535 200.979 137.136 197.139 141.774C197.139 141.774 194.545 144.485 191.492 144.283L193.116 146.213L191.375 148.021C191.375 148.021 187.643 144.931 185.449 145.017L185.201 133.917C185.201 133.917 183.127 148.089 183.072 160.657C183.072 160.657 183.146 188.794 183.43 192.986C183.43 192.986 184.822 201.084 183.846 209.599C182.873 218.113 189.387 217.048 186.147 226.995C186.147 226.995 188.628 233.722 195.044 233.478L190.485 234.781C190.485 234.781 201.049 243.684 206.039 259.777C206.039 259.777 207.037 265.562 211.268 266.443C211.268 266.443 207.643 266.419 206.804 265.112C206.804 265.112 207.48 266.807 207.049 268.597L206.657 269.864L209.307 274.407C209.307 274.407 209.754 276.952 208.313 283.451C208.313 283.451 206.755 315.578 200.401 325.546C200.401 325.546 196.243 339.87 192.177 345.922L192.26 346.861C192.26 346.861 190.455 345.01 190.06 348.635C190.06 348.635 187.753 346.05 184.583 350.685C184.583 350.685 174.919 361.353 175.993 353.405C175.993 353.405 180.267 341.813 180.664 333.601L181.383 327.755L181.744 327.953C181.744 327.953 180.257 308.116 186.147 298.537C186.147 298.537 188.019 294.734 187.086 286.724L185.749 287.428L185.208 285.684C185.208 285.684 176.831 287.339 169.185 286.737C169.185 286.737 167.729 286.486 167.879 285.846C167.879 285.846 167.414 284.846 164.189 288.187C164.189 288.187 166.921 284.13 165.933 280.774C164.945 277.414 164.097 277.252 163.452 276.041C163.452 276.041 162.935 271.13 162.916 267.762C162.901 264.393 162.283 265.36 162.283 265.36C162.283 265.36 162.632 273.422 160.662 274.679C158.694 275.94 163.281 269.558 150.933 258.042C150.933 258.042 149.06 256.301 148.305 256.473L147.488 254.698C147.488 254.698 142.06 258.975 127.148 260.431C127.148 260.431 126.72 262.49 119.359 261.827C119.359 261.827 117.419 263.17 116.627 265.945L115.85 264.999C115.85 264.999 114.62 266.208 113.702 267.9C113.702 267.9 112.494 266.82 109.453 265.764C109.453 265.764 105.368 265.271 99.3901 272.807C99.3901 272.807 96.1838 278.106 86.8678 282.472C86.8678 282.472 74.5046 291.974 54.4683 276.472C54.4683 276.472 50.3564 274.174 48.6523 272.856C48.6523 272.856 46.7523 271.816 45.7917 272.911L47.8721 273.443C47.8721 273.443 47.8568 276.695 41.7869 276.31C41.7869 276.31 39.7126 276.426 38.189 273.798C38.189 273.798 32.6819 274.049 35.4018 271.99L35.5303 264.109C35.5303 264.109 36.8734 261.75 39.63 260.422C39.272 260.434 38.8437 260.392 38.6387 260.597C38.192 261.04 37.0723 261.059 36.6623 261.466C35.7903 262.331 35.515 263.901 34.7257 264.687C34.6553 264.754 34.6492 266.348 34.7257 266.425C35.2029 266.902 35.0377 268.921 34.8052 269.662C34.6125 270.271 34.8633 270.931 34.6431 271.418C34.5513 271.623 34.6522 272.498 34.5237 272.626C34.4931 272.654 34.0526 272.654 34.022 272.626C33.7069 272.308 32.9022 272.443 32.4219 272.663C32.2812 272.727 31.244 272.847 31.4184 273.021C31.7305 273.333 32.5443 273.085 32.8043 273.342C33.3367 273.878 34.0618 274.343 34.591 274.872C35.0408 275.325 36.0412 274.704 36.5369 274.952C36.9591 275.163 37.2772 275.435 37.5373 275.692C37.8341 275.992 38.8529 275.707 39.1619 276.013C39.6514 276.503 39.0211 277.078 38.7397 277.356C38.5989 277.497 38.0758 277.436 37.8188 277.436C37.0692 277.436 35.9464 277.121 35.1938 276.812C34.6308 276.579 34.0862 276.689 33.4468 276.487C33.3397 276.454 32.8563 276.576 32.7676 276.487C32.015 275.732 30.2099 276.041 29.1299 275.68C28.6986 275.536 28.4752 275.398 28.0285 275.398C27.3034 275.398 25.2383 275.319 24.7519 275.802C24.5622 275.992 23.5556 275.781 23.3323 275.882C22.2125 276.386 20.0862 275.83 19.1867 276.723C18.7706 277.139 17.9048 277.105 17.3755 277.369C16.9472 277.58 16.2833 277.497 15.803 277.674C15.2584 277.876 14.5792 278.427 14.0071 278.467C12.973 278.534 11.7982 278.344 10.7396 278.344C7.86984 278.348 5.45287 278.442 2.91047 277.099C2.38731 276.821 1.64386 277.096 1.19718 276.646C0.869823 276.319 0.967726 275.808 0.756624 275.426C0.0407132 274.147 -0.311123 273.195 0.352777 271.733C0.551641 271.296 0.99832 270.944 1.15741 270.512C1.26143 270.234 1.15741 269.919 1.27061 269.64C1.62245 268.771 2.69937 268.202 3.38469 267.655C4.11896 267.067 4.51362 266.055 5.55078 265.969C6.49921 264.063 8.14519 263.622 9.61372 262.148C10.0543 261.707 10.862 261.86 11.2995 261.423C12.2234 260.493 13.9031 259.887 15.1024 259.48C16.6137 258.966 18.324 259.088 19.8812 258.568C20.5237 258.354 21.8454 258.516 22.393 258.767C22.6684 258.893 23.1212 258.632 23.3904 258.767C24.5867 259.367 27.0709 258.73 28.3222 258.73C29.1116 258.73 30.2895 258.972 31.0146 258.73C33.7069 257.828 36.9744 258.048 39.2598 257.005C39.8349 256.742 40.7467 257.115 41.3555 256.922C42.567 256.543 43.6501 256.194 45.1064 256.194C45.5592 256.194 46.5504 255.833 46.9114 255.833L46.8625 255.903C46.8717 255.949 46.8839 256.093 46.8564 256.142C46.7646 256.326 46.8594 256.543 46.7768 256.723C46.5535 257.21 46.8808 258.219 46.6147 258.752C46.3791 259.22 45.5347 258.844 45.2226 259.153C44.7515 259.624 43.0963 258.798 42.4875 259.073C41.9001 259.339 41.3861 259.645 40.8293 259.945ZM46.8625 255.903C46.8594 255.882 46.8564 255.879 46.8564 255.903V255.913L46.6973 256.145C46.7676 256.072 46.8502 255.983 46.8564 255.913L46.8625 255.903ZM235.64 134.122C235.844 133.923 236.12 133.672 236.463 133.501C236.799 133.333 237.9 133.669 238.02 133.789C238.206 133.975 239.543 133.789 239.779 133.789C240.115 133.789 240.862 133.951 241.061 134.15C241.214 134.303 242.636 134.232 242.835 134.294C243.42 134.477 244.188 134.101 244.766 134.294C245.353 134.489 246.167 134.795 246.77 134.795C247.789 134.795 249.22 134.731 249.82 135.334C250.291 135.802 250.294 136.83 250.759 137.295C250.894 137.429 250.686 138.081 250.686 138.188C250.686 138.849 250.478 140.152 250.19 140.783C249.679 141.899 249.961 142.802 249.113 143.652C248.982 143.784 249.012 144.188 248.899 144.301C248.706 144.491 249.04 145.268 248.826 145.482C248.361 145.953 247.373 145.791 246.959 146.204C246.65 146.516 245.356 147.275 244.793 146.709C244.72 146.635 244.065 146.709 243.977 146.709C243.411 146.709 242.309 146.84 241.966 146.495C241.578 146.106 241.052 145.886 241.752 145.188C242.018 144.922 243.42 145.038 243.83 144.901C244.852 144.564 245.635 143.815 246.228 143.227C246.338 143.117 246.188 142.75 246.299 142.64C246.513 142.429 246.442 141.85 246.442 141.477C246.442 140.636 245.73 139.672 245.225 139.167C244.937 138.88 244.432 138.892 244.206 138.665C243.723 138.182 242.884 138.445 242.884 139.17C242.884 139.528 243.316 139.589 243.401 139.779C243.64 140.302 243.876 140.767 244.191 141.085C244.539 141.431 245.041 141.425 245.268 141.872C245.549 142.438 244.778 142.79 244.546 143.022C243.811 143.75 242.428 144.772 241.15 144.133C240.48 143.796 239.488 143.701 238.987 143.2C238.714 142.927 238.488 142.41 238.194 142.117C238.105 142.031 237.763 142.12 237.689 142.046C237.546 141.902 238.607 141.609 238.307 141.309C238.084 141.089 237.276 140.978 237.053 140.877C236.542 140.642 236.297 140.244 235.869 140.051C235.181 139.736 232.699 139.44 232.088 140.048C232.026 140.113 231.794 140.764 231.91 140.881C232.094 141.064 232.739 141.009 232.944 140.914C233.235 140.783 235.303 140.229 235.771 140.697C236.355 141.281 235.811 142.952 235.181 143.236C234.251 143.658 233.109 144.429 232.228 144.827C231.705 145.066 230.472 145.066 230.105 145.43C229.591 145.941 229.105 145.913 228.398 146.54C227.676 147.183 227.208 147.578 226.369 147.957C225.614 148.3 224.497 147.957 223.628 148.388C223.102 148.651 222.395 148.811 222.098 149.104C221.875 149.325 221.75 149.689 221.447 149.823C220.627 150.193 219.669 149.872 219.14 150.398C218.923 150.613 218.4 150.564 218.247 150.717C217.687 151.273 216.567 151.39 215.839 151.751C215.322 152.008 214.682 151.895 214.673 152.607C214.673 152.617 214.67 152.623 214.67 152.629C214.643 152.8 214.199 152.58 214.098 152.681C213.768 153.014 212.975 152.815 212.522 153.048C211.577 153.531 210.206 153.544 209.276 153.99C208.343 154.437 206.973 154.097 206.101 154.562C204.62 155.352 202.833 155.18 201.313 155.945C200.646 156.279 199.33 155.878 198.871 156.34C198.798 156.413 198.268 156.34 198.152 156.34C197.546 156.34 196.708 156.077 196.188 156.34C195.405 156.735 194.661 156.404 194.08 156.988C193.955 157.114 193.288 157.187 193.104 157.096C192.042 156.563 191.207 155.915 190.448 155.159C190.121 154.832 189.928 154.226 189.625 153.923C188.677 152.974 187.328 152.516 186.814 151.485C186.633 151.124 187.609 151.411 187.753 151.27C188.328 150.698 188.867 150.759 189.598 150.395C191.284 149.557 192.887 148.56 194.083 147.367C194.618 146.834 195.047 146.005 195.38 145.274C195.46 145.103 195.986 144.879 196.145 144.742C196.619 144.328 197.332 143.842 197.562 143.38C197.727 143.062 197.094 142.367 197.243 142.217C197.984 141.48 199.03 140.789 199.633 140.232C200.086 139.819 199.966 139.014 200.346 138.571L199.618 138.659C200.542 137.732 202.23 137.72 203.439 138.191L201.563 138.421C201.934 138.464 202.301 138.525 202.524 138.525H208.016C208.438 138.525 208.909 138.421 209.389 138.292C208.022 138.262 206.74 138.081 205.418 138.081C204.941 138.081 204.231 138.568 203.754 138.329C203.653 138.28 203.549 138.234 203.439 138.191L233.507 134.511C234.085 134.275 234.853 134.168 235.64 134.122ZM185.361 146.476C184.892 146.941 185.009 148.483 185.009 149.193C185.009 149.404 184.932 149.949 185.052 150.065C185.143 150.157 185.116 150.594 185.116 150.741C185.116 150.815 184.997 150.958 185.073 150.958C185.156 150.958 185.361 150.735 185.394 150.698C185.572 150.521 185.96 150.224 186.174 150.126C186.578 149.943 187.469 149.722 187.787 149.401C187.983 149.205 188.386 149.318 188.564 149.138C188.631 149.074 188.848 149.159 188.916 149.095C189.185 148.823 189.781 148.915 190.017 148.679C190.143 148.554 189.338 148.116 189.304 148.043C188.946 147.253 187.597 147.419 187.028 146.849C186.762 146.583 186.229 146.687 185.997 146.455C185.816 146.274 185.241 146.357 185.241 146.574L185.361 146.476ZM252.026 136.169C252.02 136.144 252.008 136.123 251.995 136.108C251.925 136.037 252.035 135.762 252.142 135.872C252.154 135.881 252.164 135.891 252.176 135.903C252.112 135.985 252.063 136.074 252.026 136.169C252.053 136.276 252.011 136.463 251.98 136.551C251.879 136.854 252.017 137.068 251.916 137.38L251.919 137.472C251.94 137.506 251.983 137.53 252.014 137.561L252.179 135.906L252.176 135.903L252.179 135.897V135.906C252.525 136.236 252.984 136.438 253.189 136.888C253.216 136.949 253.409 136.961 253.467 137.019C253.553 137.105 253.745 137.261 253.837 137.353C253.984 137.5 253.895 137.852 254.06 138.017C254.437 138.396 254.4 138.877 254.697 139.473C254.798 139.672 254.73 139.932 254.816 140.125C254.932 140.379 255.315 140.767 255.44 141.04C255.609 141.413 255.734 141.905 255.881 142.227C255.951 142.383 256.263 142.664 256.306 142.912C256.398 143.432 256.661 144.099 256.912 144.601C257.068 144.91 256.643 145.277 256.435 145.363C255.768 145.644 255.036 145.929 254.317 146.485C253.825 146.865 253.204 147.076 252.834 147.449C252.647 147.636 252.506 147.942 252.399 148.159C252.387 148.186 252.209 148.294 252.164 148.248C251.956 148.04 251.512 148.177 251.246 148.055C250.649 147.786 249.857 147.703 249.416 147.263C249.355 147.198 249.627 147.024 249.655 146.966C249.756 146.764 250.248 146.443 250.423 146.363C250.527 146.314 250.622 146.152 250.686 146.121C250.836 146.054 251.096 146.097 251.218 145.978C251.328 145.87 251.536 145.846 251.64 145.736C252.105 145.231 252.641 144.537 253.219 144.035C253.406 143.873 253.73 143.707 253.855 143.582C253.901 143.536 253.623 143.056 253.592 143.025C253.546 142.982 253.635 142.805 253.592 142.759C253.501 142.667 253.546 142.361 253.504 142.233C253.387 141.881 253.161 141.771 252.968 141.425C252.913 141.324 252.876 141.156 252.791 141.076C252.589 140.89 252.188 140.822 251.891 140.685C251.751 140.62 251.491 140.651 251.393 140.553C251.331 140.489 251.432 139.77 251.512 139.69C251.741 139.461 251.64 139.094 251.781 138.791C251.956 138.408 251.94 137.94 251.919 137.472C251.904 137.451 251.9 137.426 251.91 137.393C251.913 137.39 251.913 137.384 251.916 137.38C251.897 136.949 251.885 136.521 252.026 136.169ZM255.238 137.901L255.251 137.904L257.652 145.366V145.626C257.652 145.665 257.652 145.785 257.652 145.745C257.652 145.623 257.857 145.494 257.937 145.415C258.016 145.335 258.032 145.176 258.114 145.099C258.368 144.864 258.836 144.417 259.167 144.035C259.262 143.928 259.534 143.87 259.561 143.815C259.598 143.729 259.564 143.671 259.626 143.6C259.794 143.414 259.968 143.181 260.198 143.028C260.228 143.007 260.663 142.805 260.583 142.722C260.491 142.631 260.296 142.649 260.21 142.56C260.039 142.389 259.892 142.279 259.72 142.11C259.323 141.713 259.035 140.923 258.696 140.611C258.625 140.547 258.625 140.391 258.57 140.342C257.946 139.767 256.897 139.002 256.101 138.607C255.847 138.479 255.768 138.2 255.596 138.029C255.489 137.922 255.177 137.898 255.03 137.855C254.997 137.842 254.779 137.628 254.706 137.705C254.685 137.726 254.816 137.839 254.822 137.852C254.896 138.014 254.908 138.139 255.027 138.32L255.257 137.846C255.257 137.861 255.257 137.879 255.251 137.904L255.232 137.898L255.257 137.846C255.257 137.861 255.257 137.879 255.251 137.904L255.205 137.894C255.156 137.882 255.104 137.873 255.052 137.861C255.046 137.858 255.036 137.855 255.03 137.852H255.024C255.015 137.846 255.006 137.839 255 137.833L254.932 137.781C254.902 137.76 254.871 137.738 254.838 137.72L254.813 137.708L254.776 137.693L254.755 137.689H254.752H254.734H254.73H254.752L254.776 137.693C254.792 137.696 254.804 137.702 254.819 137.708L254.834 137.717C254.874 137.738 254.908 137.763 254.945 137.79L255.003 137.836L255.024 137.852L255.03 137.855C255.039 137.855 255.039 137.855 255.046 137.858L255.052 137.861L255.238 137.901ZM251.252 142.178C251.255 142.175 251.258 142.175 251.258 142.178H251.252C251.234 142.193 251.175 142.269 251.139 142.318C251.188 142.34 251.24 142.364 251.264 142.389C251.463 142.591 251.696 142.887 251.888 142.982C251.919 142.998 252.206 143.258 252.185 143.279C251.836 143.631 251.093 144.013 250.756 144.485C250.671 144.607 250.349 144.607 250.291 144.8C250.285 144.864 250.282 144.91 250.282 144.867C250.282 144.842 250.285 144.821 250.291 144.8C250.297 144.738 250.31 144.662 250.325 144.625C250.392 144.478 250.334 144.28 250.398 144.139C250.616 143.671 250.661 143.233 250.869 142.774C250.949 142.6 250.992 142.468 251.108 142.352C251.111 142.349 251.123 142.337 251.139 142.318C251.065 142.285 250.995 142.248 250.995 142.211L251.252 142.178ZM254.838 137.882C254.847 137.91 254.859 137.94 254.868 137.968L254.877 137.989L254.951 138.185L254.957 138.194C254.975 138.234 255 138.274 255.024 138.311L255.027 138.32C255.003 138.283 254.978 138.243 254.96 138.2L254.948 138.179C254.923 138.121 254.902 138.06 254.88 137.995L254.877 137.989L254.828 137.867L254.838 137.882ZM213.495 138.203C213.26 138.219 213.021 138.228 212.785 138.237C212.789 138.243 212.789 138.246 212.792 138.249C212.862 138.32 213.281 138.249 213.495 138.203ZM254.737 137.763L254.779 137.809L254.792 137.818C254.801 137.827 254.81 137.839 254.819 137.849L254.828 137.864V137.867L254.822 137.852L254.819 137.849L254.776 137.806C254.761 137.79 254.746 137.775 254.734 137.757L254.727 137.751L254.737 137.763ZM254.73 137.689L254.727 137.693C254.721 137.693 254.715 137.696 254.712 137.699L254.706 137.702L254.703 137.705L254.706 137.72L254.727 137.751C254.721 137.745 254.715 137.735 254.709 137.726L254.706 137.723C254.706 137.72 254.703 137.714 254.703 137.711V137.708C254.703 137.705 254.703 137.705 254.706 137.705C254.706 137.705 254.706 137.702 254.709 137.702L254.712 137.699C254.718 137.696 254.721 137.693 254.727 137.693L254.73 137.689ZM220.872 137.133C220.703 137.179 220.535 137.221 220.367 137.264C220.195 137.307 220.024 137.35 219.853 137.39C220.22 137.356 220.563 137.286 220.872 137.133ZM223.151 136.564C222.744 136.6 222.362 136.665 222.028 136.778L222.01 136.784C222.193 136.839 222.371 136.891 222.484 136.833C222.735 136.71 222.949 136.631 223.151 136.564ZM233.923 134.462L233.507 134.511C233.473 134.526 233.437 134.541 233.403 134.557C233.024 134.731 232.605 134.749 232.228 134.945C232.865 134.829 233.461 134.67 233.911 134.468C233.917 134.465 233.92 134.462 233.923 134.462ZM235.447 134.275L234.569 134.382C234.884 134.379 235.22 134.385 235.447 134.275ZM141.953 90.779C141.953 90.779 145.524 66.4075 165.447 75.1942C165.447 75.1942 174.246 78.2169 174.812 87.6828C174.812 87.6828 175.405 92.8625 173.918 95.4661C173.918 95.4661 173.6 103.482 168.944 109.163C168.944 109.163 169.363 111.614 165.428 114.936C165.428 114.936 159.759 122.53 157.584 125.978C157.584 125.978 154.644 130.188 148.467 125.384C148.467 125.384 141.476 118.843 139.913 111.742C139.913 111.742 139.172 116.79 145.713 124.467C145.713 124.467 141.32 123.218 135.562 118.375C135.562 118.375 139.607 116.234 139.527 107.854L139.337 102.356C139.337 102.356 135.045 86.8568 141.953 90.779Z" fill="white"/>
</mask>
<g mask="url(#mask0)">
<path fill-rule="evenodd" clip-rule="evenodd" d="M175.136 104.965L105.843 174.929L200.346 233.676L175.136 104.965Z" fill="#DA72F8"/>
<path fill-rule="evenodd" clip-rule="evenodd" d="M157.854 207.212L88.5609 291.674L183.064 362.595L157.854 207.212Z" fill="#6644BB"/>
<path fill-rule="evenodd" clip-rule="evenodd" d="M157.689 207.212L170.734 329.59L227.206 299.369L157.689 207.212Z" fill="#4119A7"/>
<path fill-rule="evenodd" clip-rule="evenodd" d="M172.67 329.873L140.408 376.19L234.569 399.234L197.947 288.757L172.67 329.873Z" fill="#6643BB"/>
<path fill-rule="evenodd" clip-rule="evenodd" d="M182.026 342.114L149.764 388.431L243.924 411.475L207.303 300.998L182.026 342.114Z" fill="#7D52EA"/>
<path fill-rule="evenodd" clip-rule="evenodd" d="M107.283 216.724L127.347 244.543L157.703 207.273L123.679 184.89L107.283 216.724Z" fill="#7152C0"/>
<path fill-rule="evenodd" clip-rule="evenodd" d="M90.1783 221.146L119.518 203.377L84.7968 170.13L59.7613 202.254L90.1783 221.146Z" fill="#7152C0"/>
<path fill-rule="evenodd" clip-rule="evenodd" d="M64.9114 235.976L88.2488 228.373L68.1422 197.311L46.7964 217.855L64.9114 235.976Z" fill="#AC95E8"/>
<path fill-rule="evenodd" clip-rule="evenodd" d="M61.3168 257.679L84.6512 250.076L65.8754 221.253L43.1987 239.557L61.3168 257.679Z" fill="#7152C0"/>
<path fill-rule="evenodd" clip-rule="evenodd" d="M80.0402 285.441L77.042 239.161L110.754 220.713L127.293 244.552L107.077 268.902L85.8012 288.81L80.0402 285.441Z" fill="#8C6BE1"/>
<path fill-rule="evenodd" clip-rule="evenodd" d="M11.7117 313.538L-5.76392 264.342L52.7297 240.154L61.0912 278.55L38.748 296.598L17.4757 316.906L11.7117 313.538Z" fill="#481FB6"/>
<path fill-rule="evenodd" clip-rule="evenodd" d="M66.3636 301.276L50.3994 260.539L77.9221 248.794L80.9846 284.853L72.1275 304.647L66.3636 301.276Z" fill="#6B46CC"/>
<path fill-rule="evenodd" clip-rule="evenodd" d="M211.352 176.43L157.689 207.483L217.336 289.042L211.352 176.43Z" fill="#8D6BE1"/>
<path fill-rule="evenodd" clip-rule="evenodd" d="M235.299 83.5441L181.446 138.476L255.124 184.766L263.479 143.411L235.299 83.5441Z" fill="#846BC4"/>
<path fill-rule="evenodd" clip-rule="evenodd" d="M181.446 138.447L183.105 157.642L211.359 157.024L181.446 138.447Z" fill="#494FA9"/>
<path fill-rule="evenodd" clip-rule="evenodd" d="M108.723 64.232L169.175 112.629L207.296 33.8608L108.723 64.232Z" fill="#494FA9"/>
<path fill-rule="evenodd" clip-rule="evenodd" d="M82.8019 172.809L100.027 184.842L172.043 108.025L82.8019 172.809Z" fill="#494FA9"/>
<path fill-rule="evenodd" clip-rule="evenodd" d="M175.688 114.76L180.996 138.452L224.226 108.926L175.688 114.76Z" fill="#B17AF8"/>
<path fill-rule="evenodd" clip-rule="evenodd" d="M120.305 75.2636L82.8019 172.799L168.436 111.212C152.667 98.8275 136.694 86.7427 120.305 75.2636Z" fill="#C26FF0"/>
<path fill-rule="evenodd" clip-rule="evenodd" d="M146.733 169.361L149.055 203.972L218.159 60.5026L146.167 134.872L146.733 169.361Z" fill="#AB64E6"/>
</g>
<mask id="mask1" style="mask-type:alpha" maskUnits="userSpaceOnUse" x="116" y="321" width="48" height="47">
<path fill-rule="evenodd" clip-rule="evenodd" d="M139.921 321.339C152.765 321.339 163.195 331.769 163.195 344.612C163.195 357.456 152.765 367.885 139.921 367.885C127.078 367.885 116.648 357.456 116.648 344.612C116.648 331.769 127.078 321.339 139.921 321.339Z" fill="#494FA9"/>
</mask>
<g mask="url(#mask1)">
<path fill-rule="evenodd" clip-rule="evenodd" d="M139.498 320C153.572 320 165 331.201 165 344.998C165 358.796 153.572 370 139.498 370C125.425 370 114 358.796 114 344.998C114 331.201 125.425 320 139.498 320Z" fill="#C3001D"/>
<path d="M133.667 336L114 355.747L117.667 376L138 355.747L133.667 336Z" fill="#FD0000"/>
<path d="M164.375 318L157 337.747L158.375 358L166 337.747L164.375 318Z" fill="#7E1919"/>
<path d="M123.375 314L116 333.747L117.375 354L125 333.747L123.375 314Z" fill="#7E1919"/>
<path d="M153.375 335L146 354.747L147.375 375L155 354.747L153.375 335Z" fill="#EB2C2C"/>
<path d="M149.667 303L130 322.747L133.667 343L154 322.747L149.667 303Z" fill="#A80909"/>
<path d="M154.667 322L135 341.747L138.667 362L159 341.747L154.667 322Z" fill="#D63E3E"/>
<path d="M145.667 348L126 367.747L129.667 388L150 367.747L145.667 348Z" fill="#A00000"/>
</g>
<g style="mix-blend-mode:multiply">
<path fill-rule="evenodd" clip-rule="evenodd" d="M202.675 355.316C202.626 355.374 202.574 355.438 202.541 355.472C202.367 355.643 202 355.74 201.82 355.921C201.768 355.972 201.496 355.954 201.429 356.012C201.16 356.253 200.913 356.174 200.608 356.311C200.177 356.507 199.462 357.017 198.909 357.017C199.316 357.017 199.685 356.913 199.988 356.76C200.308 356.599 200.861 356.876 201.206 356.76C201.826 356.553 202.877 356.476 203.512 356.736C204.028 356.95 204.709 356.69 205.198 356.913C205.632 357.109 206.343 356.913 206.771 357.109C206.914 357.173 207.14 357.057 207.29 357.109C207.934 357.322 208.722 357.081 209.29 357.341C209.663 357.515 210.213 357.31 210.597 357.438C210.695 357.469 211.056 357.408 211.126 357.478C211.269 357.619 211.801 357.57 211.944 357.713C212.06 357.826 212.399 357.808 212.5 357.909C212.647 358.055 212.949 357.988 213.184 358.104C213.743 358.385 214.458 358.507 214.778 358.825C215.014 359.066 215.261 359.509 215.484 359.61C215.612 359.671 216.006 359.891 216.058 360.004C216.287 360.514 216.574 361.122 216.822 361.668C216.935 361.919 216.822 362.481 216.822 362.759C216.822 363.892 216.4 364.524 215.459 364.988C215.261 365.086 214.98 365.339 214.751 365.339C214.189 365.339 214.204 365.687 213.884 366.008C213.777 366.112 213.508 366.057 213.401 366.164C213.096 366.469 212.595 366.668 212.283 366.811C211.789 367.034 211.117 366.979 210.549 367.26C210.433 367.318 209.926 367.279 209.926 367.395C209.296 367.395 208.154 367.59 207.803 367.938C207.601 368.14 206.074 367.938 205.793 367.938C204.709 367.938 202.919 367.789 201.89 368.131C201.307 368.323 200.577 368.048 199.988 368.244C198.796 368.641 197.364 368.012 196.133 368.012C194.438 368.012 192.924 367.969 191.305 367.969C190.908 367.969 189.631 367.819 189.405 368.045C189.274 368.18 188.755 367.917 188.626 368.045C188.446 368.225 187.89 368.238 187.689 368.433C187.609 368.512 187.286 368.354 187.206 368.433C186.956 368.684 186.064 368.555 185.618 368.702C184.595 369.041 183.297 368.54 182.424 368.934C182.106 369.077 181.752 368.873 181.535 369.09C181.26 369.362 180.469 369.081 180.225 369.322C179.77 369.777 178.084 369.123 178.084 369.746C176.893 369.746 176.001 369.67 174.654 369.67C173.408 369.67 172.715 370.143 171.847 369.276C171.383 368.812 171.377 368.027 170.989 367.639C170.647 367.294 171.127 365.73 170.91 365.254C170.091 363.452 170.125 360.288 171.331 359.075C171.573 358.834 171.172 357.881 171.331 357.564C171.618 356.986 171.808 356.678 172.186 356.299C172.473 356.009 172.29 355.539 172.455 355.178C172.617 354.815 172.987 354.158 173.283 353.862C173.408 353.737 173.28 353.19 173.515 353.083C173.93 352.894 174.315 353.325 174.462 353.471C175.265 354.277 174.926 354.775 174.926 355.875C174.926 356.751 174.578 357.005 175.155 357.582C175.192 357.619 175.567 358.025 175.775 357.814C176.306 357.28 176.874 357.231 177.25 356.855C177.678 356.424 178.505 356.428 178.893 356.04C179.128 355.801 179.553 355.34 179.901 355.181C180.872 354.739 182.094 353.966 182.76 353.297C184.204 351.846 185.771 351.095 187.041 349.819C187.145 349.715 187.493 349.849 187.6 349.742C188.403 348.933 188.794 350.286 189.027 350.518C189.078 350.567 189.335 351.272 189.607 350.997C189.824 350.777 190.196 350.796 190.383 350.606C190.578 350.411 190.416 349.858 190.615 349.657C190.917 349.354 191.235 348.472 191.235 348.004L191.167 347.824C191.769 348.426 192.184 349.278 192.756 349.849C192.869 349.965 193.03 349.308 193.043 349.296C193.143 349.192 193.791 348.869 193.962 349.04C194.258 349.339 194.649 349.513 194.918 349.785C195.516 350.387 195.721 351.245 196.423 351.596C197.089 351.932 197.141 352.873 197.844 353.221C198.009 353.306 198.17 353.593 198.317 353.661C199.187 354.055 200.088 354.656 200.892 355.023C201.307 355.209 201.783 355.316 202.266 355.316C202.336 355.316 202.535 355.334 202.675 355.316C202.748 355.23 202.816 355.163 202.816 355.236C202.816 355.282 202.755 355.307 202.675 355.316ZM40.7575 259.937C42.0463 259.534 43.5703 259.378 45.3417 259.711L45.4944 262.866L47.8521 262.958C47.8521 262.958 49.5349 259.693 52.76 260.63C52.76 260.63 62.7102 251.761 71.9732 261.086L73.091 261.565L73.6376 260.615L74.2393 261.128L79.8893 254.528L80.5612 253.414C80.5612 253.414 80.9491 253.172 77.0979 252.308C77.0979 252.308 82.4761 251.581 85.5729 247.281C85.5729 247.281 90.9023 240.715 96.0728 236.143C96.0728 236.143 101.308 232.258 101.509 229.265L103.299 231.528C103.299 231.528 103.903 228.395 102.141 226.297C102.141 226.297 103.558 225.047 109.792 224.36C109.792 224.36 110.293 224.116 111.481 221.548L113.124 219.465L113.411 216.93C113.411 216.93 118.374 215.394 118.731 212.208C118.731 212.208 117.958 210.376 117.457 209.704C116.954 209.029 121.409 206.732 121.409 206.732C121.409 206.732 128.351 203.929 122.897 204.106C117.445 204.28 122.72 201.174 122.72 201.174C122.72 201.174 127.945 198.844 124.121 196.632C120.298 194.418 123.419 190.375 123.419 190.375C123.419 190.375 126.998 186.597 122.723 184.847C118.444 183.097 121.015 177.141 121.015 177.141C121.015 177.141 114.678 171.891 112.452 164.418L112.119 163.383C112.119 163.383 104.951 168.758 103.222 174.304C103.222 174.304 100.202 174.835 97.8961 177.413C97.8961 177.413 92.2003 183.625 89.2714 184.801L91.2566 184.749C91.2566 184.749 85.0935 194.412 81.0926 202.398C81.0926 202.398 77.1651 208.632 74.6424 213.054C74.6424 213.054 73.7995 214.45 73.9033 216.93C74.0072 219.407 73.0787 216.215 73.0787 216.215C73.0787 216.215 72.5015 218.38 69.6979 224.968C69.6979 224.968 68.3113 228.291 68.2228 231.937C68.1342 235.584 67.0744 232.325 67.0744 232.325C67.0744 232.325 66.2315 231.119 66.6224 237.474C66.6224 237.474 68.0792 240.947 65.0068 247.33C65.0068 247.33 63.4462 249.605 64.0081 252.928C64.0081 252.928 60.3188 253.044 60.8289 249.963C60.8289 249.963 61.5374 248.881 61.1221 247.095L60.8747 245.214C60.8747 245.214 57.4969 248.9 55.2582 250.372C55.2582 250.372 51.0253 253.692 49.9961 257.25C49.9961 257.25 48.5026 261.999 46.661 262.17C46.661 262.17 45.4852 259.962 49.6998 251.364L50.4756 249.431C50.4756 249.431 49.3181 250.344 47.8613 252.36C47.8613 252.36 46.9328 250.662 49.0798 247.498C49.0798 247.498 48.521 247.199 47.7574 248.039C47.7574 248.039 47.5101 245.244 48.4446 244.01L47.5192 244.154C47.5192 244.154 47.6872 240.193 48.6431 238.299L55.6033 230.496C55.6033 230.496 58.7185 226.046 60.0776 222.247C60.0776 222.247 61.7787 218.157 62.0169 215.647C62.0169 215.647 61.6993 215.357 65.0374 208.589C65.0374 208.589 70.4583 190.026 75.5098 183.13L87.8818 165.847L97.8625 151.661C97.8625 151.661 99.8721 150.278 97.7373 149.581L101.332 144.17L99.3499 143.501C99.3499 143.501 101.564 144.093 105.085 137.234C105.085 137.234 106.64 132.781 114.183 130.551C121.727 128.325 116.715 127.152 123.975 124.007L129.536 121.197C129.536 121.197 131.876 121.511 132.618 117.419C132.618 117.419 136.945 116.231 136.826 111.488C136.826 111.488 137.559 116.161 133.366 118.992C133.366 118.992 136.255 120.183 142.583 125.213C142.583 125.213 146.783 128.34 151.116 128.563C151.116 128.563 138.21 133.615 132.813 136.953C132.813 136.953 142.748 133.584 151.336 129.815C151.336 129.815 153.605 128.89 156.562 128.661C156.562 128.661 158.981 128.392 161.002 123.292C161.002 123.292 162.45 120.378 164.136 118.723C164.136 118.723 164.713 120.583 162.068 123.997C162.068 123.997 165.773 123.765 166.652 116.1C166.652 116.1 166.756 112.349 171.191 113.449C171.191 113.449 175.714 114.157 176.78 120.079C176.78 120.079 177.772 119.551 176.355 115.165C176.355 115.165 181.324 112.71 186.654 121.172C186.654 121.172 188.828 126.966 190.037 128.328C190.037 128.328 190.66 129.626 190.645 131.199C190.645 131.199 190.828 132.35 194.102 132.79C194.102 132.79 195.568 132.821 192.701 134.913C192.701 134.913 193.864 135.31 195.422 133.749C195.422 133.749 200.626 137.344 196.793 141.974C196.793 141.974 194.203 144.68 191.155 144.478L192.777 146.405L191.039 148.21C191.039 148.21 187.313 145.125 185.123 145.211L184.876 134.131C184.876 134.131 182.805 148.277 182.75 160.823C182.75 160.823 182.824 188.912 183.108 193.096C183.108 193.096 184.497 201.18 183.523 209.679C182.552 218.179 189.054 217.116 185.82 227.045C185.82 227.045 188.297 233.761 194.701 233.516L190.15 234.817C190.15 234.817 200.696 243.705 205.677 259.769C205.677 259.769 206.673 265.544 210.897 266.424C210.897 266.424 207.278 266.4 206.441 265.096C206.441 265.096 207.116 266.787 206.685 268.574L206.294 269.838L208.939 274.374C208.939 274.374 209.385 276.915 207.946 283.402C207.946 283.402 206.392 315.472 200.049 325.423C200.049 325.423 195.898 339.722 191.839 345.763L191.922 346.7C191.922 346.7 190.12 344.853 189.726 348.472C189.726 348.472 187.423 345.891 184.259 350.518C184.259 350.518 174.611 361.167 175.683 353.233C175.683 353.233 179.95 341.661 180.347 333.464L181.065 327.628L181.425 327.826C181.425 327.826 179.941 308.024 185.82 298.461C185.82 298.461 187.689 294.665 186.757 286.669L185.423 287.372L184.882 285.631C184.882 285.631 176.52 287.283 168.888 286.682C168.888 286.682 167.434 286.431 167.584 285.793C167.584 285.793 167.12 284.794 163.901 288.129C163.901 288.129 166.628 284.08 165.642 280.729C164.655 277.376 163.809 277.214 163.165 276.005C163.165 276.005 162.649 271.103 162.63 267.74C162.615 264.378 161.998 265.343 161.998 265.343C161.998 265.343 162.346 273.39 160.379 274.646C158.416 275.904 162.994 269.533 150.667 258.038C150.667 258.038 148.798 256.3 148.044 256.471L147.229 254.699C147.229 254.699 141.811 258.969 126.925 260.423C126.925 260.423 126.497 262.478 119.149 261.815C119.149 261.815 117.213 263.156 116.422 265.926L115.646 264.983C115.646 264.983 114.419 266.189 113.502 267.878C113.502 267.878 112.296 266.8 109.26 265.746C109.26 265.746 105.183 265.254 99.2155 272.777C99.2155 272.777 96.0148 278.066 86.7152 282.424C86.7152 282.424 74.3737 291.91 54.3726 276.435C54.3726 276.435 50.2679 274.142 48.5668 272.825C48.5668 272.825 46.6702 271.787 45.7112 272.88L47.788 273.412C47.788 273.412 47.7727 276.658 41.7134 276.273C41.7134 276.273 39.6428 276.389 38.1218 273.766C38.1218 273.766 32.6245 274.016 35.3396 271.961L35.4679 264.094C35.4679 264.094 36.8086 261.739 39.5603 260.414C39.203 260.426 38.7754 260.383 38.5708 260.588C38.1249 261.031 37.0071 261.049 36.5979 261.455C35.7275 262.319 35.4526 263.886 34.6646 264.671C34.5944 264.738 34.5883 266.329 34.6646 266.406C35.1411 266.882 34.9762 268.898 34.744 269.637C34.5516 270.245 34.8021 270.904 34.5822 271.39C34.4906 271.595 34.5913 272.468 34.4631 272.596C34.4325 272.624 33.9927 272.624 33.9622 272.596C33.6476 272.279 32.8444 272.413 32.3649 272.633C32.2244 272.697 31.1891 272.816 31.3632 272.99C31.6747 273.302 32.4871 273.054 32.7467 273.311C33.2781 273.845 34.0019 274.31 34.5303 274.838C34.9792 275.29 35.9779 274.67 36.4726 274.917C36.8941 275.128 37.2117 275.4 37.4713 275.656C37.7676 275.956 38.7846 275.672 39.093 275.977C39.5817 276.466 38.9526 277.04 38.6716 277.318C38.5311 277.458 38.0088 277.397 37.7523 277.397C37.0041 277.397 35.8832 277.083 35.1319 276.774C34.57 276.542 34.0263 276.652 33.388 276.451C33.2811 276.417 32.7986 276.539 32.71 276.451C31.9587 275.696 30.1568 276.005 29.0787 275.644C28.6481 275.501 28.4252 275.363 27.9793 275.363C27.2555 275.363 25.194 275.284 24.7084 275.766C24.519 275.956 23.5142 275.745 23.2913 275.846C22.1735 276.35 20.0509 275.794 19.153 276.686C18.7377 277.101 17.8734 277.067 17.345 277.33C16.9174 277.541 16.2547 277.458 15.7752 277.636C15.2316 277.837 14.5536 278.387 13.9825 278.427C12.9502 278.494 11.7774 278.304 10.7207 278.304C7.85601 278.307 5.44329 278.402 2.90536 277.061C2.38311 276.783 1.64097 277.058 1.19508 276.609C0.868295 276.283 0.966025 275.773 0.755294 275.391C0.0406416 274.114 -0.310576 273.164 0.352157 271.704C0.550671 271.268 0.996566 270.917 1.15538 270.486C1.25922 270.208 1.15538 269.893 1.26838 269.616C1.6196 268.748 2.69463 268.18 3.37874 267.633C4.11172 267.047 4.50569 266.036 5.54102 265.951C6.48778 264.048 8.13087 263.608 9.59683 262.136C10.0366 261.696 10.8429 261.849 11.2796 261.412C12.202 260.484 13.8786 259.879 15.0758 259.473C16.5845 258.96 18.2918 259.082 19.8463 258.563C20.4876 258.349 21.807 258.511 22.3537 258.761C22.6285 258.887 23.0805 258.627 23.3493 258.761C24.5434 259.36 27.0234 258.725 28.2725 258.725C29.0604 258.725 30.2362 258.966 30.9601 258.725C33.6476 257.824 36.9094 258.044 39.1908 257.002C39.7649 256.74 40.675 257.112 41.2828 256.92C42.4922 256.541 43.5734 256.193 45.0271 256.193C45.4791 256.193 46.4686 255.833 46.829 255.833L46.7801 255.903C46.7893 255.949 46.8015 256.092 46.774 256.141C46.6824 256.324 46.7771 256.541 46.6946 256.721C46.4717 257.207 46.7985 258.215 46.5328 258.746C46.2976 259.213 45.4547 258.838 45.1432 259.146C44.6728 259.617 43.0206 258.792 42.4128 259.067C41.8264 259.332 41.3134 259.638 40.7575 259.937ZM46.7801 255.903C46.7771 255.881 46.774 255.878 46.774 255.903V255.912L46.6152 256.144C46.6855 256.071 46.7679 255.982 46.774 255.912L46.7801 255.903ZM235.225 134.335C235.43 134.137 235.705 133.886 236.047 133.715C236.383 133.547 237.482 133.883 237.602 134.003C237.788 134.189 239.122 134.003 239.358 134.003C239.694 134.003 240.439 134.164 240.637 134.363C240.79 134.516 242.21 134.445 242.409 134.506C242.992 134.69 243.759 134.314 244.336 134.506C244.922 134.702 245.734 135.007 246.336 135.007C247.353 135.007 248.782 134.943 249.381 135.545C249.851 136.012 249.854 137.038 250.319 137.502C250.453 137.637 250.245 138.287 250.245 138.394C250.245 139.054 250.038 140.355 249.751 140.984C249.241 142.099 249.522 143 248.676 143.849C248.544 143.98 248.575 144.383 248.462 144.496C248.269 144.686 248.602 145.461 248.388 145.675C247.924 146.146 246.938 145.984 246.525 146.396C246.217 146.707 244.925 147.465 244.363 146.9C244.29 146.827 243.636 146.9 243.548 146.9C242.983 146.9 241.883 147.031 241.541 146.686C241.153 146.298 240.628 146.078 241.327 145.382C241.593 145.116 242.992 145.232 243.401 145.095C244.421 144.759 245.203 144.011 245.796 143.424C245.906 143.314 245.756 142.948 245.866 142.838C246.08 142.627 246.009 142.05 246.009 141.677C246.009 140.838 245.298 139.876 244.794 139.372C244.507 139.085 244.003 139.097 243.777 138.871C243.294 138.388 242.457 138.651 242.457 139.375C242.457 139.732 242.888 139.793 242.974 139.982C243.212 140.505 243.447 140.969 243.762 141.286C244.11 141.632 244.611 141.626 244.837 142.071C245.118 142.636 244.348 142.988 244.116 143.22C243.383 143.947 242.002 144.967 240.726 144.328C240.057 143.992 239.067 143.898 238.567 143.397C238.295 143.125 238.069 142.609 237.776 142.316C237.687 142.23 237.345 142.319 237.272 142.245C237.128 142.102 238.188 141.809 237.889 141.509C237.666 141.29 236.859 141.18 236.636 141.079C236.126 140.844 235.882 140.447 235.454 140.254C234.767 139.94 232.29 139.643 231.68 140.251C231.619 140.315 231.386 140.966 231.503 141.082C231.686 141.265 232.33 141.21 232.535 141.115C232.825 140.984 234.889 140.431 235.357 140.899C235.94 141.482 235.396 143.149 234.767 143.434C233.839 143.855 232.7 144.625 231.82 145.022C231.298 145.26 230.067 145.26 229.701 145.623C229.188 146.133 228.702 146.106 227.996 146.732C227.276 147.373 226.808 147.767 225.972 148.146C225.217 148.488 224.103 148.146 223.235 148.577C222.71 148.839 222.004 148.998 221.708 149.291C221.485 149.511 221.36 149.875 221.058 150.009C220.239 150.378 219.283 150.058 218.755 150.583C218.538 150.797 218.016 150.748 217.863 150.901C217.304 151.457 216.186 151.573 215.459 151.933C214.943 152.19 214.305 152.077 214.296 152.788C214.296 152.797 214.293 152.803 214.293 152.81C214.265 152.981 213.823 152.761 213.722 152.861C213.392 153.194 212.601 152.996 212.149 153.228C211.205 153.71 209.837 153.723 208.909 154.169C207.977 154.614 206.609 154.275 205.738 154.74C204.26 155.528 202.477 155.357 200.959 156.12C200.293 156.453 198.98 156.053 198.522 156.514C198.448 156.587 197.92 156.514 197.804 156.514C197.199 156.514 196.362 156.251 195.843 156.514C195.061 156.908 194.319 156.578 193.739 157.162C193.614 157.287 192.948 157.36 192.765 157.268C191.705 156.737 190.871 156.09 190.114 155.335C189.787 155.008 189.595 154.404 189.292 154.101C188.345 153.155 186.999 152.697 186.486 151.667C186.305 151.307 187.28 151.594 187.423 151.453C187.997 150.882 188.535 150.943 189.265 150.58C190.948 149.743 192.548 148.748 193.742 147.557C194.276 147.025 194.704 146.197 195.037 145.468C195.116 145.296 195.642 145.074 195.8 144.936C196.274 144.524 196.985 144.038 197.214 143.577C197.379 143.259 196.747 142.566 196.897 142.417C197.636 141.68 198.68 140.99 199.282 140.434C199.734 140.022 199.615 139.219 199.994 138.776L199.267 138.865C200.189 137.939 201.875 137.927 203.081 138.397L201.209 138.626C201.579 138.669 201.945 138.73 202.168 138.73H207.65C208.072 138.73 208.542 138.626 209.022 138.498C207.656 138.468 206.377 138.287 205.057 138.287C204.581 138.287 203.872 138.773 203.396 138.535C203.295 138.486 203.191 138.44 203.081 138.397L233.097 134.723C233.674 134.488 234.441 134.381 235.225 134.335ZM185.035 146.668C184.568 147.132 184.684 148.671 184.684 149.38C184.684 149.591 184.607 150.134 184.726 150.25C184.818 150.342 184.791 150.779 184.791 150.925C184.791 150.998 184.671 151.142 184.748 151.142C184.83 151.142 185.035 150.919 185.068 150.882C185.246 150.705 185.633 150.409 185.847 150.311C186.25 150.128 187.139 149.908 187.457 149.587C187.652 149.392 188.055 149.505 188.232 149.325C188.3 149.261 188.516 149.346 188.584 149.282C188.852 149.01 189.448 149.102 189.683 148.867C189.808 148.741 189.005 148.305 188.972 148.231C188.614 147.444 187.267 147.608 186.699 147.04C186.434 146.775 185.902 146.879 185.67 146.646C185.49 146.466 184.916 146.549 184.916 146.766L185.035 146.668ZM251.583 136.379C251.577 136.354 251.565 136.333 251.552 136.318C251.482 136.247 251.592 135.972 251.699 136.082C251.711 136.092 251.72 136.101 251.733 136.113C251.669 136.195 251.62 136.284 251.583 136.379C251.611 136.485 251.568 136.672 251.537 136.76C251.436 137.063 251.574 137.276 251.473 137.588L251.476 137.68C251.498 137.713 251.54 137.738 251.571 137.768L251.736 136.116L251.733 136.113L251.736 136.107V136.116C252.081 136.446 252.539 136.647 252.744 137.096C252.771 137.157 252.963 137.17 253.022 137.228C253.107 137.313 253.299 137.469 253.391 137.561C253.538 137.707 253.449 138.058 253.614 138.223C253.99 138.602 253.953 139.081 254.249 139.677C254.35 139.876 254.283 140.135 254.368 140.328C254.484 140.581 254.866 140.969 254.991 141.241C255.159 141.613 255.285 142.105 255.431 142.426C255.501 142.581 255.813 142.862 255.856 143.11C255.947 143.629 256.21 144.295 256.46 144.796C256.616 145.104 256.192 145.471 255.984 145.556C255.318 145.837 254.588 146.121 253.871 146.677C253.379 147.056 252.759 147.266 252.389 147.639C252.203 147.825 252.063 148.131 251.956 148.348C251.943 148.375 251.766 148.482 251.72 148.436C251.513 148.228 251.07 148.366 250.804 148.244C250.209 147.975 249.418 147.892 248.978 147.453C248.917 147.389 249.189 147.214 249.216 147.156C249.317 146.955 249.809 146.634 249.983 146.555C250.087 146.506 250.181 146.344 250.245 146.314C250.395 146.246 250.655 146.289 250.777 146.17C250.887 146.063 251.094 146.039 251.198 145.929C251.662 145.425 252.197 144.731 252.774 144.231C252.96 144.069 253.284 143.904 253.409 143.779C253.455 143.733 253.177 143.253 253.147 143.223C253.101 143.18 253.189 143.003 253.147 142.957C253.055 142.865 253.101 142.56 253.058 142.432C252.942 142.081 252.716 141.971 252.524 141.626C252.469 141.525 252.432 141.357 252.347 141.277C252.145 141.091 251.745 141.024 251.449 140.886C251.308 140.822 251.049 140.853 250.951 140.755C250.89 140.691 250.991 139.973 251.07 139.894C251.299 139.665 251.198 139.298 251.339 138.996C251.513 138.614 251.498 138.147 251.476 137.68C251.461 137.658 251.458 137.634 251.467 137.6C251.47 137.597 251.47 137.591 251.473 137.588C251.455 137.157 251.443 136.73 251.583 136.379ZM254.79 138.107L254.802 138.11L257.199 145.559V145.819C257.199 145.858 257.199 145.978 257.199 145.938C257.199 145.816 257.404 145.687 257.483 145.608C257.563 145.529 257.578 145.37 257.661 145.293C257.914 145.058 258.381 144.612 258.711 144.231C258.806 144.124 259.078 144.066 259.105 144.011C259.142 143.925 259.108 143.867 259.169 143.797C259.337 143.611 259.511 143.379 259.74 143.226C259.771 143.204 260.205 143.003 260.125 142.92C260.034 142.829 259.838 142.847 259.753 142.759C259.582 142.588 259.435 142.478 259.264 142.31C258.867 141.913 258.58 141.125 258.241 140.813C258.171 140.749 258.171 140.593 258.116 140.544C257.493 139.97 256.445 139.207 255.651 138.813C255.398 138.684 255.318 138.407 255.147 138.235C255.04 138.129 254.729 138.104 254.582 138.061C254.549 138.049 254.332 137.835 254.258 137.912C254.237 137.933 254.368 138.046 254.374 138.058C254.448 138.22 254.46 138.345 254.579 138.526L254.808 138.052C254.808 138.068 254.808 138.086 254.802 138.11L254.784 138.104L254.808 138.052C254.808 138.068 254.808 138.086 254.802 138.11L254.756 138.101C254.707 138.089 254.655 138.08 254.604 138.068C254.597 138.064 254.588 138.061 254.582 138.058H254.576C254.567 138.052 254.558 138.046 254.552 138.04L254.484 137.988C254.454 137.967 254.423 137.945 254.39 137.927L254.365 137.915L254.329 137.9L254.307 137.896H254.304H254.286H254.283H254.304L254.329 137.9C254.344 137.903 254.356 137.909 254.371 137.915L254.387 137.924C254.426 137.945 254.46 137.97 254.497 137.997L254.555 138.043L254.576 138.058L254.582 138.061C254.591 138.061 254.591 138.061 254.597 138.064L254.604 138.068L254.79 138.107ZM250.81 142.377C250.813 142.374 250.816 142.374 250.816 142.377H250.81C250.792 142.392 250.734 142.468 250.697 142.517C250.746 142.539 250.798 142.563 250.823 142.588C251.021 142.789 251.253 143.085 251.446 143.18C251.476 143.195 251.763 143.455 251.742 143.476C251.394 143.827 250.652 144.209 250.316 144.68C250.23 144.802 249.909 144.802 249.851 144.994C249.845 145.058 249.842 145.104 249.842 145.061C249.842 145.037 249.845 145.016 249.851 144.994C249.857 144.933 249.87 144.857 249.885 144.82C249.952 144.673 249.894 144.475 249.958 144.334C250.175 143.867 250.221 143.43 250.429 142.972C250.508 142.798 250.551 142.667 250.667 142.551C250.67 142.548 250.682 142.536 250.697 142.517C250.624 142.484 250.554 142.447 250.554 142.41L250.81 142.377ZM254.39 138.089C254.399 138.116 254.411 138.147 254.42 138.174L254.429 138.196L254.503 138.391L254.509 138.4C254.527 138.44 254.552 138.48 254.576 138.516L254.579 138.526C254.555 138.489 254.53 138.449 254.512 138.407L254.5 138.385C254.475 138.327 254.454 138.266 254.432 138.202L254.429 138.196L254.381 138.074L254.39 138.089ZM213.12 138.41C212.885 138.425 212.647 138.434 212.412 138.443C212.415 138.449 212.415 138.452 212.418 138.455C212.488 138.526 212.906 138.455 213.12 138.41ZM254.289 137.97L254.332 138.016L254.344 138.025C254.353 138.034 254.362 138.046 254.371 138.055L254.381 138.071V138.074L254.374 138.058L254.371 138.055L254.329 138.013C254.313 137.997 254.298 137.982 254.286 137.964L254.28 137.958L254.289 137.97ZM254.283 137.896L254.28 137.9C254.274 137.9 254.268 137.903 254.265 137.906L254.258 137.909L254.255 137.912L254.258 137.927L254.28 137.958C254.274 137.951 254.268 137.942 254.261 137.933L254.258 137.93C254.258 137.927 254.255 137.921 254.255 137.918V137.915C254.255 137.912 254.255 137.912 254.258 137.912C254.258 137.912 254.258 137.909 254.261 137.909L254.265 137.906C254.271 137.903 254.274 137.9 254.28 137.9L254.283 137.896ZM220.483 137.341C220.315 137.386 220.147 137.429 219.98 137.472C219.808 137.515 219.637 137.557 219.466 137.597C219.833 137.564 220.175 137.493 220.483 137.341ZM222.759 136.773C222.353 136.809 221.971 136.873 221.638 136.986L221.62 136.992C221.803 137.047 221.98 137.099 222.093 137.041C222.343 136.919 222.557 136.84 222.759 136.773ZM233.512 134.674L233.097 134.723C233.063 134.739 233.027 134.754 232.993 134.769C232.614 134.943 232.196 134.962 231.82 135.157C232.455 135.041 233.051 134.882 233.5 134.681C233.506 134.677 233.509 134.674 233.512 134.674ZM235.033 134.488L234.157 134.595C234.471 134.592 234.807 134.598 235.033 134.488ZM141.704 91.0684C141.704 91.0684 145.268 66.7397 165.156 75.511C165.156 75.511 173.939 78.5284 174.504 87.9777C174.504 87.9777 175.097 93.1482 173.613 95.7472C173.613 95.7472 173.295 103.749 168.647 109.42C168.647 109.42 169.065 111.867 165.138 115.183C165.138 115.183 159.478 122.764 157.307 126.205C157.307 126.205 154.372 130.408 148.206 125.613C148.206 125.613 141.227 119.083 139.667 111.995C139.667 111.995 138.928 117.034 145.457 124.697C145.457 124.697 141.072 123.451 135.324 118.616C135.324 118.616 139.361 116.478 139.282 108.113L139.092 102.625C139.092 102.625 134.808 87.1531 141.704 91.0684Z" fill="#FD0000"/>
</g>
</svg>
