<svg width="323" height="349" viewBox="0 0 323 349" fill="none" xmlns="http://www.w3.org/2000/svg">
<path d="M4.42045 328H3.42045L3.42045 329H4.42045V328ZM14.2614 328V329H15.2614V328H14.2614ZM14.2614 314.773L13.4878 314.139L13.2614 314.415V314.773H14.2614ZM19.1023 308.864L19.9345 308.309L19.1851 307.185L18.3287 308.23L19.1023 308.864ZM31.8523 328L31.0201 328.554L31.3169 329H31.8523V328ZM43.625 328V329H45.5142L44.452 327.438L43.625 328ZM26.1477 302.295L25.3778 301.657L24.8981 302.236L25.3208 302.858L26.1477 302.295ZM43.4205 281.455L44.1904 282.093L45.548 280.455H43.4205V281.455ZM31.625 281.455V280.455H31.1504L30.8503 280.822L31.625 281.455ZM14.875 301.977V302.977H15.3496L15.6497 302.61L14.875 301.977ZM14.2614 301.977H13.2614V302.977H14.2614V301.977ZM14.2614 281.455H15.2614V280.455H14.2614V281.455ZM4.42045 281.455V280.455H3.42045V281.455H4.42045ZM4.42045 329H14.2614V327H4.42045V329ZM15.2614 328L15.2614 314.773H13.2614L13.2614 328H15.2614ZM15.0349 315.406L19.8758 309.497L18.3287 308.23L13.4878 314.139L15.0349 315.406ZM18.2701 309.418L31.0201 328.554L32.6845 327.446L19.9345 308.309L18.2701 309.418ZM31.8523 329H43.625L43.625 327H31.8523V329ZM44.452 327.438L26.9747 301.733L25.3208 302.858L42.798 328.562L44.452 327.438ZM26.9177 302.934L44.1904 282.093L42.6505 280.816L25.3778 301.657L26.9177 302.934ZM43.4205 280.455H31.625V282.455H43.4205V280.455ZM30.8503 280.822L14.1003 301.345L15.6497 302.61L32.3997 282.087L30.8503 280.822ZM14.875 300.977H14.2614V302.977H14.875V300.977ZM15.2614 301.977L15.2614 281.455H13.2614L13.2614 301.977H15.2614ZM14.2614 280.455H4.42045V282.455H14.2614V280.455ZM3.42045 281.455L3.42045 328H5.42045L5.42045 281.455H3.42045ZM60.5682 328V329H61.2943L61.5191 328.31L60.5682 328ZM64.0227 317.386V316.386H63.2966L63.0718 317.077L64.0227 317.386ZM80.8182 317.386L81.7691 317.077L81.5443 316.386H80.8182V317.386ZM84.2727 328L83.3218 328.31L83.5466 329H84.2727V328ZM94.8182 328V329H96.2207L95.7636 327.674L94.8182 328ZM78.7727 281.455L79.7181 281.129L79.4857 280.455H78.7727V281.455ZM66.0909 281.455V280.455H65.3782L65.1457 281.128L66.0909 281.455ZM50.0227 328L49.0775 327.674L48.6196 329H50.0227V328ZM66.5227 309.705L65.5717 309.395L65.146 310.705H66.5227V309.705ZM72.25 292.091V291.091H71.5236L71.299 291.782L72.25 292.091ZM72.6136 292.091L73.5646 291.782L73.34 291.091H72.6136V292.091ZM78.3409 309.705V310.705H79.7176L79.2919 309.395L78.3409 309.705ZM61.5191 328.31L64.9736 317.696L63.0718 317.077L59.6173 327.69L61.5191 328.31ZM64.0227 318.386H80.8182V316.386H64.0227V318.386ZM79.8673 317.696L83.3218 328.31L85.2236 327.69L81.7691 317.077L79.8673 317.696ZM84.2727 329H94.8182V327H84.2727V329ZM95.7636 327.674L79.7181 281.129L77.8273 281.78L93.8728 328.326L95.7636 327.674ZM78.7727 280.455H66.0909V282.455H78.7727V280.455ZM65.1457 281.128L49.0775 327.674L50.968 328.326L67.0362 281.781L65.1457 281.128ZM50.0227 329H60.5682L60.5682 327H50.0227L50.0227 329ZM67.4737 310.014L73.201 292.4L71.299 291.782L65.5717 309.395L67.4737 310.014ZM72.25 293.091H72.6136V291.091H72.25V293.091ZM71.6627 292.4L77.3899 310.014L79.2919 309.395L73.5646 291.782L71.6627 292.4ZM78.3409 308.705H66.5227V310.705H78.3409V308.705ZM104.42 328H103.42V329H104.42V328ZM130.102 303.841H129.102V304.795L130.055 304.84L130.102 303.841ZM130.102 303.386L129.882 302.411L129.102 302.587V303.386H130.102ZM104.42 281.455V280.455H103.42V281.455H104.42ZM114.261 319.955H113.261V320.955H114.261V319.955ZM114.261 307.591V306.591H113.261V307.591H114.261ZM114.261 300.932H113.261V301.932H114.261V300.932ZM114.261 289.409V288.409H113.261V289.409H114.261ZM104.42 329H124.307V327H104.42V329ZM124.307 329C129.7 329 133.959 327.592 136.886 325.109C139.828 322.613 141.33 319.108 141.33 315.136H139.33C139.33 318.574 138.047 321.501 135.592 323.584C133.121 325.68 129.368 327 124.307 327V329ZM141.33 315.136C141.33 307.691 135.952 303.116 130.149 302.842L130.055 304.84C134.843 305.066 139.33 308.809 139.33 315.136H141.33ZM131.102 303.841V303.386H129.102V303.841H131.102ZM130.322 304.362C132.907 303.779 135.208 302.559 136.869 300.697C138.538 298.824 139.511 296.356 139.511 293.386H137.511C137.511 295.894 136.7 297.88 135.376 299.366C134.042 300.861 132.139 301.902 129.882 302.411L130.322 304.362ZM139.511 293.386C139.511 289.631 138.106 286.351 135.27 284.03C132.457 281.728 128.342 280.455 123.057 280.455V282.455C128.045 282.455 131.657 283.658 134.003 285.578C136.326 287.479 137.511 290.164 137.511 293.386H139.511ZM123.057 280.455H104.42V282.455H123.057V280.455ZM103.42 281.455L103.42 328H105.42L105.42 281.455H103.42ZM115.261 319.955V307.591H113.261V319.955H115.261ZM114.261 308.591H122.511V306.591H114.261V308.591ZM122.511 308.591C124.686 308.591 126.349 309.217 127.454 310.186C128.548 311.147 129.17 312.508 129.17 314.159H131.17C131.17 311.969 130.327 310.047 128.773 308.683C127.23 307.329 125.064 306.591 122.511 306.591V308.591ZM129.17 314.159C129.17 315.663 128.671 316.796 127.671 317.584C126.632 318.402 124.917 318.955 122.284 318.955V320.955C125.151 320.955 127.379 320.36 128.909 319.155C130.477 317.919 131.17 316.155 131.17 314.159H129.17ZM122.284 318.955H114.261V320.955H122.284V318.955ZM115.261 300.932V289.409H113.261V300.932H115.261ZM114.261 290.409H121.739V288.409H114.261V290.409ZM121.739 290.409C123.758 290.409 125.215 290.93 126.151 291.719C127.067 292.492 127.58 293.604 127.58 295.023H129.58C129.58 293.078 128.853 291.383 127.44 290.19C126.046 289.014 124.083 288.409 121.739 288.409V290.409ZM127.58 295.023C127.58 296.566 126.963 297.756 125.946 298.582C124.91 299.423 123.393 299.932 121.557 299.932V301.932C123.744 301.932 125.738 301.327 127.207 300.134C128.696 298.925 129.58 297.162 129.58 295.023H127.58ZM121.557 299.932H114.261V301.932H121.557V299.932ZM158.756 328V329H159.482L159.707 328.31L158.756 328ZM162.21 317.386V316.386H161.484L161.259 317.077L162.21 317.386ZM179.006 317.386L179.957 317.077L179.732 316.386H179.006V317.386ZM182.46 328L181.509 328.31L181.734 329H182.46V328ZM193.006 328V329H194.408L193.951 327.674L193.006 328ZM176.96 281.455L177.906 281.129L177.673 280.455H176.96V281.455ZM164.278 281.455V280.455H163.566L163.333 281.128L164.278 281.455ZM148.21 328L147.265 327.674L146.807 329H148.21V328ZM164.71 309.705L163.759 309.395L163.334 310.705H164.71V309.705ZM170.438 292.091V291.091H169.711L169.487 291.782L170.438 292.091ZM170.801 292.091L171.752 291.782L171.528 291.091H170.801V292.091ZM176.528 309.705V310.705H177.905L177.479 309.395L176.528 309.705ZM159.707 328.31L163.161 317.696L161.259 317.077L157.805 327.69L159.707 328.31ZM162.21 318.386H179.006V316.386H162.21V318.386ZM178.055 317.696L181.509 328.31L183.411 327.69L179.957 317.077L178.055 317.696ZM182.46 329H193.006V327H182.46V329ZM193.951 327.674L177.906 281.129L176.015 281.78L192.06 328.326L193.951 327.674ZM176.96 280.455H164.278V282.455H176.96V280.455ZM163.333 281.128L147.265 327.674L149.155 328.326L165.224 281.781L163.333 281.128ZM148.21 329H158.756V327H148.21V329ZM165.661 310.014L171.388 292.4L169.487 291.782L163.759 309.395L165.661 310.014ZM170.438 293.091H170.801V291.091H170.438V293.091ZM169.85 292.4L175.577 310.014L177.479 309.395L171.752 291.782L169.85 292.4ZM176.528 308.705H164.71V310.705H176.528V308.705ZM202.608 281.455V280.455H201.608V281.455H202.608ZM202.608 328H201.608V329H202.608V328ZM212.449 319.568H211.449V320.568H212.449V319.568ZM212.449 289.886V288.886H211.449V289.886H212.449ZM219.108 329C226.408 329 232.381 326.737 236.528 322.494C240.672 318.254 242.881 312.15 242.881 304.682H240.881C240.881 311.759 238.794 317.314 235.097 321.096C231.403 324.876 225.99 327 219.108 327V329ZM242.881 304.682C242.881 297.235 240.671 291.154 236.545 286.932C232.416 282.706 226.477 280.455 219.244 280.455V282.455C226.057 282.455 231.437 284.566 235.114 288.33C238.795 292.096 240.881 297.629 240.881 304.682H242.881ZM219.244 280.455H202.608V282.455H219.244V280.455ZM201.608 281.455V328H203.608V281.455H201.608ZM202.608 329H219.108V327H202.608V329ZM213.449 319.568V289.886H211.449V319.568H213.449ZM212.449 290.886H218.722V288.886H212.449V290.886ZM218.722 290.886C222.925 290.886 225.946 291.957 227.933 294.088C229.935 296.234 231.062 299.638 231.062 304.682H233.062C233.062 299.385 231.883 295.391 229.396 292.724C226.895 290.043 223.245 288.886 218.722 288.886V290.886ZM231.062 304.682C231.062 309.749 229.934 313.177 227.929 315.34C225.937 317.487 222.912 318.568 218.699 318.568V320.568C223.236 320.568 226.892 319.399 229.395 316.7C231.884 314.016 233.062 310.001 233.062 304.682H231.062ZM218.699 318.568H212.449V320.568H218.699V318.568ZM253.17 281.455V280.455H252.17V281.455H253.17ZM253.17 328H252.17V329H253.17V328ZM263.011 319.568H262.011V320.568H263.011V319.568ZM263.011 289.886V288.886H262.011V289.886H263.011ZM269.67 329C276.97 329 282.943 326.737 287.09 322.494C291.234 318.254 293.443 312.15 293.443 304.682H291.443C291.443 311.759 289.357 317.314 285.66 321.096C281.966 324.876 276.552 327 269.67 327V329ZM293.443 304.682C293.443 297.235 291.234 291.154 287.107 286.932C282.978 282.706 277.04 280.455 269.807 280.455V282.455C276.619 282.455 281.999 284.566 285.677 288.33C289.357 292.096 291.443 297.629 291.443 304.682H293.443ZM269.807 280.455H253.17V282.455H269.807V280.455ZM252.17 281.455V328H254.17V281.455H252.17ZM253.17 329H269.67V327H253.17V329ZM264.011 319.568V289.886H262.011V319.568H264.011ZM263.011 290.886H269.284V288.886H263.011V290.886ZM269.284 290.886C273.488 290.886 276.508 291.957 278.496 294.088C280.497 296.234 281.625 299.638 281.625 304.682H283.625C283.625 299.385 282.446 295.391 279.959 292.724C277.458 290.043 273.808 288.886 269.284 288.886V290.886ZM281.625 304.682C281.625 309.749 280.497 313.177 278.491 315.34C276.5 317.487 273.474 318.568 269.261 318.568V320.568C273.798 320.568 277.455 319.399 279.958 316.7C282.446 314.016 283.625 310.001 283.625 304.682H281.625ZM269.261 318.568H263.011V320.568H269.261V318.568ZM313.574 281.455H314.574V280.455H313.574V281.455ZM303.733 281.455V280.455H302.733V281.455H303.733ZM303.733 328H302.733V329H303.733V328ZM313.574 328V329H314.574V328H313.574ZM313.574 280.455H303.733V282.455H313.574V280.455ZM302.733 281.455V328H304.733V281.455H302.733ZM303.733 329H313.574V327H303.733V329ZM314.574 328V281.455H312.574V328H314.574Z" fill="#042365" fill-opacity="0.12"/>
<path fill-rule="evenodd" clip-rule="evenodd" d="M193.068 23.2956C191.932 25.8872 190.529 26.6483 190.529 26.6483C185.72 29.0528 185.252 31.798 185.252 31.798C185.186 33.8351 183.983 36.0064 183.983 36.0064C181.779 38.1972 180.176 43.3797 180.176 43.3797C174.633 58.3278 178.44 68.5873 178.44 68.5873C186.388 69.6559 190.529 68.5873 190.529 68.5873L191.465 67.4588C190.596 69.87 195.072 68.5873 195.072 68.5873C219.918 62.6227 227.265 66.3702 227.265 66.3702C231.807 64.2662 237.017 64.0657 237.017 64.0657C239.154 62.0219 241.492 61.5741 241.492 61.5741C242.294 55.2021 240.223 49.5847 240.223 49.5847C236.683 49.3175 235.413 41.1026 235.413 41.1026C234.478 37.7362 237.017 37.6025 237.017 37.6025C236.215 20.5905 251.109 21.2918 251.109 21.2918C267.674 21.1115 265.337 39.1719 265.337 39.1719C270.947 37.8494 265.337 49.0642 265.337 49.0642C265.47 51.0412 263.4 54.855 263.4 54.855L262.999 55.9104C261.864 60.2386 263.4 65.1876 263.4 65.1876L265.337 66.3702C272.016 67.165 287.245 78.8468 287.245 78.8468C295.193 85.2522 301.805 109.231 301.805 109.231H300.803C308.752 125.154 305.545 133.356 305.545 133.356C301.671 144.437 297.196 156.887 297.196 156.887C295.994 160.36 297.196 163.84 297.196 163.84L303.809 170.279L302.941 170.76C322.445 184.205 322.378 195.486 322.378 195.486C322.177 201.965 320.24 208.243 320.24 208.243C320.106 221.468 310.756 235.562 310.756 235.562C301.939 249.722 302.34 254.397 302.34 254.397H302.941C303.943 257.136 301.805 260.943 301.805 260.943C300.002 270.227 307.283 276.305 307.283 276.305C323.781 288.328 318.904 289.998 318.904 289.998C305.746 293.003 298.666 288.194 298.666 288.194C295.46 286.324 298.466 282.25 287.245 280.446C276.024 278.643 283.103 267.89 283.103 267.89C284.372 265.685 285.842 262.546 285.842 262.546C286.71 259.607 285.241 258.271 286.577 256.535C287.98 254.798 288.581 253.863 288.581 253.863C289.85 250.991 290.317 250.122 290.317 250.122H291.185C290.784 248.72 291.185 246.182 291.185 246.182C293.656 241.507 293.122 229.818 293.122 229.818C293.055 215.591 300.803 204.904 300.803 204.904C297.998 205.104 293.122 199.494 293.122 199.494C289.983 197.357 280.432 198.292 280.432 198.292L281.033 199.494C269.879 199.961 268.142 185.581 268.142 185.581V204.904L262.265 208.243C260.127 211.115 260.728 222.203 260.728 222.203C262.398 225.81 260.728 243.911 260.728 243.911C258.858 247.918 259.993 253.395 259.993 253.395C265.537 260.943 262.265 274.635 262.265 274.635C261.129 279.511 263.4 289.998 263.4 289.998H264.202C266.874 299.549 269.678 311.037 269.678 311.037C270.146 321.19 263.4 326.934 263.4 326.934C257.255 333.479 248.305 331.809 248.305 331.809C237.952 329.872 248.906 319.386 248.906 319.386C257.055 309.835 255.785 305.694 255.785 305.694C252.712 297.946 252.445 295.408 252.445 295.408L252.914 294.607L246.434 277.307C244.363 273.099 240.557 259.741 242.026 254.731C243.495 249.655 241.492 243.911 241.492 243.911C240.758 240.972 240.223 230.419 240.223 230.419C239.088 224.942 237.618 215.524 237.618 215.524L233.343 218.129C234.011 217.127 234.411 215.524 234.411 215.524C234.745 210.849 230.138 198.292 230.138 198.292C230.138 193.282 229.269 188.232 229.269 188.232L228 189.061C230.137 177.138 228 170.76 228 170.76C226.664 168.035 227.265 164.935 227.265 164.935C228.267 161.302 228 155.625 228 155.625C220.92 156.66 219.117 129.863 219.117 129.863C217.18 106.686 216.111 99.1448 216.111 99.1448C212.905 91.7175 204.489 90.8094 204.489 90.8094C196.741 89.7474 191.465 90.8094 191.465 90.8094C192.333 89.36 191.465 89.1129 191.465 89.1129C181.646 84.7714 173.431 83.669 173.431 83.669C159.07 81.004 154.328 75.033 158.402 63.4846C159.605 58.602 170.892 34.3164 170.892 34.3164C172.361 31.3975 172.962 25.8069 172.962 25.8069L173.431 17.2373C173.164 12.4884 175.968 12.0811 175.968 12.0811C176.302 10.2043 179.308 9.86343 179.308 9.86343C180.176 6.85109 183.983 8.02664 183.983 8.02664C189.326 3.9857 191.398 10.391 191.465 10.3109C192.066 9.84334 191.999 9.26884 192.066 8.39386C192.133 6.75745 192.533 1.30043 192.533 1.30043C192.6 0.0180179 193.869 0.0115473 193.869 0.0115473C194.938 -0.102 195.072 0.659251 195.072 0.659251C195.138 1.98174 194.336 17.2373 194.336 17.2373C194.269 17.8986 194.203 18.5265 194.136 19.1009C194.337 19.4749 194.403 19.9357 194.269 20.3832L193.668 22.434C193.601 22.8013 193.335 23.1019 193.068 23.2956ZM281.166 107.861L285.241 112.998H286.577C286.577 112.998 291.786 124.245 292.521 127.391C292.521 127.391 290.785 140.002 291.653 143.629L287.378 148.658C287.378 148.658 284.841 142.841 285.241 138.399C285.241 138.399 283.905 130.411 282.836 128.914C281.767 127.418 281.166 122.396 281.166 122.396C281.166 122.396 278.16 113.164 281.166 107.861Z" fill="white"/>
<mask id="mask0" style="mask-type:alpha" maskUnits="userSpaceOnUse" x="157" y="0" width="166" height="332">
<path fill-rule="evenodd" clip-rule="evenodd" d="M193.068 23.2956C191.932 25.8872 190.529 26.6483 190.529 26.6483C185.72 29.0528 185.252 31.798 185.252 31.798C185.186 33.8351 183.983 36.0064 183.983 36.0064C181.779 38.1972 180.176 43.3797 180.176 43.3797C174.633 58.3278 178.44 68.5873 178.44 68.5873C186.388 69.6559 190.529 68.5873 190.529 68.5873L191.465 67.4588C190.596 69.87 195.072 68.5873 195.072 68.5873C219.918 62.6227 227.265 66.3702 227.265 66.3702C231.807 64.2662 237.017 64.0657 237.017 64.0657C239.154 62.0219 241.492 61.5741 241.492 61.5741C242.294 55.2021 240.223 49.5847 240.223 49.5847C236.683 49.3175 235.413 41.1026 235.413 41.1026C234.478 37.7362 237.017 37.6025 237.017 37.6025C236.215 20.5905 251.109 21.2918 251.109 21.2918C267.674 21.1115 265.337 39.1719 265.337 39.1719C270.947 37.8494 265.337 49.0642 265.337 49.0642C265.47 51.0412 263.4 54.855 263.4 54.855L262.999 55.9104C261.864 60.2386 263.4 65.1876 263.4 65.1876L265.337 66.3702C272.016 67.165 287.245 78.8468 287.245 78.8468C295.193 85.2522 301.805 109.231 301.805 109.231H300.803C308.752 125.154 305.545 133.356 305.545 133.356C301.671 144.437 297.196 156.887 297.196 156.887C295.994 160.36 297.196 163.84 297.196 163.84L303.809 170.279L302.941 170.76C322.445 184.205 322.378 195.486 322.378 195.486C322.177 201.965 320.24 208.243 320.24 208.243C320.106 221.468 310.756 235.562 310.756 235.562C301.939 249.722 302.34 254.397 302.34 254.397H302.941C303.943 257.136 301.805 260.943 301.805 260.943C300.002 270.227 307.283 276.305 307.283 276.305C323.781 288.328 318.904 289.998 318.904 289.998C305.746 293.003 298.666 288.194 298.666 288.194C295.46 286.324 298.466 282.25 287.245 280.446C276.024 278.643 283.103 267.89 283.103 267.89C284.372 265.685 285.842 262.546 285.842 262.546C286.71 259.607 285.241 258.271 286.577 256.535C287.98 254.798 288.581 253.863 288.581 253.863C289.85 250.991 290.317 250.122 290.317 250.122H291.185C290.784 248.72 291.185 246.182 291.185 246.182C293.656 241.507 293.122 229.818 293.122 229.818C293.055 215.591 300.803 204.904 300.803 204.904C297.998 205.104 293.122 199.494 293.122 199.494C289.983 197.357 280.432 198.292 280.432 198.292L281.033 199.494C269.879 199.961 268.142 185.581 268.142 185.581V204.904L262.265 208.243C260.127 211.115 260.728 222.203 260.728 222.203C262.398 225.81 260.728 243.911 260.728 243.911C258.858 247.918 259.993 253.395 259.993 253.395C265.537 260.943 262.265 274.635 262.265 274.635C261.129 279.511 263.4 289.998 263.4 289.998H264.202C266.874 299.549 269.678 311.037 269.678 311.037C270.146 321.19 263.4 326.934 263.4 326.934C257.255 333.479 248.305 331.809 248.305 331.809C237.952 329.872 248.906 319.386 248.906 319.386C257.055 309.835 255.785 305.694 255.785 305.694C252.712 297.946 252.445 295.408 252.445 295.408L252.914 294.607L246.434 277.307C244.363 273.099 240.557 259.741 242.026 254.731C243.495 249.655 241.492 243.911 241.492 243.911C240.758 240.972 240.223 230.419 240.223 230.419C239.088 224.942 237.618 215.524 237.618 215.524L233.343 218.129C234.011 217.127 234.411 215.524 234.411 215.524C234.745 210.849 230.138 198.292 230.138 198.292C230.138 193.282 229.269 188.232 229.269 188.232L228 189.061C230.137 177.138 228 170.76 228 170.76C226.664 168.035 227.265 164.935 227.265 164.935C228.267 161.302 228 155.625 228 155.625C220.92 156.66 219.117 129.863 219.117 129.863C217.18 106.686 216.111 99.1448 216.111 99.1448C212.905 91.7175 204.489 90.8094 204.489 90.8094C196.741 89.7474 191.465 90.8094 191.465 90.8094C192.333 89.36 191.465 89.1129 191.465 89.1129C181.646 84.7714 173.431 83.669 173.431 83.669C159.07 81.004 154.328 75.033 158.402 63.4846C159.605 58.602 170.892 34.3164 170.892 34.3164C172.361 31.3975 172.962 25.8069 172.962 25.8069L173.431 17.2373C173.164 12.4884 175.968 12.0811 175.968 12.0811C176.302 10.2043 179.308 9.86343 179.308 9.86343C180.176 6.85109 183.983 8.02664 183.983 8.02664C189.326 3.9857 191.398 10.391 191.465 10.3109C192.066 9.84334 191.999 9.26884 192.066 8.39386C192.133 6.75745 192.533 1.30043 192.533 1.30043C192.6 0.0180179 193.869 0.0115473 193.869 0.0115473C194.938 -0.102 195.072 0.659251 195.072 0.659251C195.138 1.98174 194.336 17.2373 194.336 17.2373C194.269 17.8986 194.203 18.5265 194.136 19.1009C194.337 19.4749 194.403 19.9357 194.269 20.3832L193.668 22.434C193.601 22.8013 193.335 23.1019 193.068 23.2956ZM281.166 107.861L285.241 112.998H286.577C286.577 112.998 291.786 124.245 292.521 127.391C292.521 127.391 290.785 140.002 291.653 143.629L287.378 148.658C287.378 148.658 284.841 142.841 285.241 138.399C285.241 138.399 283.905 130.411 282.836 128.914C281.767 127.418 281.166 122.396 281.166 122.396C281.166 122.396 278.16 113.164 281.166 107.861Z" fill="white"/>
</mask>
<g mask="url(#mask0)">
<g style="mix-blend-mode:difference">
<path fill-rule="evenodd" clip-rule="evenodd" d="M311.209 13.4717L250.255 72.0458L243.042 -46.231L311.209 13.4717Z" fill="#F6A980"/>
<path fill-rule="evenodd" clip-rule="evenodd" d="M344.436 95.2623L275.767 208.479L249.396 68.9315L344.436 95.2623Z" fill="#E59E78"/>
<path fill-rule="evenodd" clip-rule="evenodd" d="M359.704 69.2346L305.024 64.7202L333.621 22.9402L359.704 69.2346Z" fill="#BB6A41"/>
<path fill-rule="evenodd" clip-rule="evenodd" d="M329.926 -56.1917L361.869 -20.7224L336.613 14.7437C323.346 -9.38942 320.073 -33.0805 329.926 -56.1917Z" fill="#E67C49"/>
<path fill-rule="evenodd" clip-rule="evenodd" d="M326.042 33.6386L304.677 64.838L297.646 42.0028L326.042 33.6386Z" fill="#D9865B"/>
<path fill-rule="evenodd" clip-rule="evenodd" d="M319.774 156.662L259.275 122.074L329.465 101.887L319.774 156.662Z" fill="#AA5F3A"/>
<path fill-rule="evenodd" clip-rule="evenodd" d="M356.516 224.81L275.219 208.539L304.469 160.79L359.343 185.469L356.516 224.81Z" fill="#D9865B"/>
<path fill-rule="evenodd" clip-rule="evenodd" d="M258.941 156.148L185.491 211.468C189.432 174.82 200.53 138.316 215.28 101.888L258.941 156.148Z" fill="#AA5F3A"/>
<path fill-rule="evenodd" clip-rule="evenodd" d="M276.829 211.599H185.491L269.293 168.844L276.829 211.599Z" fill="#AA5F3A"/>
<path fill-rule="evenodd" clip-rule="evenodd" d="M169.437 60.1747H78.0987L161.9 17.4197L169.437 60.1747Z" fill="#AA5F3A"/>
<path fill-rule="evenodd" clip-rule="evenodd" d="M333.703 196.805L277.913 124.486L362.953 164.722L333.703 196.805Z" fill="#AA5F3A"/>
<path fill-rule="evenodd" clip-rule="evenodd" d="M235.298 295.77L158.933 211.454H276.397L235.298 295.77Z" fill="#D9865B"/>
<path fill-rule="evenodd" clip-rule="evenodd" d="M88.0962 148.255L108.596 75.5102L162.132 140.185L88.0962 148.255Z" fill="#E59E78"/>
<path fill-rule="evenodd" clip-rule="evenodd" d="M152.639 228.506L153.816 304.075L84.0091 257.427L152.639 228.506Z" fill="#E59E78"/>
<path fill-rule="evenodd" clip-rule="evenodd" d="M155.453 143.021L82.1975 63.5208L201.675 64.5678L155.453 143.021Z" fill="#B56C46"/>
<path fill-rule="evenodd" clip-rule="evenodd" d="M135.984 245.81L62.7283 166.309L182.206 167.356L135.984 245.81Z" fill="#B56C46"/>
<path fill-rule="evenodd" clip-rule="evenodd" d="M89.5974 252.798L182.541 308.007L67.7619 341.199L89.5974 252.798Z" fill="#B56C46"/>
<path fill-rule="evenodd" clip-rule="evenodd" d="M269.293 168.691L185.491 211.446L225.632 114.431L269.293 168.691Z" fill="#E59E78"/>
<path fill-rule="evenodd" clip-rule="evenodd" d="M312.039 89.4036L249.396 72.0702L288.436 12.0571L312.039 89.4036Z" fill="#C58766"/>
<path fill-rule="evenodd" clip-rule="evenodd" d="M316.989 65.0502L254.346 47.7168L293.386 -12.2963L316.989 65.0502Z" fill="#C58766"/>
<path fill-rule="evenodd" clip-rule="evenodd" d="M250.836 72.0458L191.682 21.096L243.623 -46.231L250.836 72.0458Z" fill="#E77D49"/>
<path fill-rule="evenodd" clip-rule="evenodd" d="M188.035 17.3466L141.963 16.2807L197.148 -40.5128L188.035 17.3466Z" fill="#AB64E6"/>
<path fill-rule="evenodd" clip-rule="evenodd" d="M195.342 -38.4837L241.411 -37.4178L186.229 19.3725L195.342 -38.4837Z" fill="#B17AF8"/>
<path fill-rule="evenodd" clip-rule="evenodd" d="M250.048 72.0056L268.883 168.798L224.601 114.165L250.048 72.0056Z" fill="#F1B886"/>
<path fill-rule="evenodd" clip-rule="evenodd" d="M276.37 209.405L370.216 228.011L206.893 326.766L276.37 209.405Z" fill="#B66C46"/>
<path fill-rule="evenodd" clip-rule="evenodd" d="M221.407 279.621L315.253 298.224L241.725 346.099L221.407 279.621Z" fill="#A76619"/>
<path fill-rule="evenodd" clip-rule="evenodd" d="M236.41 274.375L305.605 312.428L325.202 367.889L236.41 274.375Z" fill="#DE3F1C"/>
<path fill-rule="evenodd" clip-rule="evenodd" d="M266.323 227.583L366.383 312.391L279.923 304.046L266.323 227.583Z" fill="#C58766"/>
<path fill-rule="evenodd" clip-rule="evenodd" d="M238.182 290.602C259.052 305.5 266.915 331.141 273.937 360.24L213.046 307.6L238.182 290.602Z" fill="#AA5F3A"/>
<path fill-rule="evenodd" clip-rule="evenodd" d="M250.393 71.9249L182.222 185.142L133.846 38.6188L250.393 71.9249Z" fill="#D9865B"/>
<path fill-rule="evenodd" clip-rule="evenodd" d="M230.924 174.714L162.753 287.93L114.377 141.407L230.924 174.714Z" fill="#D9865B"/>
<path fill-rule="evenodd" clip-rule="evenodd" d="M250.196 71.9593L143.446 42.4214L119.091 1.85468L166.814 -27.2318L250.196 71.9593Z" fill="#E59E78"/>
</g>
</g>
<g style="mix-blend-mode:overlay">
<path fill-rule="evenodd" clip-rule="evenodd" d="M193.068 23.2956C191.932 25.8872 190.529 26.6483 190.529 26.6483C185.72 29.0528 185.252 31.798 185.252 31.798C185.186 33.8351 183.983 36.0064 183.983 36.0064C181.779 38.1972 180.176 43.3797 180.176 43.3797C174.633 58.3278 178.44 68.5873 178.44 68.5873C186.388 69.6559 190.529 68.5873 190.529 68.5873L191.465 67.4588C190.596 69.87 195.072 68.5873 195.072 68.5873C219.918 62.6227 227.265 66.3702 227.265 66.3702C231.807 64.2662 237.017 64.0657 237.017 64.0657C239.154 62.0219 241.492 61.5741 241.492 61.5741C242.294 55.2021 240.223 49.5847 240.223 49.5847C236.683 49.3175 235.413 41.1026 235.413 41.1026C234.478 37.7362 237.017 37.6025 237.017 37.6025C236.215 20.5905 251.109 21.2918 251.109 21.2918C267.674 21.1115 265.337 39.1719 265.337 39.1719C270.947 37.8494 265.337 49.0642 265.337 49.0642C265.47 51.0412 263.4 54.855 263.4 54.855L262.999 55.9104C261.864 60.2386 263.4 65.1876 263.4 65.1876L265.337 66.3702C272.016 67.165 287.245 78.8468 287.245 78.8468C295.193 85.2522 301.805 109.231 301.805 109.231H300.803C308.752 125.154 305.545 133.356 305.545 133.356C301.671 144.437 297.196 156.887 297.196 156.887C295.994 160.36 297.196 163.84 297.196 163.84L303.809 170.279L302.941 170.76C322.445 184.205 322.378 195.486 322.378 195.486C322.177 201.965 320.24 208.243 320.24 208.243C320.106 221.468 310.756 235.562 310.756 235.562C301.939 249.722 302.34 254.397 302.34 254.397H302.941C303.943 257.136 301.805 260.943 301.805 260.943C300.002 270.227 307.283 276.305 307.283 276.305C323.781 288.328 318.904 289.998 318.904 289.998C305.746 293.003 298.666 288.194 298.666 288.194C295.46 286.324 298.466 282.25 287.245 280.446C276.024 278.643 283.103 267.89 283.103 267.89C284.372 265.685 285.842 262.546 285.842 262.546C286.71 259.607 285.241 258.271 286.577 256.535C287.98 254.798 288.581 253.863 288.581 253.863C289.85 250.991 290.317 250.122 290.317 250.122H291.185C290.784 248.72 291.185 246.182 291.185 246.182C293.656 241.507 293.122 229.818 293.122 229.818C293.055 215.591 300.803 204.904 300.803 204.904C297.998 205.104 293.122 199.494 293.122 199.494C289.983 197.357 280.432 198.292 280.432 198.292L281.033 199.494C269.879 199.961 268.142 185.581 268.142 185.581V204.904L262.265 208.243C260.127 211.115 260.728 222.203 260.728 222.203C262.398 225.81 260.728 243.911 260.728 243.911C258.858 247.918 259.993 253.395 259.993 253.395C265.537 260.943 262.265 274.635 262.265 274.635C261.129 279.511 263.4 289.998 263.4 289.998H264.202C266.874 299.549 269.678 311.037 269.678 311.037C270.146 321.19 263.4 326.934 263.4 326.934C257.255 333.479 248.305 331.809 248.305 331.809C237.952 329.872 248.906 319.386 248.906 319.386C257.055 309.835 255.785 305.694 255.785 305.694C252.712 297.946 252.445 295.408 252.445 295.408L252.914 294.607L246.434 277.307C244.363 273.099 240.557 259.741 242.026 254.731C243.495 249.655 241.492 243.911 241.492 243.911C240.758 240.972 240.223 230.419 240.223 230.419C239.088 224.942 237.618 215.524 237.618 215.524L233.343 218.129C234.011 217.127 234.411 215.524 234.411 215.524C234.745 210.849 230.138 198.292 230.138 198.292C230.138 193.282 229.269 188.232 229.269 188.232L228 189.061C230.137 177.138 228 170.76 228 170.76C226.664 168.035 227.265 164.935 227.265 164.935C228.267 161.302 228 155.625 228 155.625C220.92 156.66 219.117 129.863 219.117 129.863C217.18 106.686 216.111 99.1448 216.111 99.1448C212.905 91.7175 204.489 90.8094 204.489 90.8094C196.741 89.7474 191.465 90.8094 191.465 90.8094C192.333 89.36 191.465 89.1129 191.465 89.1129C181.646 84.7714 173.431 83.669 173.431 83.669C159.07 81.004 154.328 75.033 158.402 63.4846C159.605 58.602 170.892 34.3164 170.892 34.3164C172.361 31.3975 172.962 25.8069 172.962 25.8069L173.431 17.2373C173.164 12.4884 175.968 12.0811 175.968 12.0811C176.302 10.2043 179.308 9.86343 179.308 9.86343C180.176 6.85109 183.983 8.02664 183.983 8.02664C189.326 3.9857 191.398 10.391 191.465 10.3109C192.066 9.84334 191.999 9.26884 192.066 8.39386C192.133 6.75745 192.533 1.30043 192.533 1.30043C192.6 0.0180179 193.869 0.0115473 193.869 0.0115473C194.938 -0.102 195.072 0.659251 195.072 0.659251C195.138 1.98174 194.336 17.2373 194.336 17.2373C194.269 17.8986 194.203 18.5265 194.136 19.1009C194.337 19.4749 194.403 19.9357 194.269 20.3832L193.668 22.434C193.601 22.8013 193.335 23.1019 193.068 23.2956ZM281.166 107.861L285.241 112.998H286.577C286.577 112.998 291.786 124.245 292.521 127.391C292.521 127.391 290.785 140.002 291.653 143.629L287.378 148.658C287.378 148.658 284.841 142.841 285.241 138.399C285.241 138.399 283.905 130.411 282.836 128.914C281.767 127.418 281.166 122.396 281.166 122.396C281.166 122.396 278.16 113.164 281.166 107.861Z" fill="#042365"/>
</g>
</svg>
