<svg width="287" height="415" viewBox="0 0 287 415" fill="none" xmlns="http://www.w3.org/2000/svg">
<g style="mix-blend-mode:color-dodge">
<path fill-rule="evenodd" clip-rule="evenodd" d="M198.084 93.9986L145.362 144.662L139.123 42.359L198.084 93.9986Z" fill="#F6A980"/>
<path fill-rule="evenodd" clip-rule="evenodd" d="M227.709 167.481L168.314 265.408L145.504 144.707L227.709 167.481Z" fill="#E59E78"/>
<path fill-rule="evenodd" clip-rule="evenodd" d="M240.025 142.31L192.73 138.405L217.465 102.268L240.025 142.31Z" fill="#BB6A41"/>
<path fill-rule="evenodd" clip-rule="evenodd" d="M262.066 93.2395L208.046 93.9825L242.41 64.4559L262.066 93.2395Z" fill="#E59E78"/>
<path fill-rule="evenodd" clip-rule="evenodd" d="M250.129 93.0462L241.87 64.3955L264.441 40.604C269.121 63.959 266.675 94.7952 250.129 93.0462Z" fill="#F6A980"/>
<path fill-rule="evenodd" clip-rule="evenodd" d="M214.275 33.7437L241.903 64.4226L220.058 95.0989C208.583 74.225 205.752 53.7335 214.275 33.7437Z" fill="#E67C49"/>
<path fill-rule="evenodd" clip-rule="evenodd" d="M263.779 45.6256L242.118 64.4794L225.277 46.4852C243.618 31.2867 242.541 41.0214 263.779 45.6256Z" fill="#C58766"/>
<path fill-rule="evenodd" clip-rule="evenodd" d="M257.596 92.6155L210.599 137.221L240.049 93.5889L257.596 92.6155Z" fill="#C58766"/>
<path fill-rule="evenodd" clip-rule="evenodd" d="M235.696 100.912L225.197 116.01L216.98 101.997L235.696 100.912Z" fill="#E59E78"/>
<path fill-rule="evenodd" clip-rule="evenodd" d="M210.91 111.601L192.43 138.587L186.348 118.836L210.91 111.601Z" fill="#D9865B"/>
<path fill-rule="evenodd" clip-rule="evenodd" d="M205.491 217.93L153.163 188.013L213.873 170.553L205.491 217.93Z" fill="#AA5F3A"/>
<path fill-rule="evenodd" clip-rule="evenodd" d="M238.158 279.454L167.841 265.38L193.14 224.08L240.604 245.426L238.158 279.454Z" fill="#D9865B"/>
<path fill-rule="evenodd" clip-rule="evenodd" d="M152.874 217.565L89.3445 265.414C92.753 233.715 102.352 202.141 115.11 170.633L152.874 217.565Z" fill="#AA5F3A"/>
<path fill-rule="evenodd" clip-rule="evenodd" d="M168.347 265.369H89.3445L161.828 228.388L168.347 265.369Z" fill="#AA5F3A"/>
<path fill-rule="evenodd" clip-rule="evenodd" d="M132.422 338.33L66.3705 265.402H167.971L132.422 338.33Z" fill="#D9865B"/>
<path fill-rule="evenodd" clip-rule="evenodd" d="M5.10541 210.658L22.8365 147.738L69.1424 203.678L5.10541 210.658Z" fill="#E59E78"/>
<path fill-rule="evenodd" clip-rule="evenodd" d="M63.3618 206.131L0 137.368L103.342 138.273L63.3618 206.131Z" fill="#B56C46"/>
<path fill-rule="evenodd" clip-rule="evenodd" d="M161.828 228.414L89.3445 265.395L124.064 181.482L161.828 228.414Z" fill="#E59E78"/>
<path fill-rule="evenodd" clip-rule="evenodd" d="M199.687 159.675L145.504 144.683L179.272 92.775L199.687 159.675Z" fill="#C58766"/>
<path fill-rule="evenodd" clip-rule="evenodd" d="M144.978 144.662L93.8125 100.593L138.738 42.359L144.978 144.662Z" fill="#E77D49"/>
<path fill-rule="evenodd" clip-rule="evenodd" d="M138.286 78.6737L71.6507 89.6141L55.8402 17.784L138.286 78.6737Z" fill="#E77D49"/>
<path fill-rule="evenodd" clip-rule="evenodd" d="M142.275 51.5203L91.2594 49.1205L138.992 0L142.275 51.5203Z" fill="#494FA9"/>
<path fill-rule="evenodd" clip-rule="evenodd" d="M91.5417 97.5096L51.6921 96.5877L99.4243 47.4645L91.5417 97.5096Z" fill="#AB64E6"/>
<path fill-rule="evenodd" clip-rule="evenodd" d="M97.866 49.1396L137.713 50.0616L89.9834 99.1821L97.866 49.1396Z" fill="#B17AF8"/>
<path fill-rule="evenodd" clip-rule="evenodd" d="M68.4282 57.9692L50.1768 93.4024L26.869 29L68.4282 57.9692Z" fill="#B17AF8"/>
<path fill-rule="evenodd" clip-rule="evenodd" d="M145.178 144.707L161.47 228.427L123.168 181.172L145.178 144.707Z" fill="#F1B886"/>
<path fill-rule="evenodd" clip-rule="evenodd" d="M167.946 265.402L249.118 281.495L107.852 366.913L167.946 265.402Z" fill="#B66C46"/>
<path fill-rule="evenodd" clip-rule="evenodd" d="M205.493 331.374L286.665 347.464L223.067 388.873L205.493 331.374Z" fill="#4119A7"/>
<path fill-rule="evenodd" clip-rule="evenodd" d="M197.197 334.006L257.047 366.92L273.997 414.89L197.197 334.006Z" fill="#6643BB"/>
<path fill-rule="evenodd" clip-rule="evenodd" d="M187.624 272.183L274.17 345.537L199.387 338.318L187.624 272.183Z" fill="#C58766"/>
<path fill-rule="evenodd" clip-rule="evenodd" d="M241.274 284.228C259.325 297.114 266.126 319.292 272.2 344.461L219.533 298.931L241.274 284.228Z" fill="#AA5F3A"/>
<path fill-rule="evenodd" clip-rule="evenodd" d="M145.478 144.637L86.5147 242.564L44.6721 115.829L145.478 144.637Z" fill="#D9865B"/>
<path fill-rule="evenodd" clip-rule="evenodd" d="M145.308 144.667L52.9752 119.118L31.9089 84.03L73.1874 58.8718L145.308 144.667Z" fill="#E59E78"/>
</g>
</svg>
