<svg width="80" height="80" viewBox="0 0 80 80" fill="none" xmlns="http://www.w3.org/2000/svg">
<path d="M40.5383 48.9259C40.4469 48.3616 40.1559 47.849 39.7182 47.4813C39.2805 47.1137 38.7253 46.9154 38.1537 46.9228H23.8461C23.2745 46.9154 22.7193 47.1137 22.2817 47.4813C21.844 47.849 21.5529 48.3616 21.4615 48.9259L19.0769 63.2335C19.0224 63.576 19.0432 63.9262 19.1379 64.2598C19.2326 64.5934 19.399 64.9023 19.6254 65.165C19.8518 65.4298 20.1336 65.6418 20.4508 65.786C20.7681 65.9302 21.1131 66.0031 21.4615 65.9996H40.5383C40.8828 65.9996 41.2231 65.9251 41.536 65.781C41.8488 65.6369 42.1267 65.4268 42.3506 65.165C42.577 64.9023 42.7433 64.5934 42.8381 64.2598C42.9328 63.9262 42.9536 63.576 42.8991 63.2335L40.5383 48.9259Z" fill="#042365"/>
<path d="M54.8459 4H7.15381C3.20287 4 0 7.20287 0 11.1538V44.5383C0 48.4892 3.20287 51.6921 7.15381 51.6921H54.8459C58.7968 51.6921 61.9997 48.4892 61.9997 44.5383V11.1538C61.9997 7.20287 58.7968 4 54.8459 4Z" fill="#D8E1EF"/>
<path d="M45.3072 65.9997H16.692C16.0595 65.9997 15.453 65.7484 15.0058 65.3012C14.5586 64.854 14.3074 64.2475 14.3074 63.6151C14.3074 62.9826 14.5586 62.3761 15.0058 61.9289C15.453 61.4817 16.0595 61.2305 16.692 61.2305H45.3072C45.9396 61.2305 46.5462 61.4817 46.9934 61.9289C47.4406 62.3761 47.6918 62.9826 47.6918 63.6151C47.6918 64.2475 47.4406 64.854 46.9934 65.3012C46.5462 65.7484 45.9396 65.9997 45.3072 65.9997Z" fill="#D8E1EF"/>
<rect x="6.19983" y="12.1074" width="20.9845" height="3.81537" rx="1.90768" fill="#042365"/>
<rect x="6.19983" y="19.7383" width="27.6614" height="3.81537" rx="1.90768" fill="#042365"/>
<rect x="6.19983" y="27.3691" width="18.123" height="3.81537" rx="1.90768" fill="#042365"/>
<path d="M73.0686 12.4473H46.8121C43.1869 12.4473 40.248 15.7535 40.248 19.8319V69.0627C40.248 73.1411 43.1869 76.4473 46.8121 76.4473H73.0686C76.6938 76.4473 79.6327 73.1411 79.6327 69.0627V19.8319C79.6327 15.7535 76.6938 12.4473 73.0686 12.4473Z" fill="#042365"/>
<rect x="56.0027" y="63.6472" width="7.87692" height="7.87692" rx="3.93846" fill="#D8E1EF"/>
<rect x="47.1409" y="28.2012" width="23.6308" height="3.93846" rx="1.96923" fill="#D8E1EF"/>
<rect x="47.1409" y="36.0779" width="18.7077" height="3.93846" rx="1.96923" fill="#FD0000"/>
</svg>
