<svg width="80" height="80" viewBox="0 0 80 80" fill="none" xmlns="http://www.w3.org/2000/svg">
<path d="M62.5 15H12.5C8.35786 15 5 18.3579 5 22.5V52.5C5 56.6421 8.35786 60 12.5 60H62.5C66.6421 60 70 56.6421 70 52.5V22.5C70 18.3579 66.6421 15 62.5 15Z" fill="#D8E1EF"/>
<path d="M70 25H5V32.5H70V25Z" fill="#042365"/>
<path d="M25 50H17.5C16.837 50 16.2011 49.7366 15.7322 49.2678C15.2634 48.7989 15 48.163 15 47.5C15 46.837 15.2634 46.2011 15.7322 45.7322C16.2011 45.2634 16.837 45 17.5 45H25C25.663 45 26.2989 45.2634 26.7678 45.7322C27.2366 46.2011 27.5 46.837 27.5 47.5C27.5 48.163 27.2366 48.7989 26.7678 49.2678C26.2989 49.7366 25.663 50 25 50Z" fill="#FD0000"/>
<path d="M62.5003 65C62.1713 65.0019 61.8451 64.9388 61.5405 64.8144C61.2359 64.69 60.9589 64.5067 60.7253 64.275L55.7253 59.275C55.2545 58.8042 54.9901 58.1657 54.9901 57.5C54.9901 56.8342 55.2545 56.1957 55.7253 55.725C56.196 55.2542 56.8345 54.9897 57.5003 54.9897C58.166 54.9897 58.8045 55.2542 59.2753 55.725L62.5003 58.975L70.7253 50.725C71.196 50.2542 71.8345 49.9897 72.5003 49.9897C73.166 49.9897 73.8045 50.2542 74.2753 50.725C74.746 51.1957 75.0105 51.8342 75.0105 52.5C75.0105 53.1657 74.746 53.8042 74.2753 54.275L64.2753 64.275C64.0417 64.5067 63.7646 64.69 63.46 64.8144C63.1555 64.9388 62.8293 65.0019 62.5003 65Z" fill="#042365"/>
</svg>
