<svg width="513" height="477" viewBox="0 0 513 477" fill="none" xmlns="http://www.w3.org/2000/svg">
<path fill-rule="evenodd" clip-rule="evenodd" d="M130.116 145.288L129.927 145.624L205.845 199.993L205.884 199.855L205.756 199.457L130.116 145.288ZM184.71 134.028L163.327 136.098L183.959 131.691L184.71 134.028ZM174.95 103.685L150.655 108.875L153.738 103.408L86.7579 117.72L123.136 143.923L134.953 217.744L154.138 212.953L161.6 221.564L143.042 237.966L174.718 236.702L174.839 236.841L131.962 238.543L131.68 238.001L121.167 252.775L112.294 253.069L111.647 253.984L122.616 237.032L124.202 236.94C123.966 236.517 123.729 236.097 123.491 235.68L129.643 226.173L119.532 229.305C108.464 212.875 94.0201 202.393 75.3117 199.421L79.9202 215.624C64.5566 220.735 63.9862 224.378 62.6561 232.875C62.0639 236.658 61.3212 241.402 59.0555 247.666L86.5397 239.345L84.9157 233.188L86.6062 239.132L88.0876 239.045L86.365 239.579L100.293 271.53L103.12 267.162L141.795 257.248L153.572 278.952L175.189 237.245L189.726 254.02L205.835 200.158L205.335 200.167L205.83 200.043L205.81 200.112L206.269 200.121L217.44 210.585L217.604 211.058L205.855 200.171L181.439 281.903L217.621 282.459L224.627 285.302L174.359 365.379L221.411 370.434L221.107 370.919L279.051 377.143C285.237 389.741 295.565 401.245 307.141 413.129L307.384 414.823L302.531 427.527L334.765 412.624L334.755 412.786L366.372 452.647L353.861 403.795L371.415 395.679L343.535 363.478L340.244 350.628L341.187 348.745L339.331 347.061L338.7 344.597L338.596 346.394L323.013 332.263L414.072 286.422L374.934 285.402L350.151 197.319L337.936 216.778L337.928 216.774L337.93 216.773L337.923 216.771L337.906 216.763L337.908 216.759L337.903 216.762C325.946 210.938 313.435 206.037 300.483 201.872L320.098 202.237L287.512 162.862L295.155 163.077L296.4 166.85L299.291 163.194L301.551 163.258L300.96 161.084L336.358 116.324L284.643 101.123L276.999 73.0338L249.773 117.261L235.006 99.4176L232.794 107.049L214.86 71.7016L171.606 93.2868L174.95 103.685ZM297.179 345.269L300.635 367.789L297.389 345.164L297.179 345.269ZM337.373 356.361L338.104 354.902L337.979 357.061L337.373 356.361ZM296.022 283.675L296.138 283.37L296.138 283.37L296.022 283.675ZM337.928 216.79L296.147 283.348L296.145 283.351L296.184 283.248L296.171 283.248L337.876 216.81L337.928 216.79ZM236.171 285.231L236.274 282.746L241.617 282.828L236.171 285.231Z" fill="#042365"/>
<g style="mix-blend-mode:color-dodge">
<path fill-rule="evenodd" clip-rule="evenodd" d="M134.953 217.744L205.893 200.027L122.564 140.352L134.953 217.744Z" fill="#F6A980"/>
<path fill-rule="evenodd" clip-rule="evenodd" d="M181.439 281.903L295.956 283.663L205.855 200.171L181.439 281.903Z" fill="#E59E78"/>
<path fill-rule="evenodd" clip-rule="evenodd" d="M153.572 278.952L175.41 236.819L131.653 238.555L153.572 278.952Z" fill="#BB6A41"/>
<path fill-rule="evenodd" clip-rule="evenodd" d="M100.293 271.53L129.643 226.172L86.3655 239.579L100.293 271.53Z" fill="#E59E78"/>
<path fill-rule="evenodd" clip-rule="evenodd" d="M75.3116 199.421L86.6061 239.132L124.201 236.94C112.623 216.123 96.7732 202.831 75.3116 199.421Z" fill="#E67C49"/>
<path fill-rule="evenodd" clip-rule="evenodd" d="M59.0557 247.666L86.5399 239.345L80.2539 215.514C57.6301 222.967 66.4472 227.231 59.0557 247.666Z" fill="#C58766"/>
<path fill-rule="evenodd" clip-rule="evenodd" d="M102.141 267.412L164.907 251.323L112.294 253.069L102.141 267.412Z" fill="#C58766"/>
<path fill-rule="evenodd" clip-rule="evenodd" d="M120.811 253.275L139.181 252.41L131.68 238L120.811 253.275Z" fill="#E59E78"/>
<path fill-rule="evenodd" clip-rule="evenodd" d="M143.043 237.966L175.724 236.662L162.229 221.009L143.043 237.966Z" fill="#D9865B"/>
<path fill-rule="evenodd" clip-rule="evenodd" d="M235.979 289.908L238.462 229.682L191.396 271.818L235.979 289.908Z" fill="#AA5F3A"/>
<path fill-rule="evenodd" clip-rule="evenodd" d="M270.719 350.285L296.184 283.248L247.754 282.717L240.598 334.265L270.719 350.285Z" fill="#D9865B"/>
<path fill-rule="evenodd" clip-rule="evenodd" d="M263.645 245.15L337.947 216.783C309.288 202.816 277.443 194.16 243.973 188.213L263.645 245.15Z" fill="#AA5F3A"/>
<path fill-rule="evenodd" clip-rule="evenodd" d="M236.912 266.945L311.215 238.578C282.555 224.612 250.71 215.955 217.241 210.008L236.912 266.945Z" fill="#AA5F3A"/>
<path fill-rule="evenodd" clip-rule="evenodd" d="M295.906 283.67L337.909 216.759L268.051 258.487L295.906 283.67Z" fill="#AA5F3A"/>
<path fill-rule="evenodd" clip-rule="evenodd" d="M376.801 292.035L350.151 197.319L296.134 283.37L376.801 292.035Z" fill="#D9865B"/>
<path fill-rule="evenodd" clip-rule="evenodd" d="M301.773 379.584L275.124 284.868L221.106 370.919L301.773 379.584Z" fill="#D9865B"/>
<path fill-rule="evenodd" clip-rule="evenodd" d="M255.026 374.044L228.377 279.328L174.359 365.379L255.026 374.044Z" fill="#D9865B"/>
<path fill-rule="evenodd" clip-rule="evenodd" d="M336.358 116.324L273.641 97.889L296.401 166.849L336.358 116.324Z" fill="#E59E78"/>
<path fill-rule="evenodd" clip-rule="evenodd" d="M301.551 163.258L276.999 73.0339L222.823 161.041L301.551 163.258Z" fill="#B56C46"/>
<path fill-rule="evenodd" clip-rule="evenodd" d="M268.073 258.501L337.931 216.772L248.401 201.564L268.073 258.501Z" fill="#E59E78"/>
<path fill-rule="evenodd" clip-rule="evenodd" d="M189.726 254.02L205.836 200.159L143.919 201.16L189.726 254.02Z" fill="#C58766"/>
<path fill-rule="evenodd" clip-rule="evenodd" d="M206.097 199.701L195.976 132.937L122.769 140.026L206.097 199.701Z" fill="#E77D49"/>
<path fill-rule="evenodd" clip-rule="evenodd" d="M128.647 147.892L153.739 103.408L86.7581 117.719L128.647 147.892Z" fill="#494FA9"/>
<path fill-rule="evenodd" clip-rule="evenodd" d="M194.571 129.374L214.977 95.1333L147.994 109.443L194.571 129.374Z" fill="#AB64E6"/>
<path fill-rule="evenodd" clip-rule="evenodd" d="M150.242 109.014L129.837 143.253L196.816 128.944L150.242 109.014Z" fill="#B17AF8"/>
<path fill-rule="evenodd" clip-rule="evenodd" d="M206.028 199.895L268.274 258.204L248.615 200.641L206.028 199.895Z" fill="#F1B886"/>
<path fill-rule="evenodd" clip-rule="evenodd" d="M296.146 283.348L266.621 360.653L414.072 286.422L296.146 283.348Z" fill="#B66C46"/>
<path fill-rule="evenodd" clip-rule="evenodd" d="M332.06 350.224L302.531 427.527L371.415 395.679L332.06 350.224Z" fill="#4119A7"/>
<path fill-rule="evenodd" clip-rule="evenodd" d="M338.7 344.597L334.756 412.786L366.373 452.647L338.7 344.597Z" fill="#6643BB"/>
<path fill-rule="evenodd" clip-rule="evenodd" d="M291.428 303.62L307.542 415.92L341.188 348.744L291.428 303.62Z" fill="#C58766"/>
<path fill-rule="evenodd" clip-rule="evenodd" d="M273.106 355.463C274.422 377.602 289.59 395.153 307.678 413.679L297.117 344.866L273.106 355.463Z" fill="#AA5F3A"/>
<path fill-rule="evenodd" clip-rule="evenodd" d="M223.878 290.657C225.194 312.796 240.363 330.347 258.45 348.873L247.89 280.059L223.878 290.657Z" fill="#AA5F3A"/>
<path fill-rule="evenodd" clip-rule="evenodd" d="M205.81 200.112L320.099 202.237L235.007 99.4177L205.81 200.112Z" fill="#D9865B"/>
<path fill-rule="evenodd" clip-rule="evenodd" d="M205.926 199.983L233.377 108.199L214.86 71.7015L171.605 93.2867L205.926 199.983Z" fill="#E59E78"/>
</g>
</svg>
