<svg width="228" height="266" viewBox="0 0 228 266" fill="none" xmlns="http://www.w3.org/2000/svg">
<path fill-rule="evenodd" clip-rule="evenodd" d="M55.8402 17.784L64.007 54.8874L26.8689 29L44.0965 76.6019L31.9088 84.03L52.3114 118.012L44.6721 115.829L51.9335 137.823L0 137.368L19.7261 158.775L5.10535 210.658L61.8355 204.475L63.3618 206.131L64.5094 204.183L69.1423 203.678L66.6096 200.618L70.491 194.031L86.5146 242.564L96.6338 225.758C93.2714 238.958 90.768 252.175 89.3445 265.414L160.392 227.097L161.282 228.196L168.314 265.408L227.709 167.481L146.939 145.104L146.937 145.08L199.687 159.675L192.999 137.757L210.91 111.601L193.619 116.694L210.903 92.4226L183.274 61.7437C181.09 66.8665 179.652 72.0222 178.914 77.2089L141.843 44.7417L138.992 0L94.1886 46.106L55.8402 17.784ZM65.8662 63.3339L65.8059 63.06L65.5727 63.5128L65.8662 63.3339ZM145.241 145.031L145.401 144.765L145.535 144.868L156.48 202.787L145.241 145.031Z" fill="#042365"/>
<g style="mix-blend-mode:color-dodge">
<path fill-rule="evenodd" clip-rule="evenodd" d="M198.084 93.9987L145.362 144.662L139.123 42.3591L198.084 93.9987Z" fill="#F6A980"/>
<path fill-rule="evenodd" clip-rule="evenodd" d="M227.709 167.481L168.314 265.408L145.504 144.707L227.709 167.481Z" fill="#E59E78"/>
<path fill-rule="evenodd" clip-rule="evenodd" d="M182.952 62L210.58 92.679L188.736 123.355C177.26 102.481 174.429 81.9899 182.952 62Z" fill="#E67C49"/>
<path fill-rule="evenodd" clip-rule="evenodd" d="M210.91 111.601L192.431 138.587L186.349 118.836L210.91 111.601Z" fill="#D9865B"/>
<path fill-rule="evenodd" clip-rule="evenodd" d="M152.875 217.565L89.3447 265.414C92.7532 233.715 102.352 202.142 115.11 170.633L152.875 217.565Z" fill="#AA5F3A"/>
<path fill-rule="evenodd" clip-rule="evenodd" d="M5.10547 210.658L22.8366 147.738L69.1424 203.678L5.10547 210.658Z" fill="#E59E78"/>
<path fill-rule="evenodd" clip-rule="evenodd" d="M63.3618 206.131L0 137.368L103.342 138.273L63.3618 206.131Z" fill="#B56C46"/>
<path fill-rule="evenodd" clip-rule="evenodd" d="M160.828 227.414L88.3447 264.395L123.064 180.482L160.828 227.414Z" fill="#E59E78"/>
<path fill-rule="evenodd" clip-rule="evenodd" d="M199.687 159.676L145.504 144.683L179.271 92.7751L199.687 159.676Z" fill="#C58766"/>
<path fill-rule="evenodd" clip-rule="evenodd" d="M147 146L89 101.2L139.927 42L147 146Z" fill="#E77D49"/>
<path fill-rule="evenodd" clip-rule="evenodd" d="M138.286 78.6737L71.6507 89.6141L55.8402 17.784L138.286 78.6737Z" fill="#E77D49"/>
<path fill-rule="evenodd" clip-rule="evenodd" d="M142.276 51.5203L91.2598 49.1205L138.992 0L142.276 51.5203Z" fill="#494FA9"/>
<path fill-rule="evenodd" clip-rule="evenodd" d="M91.542 97.5095L51.6924 96.5876L99.4246 47.4644L91.542 97.5095Z" fill="#AB64E6"/>
<path fill-rule="evenodd" clip-rule="evenodd" d="M97.866 49.1396L137.713 50.0616L89.9834 99.1821L97.866 49.1396Z" fill="#B17AF8"/>
<path fill-rule="evenodd" clip-rule="evenodd" d="M68.4285 57.9691L50.1771 93.4023L26.8693 28.9999L68.4285 57.9691Z" fill="#B17AF8"/>
<path fill-rule="evenodd" clip-rule="evenodd" d="M145.178 144.707L161.469 228.427L123.168 181.172L145.178 144.707Z" fill="#F1B886"/>
<path fill-rule="evenodd" clip-rule="evenodd" d="M145.478 144.637L86.5145 242.564L44.6719 115.829L145.478 144.637Z" fill="#D9865B"/>
<path fill-rule="evenodd" clip-rule="evenodd" d="M145.308 144.667L52.9755 119.118L31.9092 84.03L73.1877 58.8718L145.308 144.667Z" fill="#E59E78"/>
</g>
</svg>
