<svg width="649" height="666" viewBox="0 0 649 666" fill="none" xmlns="http://www.w3.org/2000/svg">
<path fill-rule="evenodd" clip-rule="evenodd" d="M293.433 486.436L293.818 486.466L311.009 394.683L310.867 394.705L310.561 394.99L293.433 486.436ZM260.156 441.716L271.069 460.22L258.356 443.384L260.156 441.716ZM236.78 463.385L251.752 483.21L245.495 482.726L286.772 537.383L295.146 493.339L357.057 451.431L344.607 436.069L349.258 425.666L371.965 435.553L357.433 407.379L357.508 407.211L377.171 445.352L376.799 445.837L394.631 449.121L398.648 457.038L399.751 457.238L379.752 454.461L378.998 453.063C378.714 453.454 378.434 453.847 378.157 454.239L366.94 452.682L374.052 460.522C363.839 477.496 360.443 495.016 365.656 513.228L378.393 502.204C389.518 513.968 393.062 512.945 401.324 510.56C405.003 509.498 409.616 508.166 416.251 507.572L397.094 486.18L392.201 490.253L396.873 486.209L396.169 484.903L397.38 486.239L420.452 460.113L415.298 459.397L389.968 428.535L404.661 408.689L357.726 406.723L366.786 386.459L311.163 394.622L311.382 395.072L311.06 394.675L311.131 394.664L310.945 394.245L315.708 379.697L316.067 379.35L311.166 394.598L395.559 382.186L380.772 349.159L380.387 341.608L474.206 353.324L458.902 308.544L459.47 308.615L440.623 253.469C449.427 242.539 455.488 228.316 461.366 212.803L462.798 211.867L476.363 210.896L449.234 187.98L449.385 187.92L472.149 142.42L433.162 174.405L418.387 161.925L400.986 200.801L390.731 209.215L388.625 209.156L387.884 211.55L385.918 213.164L387.59 212.498L381.369 232.592L301.339 169.439L316.955 205.341L247.598 265.027L270.397 267.874L270.397 267.883L270.395 267.882L270.396 267.889L270.396 267.908L270.391 267.907L270.396 267.911C270.171 281.209 271.017 294.619 272.716 308.118L264.757 290.186L242.843 336.359L239.808 329.341L242.7 326.619L238.165 325.544L237.268 323.469L235.548 324.923L180.022 311.758L188.101 365.052L165.874 383.851L217.463 389.834L207.532 410.759L215.384 409.539L190.927 440.731L228.77 470.81L236.78 463.385ZM404.074 250.51L423.024 237.86L403.89 250.365L404.074 250.51ZM397.14 209.394L395.509 209.349L397.518 208.55L397.14 209.394ZM348.74 277.589L348.414 277.613L348.415 277.613L348.74 277.589ZM270.411 267.876L348.391 277.614L348.394 277.615L348.284 277.623L348.29 277.635L270.451 267.915L270.411 267.876ZM375.444 331.175L373.148 332.132L370.965 327.255L375.444 331.175Z" fill="#042365"/>
<g style="mix-blend-mode:color-dodge">
<path fill-rule="evenodd" clip-rule="evenodd" d="M357.058 451.431L311.021 394.625L292.152 495.366L357.058 451.431Z" fill="#F6A980"/>
<path fill-rule="evenodd" clip-rule="evenodd" d="M395.56 382.186L348.758 277.654L311.167 394.598L395.56 382.186Z" fill="#E59E78"/>
<path fill-rule="evenodd" clip-rule="evenodd" d="M404.662 408.689L357.248 406.703L377.314 445.627L404.662 408.689Z" fill="#BB6A41"/>
<path fill-rule="evenodd" clip-rule="evenodd" d="M420.453 460.113L366.941 452.682L397.381 486.239L420.453 460.113Z" fill="#E59E78"/>
<path fill-rule="evenodd" clip-rule="evenodd" d="M365.657 513.228L396.874 486.209L378.999 453.062C365.025 472.353 359.677 492.336 365.657 513.228Z" fill="#E67C49"/>
<path fill-rule="evenodd" clip-rule="evenodd" d="M416.252 507.572L397.095 486.179L378.153 501.948C394.47 519.302 394.608 509.509 416.252 507.572Z" fill="#C58766"/>
<path fill-rule="evenodd" clip-rule="evenodd" d="M415.94 460.178L374.832 410.092L398.649 457.038L415.94 460.178Z" fill="#C58766"/>
<path fill-rule="evenodd" clip-rule="evenodd" d="M395.236 449.232L386.689 432.949L376.799 445.837L395.236 449.232Z" fill="#E59E78"/>
<path fill-rule="evenodd" clip-rule="evenodd" d="M371.966 435.553L356.973 406.486L348.49 425.331L371.966 435.553Z" fill="#D9865B"/>
<path fill-rule="evenodd" clip-rule="evenodd" d="M379.766 329.373L324.133 352.575L382.212 377.423L379.766 329.373Z" fill="#AA5F3A"/>
<path fill-rule="evenodd" clip-rule="evenodd" d="M419.804 272.372L348.285 277.623L368.271 321.74L418.014 306.44L419.804 272.372Z" fill="#D9865B"/>
<path fill-rule="evenodd" clip-rule="evenodd" d="M327.508 323.215L270.397 267.863C269.851 299.739 275.464 332.259 284.219 365.106L327.508 323.215Z" fill="#AA5F3A"/>
<path fill-rule="evenodd" clip-rule="evenodd" d="M358.559 338.231L301.448 282.878C300.902 314.755 306.515 347.275 315.27 380.122L358.559 338.231Z" fill="#AA5F3A"/>
<path fill-rule="evenodd" clip-rule="evenodd" d="M348.785 277.697L270.392 267.908L337.734 313.585L348.785 277.697Z" fill="#AA5F3A"/>
<path fill-rule="evenodd" clip-rule="evenodd" d="M322.179 200.846L247.6 265.027L348.417 277.617L322.179 200.846Z" fill="#D9865B"/>
<path fill-rule="evenodd" clip-rule="evenodd" d="M433.233 231.844L358.653 296.025L459.471 308.615L433.233 231.844Z" fill="#D9865B"/>
<path fill-rule="evenodd" clip-rule="evenodd" d="M447.969 276.552L373.39 340.733L474.207 353.323L447.969 276.552Z" fill="#D9865B"/>
<path fill-rule="evenodd" clip-rule="evenodd" d="M180.022 311.758L189.82 376.39L242.701 326.619L180.022 311.758Z" fill="#E59E78"/>
<path fill-rule="evenodd" clip-rule="evenodd" d="M237.269 323.469L165.875 383.85L268.532 395.757L237.269 323.469Z" fill="#B56C46"/>
<path fill-rule="evenodd" clip-rule="evenodd" d="M337.738 313.559L270.395 267.882L294.449 355.45L337.738 313.559Z" fill="#E59E78"/>
<path fill-rule="evenodd" clip-rule="evenodd" d="M366.787 386.459L311.164 394.622L338.239 450.314L366.787 386.459Z" fill="#C58766"/>
<path fill-rule="evenodd" clip-rule="evenodd" d="M310.638 394.577L254.407 431.966L291.77 495.319L310.638 394.577Z" fill="#E77D49"/>
<path fill-rule="evenodd" clip-rule="evenodd" d="M296.415 486.667L245.495 482.726L286.773 537.383L296.415 486.667Z" fill="#494FA9"/>
<path fill-rule="evenodd" clip-rule="evenodd" d="M251.771 434.745L212.115 430.722L253.392 485.381L251.771 434.745Z" fill="#AB64E6"/>
<path fill-rule="evenodd" clip-rule="evenodd" d="M252.053 483.526L291.707 487.548L250.433 432.892L252.053 483.526Z" fill="#B17AF8"/>
<path fill-rule="evenodd" clip-rule="evenodd" d="M310.843 394.558L337.383 313.502L293.522 355.646L310.843 394.558Z" fill="#F1B886"/>
<path fill-rule="evenodd" clip-rule="evenodd" d="M348.392 277.614L430.932 271.703L301.34 169.439L348.392 277.614Z" fill="#B66C46"/>
<path fill-rule="evenodd" clip-rule="evenodd" d="M393.824 216.804L476.364 210.896L418.388 161.925L393.824 216.804Z" fill="#4119A7"/>
<path fill-rule="evenodd" clip-rule="evenodd" d="M385.918 213.164L449.385 187.92L472.149 142.42L385.918 213.164Z" fill="#6643BB"/>
<path fill-rule="evenodd" clip-rule="evenodd" d="M368.759 273.324L463.727 211.26L388.626 209.156L368.759 273.324Z" fill="#C58766"/>
<path fill-rule="evenodd" clip-rule="evenodd" d="M423.488 268.02C442.997 257.47 452.493 236.306 461.639 212.083L403.736 250.737L423.488 268.02Z" fill="#AA5F3A"/>
<path fill-rule="evenodd" clip-rule="evenodd" d="M385.557 340.023C405.066 329.474 414.563 308.309 423.709 284.087L365.805 322.74L385.557 340.023Z" fill="#AA5F3A"/>
<path fill-rule="evenodd" clip-rule="evenodd" d="M311.132 394.664L264.758 290.186L207.533 410.759L311.132 394.664Z" fill="#D9865B"/>
<path fill-rule="evenodd" clip-rule="evenodd" d="M310.967 394.614L216.18 408.524L190.928 440.731L228.771 470.81L310.967 394.614Z" fill="#E59E78"/>
</g>
</svg>
