<svg width="517" height="845" viewBox="0 0 517 845" fill="none" xmlns="http://www.w3.org/2000/svg">
<path fill-rule="evenodd" clip-rule="evenodd" d="M205.886 199.855L205.847 199.993L129.929 145.624L130.118 145.288L205.758 199.457L205.886 199.855ZM214.862 71.7014L232.796 107.049L235.008 99.4177L249.775 117.261L277.001 73.034L284.645 101.123L336.36 116.324L300.962 161.084L301.553 163.258L299.293 163.194L296.402 166.849L295.157 163.078L287.514 162.862L320.1 202.237L300.486 201.872C313.438 206.037 325.948 210.938 337.905 216.761L337.91 216.758L337.908 216.763L337.925 216.771L337.932 216.772L337.93 216.774L337.938 216.777L350.153 197.319L374.936 285.402L414.074 286.421L323.015 332.263L338.598 346.394L338.701 344.597L339.332 347.061L341.189 348.744L340.246 350.628L343.537 363.479L371.417 395.678L353.863 403.795L366.374 452.647L334.757 412.786L334.766 412.624L302.533 427.527L307.386 414.822L307.143 413.129C295.566 401.245 285.239 389.741 279.053 377.143L221.108 370.919L221.413 370.434L174.361 365.379L224.629 285.302L217.624 282.459L181.441 281.903L205.857 200.171L217.606 211.058L217.442 210.586L206.271 200.121L205.812 200.112L205.832 200.043L205.335 200.167L205.837 200.159L189.727 254.02L175.191 237.245L153.573 278.952L141.797 257.248L103.121 267.162L100.295 271.53L98.4687 267.341C86.931 269.473 67.714 258.12 54.4521 245.557L60.1458 244.412C61.587 239.716 62.173 235.973 62.658 232.875C63.9881 224.378 64.5585 220.734 79.922 215.624L75.3135 199.421C94.0218 202.393 108.466 212.875 119.533 229.305L129.645 226.172L123.492 235.68C123.731 236.097 123.968 236.517 124.203 236.94L122.617 237.033L111.649 253.983L112.296 253.069L121.169 252.774L131.682 238L131.964 238.543L174.841 236.841L174.72 236.702L143.044 237.966L161.602 221.564L154.139 212.952L134.955 217.744L123.138 143.922L86.7597 117.719L153.74 103.408L150.657 108.875L174.952 103.684L171.607 93.2866L214.862 71.7014ZM183.96 131.691L163.327 136.099L184.712 134.028L183.96 131.691ZM407.764 492.079L405.682 492.665L407.3 492.88L407.764 492.079ZM395.746 495.46L397.869 494.06L398.856 491.756L400.944 492.034L412.02 484.734L433.374 447.881L446.769 461.831L488.875 434.08L461.497 476.963L461.34 477.007L485.936 502.623L472.344 502.176L470.822 502.958C463.36 517.775 455.851 531.289 445.957 541.242L458.959 598.052L458.401 597.922L468.959 644.052L376.87 622.63L376.466 630.179L387.734 664.567L302.507 668.124L308.97 653.469L308.577 653.777L302.325 667.75L302.466 668.186L302.394 668.19L302.673 668.619L302.502 668.148L358.673 665.821L347.552 685.032L394.027 691.875L377.347 710.082L399.326 743.414L404.377 744.663L401.012 747.754C406.788 757.967 402.319 779.835 394.764 796.468L391.826 791.458C386.917 791.626 383.187 792.292 380.1 792.844C371.634 794.356 368.003 795.004 358.164 782.145L344.348 791.783C341.06 773.128 346.262 756.056 358.187 740.238L351.93 731.7L362.924 734.417C363.064 734.257 363.204 734.097 363.346 733.937L363.445 733.825L363.523 733.737L363.592 733.66L363.7 733.539L363.776 733.454L363.883 733.334L364.487 734.804L384.088 739.648L383.012 739.334L379.842 731.042L362.448 725.919L362.869 725.475L347.285 685.494L347.192 685.654L358.711 715.188L337.157 702.99L331.448 712.852L342.23 729.427L276.293 764.66L263.378 807.592L228.016 748.935L234.189 750.068L221.363 728.791L212.624 735.342L178.119 701.486L205.69 673.01L197.755 673.405L209.81 653.629L159.124 642.305L183.188 625.924L180.703 572.078L234.556 590.954L236.418 589.686L237.095 591.844L241.493 593.385L238.333 595.791L240.62 603.087L267.224 559.447L273.272 578.109C272.988 564.507 273.543 551.082 275.151 537.88L275.147 537.876L275.152 537.878L275.154 537.858L275.153 537.851L275.155 537.853L275.156 537.844L252.778 532.638L327.973 480.499L316.18 443.166L389.199 514.31L397.479 494.972L395.746 495.46ZM255.797 729.216L244.904 711.146L246.868 709.674L255.797 729.216ZM275.308 757.616L301.865 668.451L302.199 668.2L302.342 668.193L275.688 757.686L275.308 757.616ZM409.915 534.494L430.084 523.883L409.747 534.33L409.915 534.494ZM351.736 555.653L351.736 555.654L352.086 555.665L351.736 555.653ZM370.658 612.452L368.994 607.375L373.041 611.739L370.658 612.452ZM275.169 537.847L275.205 537.89L351.609 555.663L351.605 555.65L351.716 555.653L351.712 555.653L275.169 537.847ZM378.174 768.187L378.234 768.288L373.148 771.693L378.174 768.187ZM377.645 766.791L378.197 768.133L378.384 767.799L377.645 766.791ZM241.618 282.828L236.276 282.746L236.173 285.231L241.618 282.828ZM297.39 345.164L300.638 367.795L297.181 345.269L297.39 345.164ZM337.375 356.361L337.981 357.061L338.105 354.902L337.375 356.361ZM296.014 283.7L296.14 283.37L296.14 283.37L296.014 283.7ZM337.931 216.789L296.149 283.348L296.147 283.352L296.186 283.248L296.172 283.247L337.878 216.809L337.931 216.789ZM86.4807 239.114L86.5963 239.091L84.9194 233.195L86.4807 239.114ZM86.6393 239.13L88.0879 239.046L86.8944 239.415L86.6393 239.13Z" fill="#042365"/>
<g style="mix-blend-mode:overlay">
<path fill-rule="evenodd" clip-rule="evenodd" d="M342.23 729.427L302.359 668.136L273.103 766.365L342.23 729.427Z" fill="#F6A980"/>
<path fill-rule="evenodd" clip-rule="evenodd" d="M387.734 664.567L352.071 555.73L302.507 668.125L387.734 664.567Z" fill="#E59E78"/>
<path fill-rule="evenodd" clip-rule="evenodd" d="M394.027 691.874L347.076 684.962L362.981 725.764L394.027 691.874Z" fill="#BB6A41"/>
<path fill-rule="evenodd" clip-rule="evenodd" d="M404.376 744.663L351.929 731.7L378.71 768.244L404.376 744.663Z" fill="#E59E78"/>
<path fill-rule="evenodd" clip-rule="evenodd" d="M392.706 742.146L378.17 768.181L394.764 796.468C404.614 774.78 409.218 744.192 392.706 742.146Z" fill="#F6A980"/>
<path fill-rule="evenodd" clip-rule="evenodd" d="M344.348 791.783L378.208 768.162L363.882 733.334C347.976 751.065 340.576 770.382 344.348 791.783Z" fill="#E67C49"/>
<path fill-rule="evenodd" clip-rule="evenodd" d="M395.256 791.427L378.431 768.156L357.95 781.866C372.371 800.825 373.528 791.099 395.256 791.427Z" fill="#C58766"/>
<path fill-rule="evenodd" clip-rule="evenodd" d="M399.881 744.258L364.212 690.164L383.011 739.334L399.881 744.258Z" fill="#C58766"/>
<path fill-rule="evenodd" clip-rule="evenodd" d="M380.43 731.215L373.624 714.131L362.447 725.918L380.43 731.215Z" fill="#E59E78"/>
<path fill-rule="evenodd" clip-rule="evenodd" d="M358.711 715.188L346.826 684.717L336.427 702.577L358.711 715.188Z" fill="#D9865B"/>
<path fill-rule="evenodd" clip-rule="evenodd" d="M377.524 610.397L319.778 627.68L374.953 658.441L377.524 610.397Z" fill="#AA5F3A"/>
<path fill-rule="evenodd" clip-rule="evenodd" d="M423.281 557.875L351.604 555.65L366.887 601.608L417.953 591.572L423.281 557.875Z" fill="#D9865B"/>
<path fill-rule="evenodd" clip-rule="evenodd" d="M326.193 598.831L275.156 537.832C271.294 569.479 273.49 602.406 278.777 635.986L326.193 598.831Z" fill="#AA5F3A"/>
<path fill-rule="evenodd" clip-rule="evenodd" d="M355.511 616.998L304.475 556C300.613 587.646 302.808 620.574 308.096 654.154L355.511 616.998Z" fill="#AA5F3A"/>
<path fill-rule="evenodd" clip-rule="evenodd" d="M352.094 555.776L275.146 537.876L337.366 590.318L352.094 555.776Z" fill="#AA5F3A"/>
<path fill-rule="evenodd" clip-rule="evenodd" d="M333.635 476.572L252.777 532.638L351.736 555.658L333.635 476.572Z" fill="#D9865B"/>
<path fill-rule="evenodd" clip-rule="evenodd" d="M440.857 518.965L360 575.032L458.959 598.052L440.857 518.965Z" fill="#D9865B"/>
<path fill-rule="evenodd" clip-rule="evenodd" d="M450.857 564.965L370 621.032L468.959 644.052L450.857 564.965Z" fill="#D9865B"/>
<path fill-rule="evenodd" clip-rule="evenodd" d="M180.702 572.078L183.716 637.379L241.492 593.385L180.702 572.078Z" fill="#E59E78"/>
<path fill-rule="evenodd" clip-rule="evenodd" d="M236.418 589.686L159.124 642.305L259.983 664.838L236.418 589.686Z" fill="#B56C46"/>
<path fill-rule="evenodd" clip-rule="evenodd" d="M337.372 590.293L275.152 537.851L289.956 627.448L337.372 590.293Z" fill="#E59E78"/>
<path fill-rule="evenodd" clip-rule="evenodd" d="M358.672 665.821L302.501 668.147L323.63 726.356L358.672 665.821Z" fill="#C58766"/>
<path fill-rule="evenodd" clip-rule="evenodd" d="M301.983 668.049L242.164 699.379L272.727 766.278L301.983 668.049Z" fill="#E77D49"/>
<path fill-rule="evenodd" clip-rule="evenodd" d="M278.248 758.156L228.015 748.935L263.377 807.592L278.248 758.156Z" fill="#494FA9"/>
<path fill-rule="evenodd" clip-rule="evenodd" d="M239.254 701.868L200.231 693.737L235.592 752.398L239.254 701.868Z" fill="#AB64E6"/>
<path fill-rule="evenodd" clip-rule="evenodd" d="M234.455 750.413L273.474 758.543L238.116 699.886L234.455 750.413Z" fill="#B17AF8"/>
<path fill-rule="evenodd" clip-rule="evenodd" d="M302.19 668.051L337.026 590.199L289.014 627.547L302.19 668.051Z" fill="#F1B886"/>
<path fill-rule="evenodd" clip-rule="evenodd" d="M351.711 555.653L434.418 558.369L316.179 443.166L351.711 555.653Z" fill="#B66C46"/>
<path fill-rule="evenodd" clip-rule="evenodd" d="M403.229 499.904L485.936 502.623L433.374 447.881L403.229 499.904Z" fill="#4119A7"/>
<path fill-rule="evenodd" clip-rule="evenodd" d="M395.745 495.46L461.496 476.963L488.874 434.08L395.745 495.46Z" fill="#6643BB"/>
<path fill-rule="evenodd" clip-rule="evenodd" d="M372.414 553.507L473.329 501.669L398.856 491.756L372.414 553.507Z" fill="#C58766"/>
<path fill-rule="evenodd" clip-rule="evenodd" d="M427.398 553.93C447.899 545.469 459.548 525.409 471.166 502.271L409.553 534.684L427.398 553.93Z" fill="#AA5F3A"/>
<path fill-rule="evenodd" clip-rule="evenodd" d="M382.176 621.592C402.677 613.132 414.326 593.071 425.945 569.933L364.331 602.346L382.176 621.592Z" fill="#AA5F3A"/>
<path fill-rule="evenodd" clip-rule="evenodd" d="M302.466 668.186L267.223 559.447L197.754 673.405L302.466 668.186Z" fill="#D9865B"/>
<path fill-rule="evenodd" clip-rule="evenodd" d="M302.306 668.119L206.587 672.083L178.118 701.486L212.623 735.342L302.306 668.119Z" fill="#E59E78"/>
</g>
<g style="mix-blend-mode:color-dodge">
<path fill-rule="evenodd" clip-rule="evenodd" d="M134.954 217.743L205.894 200.027L122.565 140.351L134.954 217.743Z" fill="#F6A980"/>
<path fill-rule="evenodd" clip-rule="evenodd" d="M181.44 281.903L295.957 283.663L205.856 200.171L181.44 281.903Z" fill="#E59E78"/>
<path fill-rule="evenodd" clip-rule="evenodd" d="M153.573 278.952L175.411 236.819L131.654 238.555L153.573 278.952Z" fill="#BB6A41"/>
<path fill-rule="evenodd" clip-rule="evenodd" d="M100.294 271.53L129.644 226.172L86.3665 239.579L100.294 271.53Z" fill="#E59E78"/>
<path fill-rule="evenodd" clip-rule="evenodd" d="M106.477 261.317L86.6024 239.089L54.4517 245.557C71.744 261.938 99.1612 276.261 106.477 261.317Z" fill="#F6A980"/>
<path fill-rule="evenodd" clip-rule="evenodd" d="M75.3125 199.421L86.607 239.132L124.202 236.94C112.624 216.123 96.7742 202.831 75.3125 199.421Z" fill="#E67C49"/>
<path fill-rule="evenodd" clip-rule="evenodd" d="M59.0567 247.666L86.5409 239.345L80.2549 215.514C57.6311 222.967 66.4482 227.231 59.0567 247.666Z" fill="#C58766"/>
<path fill-rule="evenodd" clip-rule="evenodd" d="M102.142 267.412L164.908 251.323L112.295 253.069L102.142 267.412Z" fill="#C58766"/>
<path fill-rule="evenodd" clip-rule="evenodd" d="M120.812 253.275L139.182 252.41L131.681 238L120.812 253.275Z" fill="#E59E78"/>
<path fill-rule="evenodd" clip-rule="evenodd" d="M143.044 237.965L175.725 236.662L162.23 221.009L143.044 237.965Z" fill="#D9865B"/>
<path fill-rule="evenodd" clip-rule="evenodd" d="M235.98 289.908L238.463 229.682L191.397 271.818L235.98 289.908Z" fill="#AA5F3A"/>
<path fill-rule="evenodd" clip-rule="evenodd" d="M270.719 350.285L296.185 283.248L247.755 282.717L240.599 334.265L270.719 350.285Z" fill="#D9865B"/>
<path fill-rule="evenodd" clip-rule="evenodd" d="M263.646 245.15L337.948 216.782C309.289 202.816 277.444 194.159 243.974 188.213L263.646 245.15Z" fill="#AA5F3A"/>
<path fill-rule="evenodd" clip-rule="evenodd" d="M236.913 266.945L311.216 238.578C282.556 224.612 250.711 215.955 217.242 210.008L236.913 266.945Z" fill="#AA5F3A"/>
<path fill-rule="evenodd" clip-rule="evenodd" d="M295.907 283.67L337.91 216.758L268.052 258.487L295.907 283.67Z" fill="#AA5F3A"/>
<path fill-rule="evenodd" clip-rule="evenodd" d="M376.802 292.035L350.152 197.319L296.135 283.37L376.802 292.035Z" fill="#D9865B"/>
<path fill-rule="evenodd" clip-rule="evenodd" d="M301.774 379.584L275.125 284.868L221.107 370.919L301.774 379.584Z" fill="#D9865B"/>
<path fill-rule="evenodd" clip-rule="evenodd" d="M255.027 374.044L228.378 279.328L174.36 365.379L255.027 374.044Z" fill="#D9865B"/>
<path fill-rule="evenodd" clip-rule="evenodd" d="M336.359 116.324L273.642 97.889L296.402 166.849L336.359 116.324Z" fill="#E59E78"/>
<path fill-rule="evenodd" clip-rule="evenodd" d="M301.552 163.258L277 73.0339L222.824 161.041L301.552 163.258Z" fill="#B56C46"/>
<path fill-rule="evenodd" clip-rule="evenodd" d="M268.074 258.501L337.932 216.772L248.402 201.564L268.074 258.501Z" fill="#E59E78"/>
<path fill-rule="evenodd" clip-rule="evenodd" d="M189.727 254.02L205.837 200.159L143.92 201.16L189.727 254.02Z" fill="#C58766"/>
<path fill-rule="evenodd" clip-rule="evenodd" d="M206.098 199.701L195.977 132.937L122.77 140.026L206.098 199.701Z" fill="#E77D49"/>
<path fill-rule="evenodd" clip-rule="evenodd" d="M128.648 147.892L153.739 103.408L86.7591 117.719L128.648 147.892Z" fill="#494FA9"/>
<path fill-rule="evenodd" clip-rule="evenodd" d="M194.572 129.374L214.978 95.1333L147.995 109.443L194.572 129.374Z" fill="#AB64E6"/>
<path fill-rule="evenodd" clip-rule="evenodd" d="M150.243 109.014L129.838 143.252L196.817 128.944L150.243 109.014Z" fill="#B17AF8"/>
<path fill-rule="evenodd" clip-rule="evenodd" d="M206.029 199.895L268.275 258.204L248.616 200.641L206.029 199.895Z" fill="#F1B886"/>
<path fill-rule="evenodd" clip-rule="evenodd" d="M296.147 283.348L266.622 360.653L414.073 286.421L296.147 283.348Z" fill="#B66C46"/>
<path fill-rule="evenodd" clip-rule="evenodd" d="M332.061 350.224L302.532 427.527L371.416 395.678L332.061 350.224Z" fill="#4119A7"/>
<path fill-rule="evenodd" clip-rule="evenodd" d="M338.701 344.597L334.757 412.786L366.374 452.646L338.701 344.597Z" fill="#6643BB"/>
<path fill-rule="evenodd" clip-rule="evenodd" d="M291.429 303.62L307.542 415.92L341.189 348.744L291.429 303.62Z" fill="#C58766"/>
<path fill-rule="evenodd" clip-rule="evenodd" d="M273.107 355.463C274.423 377.602 289.591 395.153 307.679 413.679L297.118 344.866L273.107 355.463Z" fill="#AA5F3A"/>
<path fill-rule="evenodd" clip-rule="evenodd" d="M223.879 290.656C225.195 312.796 240.364 330.347 258.451 348.873L247.891 280.059L223.879 290.656Z" fill="#AA5F3A"/>
<path fill-rule="evenodd" clip-rule="evenodd" d="M205.811 200.112L320.1 202.237L235.008 99.4177L205.811 200.112Z" fill="#D9865B"/>
<path fill-rule="evenodd" clip-rule="evenodd" d="M205.926 199.983L233.378 108.199L214.861 71.7013L171.606 93.2866L205.926 199.983Z" fill="#E59E78"/>
</g>
</svg>
