<svg width="368" height="383" viewBox="0 0 368 383" fill="none" xmlns="http://www.w3.org/2000/svg">
<path fill-rule="evenodd" clip-rule="evenodd" d="M258.763 120.079L256.682 120.665L258.299 120.88L258.763 120.079ZM246.745 123.46L248.869 122.06L249.856 119.756L251.944 120.034L263.02 112.734L284.374 75.8813L297.769 89.8313L339.875 62.0801L312.496 104.963L312.34 105.007L336.936 130.623L323.343 130.176L321.821 130.958C314.36 145.775 306.85 159.289 296.957 169.242L309.959 226.052L309.401 225.922L319.959 272.052L227.87 250.63L227.466 258.179L238.734 292.567L153.507 296.124L159.97 281.469L159.577 281.777L153.324 295.749L153.466 296.186L48.7543 301.405L60.81 281.629L10.124 270.305L34.1875 253.924L31.7021 200.078L85.5559 218.954L87.4179 217.686L88.0944 219.844L92.4924 221.385L89.3323 223.791L91.6201 231.087L118.223 187.447L124.272 206.109C123.988 192.507 124.542 179.082 126.151 165.88L126.146 165.876L126.151 165.877L126.154 165.858L126.152 165.851L126.154 165.852L126.155 165.844L103.778 160.638L178.972 108.499L167.18 71.1655L240.198 142.31L248.478 122.972L246.745 123.46ZM260.915 162.494L281.082 151.884L260.746 162.33L260.915 162.494ZM202.735 183.653L202.735 183.654L203.085 183.665L202.735 183.653ZM221.657 240.452L219.994 235.374L224.04 239.739L221.657 240.452ZM126.169 165.847L126.205 165.89L202.609 183.663L202.604 183.65L202.715 183.653L202.712 183.653L126.169 165.847ZM198.552 313.032L245.027 319.874L224.629 342.141L231.431 359.215L213.448 353.918L213.868 353.475L198.284 313.494L198.192 313.654L209.711 343.188L188.157 330.989L174.63 354.356L153.502 296.147L209.673 293.821L198.552 313.032Z" fill="#C31C1C"/>
<g style="mix-blend-mode:overlay">
<path fill-rule="evenodd" clip-rule="evenodd" d="M238.734 292.567L203.071 183.73L153.507 296.125L238.734 292.567Z" fill="#E59E78"/>
<path fill-rule="evenodd" clip-rule="evenodd" d="M245.027 319.875L198.076 312.962L213.981 353.764L245.027 319.875Z" fill="#BB6A41"/>
<path fill-rule="evenodd" clip-rule="evenodd" d="M231.431 359.215L224.625 342.131L213.448 353.919L231.431 359.215Z" fill="#E59E78"/>
<path fill-rule="evenodd" clip-rule="evenodd" d="M209.711 343.188L197.826 312.717L187.427 330.577L209.711 343.188Z" fill="#D9865B"/>
<path fill-rule="evenodd" clip-rule="evenodd" d="M228.524 238.397L170.778 255.68L225.953 286.441L228.524 238.397Z" fill="#AA5F3A"/>
<path fill-rule="evenodd" clip-rule="evenodd" d="M274.282 185.875L202.605 183.65L217.888 229.608L268.954 219.572L274.282 185.875Z" fill="#D9865B"/>
<path fill-rule="evenodd" clip-rule="evenodd" d="M177.193 226.831L126.156 165.832C122.294 197.479 124.49 230.406 129.777 263.986L177.193 226.831Z" fill="#AA5F3A"/>
<path fill-rule="evenodd" clip-rule="evenodd" d="M206.511 244.998L155.475 184C151.613 215.646 153.808 248.574 159.096 282.154L206.511 244.998Z" fill="#AA5F3A"/>
<path fill-rule="evenodd" clip-rule="evenodd" d="M203.094 183.776L126.146 165.877L188.366 218.318L203.094 183.776Z" fill="#AA5F3A"/>
<path fill-rule="evenodd" clip-rule="evenodd" d="M184.635 104.572L103.777 160.638L202.736 183.658L184.635 104.572Z" fill="#D9865B"/>
<path fill-rule="evenodd" clip-rule="evenodd" d="M291.857 146.965L211 203.032L309.959 226.052L291.857 146.965Z" fill="#D9865B"/>
<path fill-rule="evenodd" clip-rule="evenodd" d="M301.857 192.965L221 249.032L319.959 272.052L301.857 192.965Z" fill="#D9865B"/>
<path fill-rule="evenodd" clip-rule="evenodd" d="M31.7021 200.078L34.7163 265.379L92.4924 221.385L31.7021 200.078Z" fill="#E59E78"/>
<path fill-rule="evenodd" clip-rule="evenodd" d="M87.4179 217.686L10.124 270.305L110.983 292.838L87.4179 217.686Z" fill="#B56C46"/>
<path fill-rule="evenodd" clip-rule="evenodd" d="M188.372 218.293L126.152 165.851L140.956 255.448L188.372 218.293Z" fill="#E59E78"/>
<path fill-rule="evenodd" clip-rule="evenodd" d="M209.673 293.821L153.502 296.147L174.631 354.356L209.673 293.821Z" fill="#C58766"/>
<path fill-rule="evenodd" clip-rule="evenodd" d="M153.19 296.051L188.026 218.199L140.014 255.547L153.19 296.051Z" fill="#F1B886"/>
<path fill-rule="evenodd" clip-rule="evenodd" d="M202.712 183.653L285.419 186.369L167.18 71.1655L202.712 183.653Z" fill="#B66C46"/>
<path fill-rule="evenodd" clip-rule="evenodd" d="M254.229 127.904L336.936 130.623L284.374 75.8815L254.229 127.904Z" fill="#4119A7"/>
<path fill-rule="evenodd" clip-rule="evenodd" d="M246.745 123.46L312.496 104.963L339.874 62.0801L246.745 123.46Z" fill="#6643BB"/>
<path fill-rule="evenodd" clip-rule="evenodd" d="M223.414 181.507L324.329 129.669L249.856 119.756L223.414 181.507Z" fill="#C58766"/>
<path fill-rule="evenodd" clip-rule="evenodd" d="M278.398 181.93C298.899 173.469 310.548 153.409 322.166 130.271L260.553 162.684L278.398 181.93Z" fill="#AA5F3A"/>
<path fill-rule="evenodd" clip-rule="evenodd" d="M233.176 249.592C253.677 241.132 265.326 221.071 276.945 197.933L215.331 230.346L233.176 249.592Z" fill="#AA5F3A"/>
<path fill-rule="evenodd" clip-rule="evenodd" d="M153.466 296.186L118.223 187.447L48.7539 301.405L153.466 296.186Z" fill="#D9865B"/>
</g>
</svg>
