<svg width="80" height="80" viewBox="0 0 80 80" fill="none" xmlns="http://www.w3.org/2000/svg">
<path d="M69.7538 7.83071L73.1692 11.2461L31.3999 53.0153L18.6153 40.2307L22.0306 36.8153L27.9845 42.7693L31.3999 46.1846L34.8153 42.7693L69.7538 7.83071ZM69.7538 1L31.3999 39.3539L22.0306 29.9846L11.7845 40.2307L31.3999 59.8461L79.9999 11.2461L69.7538 1Z" fill="#FD5C3F"/>
<path d="M38.6462 78.5848C17.3376 78.5848 0 61.2472 0 39.9387C0 18.6301 17.3376 1.29248 38.6462 1.29248C42.0519 1.29248 45.5204 1.77314 48.9526 2.72239L47.6652 7.37925C44.6508 6.54594 41.6171 6.12325 38.6462 6.12325C19.9994 6.12325 4.83077 21.2919 4.83077 39.9387C4.83077 58.5854 19.9994 73.7541 38.6462 73.7541C57.293 73.7541 72.4616 58.5854 72.4616 39.9387C72.4616 36.9677 72.0389 33.934 71.2056 30.922L75.8624 29.6346C76.8117 33.0645 77.2924 36.533 77.2924 39.9387C77.2924 61.2472 59.9547 78.5848 38.6462 78.5848Z" fill="#042365"/>
</svg>
