<svg width="80" height="80" viewBox="0 0 80 80" fill="none" xmlns="http://www.w3.org/2000/svg">
<path d="M73.8054 7.50571C73.6824 7.21141 73.5099 6.94035 73.2954 6.70429C73.0593 6.48977 72.7882 6.31727 72.4939 6.19429C72.202 6.06984 71.8884 6.00384 71.5711 6H52.1425C51.4984 6 50.8807 6.25587 50.4252 6.71131C49.9698 7.16676 49.7139 7.78447 49.7139 8.42857C49.7139 9.07267 49.9698 9.69039 50.4252 10.1458C50.8807 10.6013 51.4984 10.8571 52.1425 10.8571H65.7182L45.5611 30.99C45.3335 31.2158 45.1528 31.4844 45.0295 31.7803C44.9062 32.0763 44.8427 32.3937 44.8427 32.7143C44.8427 33.0349 44.9062 33.3523 45.0295 33.6483C45.1528 33.9442 45.3335 34.2128 45.5611 34.4386C45.7868 34.6662 46.0554 34.8469 46.3514 34.9702C46.6473 35.0935 46.9648 35.1569 47.2854 35.1569C47.606 35.1569 47.9234 35.0935 48.2193 34.9702C48.5153 34.8469 48.7839 34.6662 49.0096 34.4386L69.1425 14.2814V27.8571C69.1425 28.5012 69.3984 29.119 69.8538 29.5744C70.3093 30.0299 70.927 30.2857 71.5711 30.2857C72.2152 30.2857 72.8329 30.0299 73.2883 29.5744C73.7438 29.119 73.9997 28.5012 73.9997 27.8571V8.42857C73.9958 8.11121 73.9298 7.79768 73.8054 7.50571Z" fill="#042365"/>
<path d="M14.2814 10.8571H27.8571C28.5012 10.8571 29.119 10.6013 29.5744 10.1458C30.0299 9.69039 30.2857 9.07267 30.2857 8.42857C30.2857 7.78447 30.0299 7.16676 29.5744 6.71131C29.119 6.25587 28.5012 6 27.8571 6H8.42857C8.11121 6.00384 7.79768 6.06984 7.50571 6.19429C7.21141 6.31727 6.94035 6.48977 6.70429 6.70429C6.48977 6.94035 6.31727 7.21141 6.19429 7.50571C6.06984 7.79768 6.00384 8.11121 6 8.42857V27.8571C6 28.5012 6.25587 29.119 6.71131 29.5744C7.16676 30.0299 7.78447 30.2857 8.42857 30.2857C9.07267 30.2857 9.69039 30.0299 10.1458 29.5744C10.6013 29.119 10.8571 28.5012 10.8571 27.8571V14.2814L30.99 34.4386C31.2158 34.6662 31.4844 34.8469 31.7803 34.9702C32.0763 35.0935 32.3937 35.1569 32.7143 35.1569C33.0349 35.1569 33.3523 35.0935 33.6483 34.9702C33.9442 34.8469 34.2128 34.6662 34.4386 34.4386C34.6662 34.2128 34.8469 33.9442 34.9702 33.6483C35.0935 33.3523 35.1569 33.0349 35.1569 32.7143C35.1569 32.3937 35.0935 32.0763 34.9702 31.7803C34.8469 31.4844 34.6662 31.2158 34.4386 30.99L14.2814 10.8571Z" fill="#D8E1EF"/>
<path d="M71.5719 49.7142C70.9278 49.7142 70.3101 49.9701 69.8546 50.4256C69.3992 50.881 69.1433 51.4987 69.1433 52.1428V65.7185L49.0104 45.5614C48.784 45.335 48.5152 45.1553 48.2193 45.0328C47.9235 44.9102 47.6064 44.8472 47.2862 44.8472C46.9659 44.8472 46.6488 44.9102 46.353 45.0328C46.0571 45.1553 45.7883 45.335 45.5619 45.5614C45.3354 45.7878 45.1558 46.0566 45.0333 46.3525C44.9107 46.6484 44.8477 46.9654 44.8477 47.2857C44.8477 47.6059 44.9107 47.923 45.0333 48.2189C45.1558 48.5147 45.3354 48.7835 45.5619 49.01L65.719 69.1428H52.1433C51.4992 69.1428 50.8815 69.3987 50.426 69.8541C49.9706 70.3096 49.7147 70.9273 49.7147 71.5714C49.7147 72.2155 49.9706 72.8332 50.426 73.2887C50.8815 73.7441 51.4992 74 52.1433 74H71.5719C71.8892 73.9961 72.2028 73.9301 72.4947 73.8057C72.7961 73.6966 73.0698 73.5226 73.2965 73.296C73.5231 73.0693 73.6971 72.7956 73.8062 72.4943C73.9306 72.2023 73.9966 71.8888 74.0005 71.5714V52.1428C74.0005 51.4987 73.7446 50.881 73.2892 50.4256C72.8337 49.9701 72.216 49.7142 71.5719 49.7142Z" fill="#FD0000"/>
<path d="M30.99 45.5614L10.8571 65.7185V52.1428C10.8571 51.4987 10.6013 50.881 10.1458 50.4256C9.69039 49.9701 9.07267 49.7142 8.42857 49.7142C7.78447 49.7142 7.16676 49.9701 6.71131 50.4256C6.25587 50.881 6 51.4987 6 52.1428V71.5714C6.00384 71.8888 6.06984 72.2023 6.19429 72.4943C6.31727 72.7886 6.48977 73.0596 6.70429 73.2957C6.94035 73.5102 7.21141 73.6827 7.50571 73.8057C7.79768 73.9301 8.11121 73.9961 8.42857 74H27.8571C28.5012 74 29.119 73.7441 29.5744 73.2887C30.0299 72.8332 30.2857 72.2155 30.2857 71.5714C30.2857 70.9273 30.0299 70.3096 29.5744 69.8541C29.119 69.3987 28.5012 69.1428 27.8571 69.1428H14.2814L34.4386 49.01C34.8959 48.5527 35.1528 47.9324 35.1528 47.2857C35.1528 46.6389 34.8959 46.0187 34.4386 45.5614C33.9813 45.1041 33.361 44.8472 32.7143 44.8472C32.0676 44.8472 31.4473 45.1041 30.99 45.5614Z" fill="#042365"/>
</svg>
