<svg width="80" height="80" viewBox="0 0 80 80" fill="none" xmlns="http://www.w3.org/2000/svg">
<path d="M45.5 35.5H35.5C34.837 35.5 34.2011 35.2366 33.7322 34.7678C33.2634 34.2989 33 33.663 33 33V28C33 26.0109 33.7902 24.1032 35.1967 22.6967C36.6032 21.2902 38.5109 20.5 40.5 20.5C42.4891 20.5 44.3968 21.2902 45.8033 22.6967C47.2098 24.1032 48 26.0109 48 28V33C48 33.663 47.7366 34.2989 47.2678 34.7678C46.7989 35.2366 46.163 35.5 45.5 35.5ZM38 30.5H43V28C43 27.337 42.7366 26.7011 42.2678 26.2322C41.7989 25.7634 41.163 25.5 40.5 25.5C39.837 25.5 39.2011 25.7634 38.7322 26.2322C38.2634 26.7011 38 27.337 38 28V30.5Z" fill="#FD0000"/>
<path d="M48 30.5H33C28.8579 30.5 25.5 33.8579 25.5 38V53C25.5 57.1421 28.8579 60.5 33 60.5H48C52.1421 60.5 55.5 57.1421 55.5 53V38C55.5 33.8579 52.1421 30.5 48 30.5Z" fill="#042365"/>
<path d="M45.5 43C45.5053 42.1211 45.2788 41.2563 44.8433 40.4928C44.4078 39.7293 43.7788 39.0941 43.0196 38.6512C42.2604 38.2083 41.3978 37.9733 40.5189 37.97C39.6399 37.9667 38.7757 38.1951 38.0131 38.6323C37.2506 39.0695 36.6168 39.7 36.1756 40.4602C35.7344 41.2203 35.5014 42.0834 35.5001 42.9624C35.4987 43.8413 35.7291 44.7051 36.168 45.4666C36.6069 46.2282 37.2388 46.8605 38 47.3V50.5C38 51.1631 38.2634 51.799 38.7322 52.2678C39.201 52.7366 39.8369 53 40.5 53C41.163 53 41.7989 52.7366 42.2677 52.2678C42.7366 51.799 43 51.1631 43 50.5V47.3C43.7557 46.8638 44.384 46.2373 44.8226 45.483C45.2612 44.7286 45.4947 43.8726 45.5 43Z" fill="#FD0000"/>
<path d="M40.5 18C39.837 18 39.2011 17.7366 38.7322 17.2678C38.2634 16.7989 38 16.163 38 15.5V10.5C38 9.83696 38.2634 9.20107 38.7322 8.73223C39.2011 8.26339 39.837 8 40.5 8C41.163 8 41.7989 8.26339 42.2678 8.73223C42.7366 9.20107 43 9.83696 43 10.5V15.5C43 16.163 42.7366 16.7989 42.2678 17.2678C41.7989 17.7366 41.163 18 40.5 18Z" fill="#D8E1EF"/>
<path d="M53.0002 30.5C52.6711 30.5019 52.345 30.4388 52.0404 30.3144C51.7358 30.19 51.4588 30.0067 51.2252 29.775C50.9908 29.5426 50.8048 29.2661 50.6779 28.9614C50.551 28.6568 50.4857 28.33 50.4857 28C50.4857 27.67 50.551 27.3432 50.6779 27.0386C50.8048 26.7339 50.9908 26.4574 51.2252 26.225L60.5002 16.975V13C60.5002 12.337 60.7635 11.7011 61.2324 11.2322C61.7012 10.7634 62.3371 10.5 63.0002 10.5C63.6632 10.5 64.2991 10.7634 64.7679 11.2322C65.2368 11.7011 65.5002 12.337 65.5002 13V18C65.5021 18.329 65.439 18.6552 65.3146 18.9598C65.1902 19.2644 65.0069 19.5414 64.7752 19.775L54.7752 29.775C54.5416 30.0067 54.2645 30.19 53.9599 30.3144C53.6553 30.4388 53.3292 30.5019 53.0002 30.5Z" fill="#D8E1EF"/>
<path d="M28 30.5C27.671 30.5019 27.3449 30.4388 27.0403 30.3144C26.7357 30.19 26.4586 30.0067 26.225 29.775L16.225 19.775C15.9933 19.5414 15.81 19.2644 15.6856 18.9598C15.5612 18.6552 15.4981 18.329 15.5 18V13C15.5 12.337 15.7634 11.7011 16.2323 11.2322C16.7011 10.7634 17.337 10.5 18 10.5C18.6631 10.5 19.299 10.7634 19.7678 11.2322C20.2367 11.7011 20.5 12.337 20.5 13V16.975L29.775 26.225C30.0094 26.4574 30.1954 26.7339 30.3223 27.0386C30.4492 27.3432 30.5145 27.67 30.5145 28C30.5145 28.33 30.4492 28.6568 30.3223 28.9614C30.1954 29.2661 30.0094 29.5426 29.775 29.775C29.5414 30.0067 29.2644 30.19 28.9598 30.3144C28.6552 30.4388 28.3291 30.5019 28 30.5Z" fill="#D8E1EF"/>
<path d="M63.0003 70.5C62.3372 70.5 61.7014 70.2366 61.2325 69.7677C60.7637 69.2989 60.5003 68.663 60.5003 68V64.025L56.2253 59.775C55.7545 59.3042 55.4901 58.6657 55.4901 58C55.4901 57.3342 55.7545 56.6957 56.2253 56.225C56.696 55.7542 57.3345 55.4897 58.0003 55.4897C58.666 55.4897 59.3045 55.7542 59.7753 56.225L64.7753 61.225C65.007 61.4586 65.1903 61.7356 65.3147 62.0402C65.4391 62.3448 65.5022 62.671 65.5003 63V68C65.5003 68.663 65.2369 69.2989 64.768 69.7677C64.2992 70.2366 63.6633 70.5 63.0003 70.5Z" fill="#D8E1EF"/>
<path d="M18 70.5C17.337 70.5 16.7011 70.2366 16.2323 69.7677C15.7634 69.2989 15.5 68.663 15.5 68V63C15.4981 62.671 15.5612 62.3448 15.6856 62.0402C15.81 61.7356 15.9933 61.4586 16.225 61.225L21.225 56.225C21.4581 55.9919 21.7349 55.807 22.0394 55.6808C22.344 55.5547 22.6704 55.4897 23 55.4897C23.3297 55.4897 23.6561 55.5547 23.9607 55.6808C24.2652 55.807 24.5419 55.9919 24.775 56.225C25.0081 56.4581 25.193 56.7348 25.3192 57.0394C25.4453 57.3439 25.5103 57.6703 25.5103 58C25.5103 58.3296 25.4453 58.656 25.3192 58.9606C25.193 59.2651 25.0081 59.5419 24.775 59.775L20.5 64.025V68C20.5 68.663 20.2367 69.2989 19.7678 69.7677C19.299 70.2366 18.6631 70.5 18 70.5Z" fill="#D8E1EF"/>
<path d="M40.5 73C39.837 73 39.2011 72.7366 38.7322 72.2678C38.2634 71.7989 38 71.163 38 70.5V65.5C38 64.837 38.2634 64.2011 38.7322 63.7322C39.2011 63.2634 39.837 63 40.5 63C41.163 63 41.7989 63.2634 42.2678 63.7322C42.7366 64.2011 43 64.837 43 65.5V70.5C43 71.163 42.7366 71.7989 42.2678 72.2678C41.7989 72.7366 41.163 73 40.5 73Z" fill="#D8E1EF"/>
<path d="M70.5 43H60.5C59.837 43 59.2011 42.7366 58.7322 42.2678C58.2634 41.7989 58 41.163 58 40.5C58 39.837 58.2634 39.2011 58.7322 38.7322C59.2011 38.2634 59.837 38 60.5 38H70.5C71.163 38 71.7989 38.2634 72.2678 38.7322C72.7366 39.2011 73 39.837 73 40.5C73 41.163 72.7366 41.7989 72.2678 42.2678C71.7989 42.7366 71.163 43 70.5 43Z" fill="#D8E1EF"/>
<path d="M20.5 43H10.5C9.83696 43 9.20107 42.7366 8.73223 42.2678C8.26339 41.7989 8 41.163 8 40.5C8 39.837 8.26339 39.2011 8.73223 38.7322C9.20107 38.2634 9.83696 38 10.5 38H20.5C21.163 38 21.7989 38.2634 22.2678 38.7322C22.7366 39.2011 23 39.837 23 40.5C23 41.163 22.7366 41.7989 22.2678 42.2678C21.7989 42.7366 21.163 43 20.5 43Z" fill="#D8E1EF"/>
<path d="M62.9998 15.5C61.8428 15.5048 60.7199 15.1083 59.8225 14.3779C58.9251 13.6475 58.3089 12.6285 58.0787 11.4946C57.8485 10.3607 58.0188 9.18205 58.5603 8.15959C59.1019 7.13714 59.9814 6.33415 61.0487 5.88753C62.1161 5.4409 63.3053 5.37827 64.4137 5.71032C65.5221 6.04237 66.481 6.74855 67.1269 7.70847C67.7729 8.66839 68.066 9.82264 67.9562 10.9745C67.8464 12.1263 67.3405 13.2044 66.5248 14.025C65.5915 14.9639 64.3238 15.4944 62.9998 15.5Z" fill="#D8E1EF"/>
<path d="M17.9998 15.5C16.8428 15.5048 15.7199 15.1083 14.8225 14.3779C13.9252 13.6475 13.3089 12.6285 13.0787 11.4946C12.8485 10.3607 13.0188 9.18205 13.5603 8.15959C14.1019 7.13714 14.9814 6.33415 16.0487 5.88753C17.1161 5.4409 18.3053 5.37827 19.4137 5.71032C20.5221 6.04237 21.481 6.74855 22.1269 7.70847C22.7729 8.66839 23.066 9.82264 22.9562 10.9745C22.8464 12.1263 22.3406 13.2044 21.5248 14.025C20.5915 14.9639 19.3238 15.4944 17.9998 15.5Z" fill="#D8E1EF"/>
<path d="M62.9998 75.5C61.8428 75.5048 60.7199 75.1083 59.8225 74.3779C58.9251 73.6475 58.3089 72.6285 58.0787 71.4946C57.8485 70.3607 58.0188 69.1821 58.5603 68.1596C59.1019 67.1371 59.9814 66.3342 61.0487 65.8875C62.1161 65.4409 63.3053 65.3783 64.4137 65.7103C65.5221 66.0424 66.481 66.7485 67.1269 67.7085C67.7729 68.6684 68.066 69.8226 67.9562 70.9745C67.8464 72.1263 67.3405 73.2044 66.5248 74.025C65.5915 74.9639 64.3238 75.4944 62.9998 75.5Z" fill="#D8E1EF"/>
<path d="M17.9998 75.5C16.8428 75.5048 15.7199 75.1083 14.8225 74.3779C13.9252 73.6475 13.3089 72.6285 13.0787 71.4946C12.8485 70.3607 13.0188 69.1821 13.5603 68.1596C14.1019 67.1371 14.9814 66.3342 16.0487 65.8875C17.1161 65.4409 18.3053 65.3783 19.4137 65.7103C20.5221 66.0424 21.481 66.7485 22.1269 67.7085C22.7729 68.6684 23.066 69.8226 22.9562 70.9745C22.8464 72.1263 22.3406 73.2044 21.5248 74.025C20.5915 74.9639 19.3238 75.4944 17.9998 75.5Z" fill="#D8E1EF"/>
<path d="M73 45.5C75.7614 45.5 78 43.2614 78 40.5C78 37.7386 75.7614 35.5 73 35.5C70.2386 35.5 68 37.7386 68 40.5C68 43.2614 70.2386 45.5 73 45.5Z" fill="#D8E1EF"/>
<path d="M8 45.5C10.7614 45.5 13 43.2614 13 40.5C13 37.7386 10.7614 35.5 8 35.5C5.23858 35.5 3 37.7386 3 40.5C3 43.2614 5.23858 45.5 8 45.5Z" fill="#D8E1EF"/>
<path d="M40.5 78C39.5111 78 38.5444 77.7068 37.7222 77.1574C36.8999 76.608 36.259 75.8271 35.8806 74.9134C35.5022 73.9998 35.4031 72.9945 35.5961 72.0246C35.789 71.0547 36.2652 70.1637 36.9645 69.4645C37.6637 68.7652 38.5546 68.289 39.5246 68.0961C40.4945 67.9031 41.4998 68.0022 42.4134 68.3806C43.3271 68.759 44.1079 69.3999 44.6573 70.2222C45.2068 71.0444 45.5 72.0111 45.5 73C45.5 74.3261 44.9732 75.5979 44.0355 76.5355C43.0979 77.4732 41.8261 78 40.5 78Z" fill="#D8E1EF"/>
<path d="M40.5 13C39.5111 13 38.5444 12.7068 37.7222 12.1574C36.8999 11.6079 36.259 10.827 35.8806 9.91342C35.5022 8.99979 35.4031 7.99446 35.5961 7.02455C35.789 6.05465 36.2652 5.16373 36.9645 4.46447C37.6637 3.76521 38.5546 3.289 39.5246 3.09608C40.4945 2.90315 41.4998 3.00217 42.4134 3.3806C43.3271 3.75904 44.1079 4.39991 44.6573 5.22215C45.2068 6.0444 45.5 7.0111 45.5 8C45.5 9.32609 44.9732 10.5979 44.0355 11.5355C43.0979 12.4732 41.8261 13 40.5 13Z" fill="#D8E1EF"/>
</svg>
