<svg width="80" height="80" viewBox="0 0 80 80" fill="none" xmlns="http://www.w3.org/2000/svg">
<path d="M12.5 65C11.837 65 11.2011 64.7366 10.7322 64.2678C10.2634 63.7989 10 63.163 10 62.5V45C10 44.337 10.2634 43.7011 10.7322 43.2322C11.2011 42.7634 11.837 42.5 12.5 42.5C13.163 42.5 13.7989 42.7634 14.2678 43.2322C14.7366 43.7011 15 44.337 15 45V62.5C15 63.163 14.7366 63.7989 14.2678 64.2678C13.7989 64.7366 13.163 65 12.5 65Z" fill="#D8E1EF"/>
<path d="M16.2499 66.25C15.9209 66.2519 15.5947 66.1888 15.2901 66.0644C14.9855 65.94 14.7085 65.7567 14.4749 65.525C14.2406 65.2926 14.0546 65.0161 13.9277 64.7114C13.8008 64.4068 13.7354 64.08 13.7354 63.75C13.7354 63.4199 13.8008 63.0932 13.9277 62.7885C14.0546 62.4839 14.2406 62.2074 14.4749 61.975L34.4749 41.975C34.708 41.7419 34.9847 41.557 35.2893 41.4308C35.5938 41.3047 35.9203 41.2397 36.2499 41.2397C36.5796 41.2397 36.906 41.3047 37.2105 41.4308C37.5151 41.557 37.7918 41.7419 38.0249 41.975C38.258 42.2081 38.4429 42.4848 38.5691 42.7894C38.6952 43.0939 38.7601 43.4203 38.7601 43.75C38.7601 44.0796 38.6952 44.406 38.5691 44.7106C38.4429 45.0151 38.258 45.2919 38.0249 45.525L18.0249 65.525C17.7913 65.7567 17.5143 65.94 17.2097 66.0644C16.9051 66.1888 16.5789 66.2519 16.2499 66.25Z" fill="#D8E1EF"/>
<path d="M36.4751 38.975C36.1443 38.9736 35.8171 38.9066 35.5124 38.7779C35.2077 38.6491 34.9316 38.4612 34.7001 38.225L14.2751 17.8C13.8655 17.3217 13.6515 16.7065 13.6758 16.0773C13.7001 15.4481 13.9609 14.8513 14.4062 14.4061C14.8514 13.9608 15.4483 13.7 16.0775 13.6757C16.7067 13.6514 17.3218 13.8654 17.8001 14.275L38.2251 34.7C38.6907 35.1684 38.9521 35.802 38.9521 36.4625C38.9521 37.1229 38.6907 37.7566 38.2251 38.225C37.7635 38.696 37.1345 38.9656 36.4751 38.975Z" fill="#D8E1EF"/>
<path d="M35 15H17.5C16.837 15 16.2011 14.7366 15.7322 14.2678C15.2634 13.7989 15 13.163 15 12.5C15 11.837 15.2634 11.2011 15.7322 10.7322C16.2011 10.2634 16.837 10 17.5 10H35C35.663 10 36.2989 10.2634 36.7678 10.7322C37.2366 11.2011 37.5 11.837 37.5 12.5C37.5 13.163 37.2366 13.7989 36.7678 14.2678C36.2989 14.7366 35.663 15 35 15Z" fill="#D8E1EF"/>
<path d="M62.5 15H45C44.337 15 43.7011 14.7366 43.2322 14.2678C42.7634 13.7989 42.5 13.163 42.5 12.5C42.5 11.837 42.7634 11.2011 43.2322 10.7322C43.7011 10.2634 44.337 10 45 10H62.5C63.163 10 63.7989 10.2634 64.2678 10.7322C64.7366 11.2011 65 11.837 65 12.5C65 13.163 64.7366 13.7989 64.2678 14.2678C63.7989 14.7366 63.163 15 62.5 15Z" fill="#D8E1EF"/>
<path d="M62.5 70H45C44.337 70 43.7011 69.7366 43.2322 69.2678C42.7634 68.7989 42.5 68.163 42.5 67.5C42.5 66.837 42.7634 66.2011 43.2322 65.7322C43.7011 65.2634 44.337 65 45 65H62.5C63.163 65 63.7989 65.2634 64.2678 65.7322C64.7366 66.2011 65 66.837 65 67.5C65 68.163 64.7366 68.7989 64.2678 69.2678C63.7989 69.7366 63.163 70 62.5 70Z" fill="#D8E1EF"/>
<path d="M67.5 37.5C66.837 37.5 66.2011 37.2366 65.7322 36.7678C65.2634 36.2989 65 35.663 65 35V17.5C65 16.837 65.2634 16.2011 65.7322 15.7322C66.2011 15.2634 66.837 15 67.5 15C68.163 15 68.7989 15.2634 69.2678 15.7322C69.7366 16.2011 70 16.837 70 17.5V35C70 35.663 69.7366 36.2989 69.2678 36.7678C68.7989 37.2366 68.163 37.5 67.5 37.5Z" fill="#D8E1EF"/>
<path d="M67.5 65C66.837 65 66.2011 64.7366 65.7322 64.2678C65.2634 63.7989 65 63.163 65 62.5V45C65 44.337 65.2634 43.7011 65.7322 43.2322C66.2011 42.7634 66.837 42.5 67.5 42.5C68.163 42.5 68.7989 42.7634 69.2678 43.2322C69.7366 43.7011 70 44.337 70 45V62.5C70 63.163 69.7366 63.7989 69.2678 64.2678C68.7989 64.7366 68.163 65 67.5 65Z" fill="#D8E1EF"/>
<path d="M40 20C44.1421 20 47.5 16.6421 47.5 12.5C47.5 8.35786 44.1421 5 40 5C35.8579 5 32.5 8.35786 32.5 12.5C32.5 16.6421 35.8579 20 40 20Z" fill="#042365"/>
<path d="M40 47.5C44.1421 47.5 47.5 44.1421 47.5 40C47.5 35.8579 44.1421 32.5 40 32.5C35.8579 32.5 32.5 35.8579 32.5 40C32.5 44.1421 35.8579 47.5 40 47.5Z" fill="#FD0000"/>
<path d="M40 75C44.1421 75 47.5 71.6421 47.5 67.5C47.5 63.3579 44.1421 60 40 60C35.8579 60 32.5 63.3579 32.5 67.5C32.5 71.6421 35.8579 75 40 75Z" fill="#042365"/>
<path d="M12.5 20C16.6421 20 20 16.6421 20 12.5C20 8.35786 16.6421 5 12.5 5C8.35786 5 5 8.35786 5 12.5C5 16.6421 8.35786 20 12.5 20Z" fill="#042365"/>
<path d="M12.5 47.5C16.6421 47.5 20 44.1421 20 40C20 35.8579 16.6421 32.5 12.5 32.5C8.35786 32.5 5 35.8579 5 40C5 44.1421 8.35786 47.5 12.5 47.5Z" fill="#042365"/>
<path d="M12.5 75C16.6421 75 20 71.6421 20 67.5C20 63.3579 16.6421 60 12.5 60C8.35786 60 5 63.3579 5 67.5C5 71.6421 8.35786 75 12.5 75Z" fill="#FD0000"/>
<path d="M67.5 20C71.6421 20 75 16.6421 75 12.5C75 8.35786 71.6421 5 67.5 5C63.3579 5 60 8.35786 60 12.5C60 16.6421 63.3579 20 67.5 20Z" fill="#042365"/>
<path d="M67.5 47.5C71.6421 47.5 75 44.1421 75 40C75 35.8579 71.6421 32.5 67.5 32.5C63.3579 32.5 60 35.8579 60 40C60 44.1421 63.3579 47.5 67.5 47.5Z" fill="#042365"/>
<path d="M67.5 75C71.6421 75 75 71.6421 75 67.5C75 63.3579 71.6421 60 67.5 60C63.3579 60 60 63.3579 60 67.5C60 71.6421 63.3579 75 67.5 75Z" fill="#042365"/>
</svg>
